%TF.GenerationSoftware,KiCad,Pcbnew,9.0.4*%
%TF.CreationDate,2025-10-16T04:39:49+02:00*%
%TF.ProjectId,Front,46726f6e-742e-46b6-9963-61645f706362,1.0*%
%TF.SameCoordinates,PX75c75e0PY4916f00*%
%TF.FileFunction,Legend,Top*%
%TF.FilePolarity,Positive*%
%FSLAX46Y46*%
G04 Gerber Fmt 4.6, Leading zero omitted, Abs format (unit mm)*
G04 Created by KiCad (PCBNEW 9.0.4) date 2025-10-16 04:39:49*
%MOMM*%
%LPD*%
G01*
G04 APERTURE LIST*
G04 Aperture macros list*
%AMRoundRect*
0 Rectangle with rounded corners*
0 $1 Rounding radius*
0 $2 $3 $4 $5 $6 $7 $8 $9 X,Y pos of 4 corners*
0 Add a 4 corners polygon primitive as box body*
4,1,4,$2,$3,$4,$5,$6,$7,$8,$9,$2,$3,0*
0 Add four circle primitives for the rounded corners*
1,1,$1+$1,$2,$3*
1,1,$1+$1,$4,$5*
1,1,$1+$1,$6,$7*
1,1,$1+$1,$8,$9*
0 Add four rect primitives between the rounded corners*
20,1,$1+$1,$2,$3,$4,$5,0*
20,1,$1+$1,$4,$5,$6,$7,0*
20,1,$1+$1,$6,$7,$8,$9,0*
20,1,$1+$1,$8,$9,$2,$3,0*%
G04 Aperture macros list end*
%ADD10C,0.100000*%
%ADD11C,0.150000*%
%ADD12C,0.300000*%
%ADD13C,0.400000*%
%ADD14C,0.127000*%
%ADD15C,0.152400*%
%ADD16RoundRect,0.102000X-0.690000X0.520000X-0.690000X-0.520000X0.690000X-0.520000X0.690000X0.520000X0*%
%ADD17R,1.701800X0.812800*%
%ADD18C,2.150000*%
%ADD19RoundRect,0.250000X0.825000X0.825000X-0.825000X0.825000X-0.825000X-0.825000X0.825000X-0.825000X0*%
G04 APERTURE END LIST*
D10*
D11*
X53502200Y-89367200D02*
X161502200Y-89367200D01*
X161502200Y-121367200D01*
X53502200Y-121367200D01*
X53502200Y-89367200D01*
D10*
D11*
X-113500000Y66640000D02*
X163502200Y66640000D01*
X163502200Y-123367200D01*
X-113500000Y-123367200D01*
X-113500000Y66640000D01*
D10*
D11*
X-111500000Y64640000D02*
X161502200Y64640000D01*
X161502200Y-121367200D01*
X-111500000Y-121367200D01*
X-111500000Y64640000D01*
D10*
D11*
X-63500000Y64640000D02*
X-63500000Y66640000D01*
D10*
D11*
X-13500000Y64640000D02*
X-13500000Y66640000D01*
D10*
D11*
X36500000Y64640000D02*
X36500000Y66640000D01*
D10*
D11*
X86500000Y64640000D02*
X86500000Y66640000D01*
D10*
D11*
X136500000Y64640000D02*
X136500000Y66640000D01*
D10*
D11*
X-87410840Y65046396D02*
X-88153697Y65046396D01*
X-87782269Y65046396D02*
X-87782269Y66346396D01*
X-87782269Y66346396D02*
X-87906078Y66160681D01*
X-87906078Y66160681D02*
X-88029888Y66036872D01*
X-88029888Y66036872D02*
X-88153697Y65974967D01*
D10*
D11*
X-38153697Y66222586D02*
X-38091793Y66284491D01*
X-38091793Y66284491D02*
X-37967983Y66346396D01*
X-37967983Y66346396D02*
X-37658459Y66346396D01*
X-37658459Y66346396D02*
X-37534650Y66284491D01*
X-37534650Y66284491D02*
X-37472745Y66222586D01*
X-37472745Y66222586D02*
X-37410840Y66098777D01*
X-37410840Y66098777D02*
X-37410840Y65974967D01*
X-37410840Y65974967D02*
X-37472745Y65789253D01*
X-37472745Y65789253D02*
X-38215602Y65046396D01*
X-38215602Y65046396D02*
X-37410840Y65046396D01*
D10*
D11*
X11784398Y66346396D02*
X12589160Y66346396D01*
X12589160Y66346396D02*
X12155826Y65851158D01*
X12155826Y65851158D02*
X12341541Y65851158D01*
X12341541Y65851158D02*
X12465350Y65789253D01*
X12465350Y65789253D02*
X12527255Y65727348D01*
X12527255Y65727348D02*
X12589160Y65603539D01*
X12589160Y65603539D02*
X12589160Y65294015D01*
X12589160Y65294015D02*
X12527255Y65170205D01*
X12527255Y65170205D02*
X12465350Y65108300D01*
X12465350Y65108300D02*
X12341541Y65046396D01*
X12341541Y65046396D02*
X11970112Y65046396D01*
X11970112Y65046396D02*
X11846303Y65108300D01*
X11846303Y65108300D02*
X11784398Y65170205D01*
D10*
D11*
X62465350Y65913062D02*
X62465350Y65046396D01*
X62155826Y66408300D02*
X61846303Y65479729D01*
X61846303Y65479729D02*
X62651064Y65479729D01*
D10*
D11*
X112527255Y66346396D02*
X111908207Y66346396D01*
X111908207Y66346396D02*
X111846303Y65727348D01*
X111846303Y65727348D02*
X111908207Y65789253D01*
X111908207Y65789253D02*
X112032017Y65851158D01*
X112032017Y65851158D02*
X112341541Y65851158D01*
X112341541Y65851158D02*
X112465350Y65789253D01*
X112465350Y65789253D02*
X112527255Y65727348D01*
X112527255Y65727348D02*
X112589160Y65603539D01*
X112589160Y65603539D02*
X112589160Y65294015D01*
X112589160Y65294015D02*
X112527255Y65170205D01*
X112527255Y65170205D02*
X112465350Y65108300D01*
X112465350Y65108300D02*
X112341541Y65046396D01*
X112341541Y65046396D02*
X112032017Y65046396D01*
X112032017Y65046396D02*
X111908207Y65108300D01*
X111908207Y65108300D02*
X111846303Y65170205D01*
D10*
D11*
X162465350Y66346396D02*
X162217731Y66346396D01*
X162217731Y66346396D02*
X162093922Y66284491D01*
X162093922Y66284491D02*
X162032017Y66222586D01*
X162032017Y66222586D02*
X161908207Y66036872D01*
X161908207Y66036872D02*
X161846303Y65789253D01*
X161846303Y65789253D02*
X161846303Y65294015D01*
X161846303Y65294015D02*
X161908207Y65170205D01*
X161908207Y65170205D02*
X161970112Y65108300D01*
X161970112Y65108300D02*
X162093922Y65046396D01*
X162093922Y65046396D02*
X162341541Y65046396D01*
X162341541Y65046396D02*
X162465350Y65108300D01*
X162465350Y65108300D02*
X162527255Y65170205D01*
X162527255Y65170205D02*
X162589160Y65294015D01*
X162589160Y65294015D02*
X162589160Y65603539D01*
X162589160Y65603539D02*
X162527255Y65727348D01*
X162527255Y65727348D02*
X162465350Y65789253D01*
X162465350Y65789253D02*
X162341541Y65851158D01*
X162341541Y65851158D02*
X162093922Y65851158D01*
X162093922Y65851158D02*
X161970112Y65789253D01*
X161970112Y65789253D02*
X161908207Y65727348D01*
X161908207Y65727348D02*
X161846303Y65603539D01*
D10*
D11*
X-63500000Y-121367200D02*
X-63500000Y-123367200D01*
D10*
D11*
X-13500000Y-121367200D02*
X-13500000Y-123367200D01*
D10*
D11*
X36500000Y-121367200D02*
X36500000Y-123367200D01*
D10*
D11*
X86500000Y-121367200D02*
X86500000Y-123367200D01*
D10*
D11*
X136500000Y-121367200D02*
X136500000Y-123367200D01*
D10*
D11*
X-87410840Y-122960804D02*
X-88153697Y-122960804D01*
X-87782269Y-122960804D02*
X-87782269Y-121660804D01*
X-87782269Y-121660804D02*
X-87906078Y-121846519D01*
X-87906078Y-121846519D02*
X-88029888Y-121970328D01*
X-88029888Y-121970328D02*
X-88153697Y-122032233D01*
D10*
D11*
X-38153697Y-121784614D02*
X-38091793Y-121722709D01*
X-38091793Y-121722709D02*
X-37967983Y-121660804D01*
X-37967983Y-121660804D02*
X-37658459Y-121660804D01*
X-37658459Y-121660804D02*
X-37534650Y-121722709D01*
X-37534650Y-121722709D02*
X-37472745Y-121784614D01*
X-37472745Y-121784614D02*
X-37410840Y-121908423D01*
X-37410840Y-121908423D02*
X-37410840Y-122032233D01*
X-37410840Y-122032233D02*
X-37472745Y-122217947D01*
X-37472745Y-122217947D02*
X-38215602Y-122960804D01*
X-38215602Y-122960804D02*
X-37410840Y-122960804D01*
D10*
D11*
X11784398Y-121660804D02*
X12589160Y-121660804D01*
X12589160Y-121660804D02*
X12155826Y-122156042D01*
X12155826Y-122156042D02*
X12341541Y-122156042D01*
X12341541Y-122156042D02*
X12465350Y-122217947D01*
X12465350Y-122217947D02*
X12527255Y-122279852D01*
X12527255Y-122279852D02*
X12589160Y-122403661D01*
X12589160Y-122403661D02*
X12589160Y-122713185D01*
X12589160Y-122713185D02*
X12527255Y-122836995D01*
X12527255Y-122836995D02*
X12465350Y-122898900D01*
X12465350Y-122898900D02*
X12341541Y-122960804D01*
X12341541Y-122960804D02*
X11970112Y-122960804D01*
X11970112Y-122960804D02*
X11846303Y-122898900D01*
X11846303Y-122898900D02*
X11784398Y-122836995D01*
D10*
D11*
X62465350Y-122094138D02*
X62465350Y-122960804D01*
X62155826Y-121598900D02*
X61846303Y-122527471D01*
X61846303Y-122527471D02*
X62651064Y-122527471D01*
D10*
D11*
X112527255Y-121660804D02*
X111908207Y-121660804D01*
X111908207Y-121660804D02*
X111846303Y-122279852D01*
X111846303Y-122279852D02*
X111908207Y-122217947D01*
X111908207Y-122217947D02*
X112032017Y-122156042D01*
X112032017Y-122156042D02*
X112341541Y-122156042D01*
X112341541Y-122156042D02*
X112465350Y-122217947D01*
X112465350Y-122217947D02*
X112527255Y-122279852D01*
X112527255Y-122279852D02*
X112589160Y-122403661D01*
X112589160Y-122403661D02*
X112589160Y-122713185D01*
X112589160Y-122713185D02*
X112527255Y-122836995D01*
X112527255Y-122836995D02*
X112465350Y-122898900D01*
X112465350Y-122898900D02*
X112341541Y-122960804D01*
X112341541Y-122960804D02*
X112032017Y-122960804D01*
X112032017Y-122960804D02*
X111908207Y-122898900D01*
X111908207Y-122898900D02*
X111846303Y-122836995D01*
D10*
D11*
X162465350Y-121660804D02*
X162217731Y-121660804D01*
X162217731Y-121660804D02*
X162093922Y-121722709D01*
X162093922Y-121722709D02*
X162032017Y-121784614D01*
X162032017Y-121784614D02*
X161908207Y-121970328D01*
X161908207Y-121970328D02*
X161846303Y-122217947D01*
X161846303Y-122217947D02*
X161846303Y-122713185D01*
X161846303Y-122713185D02*
X161908207Y-122836995D01*
X161908207Y-122836995D02*
X161970112Y-122898900D01*
X161970112Y-122898900D02*
X162093922Y-122960804D01*
X162093922Y-122960804D02*
X162341541Y-122960804D01*
X162341541Y-122960804D02*
X162465350Y-122898900D01*
X162465350Y-122898900D02*
X162527255Y-122836995D01*
X162527255Y-122836995D02*
X162589160Y-122713185D01*
X162589160Y-122713185D02*
X162589160Y-122403661D01*
X162589160Y-122403661D02*
X162527255Y-122279852D01*
X162527255Y-122279852D02*
X162465350Y-122217947D01*
X162465350Y-122217947D02*
X162341541Y-122156042D01*
X162341541Y-122156042D02*
X162093922Y-122156042D01*
X162093922Y-122156042D02*
X161970112Y-122217947D01*
X161970112Y-122217947D02*
X161908207Y-122279852D01*
X161908207Y-122279852D02*
X161846303Y-122403661D01*
D10*
D11*
X-113500000Y16640000D02*
X-111500000Y16640000D01*
D10*
D11*
X-113500000Y-33360000D02*
X-111500000Y-33360000D01*
D10*
D11*
X-113500000Y-83360000D02*
X-111500000Y-83360000D01*
D10*
D11*
X-112809524Y41417824D02*
X-112190477Y41417824D01*
X-112933334Y41046396D02*
X-112500001Y42346396D01*
X-112500001Y42346396D02*
X-112066667Y41046396D01*
D10*
D11*
X-112407143Y-8272652D02*
X-112221429Y-8334557D01*
X-112221429Y-8334557D02*
X-112159524Y-8396461D01*
X-112159524Y-8396461D02*
X-112097620Y-8520271D01*
X-112097620Y-8520271D02*
X-112097620Y-8705985D01*
X-112097620Y-8705985D02*
X-112159524Y-8829795D01*
X-112159524Y-8829795D02*
X-112221429Y-8891700D01*
X-112221429Y-8891700D02*
X-112345239Y-8953604D01*
X-112345239Y-8953604D02*
X-112840477Y-8953604D01*
X-112840477Y-8953604D02*
X-112840477Y-7653604D01*
X-112840477Y-7653604D02*
X-112407143Y-7653604D01*
X-112407143Y-7653604D02*
X-112283334Y-7715509D01*
X-112283334Y-7715509D02*
X-112221429Y-7777414D01*
X-112221429Y-7777414D02*
X-112159524Y-7901223D01*
X-112159524Y-7901223D02*
X-112159524Y-8025033D01*
X-112159524Y-8025033D02*
X-112221429Y-8148842D01*
X-112221429Y-8148842D02*
X-112283334Y-8210747D01*
X-112283334Y-8210747D02*
X-112407143Y-8272652D01*
X-112407143Y-8272652D02*
X-112840477Y-8272652D01*
D10*
D11*
X-112097620Y-58829795D02*
X-112159524Y-58891700D01*
X-112159524Y-58891700D02*
X-112345239Y-58953604D01*
X-112345239Y-58953604D02*
X-112469048Y-58953604D01*
X-112469048Y-58953604D02*
X-112654762Y-58891700D01*
X-112654762Y-58891700D02*
X-112778572Y-58767890D01*
X-112778572Y-58767890D02*
X-112840477Y-58644080D01*
X-112840477Y-58644080D02*
X-112902381Y-58396461D01*
X-112902381Y-58396461D02*
X-112902381Y-58210747D01*
X-112902381Y-58210747D02*
X-112840477Y-57963128D01*
X-112840477Y-57963128D02*
X-112778572Y-57839319D01*
X-112778572Y-57839319D02*
X-112654762Y-57715509D01*
X-112654762Y-57715509D02*
X-112469048Y-57653604D01*
X-112469048Y-57653604D02*
X-112345239Y-57653604D01*
X-112345239Y-57653604D02*
X-112159524Y-57715509D01*
X-112159524Y-57715509D02*
X-112097620Y-57777414D01*
D10*
D11*
X-112840477Y-108953604D02*
X-112840477Y-107653604D01*
X-112840477Y-107653604D02*
X-112530953Y-107653604D01*
X-112530953Y-107653604D02*
X-112345239Y-107715509D01*
X-112345239Y-107715509D02*
X-112221429Y-107839319D01*
X-112221429Y-107839319D02*
X-112159524Y-107963128D01*
X-112159524Y-107963128D02*
X-112097620Y-108210747D01*
X-112097620Y-108210747D02*
X-112097620Y-108396461D01*
X-112097620Y-108396461D02*
X-112159524Y-108644080D01*
X-112159524Y-108644080D02*
X-112221429Y-108767890D01*
X-112221429Y-108767890D02*
X-112345239Y-108891700D01*
X-112345239Y-108891700D02*
X-112530953Y-108953604D01*
X-112530953Y-108953604D02*
X-112840477Y-108953604D01*
D10*
D11*
X163502200Y16640000D02*
X161502200Y16640000D01*
D10*
D11*
X163502200Y-33360000D02*
X161502200Y-33360000D01*
D10*
D11*
X163502200Y-83360000D02*
X161502200Y-83360000D01*
D10*
D11*
X162192676Y41417824D02*
X162811723Y41417824D01*
X162068866Y41046396D02*
X162502199Y42346396D01*
X162502199Y42346396D02*
X162935533Y41046396D01*
D10*
D11*
X162595057Y-8272652D02*
X162780771Y-8334557D01*
X162780771Y-8334557D02*
X162842676Y-8396461D01*
X162842676Y-8396461D02*
X162904580Y-8520271D01*
X162904580Y-8520271D02*
X162904580Y-8705985D01*
X162904580Y-8705985D02*
X162842676Y-8829795D01*
X162842676Y-8829795D02*
X162780771Y-8891700D01*
X162780771Y-8891700D02*
X162656961Y-8953604D01*
X162656961Y-8953604D02*
X162161723Y-8953604D01*
X162161723Y-8953604D02*
X162161723Y-7653604D01*
X162161723Y-7653604D02*
X162595057Y-7653604D01*
X162595057Y-7653604D02*
X162718866Y-7715509D01*
X162718866Y-7715509D02*
X162780771Y-7777414D01*
X162780771Y-7777414D02*
X162842676Y-7901223D01*
X162842676Y-7901223D02*
X162842676Y-8025033D01*
X162842676Y-8025033D02*
X162780771Y-8148842D01*
X162780771Y-8148842D02*
X162718866Y-8210747D01*
X162718866Y-8210747D02*
X162595057Y-8272652D01*
X162595057Y-8272652D02*
X162161723Y-8272652D01*
D10*
D11*
X162904580Y-58829795D02*
X162842676Y-58891700D01*
X162842676Y-58891700D02*
X162656961Y-58953604D01*
X162656961Y-58953604D02*
X162533152Y-58953604D01*
X162533152Y-58953604D02*
X162347438Y-58891700D01*
X162347438Y-58891700D02*
X162223628Y-58767890D01*
X162223628Y-58767890D02*
X162161723Y-58644080D01*
X162161723Y-58644080D02*
X162099819Y-58396461D01*
X162099819Y-58396461D02*
X162099819Y-58210747D01*
X162099819Y-58210747D02*
X162161723Y-57963128D01*
X162161723Y-57963128D02*
X162223628Y-57839319D01*
X162223628Y-57839319D02*
X162347438Y-57715509D01*
X162347438Y-57715509D02*
X162533152Y-57653604D01*
X162533152Y-57653604D02*
X162656961Y-57653604D01*
X162656961Y-57653604D02*
X162842676Y-57715509D01*
X162842676Y-57715509D02*
X162904580Y-57777414D01*
D10*
D11*
X162161723Y-108953604D02*
X162161723Y-107653604D01*
X162161723Y-107653604D02*
X162471247Y-107653604D01*
X162471247Y-107653604D02*
X162656961Y-107715509D01*
X162656961Y-107715509D02*
X162780771Y-107839319D01*
X162780771Y-107839319D02*
X162842676Y-107963128D01*
X162842676Y-107963128D02*
X162904580Y-108210747D01*
X162904580Y-108210747D02*
X162904580Y-108396461D01*
X162904580Y-108396461D02*
X162842676Y-108644080D01*
X162842676Y-108644080D02*
X162780771Y-108767890D01*
X162780771Y-108767890D02*
X162656961Y-108891700D01*
X162656961Y-108891700D02*
X162471247Y-108953604D01*
X162471247Y-108953604D02*
X162161723Y-108953604D01*
D10*
D11*
X76958026Y-117153328D02*
X76958026Y-115653328D01*
X76958026Y-115653328D02*
X77315169Y-115653328D01*
X77315169Y-115653328D02*
X77529455Y-115724757D01*
X77529455Y-115724757D02*
X77672312Y-115867614D01*
X77672312Y-115867614D02*
X77743741Y-116010471D01*
X77743741Y-116010471D02*
X77815169Y-116296185D01*
X77815169Y-116296185D02*
X77815169Y-116510471D01*
X77815169Y-116510471D02*
X77743741Y-116796185D01*
X77743741Y-116796185D02*
X77672312Y-116939042D01*
X77672312Y-116939042D02*
X77529455Y-117081900D01*
X77529455Y-117081900D02*
X77315169Y-117153328D01*
X77315169Y-117153328D02*
X76958026Y-117153328D01*
X79100884Y-117153328D02*
X79100884Y-116367614D01*
X79100884Y-116367614D02*
X79029455Y-116224757D01*
X79029455Y-116224757D02*
X78886598Y-116153328D01*
X78886598Y-116153328D02*
X78600884Y-116153328D01*
X78600884Y-116153328D02*
X78458026Y-116224757D01*
X79100884Y-117081900D02*
X78958026Y-117153328D01*
X78958026Y-117153328D02*
X78600884Y-117153328D01*
X78600884Y-117153328D02*
X78458026Y-117081900D01*
X78458026Y-117081900D02*
X78386598Y-116939042D01*
X78386598Y-116939042D02*
X78386598Y-116796185D01*
X78386598Y-116796185D02*
X78458026Y-116653328D01*
X78458026Y-116653328D02*
X78600884Y-116581900D01*
X78600884Y-116581900D02*
X78958026Y-116581900D01*
X78958026Y-116581900D02*
X79100884Y-116510471D01*
X79600884Y-116153328D02*
X80172312Y-116153328D01*
X79815169Y-115653328D02*
X79815169Y-116939042D01*
X79815169Y-116939042D02*
X79886598Y-117081900D01*
X79886598Y-117081900D02*
X80029455Y-117153328D01*
X80029455Y-117153328D02*
X80172312Y-117153328D01*
X81243741Y-117081900D02*
X81100884Y-117153328D01*
X81100884Y-117153328D02*
X80815170Y-117153328D01*
X80815170Y-117153328D02*
X80672312Y-117081900D01*
X80672312Y-117081900D02*
X80600884Y-116939042D01*
X80600884Y-116939042D02*
X80600884Y-116367614D01*
X80600884Y-116367614D02*
X80672312Y-116224757D01*
X80672312Y-116224757D02*
X80815170Y-116153328D01*
X80815170Y-116153328D02*
X81100884Y-116153328D01*
X81100884Y-116153328D02*
X81243741Y-116224757D01*
X81243741Y-116224757D02*
X81315170Y-116367614D01*
X81315170Y-116367614D02*
X81315170Y-116510471D01*
X81315170Y-116510471D02*
X80600884Y-116653328D01*
X81958026Y-117010471D02*
X82029455Y-117081900D01*
X82029455Y-117081900D02*
X81958026Y-117153328D01*
X81958026Y-117153328D02*
X81886598Y-117081900D01*
X81886598Y-117081900D02*
X81958026Y-117010471D01*
X81958026Y-117010471D02*
X81958026Y-117153328D01*
X81958026Y-116224757D02*
X82029455Y-116296185D01*
X82029455Y-116296185D02*
X81958026Y-116367614D01*
X81958026Y-116367614D02*
X81886598Y-116296185D01*
X81886598Y-116296185D02*
X81958026Y-116224757D01*
X81958026Y-116224757D02*
X81958026Y-116367614D01*
X83743741Y-115796185D02*
X83815169Y-115724757D01*
X83815169Y-115724757D02*
X83958027Y-115653328D01*
X83958027Y-115653328D02*
X84315169Y-115653328D01*
X84315169Y-115653328D02*
X84458027Y-115724757D01*
X84458027Y-115724757D02*
X84529455Y-115796185D01*
X84529455Y-115796185D02*
X84600884Y-115939042D01*
X84600884Y-115939042D02*
X84600884Y-116081900D01*
X84600884Y-116081900D02*
X84529455Y-116296185D01*
X84529455Y-116296185D02*
X83672312Y-117153328D01*
X83672312Y-117153328D02*
X84600884Y-117153328D01*
X85529455Y-115653328D02*
X85672312Y-115653328D01*
X85672312Y-115653328D02*
X85815169Y-115724757D01*
X85815169Y-115724757D02*
X85886598Y-115796185D01*
X85886598Y-115796185D02*
X85958026Y-115939042D01*
X85958026Y-115939042D02*
X86029455Y-116224757D01*
X86029455Y-116224757D02*
X86029455Y-116581900D01*
X86029455Y-116581900D02*
X85958026Y-116867614D01*
X85958026Y-116867614D02*
X85886598Y-117010471D01*
X85886598Y-117010471D02*
X85815169Y-117081900D01*
X85815169Y-117081900D02*
X85672312Y-117153328D01*
X85672312Y-117153328D02*
X85529455Y-117153328D01*
X85529455Y-117153328D02*
X85386598Y-117081900D01*
X85386598Y-117081900D02*
X85315169Y-117010471D01*
X85315169Y-117010471D02*
X85243740Y-116867614D01*
X85243740Y-116867614D02*
X85172312Y-116581900D01*
X85172312Y-116581900D02*
X85172312Y-116224757D01*
X85172312Y-116224757D02*
X85243740Y-115939042D01*
X85243740Y-115939042D02*
X85315169Y-115796185D01*
X85315169Y-115796185D02*
X85386598Y-115724757D01*
X85386598Y-115724757D02*
X85529455Y-115653328D01*
X86600883Y-115796185D02*
X86672311Y-115724757D01*
X86672311Y-115724757D02*
X86815169Y-115653328D01*
X86815169Y-115653328D02*
X87172311Y-115653328D01*
X87172311Y-115653328D02*
X87315169Y-115724757D01*
X87315169Y-115724757D02*
X87386597Y-115796185D01*
X87386597Y-115796185D02*
X87458026Y-115939042D01*
X87458026Y-115939042D02*
X87458026Y-116081900D01*
X87458026Y-116081900D02*
X87386597Y-116296185D01*
X87386597Y-116296185D02*
X86529454Y-117153328D01*
X86529454Y-117153328D02*
X87458026Y-117153328D01*
X88815168Y-115653328D02*
X88100882Y-115653328D01*
X88100882Y-115653328D02*
X88029454Y-116367614D01*
X88029454Y-116367614D02*
X88100882Y-116296185D01*
X88100882Y-116296185D02*
X88243740Y-116224757D01*
X88243740Y-116224757D02*
X88600882Y-116224757D01*
X88600882Y-116224757D02*
X88743740Y-116296185D01*
X88743740Y-116296185D02*
X88815168Y-116367614D01*
X88815168Y-116367614D02*
X88886597Y-116510471D01*
X88886597Y-116510471D02*
X88886597Y-116867614D01*
X88886597Y-116867614D02*
X88815168Y-117010471D01*
X88815168Y-117010471D02*
X88743740Y-117081900D01*
X88743740Y-117081900D02*
X88600882Y-117153328D01*
X88600882Y-117153328D02*
X88243740Y-117153328D01*
X88243740Y-117153328D02*
X88100882Y-117081900D01*
X88100882Y-117081900D02*
X88029454Y-117010471D01*
X89529453Y-116581900D02*
X90672311Y-116581900D01*
X91672311Y-115653328D02*
X91815168Y-115653328D01*
X91815168Y-115653328D02*
X91958025Y-115724757D01*
X91958025Y-115724757D02*
X92029454Y-115796185D01*
X92029454Y-115796185D02*
X92100882Y-115939042D01*
X92100882Y-115939042D02*
X92172311Y-116224757D01*
X92172311Y-116224757D02*
X92172311Y-116581900D01*
X92172311Y-116581900D02*
X92100882Y-116867614D01*
X92100882Y-116867614D02*
X92029454Y-117010471D01*
X92029454Y-117010471D02*
X91958025Y-117081900D01*
X91958025Y-117081900D02*
X91815168Y-117153328D01*
X91815168Y-117153328D02*
X91672311Y-117153328D01*
X91672311Y-117153328D02*
X91529454Y-117081900D01*
X91529454Y-117081900D02*
X91458025Y-117010471D01*
X91458025Y-117010471D02*
X91386596Y-116867614D01*
X91386596Y-116867614D02*
X91315168Y-116581900D01*
X91315168Y-116581900D02*
X91315168Y-116224757D01*
X91315168Y-116224757D02*
X91386596Y-115939042D01*
X91386596Y-115939042D02*
X91458025Y-115796185D01*
X91458025Y-115796185D02*
X91529454Y-115724757D01*
X91529454Y-115724757D02*
X91672311Y-115653328D01*
X92886596Y-117153328D02*
X93172310Y-117153328D01*
X93172310Y-117153328D02*
X93315167Y-117081900D01*
X93315167Y-117081900D02*
X93386596Y-117010471D01*
X93386596Y-117010471D02*
X93529453Y-116796185D01*
X93529453Y-116796185D02*
X93600882Y-116510471D01*
X93600882Y-116510471D02*
X93600882Y-115939042D01*
X93600882Y-115939042D02*
X93529453Y-115796185D01*
X93529453Y-115796185D02*
X93458025Y-115724757D01*
X93458025Y-115724757D02*
X93315167Y-115653328D01*
X93315167Y-115653328D02*
X93029453Y-115653328D01*
X93029453Y-115653328D02*
X92886596Y-115724757D01*
X92886596Y-115724757D02*
X92815167Y-115796185D01*
X92815167Y-115796185D02*
X92743739Y-115939042D01*
X92743739Y-115939042D02*
X92743739Y-116296185D01*
X92743739Y-116296185D02*
X92815167Y-116439042D01*
X92815167Y-116439042D02*
X92886596Y-116510471D01*
X92886596Y-116510471D02*
X93029453Y-116581900D01*
X93029453Y-116581900D02*
X93315167Y-116581900D01*
X93315167Y-116581900D02*
X93458025Y-116510471D01*
X93458025Y-116510471D02*
X93529453Y-116439042D01*
X93529453Y-116439042D02*
X93600882Y-116296185D01*
X94243738Y-116581900D02*
X95386596Y-116581900D01*
X96029453Y-115796185D02*
X96100881Y-115724757D01*
X96100881Y-115724757D02*
X96243739Y-115653328D01*
X96243739Y-115653328D02*
X96600881Y-115653328D01*
X96600881Y-115653328D02*
X96743739Y-115724757D01*
X96743739Y-115724757D02*
X96815167Y-115796185D01*
X96815167Y-115796185D02*
X96886596Y-115939042D01*
X96886596Y-115939042D02*
X96886596Y-116081900D01*
X96886596Y-116081900D02*
X96815167Y-116296185D01*
X96815167Y-116296185D02*
X95958024Y-117153328D01*
X95958024Y-117153328D02*
X96886596Y-117153328D01*
X97815167Y-115653328D02*
X97958024Y-115653328D01*
X97958024Y-115653328D02*
X98100881Y-115724757D01*
X98100881Y-115724757D02*
X98172310Y-115796185D01*
X98172310Y-115796185D02*
X98243738Y-115939042D01*
X98243738Y-115939042D02*
X98315167Y-116224757D01*
X98315167Y-116224757D02*
X98315167Y-116581900D01*
X98315167Y-116581900D02*
X98243738Y-116867614D01*
X98243738Y-116867614D02*
X98172310Y-117010471D01*
X98172310Y-117010471D02*
X98100881Y-117081900D01*
X98100881Y-117081900D02*
X97958024Y-117153328D01*
X97958024Y-117153328D02*
X97815167Y-117153328D01*
X97815167Y-117153328D02*
X97672310Y-117081900D01*
X97672310Y-117081900D02*
X97600881Y-117010471D01*
X97600881Y-117010471D02*
X97529452Y-116867614D01*
X97529452Y-116867614D02*
X97458024Y-116581900D01*
X97458024Y-116581900D02*
X97458024Y-116224757D01*
X97458024Y-116224757D02*
X97529452Y-115939042D01*
X97529452Y-115939042D02*
X97600881Y-115796185D01*
X97600881Y-115796185D02*
X97672310Y-115724757D01*
X97672310Y-115724757D02*
X97815167Y-115653328D01*
D10*
D11*
X53502200Y-117867200D02*
X161502200Y-117867200D01*
D10*
D11*
X54958026Y-119953328D02*
X54958026Y-118453328D01*
X55815169Y-119953328D02*
X55172312Y-119096185D01*
X55815169Y-118453328D02*
X54958026Y-119310471D01*
X56458026Y-119953328D02*
X56458026Y-118953328D01*
X56458026Y-118453328D02*
X56386598Y-118524757D01*
X56386598Y-118524757D02*
X56458026Y-118596185D01*
X56458026Y-118596185D02*
X56529455Y-118524757D01*
X56529455Y-118524757D02*
X56458026Y-118453328D01*
X56458026Y-118453328D02*
X56458026Y-118596185D01*
X58029455Y-119810471D02*
X57958027Y-119881900D01*
X57958027Y-119881900D02*
X57743741Y-119953328D01*
X57743741Y-119953328D02*
X57600884Y-119953328D01*
X57600884Y-119953328D02*
X57386598Y-119881900D01*
X57386598Y-119881900D02*
X57243741Y-119739042D01*
X57243741Y-119739042D02*
X57172312Y-119596185D01*
X57172312Y-119596185D02*
X57100884Y-119310471D01*
X57100884Y-119310471D02*
X57100884Y-119096185D01*
X57100884Y-119096185D02*
X57172312Y-118810471D01*
X57172312Y-118810471D02*
X57243741Y-118667614D01*
X57243741Y-118667614D02*
X57386598Y-118524757D01*
X57386598Y-118524757D02*
X57600884Y-118453328D01*
X57600884Y-118453328D02*
X57743741Y-118453328D01*
X57743741Y-118453328D02*
X57958027Y-118524757D01*
X57958027Y-118524757D02*
X58029455Y-118596185D01*
X59315170Y-119953328D02*
X59315170Y-119167614D01*
X59315170Y-119167614D02*
X59243741Y-119024757D01*
X59243741Y-119024757D02*
X59100884Y-118953328D01*
X59100884Y-118953328D02*
X58815170Y-118953328D01*
X58815170Y-118953328D02*
X58672312Y-119024757D01*
X59315170Y-119881900D02*
X59172312Y-119953328D01*
X59172312Y-119953328D02*
X58815170Y-119953328D01*
X58815170Y-119953328D02*
X58672312Y-119881900D01*
X58672312Y-119881900D02*
X58600884Y-119739042D01*
X58600884Y-119739042D02*
X58600884Y-119596185D01*
X58600884Y-119596185D02*
X58672312Y-119453328D01*
X58672312Y-119453328D02*
X58815170Y-119381900D01*
X58815170Y-119381900D02*
X59172312Y-119381900D01*
X59172312Y-119381900D02*
X59315170Y-119310471D01*
X60672313Y-119953328D02*
X60672313Y-118453328D01*
X60672313Y-119881900D02*
X60529455Y-119953328D01*
X60529455Y-119953328D02*
X60243741Y-119953328D01*
X60243741Y-119953328D02*
X60100884Y-119881900D01*
X60100884Y-119881900D02*
X60029455Y-119810471D01*
X60029455Y-119810471D02*
X59958027Y-119667614D01*
X59958027Y-119667614D02*
X59958027Y-119239042D01*
X59958027Y-119239042D02*
X60029455Y-119096185D01*
X60029455Y-119096185D02*
X60100884Y-119024757D01*
X60100884Y-119024757D02*
X60243741Y-118953328D01*
X60243741Y-118953328D02*
X60529455Y-118953328D01*
X60529455Y-118953328D02*
X60672313Y-119024757D01*
X62529455Y-119167614D02*
X63029455Y-119167614D01*
X63243741Y-119953328D02*
X62529455Y-119953328D01*
X62529455Y-119953328D02*
X62529455Y-118453328D01*
X62529455Y-118453328D02*
X63243741Y-118453328D01*
X63886598Y-119810471D02*
X63958027Y-119881900D01*
X63958027Y-119881900D02*
X63886598Y-119953328D01*
X63886598Y-119953328D02*
X63815170Y-119881900D01*
X63815170Y-119881900D02*
X63886598Y-119810471D01*
X63886598Y-119810471D02*
X63886598Y-119953328D01*
X64600884Y-119953328D02*
X64600884Y-118453328D01*
X64600884Y-118453328D02*
X64958027Y-118453328D01*
X64958027Y-118453328D02*
X65172313Y-118524757D01*
X65172313Y-118524757D02*
X65315170Y-118667614D01*
X65315170Y-118667614D02*
X65386599Y-118810471D01*
X65386599Y-118810471D02*
X65458027Y-119096185D01*
X65458027Y-119096185D02*
X65458027Y-119310471D01*
X65458027Y-119310471D02*
X65386599Y-119596185D01*
X65386599Y-119596185D02*
X65315170Y-119739042D01*
X65315170Y-119739042D02*
X65172313Y-119881900D01*
X65172313Y-119881900D02*
X64958027Y-119953328D01*
X64958027Y-119953328D02*
X64600884Y-119953328D01*
X66100884Y-119810471D02*
X66172313Y-119881900D01*
X66172313Y-119881900D02*
X66100884Y-119953328D01*
X66100884Y-119953328D02*
X66029456Y-119881900D01*
X66029456Y-119881900D02*
X66100884Y-119810471D01*
X66100884Y-119810471D02*
X66100884Y-119953328D01*
X66743742Y-119524757D02*
X67458028Y-119524757D01*
X66600885Y-119953328D02*
X67100885Y-118453328D01*
X67100885Y-118453328D02*
X67600885Y-119953328D01*
X68100884Y-119810471D02*
X68172313Y-119881900D01*
X68172313Y-119881900D02*
X68100884Y-119953328D01*
X68100884Y-119953328D02*
X68029456Y-119881900D01*
X68029456Y-119881900D02*
X68100884Y-119810471D01*
X68100884Y-119810471D02*
X68100884Y-119953328D01*
X70029456Y-119953328D02*
X70315170Y-119953328D01*
X70315170Y-119953328D02*
X70458027Y-119881900D01*
X70458027Y-119881900D02*
X70529456Y-119810471D01*
X70529456Y-119810471D02*
X70672313Y-119596185D01*
X70672313Y-119596185D02*
X70743742Y-119310471D01*
X70743742Y-119310471D02*
X70743742Y-118739042D01*
X70743742Y-118739042D02*
X70672313Y-118596185D01*
X70672313Y-118596185D02*
X70600885Y-118524757D01*
X70600885Y-118524757D02*
X70458027Y-118453328D01*
X70458027Y-118453328D02*
X70172313Y-118453328D01*
X70172313Y-118453328D02*
X70029456Y-118524757D01*
X70029456Y-118524757D02*
X69958027Y-118596185D01*
X69958027Y-118596185D02*
X69886599Y-118739042D01*
X69886599Y-118739042D02*
X69886599Y-119096185D01*
X69886599Y-119096185D02*
X69958027Y-119239042D01*
X69958027Y-119239042D02*
X70029456Y-119310471D01*
X70029456Y-119310471D02*
X70172313Y-119381900D01*
X70172313Y-119381900D02*
X70458027Y-119381900D01*
X70458027Y-119381900D02*
X70600885Y-119310471D01*
X70600885Y-119310471D02*
X70672313Y-119239042D01*
X70672313Y-119239042D02*
X70743742Y-119096185D01*
X71386598Y-119810471D02*
X71458027Y-119881900D01*
X71458027Y-119881900D02*
X71386598Y-119953328D01*
X71386598Y-119953328D02*
X71315170Y-119881900D01*
X71315170Y-119881900D02*
X71386598Y-119810471D01*
X71386598Y-119810471D02*
X71386598Y-119953328D01*
X72386599Y-118453328D02*
X72529456Y-118453328D01*
X72529456Y-118453328D02*
X72672313Y-118524757D01*
X72672313Y-118524757D02*
X72743742Y-118596185D01*
X72743742Y-118596185D02*
X72815170Y-118739042D01*
X72815170Y-118739042D02*
X72886599Y-119024757D01*
X72886599Y-119024757D02*
X72886599Y-119381900D01*
X72886599Y-119381900D02*
X72815170Y-119667614D01*
X72815170Y-119667614D02*
X72743742Y-119810471D01*
X72743742Y-119810471D02*
X72672313Y-119881900D01*
X72672313Y-119881900D02*
X72529456Y-119953328D01*
X72529456Y-119953328D02*
X72386599Y-119953328D01*
X72386599Y-119953328D02*
X72243742Y-119881900D01*
X72243742Y-119881900D02*
X72172313Y-119810471D01*
X72172313Y-119810471D02*
X72100884Y-119667614D01*
X72100884Y-119667614D02*
X72029456Y-119381900D01*
X72029456Y-119381900D02*
X72029456Y-119024757D01*
X72029456Y-119024757D02*
X72100884Y-118739042D01*
X72100884Y-118739042D02*
X72172313Y-118596185D01*
X72172313Y-118596185D02*
X72243742Y-118524757D01*
X72243742Y-118524757D02*
X72386599Y-118453328D01*
X73529455Y-119810471D02*
X73600884Y-119881900D01*
X73600884Y-119881900D02*
X73529455Y-119953328D01*
X73529455Y-119953328D02*
X73458027Y-119881900D01*
X73458027Y-119881900D02*
X73529455Y-119810471D01*
X73529455Y-119810471D02*
X73529455Y-119953328D01*
X74886599Y-118953328D02*
X74886599Y-119953328D01*
X74529456Y-118381900D02*
X74172313Y-119453328D01*
X74172313Y-119453328D02*
X75100884Y-119453328D01*
D10*
D11*
X53502200Y-114867200D02*
X161502200Y-114867200D01*
D10*
D12*
X140913853Y-117145528D02*
X140413853Y-116431242D01*
X140056710Y-117145528D02*
X140056710Y-115645528D01*
X140056710Y-115645528D02*
X140628139Y-115645528D01*
X140628139Y-115645528D02*
X140770996Y-115716957D01*
X140770996Y-115716957D02*
X140842425Y-115788385D01*
X140842425Y-115788385D02*
X140913853Y-115931242D01*
X140913853Y-115931242D02*
X140913853Y-116145528D01*
X140913853Y-116145528D02*
X140842425Y-116288385D01*
X140842425Y-116288385D02*
X140770996Y-116359814D01*
X140770996Y-116359814D02*
X140628139Y-116431242D01*
X140628139Y-116431242D02*
X140056710Y-116431242D01*
X142128139Y-117074100D02*
X141985282Y-117145528D01*
X141985282Y-117145528D02*
X141699568Y-117145528D01*
X141699568Y-117145528D02*
X141556710Y-117074100D01*
X141556710Y-117074100D02*
X141485282Y-116931242D01*
X141485282Y-116931242D02*
X141485282Y-116359814D01*
X141485282Y-116359814D02*
X141556710Y-116216957D01*
X141556710Y-116216957D02*
X141699568Y-116145528D01*
X141699568Y-116145528D02*
X141985282Y-116145528D01*
X141985282Y-116145528D02*
X142128139Y-116216957D01*
X142128139Y-116216957D02*
X142199568Y-116359814D01*
X142199568Y-116359814D02*
X142199568Y-116502671D01*
X142199568Y-116502671D02*
X141485282Y-116645528D01*
X142699567Y-116145528D02*
X143056710Y-117145528D01*
X143056710Y-117145528D02*
X143413853Y-116145528D01*
X143985281Y-117002671D02*
X144056710Y-117074100D01*
X144056710Y-117074100D02*
X143985281Y-117145528D01*
X143985281Y-117145528D02*
X143913853Y-117074100D01*
X143913853Y-117074100D02*
X143985281Y-117002671D01*
X143985281Y-117002671D02*
X143985281Y-117145528D01*
X143985281Y-116216957D02*
X144056710Y-116288385D01*
X144056710Y-116288385D02*
X143985281Y-116359814D01*
X143985281Y-116359814D02*
X143913853Y-116288385D01*
X143913853Y-116288385D02*
X143985281Y-116216957D01*
X143985281Y-116216957D02*
X143985281Y-116359814D01*
X146628139Y-117145528D02*
X145770996Y-117145528D01*
X146199567Y-117145528D02*
X146199567Y-115645528D01*
X146199567Y-115645528D02*
X146056710Y-115859814D01*
X146056710Y-115859814D02*
X145913853Y-116002671D01*
X145913853Y-116002671D02*
X145770996Y-116074100D01*
X147270995Y-117002671D02*
X147342424Y-117074100D01*
X147342424Y-117074100D02*
X147270995Y-117145528D01*
X147270995Y-117145528D02*
X147199567Y-117074100D01*
X147199567Y-117074100D02*
X147270995Y-117002671D01*
X147270995Y-117002671D02*
X147270995Y-117145528D01*
X148270996Y-115645528D02*
X148413853Y-115645528D01*
X148413853Y-115645528D02*
X148556710Y-115716957D01*
X148556710Y-115716957D02*
X148628139Y-115788385D01*
X148628139Y-115788385D02*
X148699567Y-115931242D01*
X148699567Y-115931242D02*
X148770996Y-116216957D01*
X148770996Y-116216957D02*
X148770996Y-116574100D01*
X148770996Y-116574100D02*
X148699567Y-116859814D01*
X148699567Y-116859814D02*
X148628139Y-117002671D01*
X148628139Y-117002671D02*
X148556710Y-117074100D01*
X148556710Y-117074100D02*
X148413853Y-117145528D01*
X148413853Y-117145528D02*
X148270996Y-117145528D01*
X148270996Y-117145528D02*
X148128139Y-117074100D01*
X148128139Y-117074100D02*
X148056710Y-117002671D01*
X148056710Y-117002671D02*
X147985281Y-116859814D01*
X147985281Y-116859814D02*
X147913853Y-116574100D01*
X147913853Y-116574100D02*
X147913853Y-116216957D01*
X147913853Y-116216957D02*
X147985281Y-115931242D01*
X147985281Y-115931242D02*
X148056710Y-115788385D01*
X148056710Y-115788385D02*
X148128139Y-115716957D01*
X148128139Y-115716957D02*
X148270996Y-115645528D01*
D10*
D11*
X54886598Y-117081900D02*
X55100884Y-117153328D01*
X55100884Y-117153328D02*
X55458026Y-117153328D01*
X55458026Y-117153328D02*
X55600884Y-117081900D01*
X55600884Y-117081900D02*
X55672312Y-117010471D01*
X55672312Y-117010471D02*
X55743741Y-116867614D01*
X55743741Y-116867614D02*
X55743741Y-116724757D01*
X55743741Y-116724757D02*
X55672312Y-116581900D01*
X55672312Y-116581900D02*
X55600884Y-116510471D01*
X55600884Y-116510471D02*
X55458026Y-116439042D01*
X55458026Y-116439042D02*
X55172312Y-116367614D01*
X55172312Y-116367614D02*
X55029455Y-116296185D01*
X55029455Y-116296185D02*
X54958026Y-116224757D01*
X54958026Y-116224757D02*
X54886598Y-116081900D01*
X54886598Y-116081900D02*
X54886598Y-115939042D01*
X54886598Y-115939042D02*
X54958026Y-115796185D01*
X54958026Y-115796185D02*
X55029455Y-115724757D01*
X55029455Y-115724757D02*
X55172312Y-115653328D01*
X55172312Y-115653328D02*
X55529455Y-115653328D01*
X55529455Y-115653328D02*
X55743741Y-115724757D01*
X56386597Y-117153328D02*
X56386597Y-116153328D01*
X56386597Y-115653328D02*
X56315169Y-115724757D01*
X56315169Y-115724757D02*
X56386597Y-115796185D01*
X56386597Y-115796185D02*
X56458026Y-115724757D01*
X56458026Y-115724757D02*
X56386597Y-115653328D01*
X56386597Y-115653328D02*
X56386597Y-115796185D01*
X56958026Y-116153328D02*
X57743741Y-116153328D01*
X57743741Y-116153328D02*
X56958026Y-117153328D01*
X56958026Y-117153328D02*
X57743741Y-117153328D01*
X58886598Y-117081900D02*
X58743741Y-117153328D01*
X58743741Y-117153328D02*
X58458027Y-117153328D01*
X58458027Y-117153328D02*
X58315169Y-117081900D01*
X58315169Y-117081900D02*
X58243741Y-116939042D01*
X58243741Y-116939042D02*
X58243741Y-116367614D01*
X58243741Y-116367614D02*
X58315169Y-116224757D01*
X58315169Y-116224757D02*
X58458027Y-116153328D01*
X58458027Y-116153328D02*
X58743741Y-116153328D01*
X58743741Y-116153328D02*
X58886598Y-116224757D01*
X58886598Y-116224757D02*
X58958027Y-116367614D01*
X58958027Y-116367614D02*
X58958027Y-116510471D01*
X58958027Y-116510471D02*
X58243741Y-116653328D01*
X59600883Y-117010471D02*
X59672312Y-117081900D01*
X59672312Y-117081900D02*
X59600883Y-117153328D01*
X59600883Y-117153328D02*
X59529455Y-117081900D01*
X59529455Y-117081900D02*
X59600883Y-117010471D01*
X59600883Y-117010471D02*
X59600883Y-117153328D01*
X59600883Y-116224757D02*
X59672312Y-116296185D01*
X59672312Y-116296185D02*
X59600883Y-116367614D01*
X59600883Y-116367614D02*
X59529455Y-116296185D01*
X59529455Y-116296185D02*
X59600883Y-116224757D01*
X59600883Y-116224757D02*
X59600883Y-116367614D01*
X61386598Y-116724757D02*
X62100884Y-116724757D01*
X61243741Y-117153328D02*
X61743741Y-115653328D01*
X61743741Y-115653328D02*
X62243741Y-117153328D01*
X63386598Y-116153328D02*
X63386598Y-117153328D01*
X63029455Y-115581900D02*
X62672312Y-116653328D01*
X62672312Y-116653328D02*
X63600883Y-116653328D01*
D10*
D11*
X139958026Y-119953328D02*
X139958026Y-118453328D01*
X141315170Y-119953328D02*
X141315170Y-118453328D01*
X141315170Y-119881900D02*
X141172312Y-119953328D01*
X141172312Y-119953328D02*
X140886598Y-119953328D01*
X140886598Y-119953328D02*
X140743741Y-119881900D01*
X140743741Y-119881900D02*
X140672312Y-119810471D01*
X140672312Y-119810471D02*
X140600884Y-119667614D01*
X140600884Y-119667614D02*
X140600884Y-119239042D01*
X140600884Y-119239042D02*
X140672312Y-119096185D01*
X140672312Y-119096185D02*
X140743741Y-119024757D01*
X140743741Y-119024757D02*
X140886598Y-118953328D01*
X140886598Y-118953328D02*
X141172312Y-118953328D01*
X141172312Y-118953328D02*
X141315170Y-119024757D01*
X142029455Y-119810471D02*
X142100884Y-119881900D01*
X142100884Y-119881900D02*
X142029455Y-119953328D01*
X142029455Y-119953328D02*
X141958027Y-119881900D01*
X141958027Y-119881900D02*
X142029455Y-119810471D01*
X142029455Y-119810471D02*
X142029455Y-119953328D01*
X142029455Y-119024757D02*
X142100884Y-119096185D01*
X142100884Y-119096185D02*
X142029455Y-119167614D01*
X142029455Y-119167614D02*
X141958027Y-119096185D01*
X141958027Y-119096185D02*
X142029455Y-119024757D01*
X142029455Y-119024757D02*
X142029455Y-119167614D01*
X144600884Y-118453328D02*
X143886598Y-118453328D01*
X143886598Y-118453328D02*
X143815170Y-119167614D01*
X143815170Y-119167614D02*
X143886598Y-119096185D01*
X143886598Y-119096185D02*
X144029456Y-119024757D01*
X144029456Y-119024757D02*
X144386598Y-119024757D01*
X144386598Y-119024757D02*
X144529456Y-119096185D01*
X144529456Y-119096185D02*
X144600884Y-119167614D01*
X144600884Y-119167614D02*
X144672313Y-119310471D01*
X144672313Y-119310471D02*
X144672313Y-119667614D01*
X144672313Y-119667614D02*
X144600884Y-119810471D01*
X144600884Y-119810471D02*
X144529456Y-119881900D01*
X144529456Y-119881900D02*
X144386598Y-119953328D01*
X144386598Y-119953328D02*
X144029456Y-119953328D01*
X144029456Y-119953328D02*
X143886598Y-119881900D01*
X143886598Y-119881900D02*
X143815170Y-119810471D01*
X146386598Y-118381900D02*
X145100884Y-120310471D01*
X146958027Y-119953328D02*
X147243741Y-119953328D01*
X147243741Y-119953328D02*
X147386598Y-119881900D01*
X147386598Y-119881900D02*
X147458027Y-119810471D01*
X147458027Y-119810471D02*
X147600884Y-119596185D01*
X147600884Y-119596185D02*
X147672313Y-119310471D01*
X147672313Y-119310471D02*
X147672313Y-118739042D01*
X147672313Y-118739042D02*
X147600884Y-118596185D01*
X147600884Y-118596185D02*
X147529456Y-118524757D01*
X147529456Y-118524757D02*
X147386598Y-118453328D01*
X147386598Y-118453328D02*
X147100884Y-118453328D01*
X147100884Y-118453328D02*
X146958027Y-118524757D01*
X146958027Y-118524757D02*
X146886598Y-118596185D01*
X146886598Y-118596185D02*
X146815170Y-118739042D01*
X146815170Y-118739042D02*
X146815170Y-119096185D01*
X146815170Y-119096185D02*
X146886598Y-119239042D01*
X146886598Y-119239042D02*
X146958027Y-119310471D01*
X146958027Y-119310471D02*
X147100884Y-119381900D01*
X147100884Y-119381900D02*
X147386598Y-119381900D01*
X147386598Y-119381900D02*
X147529456Y-119310471D01*
X147529456Y-119310471D02*
X147600884Y-119239042D01*
X147600884Y-119239042D02*
X147672313Y-119096185D01*
D10*
D11*
X53502200Y-110867200D02*
X161502200Y-110867200D01*
D10*
D13*
X55193928Y-111571638D02*
X56336785Y-111571638D01*
X55515357Y-113571638D02*
X55765357Y-111571638D01*
X56753452Y-113571638D02*
X56920119Y-112238304D01*
X57003452Y-111571638D02*
X56896309Y-111666876D01*
X56896309Y-111666876D02*
X56979643Y-111762114D01*
X56979643Y-111762114D02*
X57086786Y-111666876D01*
X57086786Y-111666876D02*
X57003452Y-111571638D01*
X57003452Y-111571638D02*
X56979643Y-111762114D01*
X57586786Y-112238304D02*
X58348690Y-112238304D01*
X57955833Y-111571638D02*
X57741548Y-113285923D01*
X57741548Y-113285923D02*
X57812976Y-113476400D01*
X57812976Y-113476400D02*
X57991548Y-113571638D01*
X57991548Y-113571638D02*
X58182024Y-113571638D01*
X59134405Y-113571638D02*
X58955833Y-113476400D01*
X58955833Y-113476400D02*
X58884405Y-113285923D01*
X58884405Y-113285923D02*
X59098690Y-111571638D01*
X60670119Y-113476400D02*
X60467738Y-113571638D01*
X60467738Y-113571638D02*
X60086785Y-113571638D01*
X60086785Y-113571638D02*
X59908214Y-113476400D01*
X59908214Y-113476400D02*
X59836785Y-113285923D01*
X59836785Y-113285923D02*
X59932024Y-112524019D01*
X59932024Y-112524019D02*
X60051071Y-112333542D01*
X60051071Y-112333542D02*
X60253452Y-112238304D01*
X60253452Y-112238304D02*
X60634404Y-112238304D01*
X60634404Y-112238304D02*
X60812976Y-112333542D01*
X60812976Y-112333542D02*
X60884404Y-112524019D01*
X60884404Y-112524019D02*
X60860595Y-112714495D01*
X60860595Y-112714495D02*
X59884404Y-112904971D01*
X61634405Y-113381161D02*
X61717738Y-113476400D01*
X61717738Y-113476400D02*
X61610595Y-113571638D01*
X61610595Y-113571638D02*
X61527262Y-113476400D01*
X61527262Y-113476400D02*
X61634405Y-113381161D01*
X61634405Y-113381161D02*
X61610595Y-113571638D01*
X61765357Y-112333542D02*
X61848690Y-112428780D01*
X61848690Y-112428780D02*
X61741548Y-112524019D01*
X61741548Y-112524019D02*
X61658214Y-112428780D01*
X61658214Y-112428780D02*
X61765357Y-112333542D01*
X61765357Y-112333542D02*
X61741548Y-112524019D01*
X64062977Y-113000209D02*
X65015358Y-113000209D01*
X63801072Y-113571638D02*
X64717739Y-111571638D01*
X64717739Y-111571638D02*
X65134405Y-113571638D01*
X65801072Y-113571638D02*
X65967739Y-112238304D01*
X65943929Y-112428780D02*
X66051072Y-112333542D01*
X66051072Y-112333542D02*
X66253453Y-112238304D01*
X66253453Y-112238304D02*
X66539167Y-112238304D01*
X66539167Y-112238304D02*
X66717739Y-112333542D01*
X66717739Y-112333542D02*
X66789167Y-112524019D01*
X66789167Y-112524019D02*
X66658215Y-113571638D01*
X66789167Y-112524019D02*
X66908215Y-112333542D01*
X66908215Y-112333542D02*
X67110596Y-112238304D01*
X67110596Y-112238304D02*
X67396310Y-112238304D01*
X67396310Y-112238304D02*
X67574882Y-112333542D01*
X67574882Y-112333542D02*
X67646310Y-112524019D01*
X67646310Y-112524019D02*
X67515358Y-113571638D01*
X68634406Y-112238304D02*
X68384406Y-114238304D01*
X68622501Y-112333542D02*
X68824882Y-112238304D01*
X68824882Y-112238304D02*
X69205834Y-112238304D01*
X69205834Y-112238304D02*
X69384406Y-112333542D01*
X69384406Y-112333542D02*
X69467739Y-112428780D01*
X69467739Y-112428780D02*
X69539168Y-112619257D01*
X69539168Y-112619257D02*
X69467739Y-113190685D01*
X69467739Y-113190685D02*
X69348692Y-113381161D01*
X69348692Y-113381161D02*
X69241549Y-113476400D01*
X69241549Y-113476400D02*
X69039168Y-113571638D01*
X69039168Y-113571638D02*
X68658215Y-113571638D01*
X68658215Y-113571638D02*
X68479644Y-113476400D01*
X70336787Y-111571638D02*
X71420120Y-113571638D01*
X71670120Y-111571638D02*
X70086787Y-113571638D01*
X74336788Y-111571638D02*
X74717740Y-111571638D01*
X74717740Y-111571638D02*
X74896311Y-111666876D01*
X74896311Y-111666876D02*
X75062978Y-111857352D01*
X75062978Y-111857352D02*
X75110597Y-112238304D01*
X75110597Y-112238304D02*
X75027264Y-112904971D01*
X75027264Y-112904971D02*
X74884407Y-113285923D01*
X74884407Y-113285923D02*
X74670121Y-113476400D01*
X74670121Y-113476400D02*
X74467740Y-113571638D01*
X74467740Y-113571638D02*
X74086788Y-113571638D01*
X74086788Y-113571638D02*
X73908216Y-113476400D01*
X73908216Y-113476400D02*
X73741550Y-113285923D01*
X73741550Y-113285923D02*
X73693930Y-112904971D01*
X73693930Y-112904971D02*
X73777264Y-112238304D01*
X73777264Y-112238304D02*
X73920121Y-111857352D01*
X73920121Y-111857352D02*
X74134407Y-111666876D01*
X74134407Y-111666876D02*
X74336788Y-111571638D01*
X75967740Y-112238304D02*
X75717740Y-114238304D01*
X75955835Y-112333542D02*
X76158216Y-112238304D01*
X76158216Y-112238304D02*
X76539168Y-112238304D01*
X76539168Y-112238304D02*
X76717740Y-112333542D01*
X76717740Y-112333542D02*
X76801073Y-112428780D01*
X76801073Y-112428780D02*
X76872502Y-112619257D01*
X76872502Y-112619257D02*
X76801073Y-113190685D01*
X76801073Y-113190685D02*
X76682026Y-113381161D01*
X76682026Y-113381161D02*
X76574883Y-113476400D01*
X76574883Y-113476400D02*
X76372502Y-113571638D01*
X76372502Y-113571638D02*
X75991549Y-113571638D01*
X75991549Y-113571638D02*
X75812978Y-113476400D01*
X78384407Y-113476400D02*
X78182026Y-113571638D01*
X78182026Y-113571638D02*
X77801073Y-113571638D01*
X77801073Y-113571638D02*
X77622502Y-113476400D01*
X77622502Y-113476400D02*
X77551073Y-113285923D01*
X77551073Y-113285923D02*
X77646312Y-112524019D01*
X77646312Y-112524019D02*
X77765359Y-112333542D01*
X77765359Y-112333542D02*
X77967740Y-112238304D01*
X77967740Y-112238304D02*
X78348692Y-112238304D01*
X78348692Y-112238304D02*
X78527264Y-112333542D01*
X78527264Y-112333542D02*
X78598692Y-112524019D01*
X78598692Y-112524019D02*
X78574883Y-112714495D01*
X78574883Y-112714495D02*
X77598692Y-112904971D01*
X79491550Y-112238304D02*
X79324883Y-113571638D01*
X79467740Y-112428780D02*
X79574883Y-112333542D01*
X79574883Y-112333542D02*
X79777264Y-112238304D01*
X79777264Y-112238304D02*
X80062978Y-112238304D01*
X80062978Y-112238304D02*
X80241550Y-112333542D01*
X80241550Y-112333542D02*
X80312978Y-112524019D01*
X80312978Y-112524019D02*
X80182026Y-113571638D01*
X82789170Y-112524019D02*
X83455836Y-112524019D01*
X83610598Y-113571638D02*
X82658217Y-113571638D01*
X82658217Y-113571638D02*
X82908217Y-111571638D01*
X82908217Y-111571638D02*
X83860598Y-111571638D01*
X84634408Y-112238304D02*
X84467741Y-113571638D01*
X84610598Y-112428780D02*
X84717741Y-112333542D01*
X84717741Y-112333542D02*
X84920122Y-112238304D01*
X84920122Y-112238304D02*
X85205836Y-112238304D01*
X85205836Y-112238304D02*
X85384408Y-112333542D01*
X85384408Y-112333542D02*
X85455836Y-112524019D01*
X85455836Y-112524019D02*
X85324884Y-113571638D01*
X87051075Y-113476400D02*
X86848694Y-113571638D01*
X86848694Y-113571638D02*
X86467741Y-113571638D01*
X86467741Y-113571638D02*
X86289170Y-113476400D01*
X86289170Y-113476400D02*
X86217741Y-113285923D01*
X86217741Y-113285923D02*
X86312980Y-112524019D01*
X86312980Y-112524019D02*
X86432027Y-112333542D01*
X86432027Y-112333542D02*
X86634408Y-112238304D01*
X86634408Y-112238304D02*
X87015360Y-112238304D01*
X87015360Y-112238304D02*
X87193932Y-112333542D01*
X87193932Y-112333542D02*
X87265360Y-112524019D01*
X87265360Y-112524019D02*
X87241551Y-112714495D01*
X87241551Y-112714495D02*
X86265360Y-112904971D01*
X87991551Y-113571638D02*
X88158218Y-112238304D01*
X88110599Y-112619257D02*
X88229646Y-112428780D01*
X88229646Y-112428780D02*
X88336789Y-112333542D01*
X88336789Y-112333542D02*
X88539170Y-112238304D01*
X88539170Y-112238304D02*
X88729646Y-112238304D01*
X90253456Y-112238304D02*
X90051075Y-113857352D01*
X90051075Y-113857352D02*
X89932027Y-114047828D01*
X89932027Y-114047828D02*
X89824884Y-114143066D01*
X89824884Y-114143066D02*
X89622503Y-114238304D01*
X89622503Y-114238304D02*
X89336789Y-114238304D01*
X89336789Y-114238304D02*
X89158218Y-114143066D01*
X90098694Y-113476400D02*
X89896313Y-113571638D01*
X89896313Y-113571638D02*
X89515361Y-113571638D01*
X89515361Y-113571638D02*
X89336789Y-113476400D01*
X89336789Y-113476400D02*
X89253456Y-113381161D01*
X89253456Y-113381161D02*
X89182027Y-113190685D01*
X89182027Y-113190685D02*
X89253456Y-112619257D01*
X89253456Y-112619257D02*
X89372503Y-112428780D01*
X89372503Y-112428780D02*
X89479646Y-112333542D01*
X89479646Y-112333542D02*
X89682027Y-112238304D01*
X89682027Y-112238304D02*
X90062980Y-112238304D01*
X90062980Y-112238304D02*
X90241551Y-112333542D01*
X91015361Y-112238304D02*
X91324885Y-113571638D01*
X91967742Y-112238304D02*
X91324885Y-113571638D01*
X91324885Y-113571638D02*
X91074885Y-114047828D01*
X91074885Y-114047828D02*
X90967742Y-114143066D01*
X90967742Y-114143066D02*
X90765361Y-114238304D01*
X95372505Y-111666876D02*
X95193933Y-111571638D01*
X95193933Y-111571638D02*
X94908219Y-111571638D01*
X94908219Y-111571638D02*
X94610600Y-111666876D01*
X94610600Y-111666876D02*
X94396314Y-111857352D01*
X94396314Y-111857352D02*
X94277266Y-112047828D01*
X94277266Y-112047828D02*
X94134409Y-112428780D01*
X94134409Y-112428780D02*
X94098695Y-112714495D01*
X94098695Y-112714495D02*
X94146314Y-113095447D01*
X94146314Y-113095447D02*
X94217743Y-113285923D01*
X94217743Y-113285923D02*
X94384409Y-113476400D01*
X94384409Y-113476400D02*
X94658219Y-113571638D01*
X94658219Y-113571638D02*
X94848695Y-113571638D01*
X94848695Y-113571638D02*
X95146314Y-113476400D01*
X95146314Y-113476400D02*
X95253457Y-113381161D01*
X95253457Y-113381161D02*
X95336790Y-112714495D01*
X95336790Y-112714495D02*
X94955838Y-112714495D01*
X96943933Y-113571638D02*
X97074885Y-112524019D01*
X97074885Y-112524019D02*
X97003457Y-112333542D01*
X97003457Y-112333542D02*
X96824885Y-112238304D01*
X96824885Y-112238304D02*
X96443933Y-112238304D01*
X96443933Y-112238304D02*
X96241552Y-112333542D01*
X96955838Y-113476400D02*
X96753457Y-113571638D01*
X96753457Y-113571638D02*
X96277266Y-113571638D01*
X96277266Y-113571638D02*
X96098695Y-113476400D01*
X96098695Y-113476400D02*
X96027266Y-113285923D01*
X96027266Y-113285923D02*
X96051076Y-113095447D01*
X96051076Y-113095447D02*
X96170124Y-112904971D01*
X96170124Y-112904971D02*
X96372505Y-112809733D01*
X96372505Y-112809733D02*
X96848695Y-112809733D01*
X96848695Y-112809733D02*
X97051076Y-112714495D01*
X97777267Y-112238304D02*
X98539171Y-112238304D01*
X98146314Y-111571638D02*
X97932029Y-113285923D01*
X97932029Y-113285923D02*
X98003457Y-113476400D01*
X98003457Y-113476400D02*
X98182029Y-113571638D01*
X98182029Y-113571638D02*
X98372505Y-113571638D01*
X99812981Y-113476400D02*
X99610600Y-113571638D01*
X99610600Y-113571638D02*
X99229647Y-113571638D01*
X99229647Y-113571638D02*
X99051076Y-113476400D01*
X99051076Y-113476400D02*
X98979647Y-113285923D01*
X98979647Y-113285923D02*
X99074886Y-112524019D01*
X99074886Y-112524019D02*
X99193933Y-112333542D01*
X99193933Y-112333542D02*
X99396314Y-112238304D01*
X99396314Y-112238304D02*
X99777266Y-112238304D01*
X99777266Y-112238304D02*
X99955838Y-112333542D01*
X99955838Y-112333542D02*
X100027266Y-112524019D01*
X100027266Y-112524019D02*
X100003457Y-112714495D01*
X100003457Y-112714495D02*
X99027266Y-112904971D01*
X100729648Y-112238304D02*
X100943933Y-113571638D01*
X100943933Y-113571638D02*
X101443933Y-112619257D01*
X101443933Y-112619257D02*
X101705838Y-113571638D01*
X101705838Y-113571638D02*
X102253457Y-112238304D01*
X103705838Y-113571638D02*
X103836790Y-112524019D01*
X103836790Y-112524019D02*
X103765362Y-112333542D01*
X103765362Y-112333542D02*
X103586790Y-112238304D01*
X103586790Y-112238304D02*
X103205838Y-112238304D01*
X103205838Y-112238304D02*
X103003457Y-112333542D01*
X103717743Y-113476400D02*
X103515362Y-113571638D01*
X103515362Y-113571638D02*
X103039171Y-113571638D01*
X103039171Y-113571638D02*
X102860600Y-113476400D01*
X102860600Y-113476400D02*
X102789171Y-113285923D01*
X102789171Y-113285923D02*
X102812981Y-113095447D01*
X102812981Y-113095447D02*
X102932029Y-112904971D01*
X102932029Y-112904971D02*
X103134410Y-112809733D01*
X103134410Y-112809733D02*
X103610600Y-112809733D01*
X103610600Y-112809733D02*
X103812981Y-112714495D01*
X104634410Y-112238304D02*
X104943934Y-113571638D01*
X105586791Y-112238304D02*
X104943934Y-113571638D01*
X104943934Y-113571638D02*
X104693934Y-114047828D01*
X104693934Y-114047828D02*
X104586791Y-114143066D01*
X104586791Y-114143066D02*
X104384410Y-114238304D01*
D10*
D11*
X55458026Y-108967614D02*
X54958026Y-108967614D01*
X54958026Y-109753328D02*
X54958026Y-108253328D01*
X54958026Y-108253328D02*
X55672312Y-108253328D01*
X56243740Y-109753328D02*
X56243740Y-108753328D01*
X56243740Y-108253328D02*
X56172312Y-108324757D01*
X56172312Y-108324757D02*
X56243740Y-108396185D01*
X56243740Y-108396185D02*
X56315169Y-108324757D01*
X56315169Y-108324757D02*
X56243740Y-108253328D01*
X56243740Y-108253328D02*
X56243740Y-108396185D01*
X57172312Y-109753328D02*
X57029455Y-109681900D01*
X57029455Y-109681900D02*
X56958026Y-109539042D01*
X56958026Y-109539042D02*
X56958026Y-108253328D01*
X58315169Y-109681900D02*
X58172312Y-109753328D01*
X58172312Y-109753328D02*
X57886598Y-109753328D01*
X57886598Y-109753328D02*
X57743740Y-109681900D01*
X57743740Y-109681900D02*
X57672312Y-109539042D01*
X57672312Y-109539042D02*
X57672312Y-108967614D01*
X57672312Y-108967614D02*
X57743740Y-108824757D01*
X57743740Y-108824757D02*
X57886598Y-108753328D01*
X57886598Y-108753328D02*
X58172312Y-108753328D01*
X58172312Y-108753328D02*
X58315169Y-108824757D01*
X58315169Y-108824757D02*
X58386598Y-108967614D01*
X58386598Y-108967614D02*
X58386598Y-109110471D01*
X58386598Y-109110471D02*
X57672312Y-109253328D01*
X59029454Y-109610471D02*
X59100883Y-109681900D01*
X59100883Y-109681900D02*
X59029454Y-109753328D01*
X59029454Y-109753328D02*
X58958026Y-109681900D01*
X58958026Y-109681900D02*
X59029454Y-109610471D01*
X59029454Y-109610471D02*
X59029454Y-109753328D01*
X59029454Y-108824757D02*
X59100883Y-108896185D01*
X59100883Y-108896185D02*
X59029454Y-108967614D01*
X59029454Y-108967614D02*
X58958026Y-108896185D01*
X58958026Y-108896185D02*
X59029454Y-108824757D01*
X59029454Y-108824757D02*
X59029454Y-108967614D01*
X61386597Y-108967614D02*
X60886597Y-108967614D01*
X60886597Y-109753328D02*
X60886597Y-108253328D01*
X60886597Y-108253328D02*
X61600883Y-108253328D01*
X62172311Y-109753328D02*
X62172311Y-108753328D01*
X62172311Y-109039042D02*
X62243740Y-108896185D01*
X62243740Y-108896185D02*
X62315169Y-108824757D01*
X62315169Y-108824757D02*
X62458026Y-108753328D01*
X62458026Y-108753328D02*
X62600883Y-108753328D01*
X63315168Y-109753328D02*
X63172311Y-109681900D01*
X63172311Y-109681900D02*
X63100882Y-109610471D01*
X63100882Y-109610471D02*
X63029454Y-109467614D01*
X63029454Y-109467614D02*
X63029454Y-109039042D01*
X63029454Y-109039042D02*
X63100882Y-108896185D01*
X63100882Y-108896185D02*
X63172311Y-108824757D01*
X63172311Y-108824757D02*
X63315168Y-108753328D01*
X63315168Y-108753328D02*
X63529454Y-108753328D01*
X63529454Y-108753328D02*
X63672311Y-108824757D01*
X63672311Y-108824757D02*
X63743740Y-108896185D01*
X63743740Y-108896185D02*
X63815168Y-109039042D01*
X63815168Y-109039042D02*
X63815168Y-109467614D01*
X63815168Y-109467614D02*
X63743740Y-109610471D01*
X63743740Y-109610471D02*
X63672311Y-109681900D01*
X63672311Y-109681900D02*
X63529454Y-109753328D01*
X63529454Y-109753328D02*
X63315168Y-109753328D01*
X64458025Y-108753328D02*
X64458025Y-109753328D01*
X64458025Y-108896185D02*
X64529454Y-108824757D01*
X64529454Y-108824757D02*
X64672311Y-108753328D01*
X64672311Y-108753328D02*
X64886597Y-108753328D01*
X64886597Y-108753328D02*
X65029454Y-108824757D01*
X65029454Y-108824757D02*
X65100883Y-108967614D01*
X65100883Y-108967614D02*
X65100883Y-109753328D01*
X65600883Y-108753328D02*
X66172311Y-108753328D01*
X65815168Y-108253328D02*
X65815168Y-109539042D01*
X65815168Y-109539042D02*
X65886597Y-109681900D01*
X65886597Y-109681900D02*
X66029454Y-109753328D01*
X66029454Y-109753328D02*
X66172311Y-109753328D01*
X66672311Y-109610471D02*
X66743740Y-109681900D01*
X66743740Y-109681900D02*
X66672311Y-109753328D01*
X66672311Y-109753328D02*
X66600883Y-109681900D01*
X66600883Y-109681900D02*
X66672311Y-109610471D01*
X66672311Y-109610471D02*
X66672311Y-109753328D01*
X67386597Y-109753328D02*
X67386597Y-108253328D01*
X67529455Y-109181900D02*
X67958026Y-109753328D01*
X67958026Y-108753328D02*
X67386597Y-109324757D01*
X68600883Y-109753328D02*
X68600883Y-108753328D01*
X68600883Y-108253328D02*
X68529455Y-108324757D01*
X68529455Y-108324757D02*
X68600883Y-108396185D01*
X68600883Y-108396185D02*
X68672312Y-108324757D01*
X68672312Y-108324757D02*
X68600883Y-108253328D01*
X68600883Y-108253328D02*
X68600883Y-108396185D01*
X69958027Y-109681900D02*
X69815169Y-109753328D01*
X69815169Y-109753328D02*
X69529455Y-109753328D01*
X69529455Y-109753328D02*
X69386598Y-109681900D01*
X69386598Y-109681900D02*
X69315169Y-109610471D01*
X69315169Y-109610471D02*
X69243741Y-109467614D01*
X69243741Y-109467614D02*
X69243741Y-109039042D01*
X69243741Y-109039042D02*
X69315169Y-108896185D01*
X69315169Y-108896185D02*
X69386598Y-108824757D01*
X69386598Y-108824757D02*
X69529455Y-108753328D01*
X69529455Y-108753328D02*
X69815169Y-108753328D01*
X69815169Y-108753328D02*
X69958027Y-108824757D01*
X71243741Y-109753328D02*
X71243741Y-108967614D01*
X71243741Y-108967614D02*
X71172312Y-108824757D01*
X71172312Y-108824757D02*
X71029455Y-108753328D01*
X71029455Y-108753328D02*
X70743741Y-108753328D01*
X70743741Y-108753328D02*
X70600883Y-108824757D01*
X71243741Y-109681900D02*
X71100883Y-109753328D01*
X71100883Y-109753328D02*
X70743741Y-109753328D01*
X70743741Y-109753328D02*
X70600883Y-109681900D01*
X70600883Y-109681900D02*
X70529455Y-109539042D01*
X70529455Y-109539042D02*
X70529455Y-109396185D01*
X70529455Y-109396185D02*
X70600883Y-109253328D01*
X70600883Y-109253328D02*
X70743741Y-109181900D01*
X70743741Y-109181900D02*
X71100883Y-109181900D01*
X71100883Y-109181900D02*
X71243741Y-109110471D01*
X72600884Y-109753328D02*
X72600884Y-108253328D01*
X72600884Y-109681900D02*
X72458026Y-109753328D01*
X72458026Y-109753328D02*
X72172312Y-109753328D01*
X72172312Y-109753328D02*
X72029455Y-109681900D01*
X72029455Y-109681900D02*
X71958026Y-109610471D01*
X71958026Y-109610471D02*
X71886598Y-109467614D01*
X71886598Y-109467614D02*
X71886598Y-109039042D01*
X71886598Y-109039042D02*
X71958026Y-108896185D01*
X71958026Y-108896185D02*
X72029455Y-108824757D01*
X72029455Y-108824757D02*
X72172312Y-108753328D01*
X72172312Y-108753328D02*
X72458026Y-108753328D01*
X72458026Y-108753328D02*
X72600884Y-108824757D01*
X72958027Y-109896185D02*
X74100884Y-109896185D01*
X74458026Y-108753328D02*
X74458026Y-110253328D01*
X74458026Y-108824757D02*
X74600884Y-108753328D01*
X74600884Y-108753328D02*
X74886598Y-108753328D01*
X74886598Y-108753328D02*
X75029455Y-108824757D01*
X75029455Y-108824757D02*
X75100884Y-108896185D01*
X75100884Y-108896185D02*
X75172312Y-109039042D01*
X75172312Y-109039042D02*
X75172312Y-109467614D01*
X75172312Y-109467614D02*
X75100884Y-109610471D01*
X75100884Y-109610471D02*
X75029455Y-109681900D01*
X75029455Y-109681900D02*
X74886598Y-109753328D01*
X74886598Y-109753328D02*
X74600884Y-109753328D01*
X74600884Y-109753328D02*
X74458026Y-109681900D01*
X76458027Y-109681900D02*
X76315169Y-109753328D01*
X76315169Y-109753328D02*
X76029455Y-109753328D01*
X76029455Y-109753328D02*
X75886598Y-109681900D01*
X75886598Y-109681900D02*
X75815169Y-109610471D01*
X75815169Y-109610471D02*
X75743741Y-109467614D01*
X75743741Y-109467614D02*
X75743741Y-109039042D01*
X75743741Y-109039042D02*
X75815169Y-108896185D01*
X75815169Y-108896185D02*
X75886598Y-108824757D01*
X75886598Y-108824757D02*
X76029455Y-108753328D01*
X76029455Y-108753328D02*
X76315169Y-108753328D01*
X76315169Y-108753328D02*
X76458027Y-108824757D01*
X77100883Y-109753328D02*
X77100883Y-108253328D01*
X77100883Y-108824757D02*
X77243741Y-108753328D01*
X77243741Y-108753328D02*
X77529455Y-108753328D01*
X77529455Y-108753328D02*
X77672312Y-108824757D01*
X77672312Y-108824757D02*
X77743741Y-108896185D01*
X77743741Y-108896185D02*
X77815169Y-109039042D01*
X77815169Y-109039042D02*
X77815169Y-109467614D01*
X77815169Y-109467614D02*
X77743741Y-109610471D01*
X77743741Y-109610471D02*
X77672312Y-109681900D01*
X77672312Y-109681900D02*
X77529455Y-109753328D01*
X77529455Y-109753328D02*
X77243741Y-109753328D01*
X77243741Y-109753328D02*
X77100883Y-109681900D01*
D10*
D11*
X53502200Y-104867200D02*
X161502200Y-104867200D01*
D10*
D11*
X54886598Y-106981900D02*
X55100884Y-107053328D01*
X55100884Y-107053328D02*
X55458026Y-107053328D01*
X55458026Y-107053328D02*
X55600884Y-106981900D01*
X55600884Y-106981900D02*
X55672312Y-106910471D01*
X55672312Y-106910471D02*
X55743741Y-106767614D01*
X55743741Y-106767614D02*
X55743741Y-106624757D01*
X55743741Y-106624757D02*
X55672312Y-106481900D01*
X55672312Y-106481900D02*
X55600884Y-106410471D01*
X55600884Y-106410471D02*
X55458026Y-106339042D01*
X55458026Y-106339042D02*
X55172312Y-106267614D01*
X55172312Y-106267614D02*
X55029455Y-106196185D01*
X55029455Y-106196185D02*
X54958026Y-106124757D01*
X54958026Y-106124757D02*
X54886598Y-105981900D01*
X54886598Y-105981900D02*
X54886598Y-105839042D01*
X54886598Y-105839042D02*
X54958026Y-105696185D01*
X54958026Y-105696185D02*
X55029455Y-105624757D01*
X55029455Y-105624757D02*
X55172312Y-105553328D01*
X55172312Y-105553328D02*
X55529455Y-105553328D01*
X55529455Y-105553328D02*
X55743741Y-105624757D01*
X56386597Y-107053328D02*
X56386597Y-105553328D01*
X57029455Y-107053328D02*
X57029455Y-106267614D01*
X57029455Y-106267614D02*
X56958026Y-106124757D01*
X56958026Y-106124757D02*
X56815169Y-106053328D01*
X56815169Y-106053328D02*
X56600883Y-106053328D01*
X56600883Y-106053328D02*
X56458026Y-106124757D01*
X56458026Y-106124757D02*
X56386597Y-106196185D01*
X58315169Y-106981900D02*
X58172312Y-107053328D01*
X58172312Y-107053328D02*
X57886598Y-107053328D01*
X57886598Y-107053328D02*
X57743740Y-106981900D01*
X57743740Y-106981900D02*
X57672312Y-106839042D01*
X57672312Y-106839042D02*
X57672312Y-106267614D01*
X57672312Y-106267614D02*
X57743740Y-106124757D01*
X57743740Y-106124757D02*
X57886598Y-106053328D01*
X57886598Y-106053328D02*
X58172312Y-106053328D01*
X58172312Y-106053328D02*
X58315169Y-106124757D01*
X58315169Y-106124757D02*
X58386598Y-106267614D01*
X58386598Y-106267614D02*
X58386598Y-106410471D01*
X58386598Y-106410471D02*
X57672312Y-106553328D01*
X59600883Y-106981900D02*
X59458026Y-107053328D01*
X59458026Y-107053328D02*
X59172312Y-107053328D01*
X59172312Y-107053328D02*
X59029454Y-106981900D01*
X59029454Y-106981900D02*
X58958026Y-106839042D01*
X58958026Y-106839042D02*
X58958026Y-106267614D01*
X58958026Y-106267614D02*
X59029454Y-106124757D01*
X59029454Y-106124757D02*
X59172312Y-106053328D01*
X59172312Y-106053328D02*
X59458026Y-106053328D01*
X59458026Y-106053328D02*
X59600883Y-106124757D01*
X59600883Y-106124757D02*
X59672312Y-106267614D01*
X59672312Y-106267614D02*
X59672312Y-106410471D01*
X59672312Y-106410471D02*
X58958026Y-106553328D01*
X60100883Y-106053328D02*
X60672311Y-106053328D01*
X60315168Y-105553328D02*
X60315168Y-106839042D01*
X60315168Y-106839042D02*
X60386597Y-106981900D01*
X60386597Y-106981900D02*
X60529454Y-107053328D01*
X60529454Y-107053328D02*
X60672311Y-107053328D01*
X61172311Y-106910471D02*
X61243740Y-106981900D01*
X61243740Y-106981900D02*
X61172311Y-107053328D01*
X61172311Y-107053328D02*
X61100883Y-106981900D01*
X61100883Y-106981900D02*
X61172311Y-106910471D01*
X61172311Y-106910471D02*
X61172311Y-107053328D01*
X61172311Y-106124757D02*
X61243740Y-106196185D01*
X61243740Y-106196185D02*
X61172311Y-106267614D01*
X61172311Y-106267614D02*
X61100883Y-106196185D01*
X61100883Y-106196185D02*
X61172311Y-106124757D01*
X61172311Y-106124757D02*
X61172311Y-106267614D01*
D10*
D12*
X54985282Y-103616957D02*
X55699568Y-103616957D01*
X54842425Y-104045528D02*
X55342425Y-102545528D01*
X55342425Y-102545528D02*
X55842425Y-104045528D01*
X56342424Y-104045528D02*
X56342424Y-103045528D01*
X56342424Y-103188385D02*
X56413853Y-103116957D01*
X56413853Y-103116957D02*
X56556710Y-103045528D01*
X56556710Y-103045528D02*
X56770996Y-103045528D01*
X56770996Y-103045528D02*
X56913853Y-103116957D01*
X56913853Y-103116957D02*
X56985282Y-103259814D01*
X56985282Y-103259814D02*
X56985282Y-104045528D01*
X56985282Y-103259814D02*
X57056710Y-103116957D01*
X57056710Y-103116957D02*
X57199567Y-103045528D01*
X57199567Y-103045528D02*
X57413853Y-103045528D01*
X57413853Y-103045528D02*
X57556710Y-103116957D01*
X57556710Y-103116957D02*
X57628139Y-103259814D01*
X57628139Y-103259814D02*
X57628139Y-104045528D01*
X58342424Y-103045528D02*
X58342424Y-104545528D01*
X58342424Y-103116957D02*
X58485282Y-103045528D01*
X58485282Y-103045528D02*
X58770996Y-103045528D01*
X58770996Y-103045528D02*
X58913853Y-103116957D01*
X58913853Y-103116957D02*
X58985282Y-103188385D01*
X58985282Y-103188385D02*
X59056710Y-103331242D01*
X59056710Y-103331242D02*
X59056710Y-103759814D01*
X59056710Y-103759814D02*
X58985282Y-103902671D01*
X58985282Y-103902671D02*
X58913853Y-103974100D01*
X58913853Y-103974100D02*
X58770996Y-104045528D01*
X58770996Y-104045528D02*
X58485282Y-104045528D01*
X58485282Y-104045528D02*
X58342424Y-103974100D01*
X59556710Y-104045528D02*
X60342425Y-103045528D01*
X59556710Y-103045528D02*
X60342425Y-104045528D01*
X62056710Y-103259814D02*
X62556710Y-103259814D01*
X62770996Y-104045528D02*
X62056710Y-104045528D01*
X62056710Y-104045528D02*
X62056710Y-102545528D01*
X62056710Y-102545528D02*
X62770996Y-102545528D01*
X64056711Y-103045528D02*
X64056711Y-104045528D01*
X63413853Y-103045528D02*
X63413853Y-103831242D01*
X63413853Y-103831242D02*
X63485282Y-103974100D01*
X63485282Y-103974100D02*
X63628139Y-104045528D01*
X63628139Y-104045528D02*
X63842425Y-104045528D01*
X63842425Y-104045528D02*
X63985282Y-103974100D01*
X63985282Y-103974100D02*
X64056711Y-103902671D01*
X64770996Y-104045528D02*
X64770996Y-103045528D01*
X64770996Y-103331242D02*
X64842425Y-103188385D01*
X64842425Y-103188385D02*
X64913854Y-103116957D01*
X64913854Y-103116957D02*
X65056711Y-103045528D01*
X65056711Y-103045528D02*
X65199568Y-103045528D01*
X65913853Y-104045528D02*
X65770996Y-103974100D01*
X65770996Y-103974100D02*
X65699567Y-103902671D01*
X65699567Y-103902671D02*
X65628139Y-103759814D01*
X65628139Y-103759814D02*
X65628139Y-103331242D01*
X65628139Y-103331242D02*
X65699567Y-103188385D01*
X65699567Y-103188385D02*
X65770996Y-103116957D01*
X65770996Y-103116957D02*
X65913853Y-103045528D01*
X65913853Y-103045528D02*
X66128139Y-103045528D01*
X66128139Y-103045528D02*
X66270996Y-103116957D01*
X66270996Y-103116957D02*
X66342425Y-103188385D01*
X66342425Y-103188385D02*
X66413853Y-103331242D01*
X66413853Y-103331242D02*
X66413853Y-103759814D01*
X66413853Y-103759814D02*
X66342425Y-103902671D01*
X66342425Y-103902671D02*
X66270996Y-103974100D01*
X66270996Y-103974100D02*
X66128139Y-104045528D01*
X66128139Y-104045528D02*
X65913853Y-104045528D01*
X67056710Y-103045528D02*
X67056710Y-104545528D01*
X67056710Y-103116957D02*
X67199568Y-103045528D01*
X67199568Y-103045528D02*
X67485282Y-103045528D01*
X67485282Y-103045528D02*
X67628139Y-103116957D01*
X67628139Y-103116957D02*
X67699568Y-103188385D01*
X67699568Y-103188385D02*
X67770996Y-103331242D01*
X67770996Y-103331242D02*
X67770996Y-103759814D01*
X67770996Y-103759814D02*
X67699568Y-103902671D01*
X67699568Y-103902671D02*
X67628139Y-103974100D01*
X67628139Y-103974100D02*
X67485282Y-104045528D01*
X67485282Y-104045528D02*
X67199568Y-104045528D01*
X67199568Y-104045528D02*
X67056710Y-103974100D01*
X68985282Y-103974100D02*
X68842425Y-104045528D01*
X68842425Y-104045528D02*
X68556711Y-104045528D01*
X68556711Y-104045528D02*
X68413853Y-103974100D01*
X68413853Y-103974100D02*
X68342425Y-103831242D01*
X68342425Y-103831242D02*
X68342425Y-103259814D01*
X68342425Y-103259814D02*
X68413853Y-103116957D01*
X68413853Y-103116957D02*
X68556711Y-103045528D01*
X68556711Y-103045528D02*
X68842425Y-103045528D01*
X68842425Y-103045528D02*
X68985282Y-103116957D01*
X68985282Y-103116957D02*
X69056711Y-103259814D01*
X69056711Y-103259814D02*
X69056711Y-103402671D01*
X69056711Y-103402671D02*
X68342425Y-103545528D01*
D10*
D11*
X73502200Y-114867200D02*
X73502200Y-117867200D01*
D10*
D11*
X137502200Y-114867200D02*
X137502200Y-121367200D01*
D10*
X13190367Y-14314995D02*
X12923700Y-13934042D01*
X12733224Y-14314995D02*
X12733224Y-13514995D01*
X12733224Y-13514995D02*
X13037986Y-13514995D01*
X13037986Y-13514995D02*
X13114176Y-13553090D01*
X13114176Y-13553090D02*
X13152271Y-13591185D01*
X13152271Y-13591185D02*
X13190367Y-13667376D01*
X13190367Y-13667376D02*
X13190367Y-13781661D01*
X13190367Y-13781661D02*
X13152271Y-13857852D01*
X13152271Y-13857852D02*
X13114176Y-13895947D01*
X13114176Y-13895947D02*
X13037986Y-13934042D01*
X13037986Y-13934042D02*
X12733224Y-13934042D01*
X13876081Y-13781661D02*
X13876081Y-14314995D01*
X13685605Y-13476900D02*
X13495128Y-14048328D01*
X13495128Y-14048328D02*
X13990367Y-14048328D01*
X27729367Y-14774995D02*
X27462700Y-14394042D01*
X27272224Y-14774995D02*
X27272224Y-13974995D01*
X27272224Y-13974995D02*
X27576986Y-13974995D01*
X27576986Y-13974995D02*
X27653176Y-14013090D01*
X27653176Y-14013090D02*
X27691271Y-14051185D01*
X27691271Y-14051185D02*
X27729367Y-14127376D01*
X27729367Y-14127376D02*
X27729367Y-14241661D01*
X27729367Y-14241661D02*
X27691271Y-14317852D01*
X27691271Y-14317852D02*
X27653176Y-14355947D01*
X27653176Y-14355947D02*
X27576986Y-14394042D01*
X27576986Y-14394042D02*
X27272224Y-14394042D01*
X28491271Y-14774995D02*
X28034128Y-14774995D01*
X28262700Y-14774995D02*
X28262700Y-13974995D01*
X28262700Y-13974995D02*
X28186509Y-14089280D01*
X28186509Y-14089280D02*
X28110319Y-14165471D01*
X28110319Y-14165471D02*
X28034128Y-14203566D01*
X23672367Y-14680595D02*
X23405700Y-14299642D01*
X23215224Y-14680595D02*
X23215224Y-13880595D01*
X23215224Y-13880595D02*
X23519986Y-13880595D01*
X23519986Y-13880595D02*
X23596176Y-13918690D01*
X23596176Y-13918690D02*
X23634271Y-13956785D01*
X23634271Y-13956785D02*
X23672367Y-14032976D01*
X23672367Y-14032976D02*
X23672367Y-14147261D01*
X23672367Y-14147261D02*
X23634271Y-14223452D01*
X23634271Y-14223452D02*
X23596176Y-14261547D01*
X23596176Y-14261547D02*
X23519986Y-14299642D01*
X23519986Y-14299642D02*
X23215224Y-14299642D01*
X23977128Y-13956785D02*
X24015224Y-13918690D01*
X24015224Y-13918690D02*
X24091414Y-13880595D01*
X24091414Y-13880595D02*
X24281890Y-13880595D01*
X24281890Y-13880595D02*
X24358081Y-13918690D01*
X24358081Y-13918690D02*
X24396176Y-13956785D01*
X24396176Y-13956785D02*
X24434271Y-14032976D01*
X24434271Y-14032976D02*
X24434271Y-14109166D01*
X24434271Y-14109166D02*
X24396176Y-14223452D01*
X24396176Y-14223452D02*
X23939033Y-14680595D01*
X23939033Y-14680595D02*
X24434271Y-14680595D01*
D11*
X17568880Y-6948052D02*
X17568880Y-6471862D01*
X17568880Y-6471862D02*
X18568880Y-6471862D01*
X18092690Y-7281386D02*
X18092690Y-7614719D01*
X17568880Y-7757576D02*
X17568880Y-7281386D01*
X17568880Y-7281386D02*
X18568880Y-7281386D01*
X18568880Y-7281386D02*
X18568880Y-7757576D01*
X17568880Y-8186148D02*
X18568880Y-8186148D01*
X18568880Y-8186148D02*
X18568880Y-8424243D01*
X18568880Y-8424243D02*
X18521261Y-8567100D01*
X18521261Y-8567100D02*
X18426023Y-8662338D01*
X18426023Y-8662338D02*
X18330785Y-8709957D01*
X18330785Y-8709957D02*
X18140309Y-8757576D01*
X18140309Y-8757576D02*
X17997452Y-8757576D01*
X17997452Y-8757576D02*
X17806976Y-8709957D01*
X17806976Y-8709957D02*
X17711738Y-8662338D01*
X17711738Y-8662338D02*
X17616500Y-8567100D01*
X17616500Y-8567100D02*
X17568880Y-8424243D01*
X17568880Y-8424243D02*
X17568880Y-8186148D01*
X18568880Y-9090910D02*
X18568880Y-9709957D01*
X18568880Y-9709957D02*
X18187928Y-9376624D01*
X18187928Y-9376624D02*
X18187928Y-9519481D01*
X18187928Y-9519481D02*
X18140309Y-9614719D01*
X18140309Y-9614719D02*
X18092690Y-9662338D01*
X18092690Y-9662338D02*
X17997452Y-9709957D01*
X17997452Y-9709957D02*
X17759357Y-9709957D01*
X17759357Y-9709957D02*
X17664119Y-9662338D01*
X17664119Y-9662338D02*
X17616500Y-9614719D01*
X17616500Y-9614719D02*
X17568880Y-9519481D01*
X17568880Y-9519481D02*
X17568880Y-9233767D01*
X17568880Y-9233767D02*
X17616500Y-9138529D01*
X17616500Y-9138529D02*
X17664119Y-9090910D01*
D10*
X18423367Y-14314995D02*
X18156700Y-13934042D01*
X17966224Y-14314995D02*
X17966224Y-13514995D01*
X17966224Y-13514995D02*
X18270986Y-13514995D01*
X18270986Y-13514995D02*
X18347176Y-13553090D01*
X18347176Y-13553090D02*
X18385271Y-13591185D01*
X18385271Y-13591185D02*
X18423367Y-13667376D01*
X18423367Y-13667376D02*
X18423367Y-13781661D01*
X18423367Y-13781661D02*
X18385271Y-13857852D01*
X18385271Y-13857852D02*
X18347176Y-13895947D01*
X18347176Y-13895947D02*
X18270986Y-13934042D01*
X18270986Y-13934042D02*
X17966224Y-13934042D01*
X18690033Y-13514995D02*
X19185271Y-13514995D01*
X19185271Y-13514995D02*
X18918605Y-13819757D01*
X18918605Y-13819757D02*
X19032890Y-13819757D01*
X19032890Y-13819757D02*
X19109081Y-13857852D01*
X19109081Y-13857852D02*
X19147176Y-13895947D01*
X19147176Y-13895947D02*
X19185271Y-13972138D01*
X19185271Y-13972138D02*
X19185271Y-14162614D01*
X19185271Y-14162614D02*
X19147176Y-14238804D01*
X19147176Y-14238804D02*
X19109081Y-14276900D01*
X19109081Y-14276900D02*
X19032890Y-14314995D01*
X19032890Y-14314995D02*
X18804319Y-14314995D01*
X18804319Y-14314995D02*
X18728128Y-14276900D01*
X18728128Y-14276900D02*
X18690033Y-14238804D01*
X7636367Y-14314995D02*
X7369700Y-13934042D01*
X7179224Y-14314995D02*
X7179224Y-13514995D01*
X7179224Y-13514995D02*
X7483986Y-13514995D01*
X7483986Y-13514995D02*
X7560176Y-13553090D01*
X7560176Y-13553090D02*
X7598271Y-13591185D01*
X7598271Y-13591185D02*
X7636367Y-13667376D01*
X7636367Y-13667376D02*
X7636367Y-13781661D01*
X7636367Y-13781661D02*
X7598271Y-13857852D01*
X7598271Y-13857852D02*
X7560176Y-13895947D01*
X7560176Y-13895947D02*
X7483986Y-13934042D01*
X7483986Y-13934042D02*
X7179224Y-13934042D01*
X8360176Y-13514995D02*
X7979224Y-13514995D01*
X7979224Y-13514995D02*
X7941128Y-13895947D01*
X7941128Y-13895947D02*
X7979224Y-13857852D01*
X7979224Y-13857852D02*
X8055414Y-13819757D01*
X8055414Y-13819757D02*
X8245890Y-13819757D01*
X8245890Y-13819757D02*
X8322081Y-13857852D01*
X8322081Y-13857852D02*
X8360176Y-13895947D01*
X8360176Y-13895947D02*
X8398271Y-13972138D01*
X8398271Y-13972138D02*
X8398271Y-14162614D01*
X8398271Y-14162614D02*
X8360176Y-14238804D01*
X8360176Y-14238804D02*
X8322081Y-14276900D01*
X8322081Y-14276900D02*
X8245890Y-14314995D01*
X8245890Y-14314995D02*
X8055414Y-14314995D01*
X8055414Y-14314995D02*
X7979224Y-14276900D01*
X7979224Y-14276900D02*
X7941128Y-14238804D01*
D11*
X22654880Y-7154052D02*
X22654880Y-6677862D01*
X22654880Y-6677862D02*
X23654880Y-6677862D01*
X23178690Y-7487386D02*
X23178690Y-7820719D01*
X22654880Y-7963576D02*
X22654880Y-7487386D01*
X22654880Y-7487386D02*
X23654880Y-7487386D01*
X23654880Y-7487386D02*
X23654880Y-7963576D01*
X22654880Y-8392148D02*
X23654880Y-8392148D01*
X23654880Y-8392148D02*
X23654880Y-8630243D01*
X23654880Y-8630243D02*
X23607261Y-8773100D01*
X23607261Y-8773100D02*
X23512023Y-8868338D01*
X23512023Y-8868338D02*
X23416785Y-8915957D01*
X23416785Y-8915957D02*
X23226309Y-8963576D01*
X23226309Y-8963576D02*
X23083452Y-8963576D01*
X23083452Y-8963576D02*
X22892976Y-8915957D01*
X22892976Y-8915957D02*
X22797738Y-8868338D01*
X22797738Y-8868338D02*
X22702500Y-8773100D01*
X22702500Y-8773100D02*
X22654880Y-8630243D01*
X22654880Y-8630243D02*
X22654880Y-8392148D01*
X23559642Y-9344529D02*
X23607261Y-9392148D01*
X23607261Y-9392148D02*
X23654880Y-9487386D01*
X23654880Y-9487386D02*
X23654880Y-9725481D01*
X23654880Y-9725481D02*
X23607261Y-9820719D01*
X23607261Y-9820719D02*
X23559642Y-9868338D01*
X23559642Y-9868338D02*
X23464404Y-9915957D01*
X23464404Y-9915957D02*
X23369166Y-9915957D01*
X23369166Y-9915957D02*
X23226309Y-9868338D01*
X23226309Y-9868338D02*
X22654880Y-9296910D01*
X22654880Y-9296910D02*
X22654880Y-9915957D01*
X16875966Y-25294119D02*
X16875966Y-26008404D01*
X16875966Y-26008404D02*
X16828347Y-26151261D01*
X16828347Y-26151261D02*
X16733109Y-26246500D01*
X16733109Y-26246500D02*
X16590252Y-26294119D01*
X16590252Y-26294119D02*
X16495014Y-26294119D01*
X17256919Y-25294119D02*
X17875966Y-25294119D01*
X17875966Y-25294119D02*
X17542633Y-25675071D01*
X17542633Y-25675071D02*
X17685490Y-25675071D01*
X17685490Y-25675071D02*
X17780728Y-25722690D01*
X17780728Y-25722690D02*
X17828347Y-25770309D01*
X17828347Y-25770309D02*
X17875966Y-25865547D01*
X17875966Y-25865547D02*
X17875966Y-26103642D01*
X17875966Y-26103642D02*
X17828347Y-26198880D01*
X17828347Y-26198880D02*
X17780728Y-26246500D01*
X17780728Y-26246500D02*
X17685490Y-26294119D01*
X17685490Y-26294119D02*
X17399776Y-26294119D01*
X17399776Y-26294119D02*
X17304538Y-26246500D01*
X17304538Y-26246500D02*
X17256919Y-26198880D01*
X7893880Y-7097652D02*
X7893880Y-6621462D01*
X7893880Y-6621462D02*
X8893880Y-6621462D01*
X8417690Y-7430986D02*
X8417690Y-7764319D01*
X7893880Y-7907176D02*
X7893880Y-7430986D01*
X7893880Y-7430986D02*
X8893880Y-7430986D01*
X8893880Y-7430986D02*
X8893880Y-7907176D01*
X7893880Y-8335748D02*
X8893880Y-8335748D01*
X8893880Y-8335748D02*
X8893880Y-8573843D01*
X8893880Y-8573843D02*
X8846261Y-8716700D01*
X8846261Y-8716700D02*
X8751023Y-8811938D01*
X8751023Y-8811938D02*
X8655785Y-8859557D01*
X8655785Y-8859557D02*
X8465309Y-8907176D01*
X8465309Y-8907176D02*
X8322452Y-8907176D01*
X8322452Y-8907176D02*
X8131976Y-8859557D01*
X8131976Y-8859557D02*
X8036738Y-8811938D01*
X8036738Y-8811938D02*
X7941500Y-8716700D01*
X7941500Y-8716700D02*
X7893880Y-8573843D01*
X7893880Y-8573843D02*
X7893880Y-8335748D01*
X8893880Y-9811938D02*
X8893880Y-9335748D01*
X8893880Y-9335748D02*
X8417690Y-9288129D01*
X8417690Y-9288129D02*
X8465309Y-9335748D01*
X8465309Y-9335748D02*
X8512928Y-9430986D01*
X8512928Y-9430986D02*
X8512928Y-9669081D01*
X8512928Y-9669081D02*
X8465309Y-9764319D01*
X8465309Y-9764319D02*
X8417690Y-9811938D01*
X8417690Y-9811938D02*
X8322452Y-9859557D01*
X8322452Y-9859557D02*
X8084357Y-9859557D01*
X8084357Y-9859557D02*
X7989119Y-9811938D01*
X7989119Y-9811938D02*
X7941500Y-9764319D01*
X7941500Y-9764319D02*
X7893880Y-9669081D01*
X7893880Y-9669081D02*
X7893880Y-9430986D01*
X7893880Y-9430986D02*
X7941500Y-9335748D01*
X7941500Y-9335748D02*
X7989119Y-9288129D01*
X27890880Y-7058452D02*
X27890880Y-6582262D01*
X27890880Y-6582262D02*
X28890880Y-6582262D01*
X28414690Y-7391786D02*
X28414690Y-7725119D01*
X27890880Y-7867976D02*
X27890880Y-7391786D01*
X27890880Y-7391786D02*
X28890880Y-7391786D01*
X28890880Y-7391786D02*
X28890880Y-7867976D01*
X27890880Y-8296548D02*
X28890880Y-8296548D01*
X28890880Y-8296548D02*
X28890880Y-8534643D01*
X28890880Y-8534643D02*
X28843261Y-8677500D01*
X28843261Y-8677500D02*
X28748023Y-8772738D01*
X28748023Y-8772738D02*
X28652785Y-8820357D01*
X28652785Y-8820357D02*
X28462309Y-8867976D01*
X28462309Y-8867976D02*
X28319452Y-8867976D01*
X28319452Y-8867976D02*
X28128976Y-8820357D01*
X28128976Y-8820357D02*
X28033738Y-8772738D01*
X28033738Y-8772738D02*
X27938500Y-8677500D01*
X27938500Y-8677500D02*
X27890880Y-8534643D01*
X27890880Y-8534643D02*
X27890880Y-8296548D01*
X27890880Y-9820357D02*
X27890880Y-9248929D01*
X27890880Y-9534643D02*
X28890880Y-9534643D01*
X28890880Y-9534643D02*
X28748023Y-9439405D01*
X28748023Y-9439405D02*
X28652785Y-9344167D01*
X28652785Y-9344167D02*
X28605166Y-9248929D01*
X12688880Y-6844052D02*
X12688880Y-6367862D01*
X12688880Y-6367862D02*
X13688880Y-6367862D01*
X13212690Y-7177386D02*
X13212690Y-7510719D01*
X12688880Y-7653576D02*
X12688880Y-7177386D01*
X12688880Y-7177386D02*
X13688880Y-7177386D01*
X13688880Y-7177386D02*
X13688880Y-7653576D01*
X12688880Y-8082148D02*
X13688880Y-8082148D01*
X13688880Y-8082148D02*
X13688880Y-8320243D01*
X13688880Y-8320243D02*
X13641261Y-8463100D01*
X13641261Y-8463100D02*
X13546023Y-8558338D01*
X13546023Y-8558338D02*
X13450785Y-8605957D01*
X13450785Y-8605957D02*
X13260309Y-8653576D01*
X13260309Y-8653576D02*
X13117452Y-8653576D01*
X13117452Y-8653576D02*
X12926976Y-8605957D01*
X12926976Y-8605957D02*
X12831738Y-8558338D01*
X12831738Y-8558338D02*
X12736500Y-8463100D01*
X12736500Y-8463100D02*
X12688880Y-8320243D01*
X12688880Y-8320243D02*
X12688880Y-8082148D01*
X13355547Y-9510719D02*
X12688880Y-9510719D01*
X13736500Y-9272624D02*
X13022214Y-9034529D01*
X13022214Y-9034529D02*
X13022214Y-9653576D01*
D14*
%TO.C,R4*%
X12014700Y-14310100D02*
X12014700Y-14510100D01*
X10654700Y-14310100D02*
X10654700Y-14510100D01*
%TO.C,R1*%
X26563700Y-14310100D02*
X26563700Y-14510100D01*
X25203700Y-14310100D02*
X25203700Y-14510100D01*
%TO.C,R2*%
X22253700Y-14310100D02*
X22253700Y-14510100D01*
X20893700Y-14310100D02*
X20893700Y-14510100D01*
D15*
%TO.C,LED3*%
X16411500Y-5472700D02*
G75*
G02*
X16259100Y-5472700I-76200J0D01*
G01*
X16259100Y-5472700D02*
G75*
G02*
X16411500Y-5472700I76200J0D01*
G01*
X17313200Y-9000550D02*
X17313200Y-7431250D01*
X15357400Y-7431250D02*
X15357400Y-9000550D01*
D14*
%TO.C,R3*%
X16990700Y-14310100D02*
X16990700Y-14510100D01*
X15630700Y-14310100D02*
X15630700Y-14510100D01*
%TO.C,R5*%
X6656700Y-14310100D02*
X6656700Y-14510100D01*
X5296700Y-14310100D02*
X5296700Y-14510100D01*
D15*
%TO.C,LED2*%
X21406500Y-5445300D02*
G75*
G02*
X21254100Y-5445300I-76200J0D01*
G01*
X21254100Y-5445300D02*
G75*
G02*
X21406500Y-5445300I76200J0D01*
G01*
X22308200Y-8973150D02*
X22308200Y-7403850D01*
X20352400Y-7403850D02*
X20352400Y-8973150D01*
%TO.C,LED5*%
X6424900Y-5473500D02*
G75*
G02*
X6272500Y-5473500I-76200J0D01*
G01*
X6272500Y-5473500D02*
G75*
G02*
X6424900Y-5473500I76200J0D01*
G01*
X7326600Y-9001350D02*
X7326600Y-7432050D01*
X5370800Y-7432050D02*
X5370800Y-9001350D01*
%TO.C,LED1*%
X26421900Y-5434300D02*
G75*
G02*
X26269500Y-5434300I-76200J0D01*
G01*
X26269500Y-5434300D02*
G75*
G02*
X26421900Y-5434300I76200J0D01*
G01*
X27323600Y-8962150D02*
X27323600Y-7392850D01*
X25367800Y-7392850D02*
X25367800Y-8962150D01*
%TO.C,LED4*%
X11260500Y-5485700D02*
G75*
G02*
X11108100Y-5485700I-76200J0D01*
G01*
X11108100Y-5485700D02*
G75*
G02*
X11260500Y-5485700I76200J0D01*
G01*
X12162200Y-9013550D02*
X12162200Y-7444250D01*
X10206400Y-7444250D02*
X10206400Y-9013550D01*
%TD*%
%LPC*%
D16*
%TO.C,R4*%
X11334700Y-15350100D03*
X11334700Y-13470100D03*
%TD*%
%TO.C,R1*%
X25883700Y-15350100D03*
X25883700Y-13470100D03*
%TD*%
%TO.C,R2*%
X21573700Y-15350100D03*
X21573700Y-13470100D03*
%TD*%
D17*
%TO.C,LED3*%
X16335300Y-9714500D03*
X16335300Y-6717300D03*
%TD*%
D16*
%TO.C,R3*%
X16310700Y-15350100D03*
X16310700Y-13470100D03*
%TD*%
%TO.C,R5*%
X5976700Y-15350100D03*
X5976700Y-13470100D03*
%TD*%
D17*
%TO.C,LED2*%
X21330300Y-9687100D03*
X21330300Y-6689900D03*
%TD*%
D18*
%TO.C,J3*%
X5709300Y-23559300D03*
X10309300Y-23559300D03*
X14909300Y-23559300D03*
X19509300Y-23559300D03*
X24109300Y-23559300D03*
D19*
X28709300Y-23559300D03*
%TD*%
D17*
%TO.C,LED5*%
X6348700Y-9715300D03*
X6348700Y-6718100D03*
%TD*%
%TO.C,LED1*%
X26345700Y-9676100D03*
X26345700Y-6678900D03*
%TD*%
%TO.C,LED4*%
X11184300Y-9727500D03*
X11184300Y-6730300D03*
%TD*%
%LPD*%
M02*
