M48
; DRILL file {KiCad 9.0.4} date 2025-10-16T04:43:51+0200
; FORMAT={-:-/ absolute / metric / decimal}
; #@! TF.CreationDate,2025-10-16T04:43:51+02:00
; #@! TF.GenerationSoftware,Kicad,Pcbnew,9.0.4
; #@! TF.FileFunction,MixedPlating,1,2
FMAT,2
METRIC
; #@! TA.AperFunction,Plated,PTH,ViaDrill
T1C0.300
; #@! TA.AperFunction,Plated,PTH,ComponentDrill
T2C0.800
; #@! TA.AperFunction,Plated,PTH,ComponentDrill
T3C0.950
; #@! TA.AperFunction,Plated,PTH,ComponentDrill
T4C1.000
; #@! TA.AperFunction,Plated,PTH,ComponentDrill
T5C1.020
%
G90
G05
T1
X7.12Y-19.61
X36.85Y-15.46
X37.96Y-12.91
X39.15Y-10.5
X40.11Y-8.0
X41.14Y-5.34
X68.45Y-13.32
X70.94Y-13.32
T2
X64.65Y-6.35
X64.65Y-26.67
X67.19Y-6.35
X67.19Y-26.67
X69.73Y-6.35
X69.73Y-26.67
X72.27Y-6.35
X72.27Y-26.67
X74.81Y-6.35
X74.81Y-26.67
X77.35Y-6.35
X77.35Y-26.67
T3
X53.18Y-6.69
X53.18Y-9.19
X53.18Y-11.69
X53.18Y-14.19
X53.18Y-16.69
T4
X53.13Y-23.95
X53.13Y-26.45
T5
X1.84Y-3.75
X1.84Y-29.15
X4.38Y-3.75
X4.38Y-29.15
X6.92Y-3.75
X6.92Y-29.15
X9.46Y-3.75
X9.46Y-29.15
X12.0Y-3.75
X12.0Y-29.15
X14.54Y-3.75
X14.54Y-29.15
X17.08Y-3.75
X17.08Y-29.15
X19.62Y-3.75
X19.62Y-29.15
X22.16Y-3.75
X22.16Y-29.15
X24.7Y-3.75
X24.7Y-29.15
X27.24Y-3.75
X27.24Y-29.15
X29.78Y-3.75
X29.78Y-29.15
X32.32Y-3.75
X32.32Y-29.15
X34.86Y-3.75
X34.86Y-29.15
X37.4Y-3.75
X37.4Y-29.15
X39.94Y-3.75
X39.94Y-29.15
X42.48Y-3.75
X42.48Y-29.15
X45.02Y-3.75
X45.02Y-29.15
X47.56Y-3.75
X47.56Y-29.15
M30
