M48
; DRILL file {KiCad 9.0.4} date 2025-09-26T13:37:23+0200
; FORMAT={-:-/ absolute / metric / decimal}
; #@! TF.CreationDate,2025-09-26T13:37:23+02:00
; #@! TF.GenerationSoftware,Kicad,Pcbnew,9.0.4
; #@! TF.FileFunction,Plated,1,2,PTH
FMAT,2
METRIC
; #@! TA.AperFunction,Plated,PTH,ViaDrill
T1C0.300
; #@! TA.AperFunction,Plated,PTH,ComponentDrill
T2C0.800
; #@! TA.AperFunction,Plated,PTH,ComponentDrill
T3C0.950
; #@! TA.AperFunction,Plated,PTH,ComponentDrill
T4C1.000
; #@! TA.AperFunction,Plated,PTH,ComponentDrill
T5C1.020
%
G90
G05
T1
X111.0Y-102.12
X140.73Y-97.97
X141.84Y-95.42
X143.03Y-93.01
X143.99Y-90.51
X145.02Y-87.85
X172.33Y-95.83
X174.82Y-95.83
T2
X168.53Y-88.86
X168.53Y-109.18
X171.07Y-88.86
X171.07Y-109.18
X173.61Y-88.86
X173.61Y-109.18
X176.15Y-88.86
X176.15Y-109.18
X178.69Y-88.86
X178.69Y-109.18
X181.23Y-88.86
X181.23Y-109.18
T3
X157.06Y-89.2
X157.06Y-91.7
X157.06Y-94.2
X157.06Y-96.7
X157.06Y-99.2
T4
X157.01Y-106.46
X157.01Y-108.96
T5
X105.72Y-86.26
X105.72Y-111.66
X108.26Y-86.26
X108.26Y-111.66
X110.8Y-86.26
X110.8Y-111.66
X113.34Y-86.26
X113.34Y-111.66
X115.88Y-86.26
X115.88Y-111.66
X118.42Y-86.26
X118.42Y-111.66
X120.96Y-86.26
X120.96Y-111.66
X123.5Y-86.26
X123.5Y-111.66
X126.04Y-86.26
X126.04Y-111.66
X128.58Y-86.26
X128.58Y-111.66
X131.12Y-86.26
X131.12Y-111.66
X133.66Y-86.26
X133.66Y-111.66
X136.2Y-86.26
X136.2Y-111.66
X138.74Y-86.26
X138.74Y-111.66
X141.28Y-86.26
X141.28Y-111.66
X143.82Y-86.26
X143.82Y-111.66
X146.36Y-86.26
X146.36Y-111.66
X148.9Y-86.26
X148.9Y-111.66
X151.44Y-86.26
X151.44Y-111.66
M30
