%TF.GenerationSoftware,KiCad,Pcbnew,9.0.4*%
%TF.CreationDate,2025-10-16T04:43:45+02:00*%
%TF.ProjectId,AmpX Open Energy Gateway,416d7058-204f-4706-956e-20456e657267,1.0*%
%TF.SameCoordinates,PX6311540PY4eb00b0*%
%TF.FileFunction,Paste,Bot*%
%TF.FilePolarity,Positive*%
%FSLAX46Y46*%
G04 Gerber Fmt 4.6, Leading zero omitted, Abs format (unit mm)*
G04 Created by KiCad (PCBNEW 9.0.4) date 2025-10-16 04:43:45*
%MOMM*%
%LPD*%
G01*
G04 APERTURE LIST*
%ADD10C,0.100000*%
%ADD11C,0.150000*%
%ADD12C,0.300000*%
%ADD13C,0.400000*%
G04 APERTURE END LIST*
D10*
D11*
X73122200Y-83497200D02*
X181122200Y-83497200D01*
X181122200Y-115497200D01*
X73122200Y-115497200D01*
X73122200Y-83497200D01*
D10*
D11*
X-93880000Y72510000D02*
X183122200Y72510000D01*
X183122200Y-117497200D01*
X-93880000Y-117497200D01*
X-93880000Y72510000D01*
D10*
D11*
X-91880000Y70510000D02*
X181122200Y70510000D01*
X181122200Y-115497200D01*
X-91880000Y-115497200D01*
X-91880000Y70510000D01*
D10*
D11*
X-43880000Y70510000D02*
X-43880000Y72510000D01*
D10*
D11*
X6120000Y70510000D02*
X6120000Y72510000D01*
D10*
D11*
X56120000Y70510000D02*
X56120000Y72510000D01*
D10*
D11*
X106120000Y70510000D02*
X106120000Y72510000D01*
D10*
D11*
X156120000Y70510000D02*
X156120000Y72510000D01*
D10*
D11*
X-67790840Y70916396D02*
X-68533697Y70916396D01*
X-68162269Y70916396D02*
X-68162269Y72216396D01*
X-68162269Y72216396D02*
X-68286078Y72030681D01*
X-68286078Y72030681D02*
X-68409888Y71906872D01*
X-68409888Y71906872D02*
X-68533697Y71844967D01*
D10*
D11*
X-18533697Y72092586D02*
X-18471793Y72154491D01*
X-18471793Y72154491D02*
X-18347983Y72216396D01*
X-18347983Y72216396D02*
X-18038459Y72216396D01*
X-18038459Y72216396D02*
X-17914650Y72154491D01*
X-17914650Y72154491D02*
X-17852745Y72092586D01*
X-17852745Y72092586D02*
X-17790840Y71968777D01*
X-17790840Y71968777D02*
X-17790840Y71844967D01*
X-17790840Y71844967D02*
X-17852745Y71659253D01*
X-17852745Y71659253D02*
X-18595602Y70916396D01*
X-18595602Y70916396D02*
X-17790840Y70916396D01*
D10*
D11*
X31404398Y72216396D02*
X32209160Y72216396D01*
X32209160Y72216396D02*
X31775826Y71721158D01*
X31775826Y71721158D02*
X31961541Y71721158D01*
X31961541Y71721158D02*
X32085350Y71659253D01*
X32085350Y71659253D02*
X32147255Y71597348D01*
X32147255Y71597348D02*
X32209160Y71473539D01*
X32209160Y71473539D02*
X32209160Y71164015D01*
X32209160Y71164015D02*
X32147255Y71040205D01*
X32147255Y71040205D02*
X32085350Y70978300D01*
X32085350Y70978300D02*
X31961541Y70916396D01*
X31961541Y70916396D02*
X31590112Y70916396D01*
X31590112Y70916396D02*
X31466303Y70978300D01*
X31466303Y70978300D02*
X31404398Y71040205D01*
D10*
D11*
X82085350Y71783062D02*
X82085350Y70916396D01*
X81775826Y72278300D02*
X81466303Y71349729D01*
X81466303Y71349729D02*
X82271064Y71349729D01*
D10*
D11*
X132147255Y72216396D02*
X131528207Y72216396D01*
X131528207Y72216396D02*
X131466303Y71597348D01*
X131466303Y71597348D02*
X131528207Y71659253D01*
X131528207Y71659253D02*
X131652017Y71721158D01*
X131652017Y71721158D02*
X131961541Y71721158D01*
X131961541Y71721158D02*
X132085350Y71659253D01*
X132085350Y71659253D02*
X132147255Y71597348D01*
X132147255Y71597348D02*
X132209160Y71473539D01*
X132209160Y71473539D02*
X132209160Y71164015D01*
X132209160Y71164015D02*
X132147255Y71040205D01*
X132147255Y71040205D02*
X132085350Y70978300D01*
X132085350Y70978300D02*
X131961541Y70916396D01*
X131961541Y70916396D02*
X131652017Y70916396D01*
X131652017Y70916396D02*
X131528207Y70978300D01*
X131528207Y70978300D02*
X131466303Y71040205D01*
D10*
D11*
X182085350Y72216396D02*
X181837731Y72216396D01*
X181837731Y72216396D02*
X181713922Y72154491D01*
X181713922Y72154491D02*
X181652017Y72092586D01*
X181652017Y72092586D02*
X181528207Y71906872D01*
X181528207Y71906872D02*
X181466303Y71659253D01*
X181466303Y71659253D02*
X181466303Y71164015D01*
X181466303Y71164015D02*
X181528207Y71040205D01*
X181528207Y71040205D02*
X181590112Y70978300D01*
X181590112Y70978300D02*
X181713922Y70916396D01*
X181713922Y70916396D02*
X181961541Y70916396D01*
X181961541Y70916396D02*
X182085350Y70978300D01*
X182085350Y70978300D02*
X182147255Y71040205D01*
X182147255Y71040205D02*
X182209160Y71164015D01*
X182209160Y71164015D02*
X182209160Y71473539D01*
X182209160Y71473539D02*
X182147255Y71597348D01*
X182147255Y71597348D02*
X182085350Y71659253D01*
X182085350Y71659253D02*
X181961541Y71721158D01*
X181961541Y71721158D02*
X181713922Y71721158D01*
X181713922Y71721158D02*
X181590112Y71659253D01*
X181590112Y71659253D02*
X181528207Y71597348D01*
X181528207Y71597348D02*
X181466303Y71473539D01*
D10*
D11*
X-43880000Y-115497200D02*
X-43880000Y-117497200D01*
D10*
D11*
X6120000Y-115497200D02*
X6120000Y-117497200D01*
D10*
D11*
X56120000Y-115497200D02*
X56120000Y-117497200D01*
D10*
D11*
X106120000Y-115497200D02*
X106120000Y-117497200D01*
D10*
D11*
X156120000Y-115497200D02*
X156120000Y-117497200D01*
D10*
D11*
X-67790840Y-117090804D02*
X-68533697Y-117090804D01*
X-68162269Y-117090804D02*
X-68162269Y-115790804D01*
X-68162269Y-115790804D02*
X-68286078Y-115976519D01*
X-68286078Y-115976519D02*
X-68409888Y-116100328D01*
X-68409888Y-116100328D02*
X-68533697Y-116162233D01*
D10*
D11*
X-18533697Y-115914614D02*
X-18471793Y-115852709D01*
X-18471793Y-115852709D02*
X-18347983Y-115790804D01*
X-18347983Y-115790804D02*
X-18038459Y-115790804D01*
X-18038459Y-115790804D02*
X-17914650Y-115852709D01*
X-17914650Y-115852709D02*
X-17852745Y-115914614D01*
X-17852745Y-115914614D02*
X-17790840Y-116038423D01*
X-17790840Y-116038423D02*
X-17790840Y-116162233D01*
X-17790840Y-116162233D02*
X-17852745Y-116347947D01*
X-17852745Y-116347947D02*
X-18595602Y-117090804D01*
X-18595602Y-117090804D02*
X-17790840Y-117090804D01*
D10*
D11*
X31404398Y-115790804D02*
X32209160Y-115790804D01*
X32209160Y-115790804D02*
X31775826Y-116286042D01*
X31775826Y-116286042D02*
X31961541Y-116286042D01*
X31961541Y-116286042D02*
X32085350Y-116347947D01*
X32085350Y-116347947D02*
X32147255Y-116409852D01*
X32147255Y-116409852D02*
X32209160Y-116533661D01*
X32209160Y-116533661D02*
X32209160Y-116843185D01*
X32209160Y-116843185D02*
X32147255Y-116966995D01*
X32147255Y-116966995D02*
X32085350Y-117028900D01*
X32085350Y-117028900D02*
X31961541Y-117090804D01*
X31961541Y-117090804D02*
X31590112Y-117090804D01*
X31590112Y-117090804D02*
X31466303Y-117028900D01*
X31466303Y-117028900D02*
X31404398Y-116966995D01*
D10*
D11*
X82085350Y-116224138D02*
X82085350Y-117090804D01*
X81775826Y-115728900D02*
X81466303Y-116657471D01*
X81466303Y-116657471D02*
X82271064Y-116657471D01*
D10*
D11*
X132147255Y-115790804D02*
X131528207Y-115790804D01*
X131528207Y-115790804D02*
X131466303Y-116409852D01*
X131466303Y-116409852D02*
X131528207Y-116347947D01*
X131528207Y-116347947D02*
X131652017Y-116286042D01*
X131652017Y-116286042D02*
X131961541Y-116286042D01*
X131961541Y-116286042D02*
X132085350Y-116347947D01*
X132085350Y-116347947D02*
X132147255Y-116409852D01*
X132147255Y-116409852D02*
X132209160Y-116533661D01*
X132209160Y-116533661D02*
X132209160Y-116843185D01*
X132209160Y-116843185D02*
X132147255Y-116966995D01*
X132147255Y-116966995D02*
X132085350Y-117028900D01*
X132085350Y-117028900D02*
X131961541Y-117090804D01*
X131961541Y-117090804D02*
X131652017Y-117090804D01*
X131652017Y-117090804D02*
X131528207Y-117028900D01*
X131528207Y-117028900D02*
X131466303Y-116966995D01*
D10*
D11*
X182085350Y-115790804D02*
X181837731Y-115790804D01*
X181837731Y-115790804D02*
X181713922Y-115852709D01*
X181713922Y-115852709D02*
X181652017Y-115914614D01*
X181652017Y-115914614D02*
X181528207Y-116100328D01*
X181528207Y-116100328D02*
X181466303Y-116347947D01*
X181466303Y-116347947D02*
X181466303Y-116843185D01*
X181466303Y-116843185D02*
X181528207Y-116966995D01*
X181528207Y-116966995D02*
X181590112Y-117028900D01*
X181590112Y-117028900D02*
X181713922Y-117090804D01*
X181713922Y-117090804D02*
X181961541Y-117090804D01*
X181961541Y-117090804D02*
X182085350Y-117028900D01*
X182085350Y-117028900D02*
X182147255Y-116966995D01*
X182147255Y-116966995D02*
X182209160Y-116843185D01*
X182209160Y-116843185D02*
X182209160Y-116533661D01*
X182209160Y-116533661D02*
X182147255Y-116409852D01*
X182147255Y-116409852D02*
X182085350Y-116347947D01*
X182085350Y-116347947D02*
X181961541Y-116286042D01*
X181961541Y-116286042D02*
X181713922Y-116286042D01*
X181713922Y-116286042D02*
X181590112Y-116347947D01*
X181590112Y-116347947D02*
X181528207Y-116409852D01*
X181528207Y-116409852D02*
X181466303Y-116533661D01*
D10*
D11*
X-93880000Y22510000D02*
X-91880000Y22510000D01*
D10*
D11*
X-93880000Y-27490000D02*
X-91880000Y-27490000D01*
D10*
D11*
X-93880000Y-77490000D02*
X-91880000Y-77490000D01*
D10*
D11*
X-93189524Y47287824D02*
X-92570477Y47287824D01*
X-93313334Y46916396D02*
X-92880001Y48216396D01*
X-92880001Y48216396D02*
X-92446667Y46916396D01*
D10*
D11*
X-92787143Y-2402652D02*
X-92601429Y-2464557D01*
X-92601429Y-2464557D02*
X-92539524Y-2526461D01*
X-92539524Y-2526461D02*
X-92477620Y-2650271D01*
X-92477620Y-2650271D02*
X-92477620Y-2835985D01*
X-92477620Y-2835985D02*
X-92539524Y-2959795D01*
X-92539524Y-2959795D02*
X-92601429Y-3021700D01*
X-92601429Y-3021700D02*
X-92725239Y-3083604D01*
X-92725239Y-3083604D02*
X-93220477Y-3083604D01*
X-93220477Y-3083604D02*
X-93220477Y-1783604D01*
X-93220477Y-1783604D02*
X-92787143Y-1783604D01*
X-92787143Y-1783604D02*
X-92663334Y-1845509D01*
X-92663334Y-1845509D02*
X-92601429Y-1907414D01*
X-92601429Y-1907414D02*
X-92539524Y-2031223D01*
X-92539524Y-2031223D02*
X-92539524Y-2155033D01*
X-92539524Y-2155033D02*
X-92601429Y-2278842D01*
X-92601429Y-2278842D02*
X-92663334Y-2340747D01*
X-92663334Y-2340747D02*
X-92787143Y-2402652D01*
X-92787143Y-2402652D02*
X-93220477Y-2402652D01*
D10*
D11*
X-92477620Y-52959795D02*
X-92539524Y-53021700D01*
X-92539524Y-53021700D02*
X-92725239Y-53083604D01*
X-92725239Y-53083604D02*
X-92849048Y-53083604D01*
X-92849048Y-53083604D02*
X-93034762Y-53021700D01*
X-93034762Y-53021700D02*
X-93158572Y-52897890D01*
X-93158572Y-52897890D02*
X-93220477Y-52774080D01*
X-93220477Y-52774080D02*
X-93282381Y-52526461D01*
X-93282381Y-52526461D02*
X-93282381Y-52340747D01*
X-93282381Y-52340747D02*
X-93220477Y-52093128D01*
X-93220477Y-52093128D02*
X-93158572Y-51969319D01*
X-93158572Y-51969319D02*
X-93034762Y-51845509D01*
X-93034762Y-51845509D02*
X-92849048Y-51783604D01*
X-92849048Y-51783604D02*
X-92725239Y-51783604D01*
X-92725239Y-51783604D02*
X-92539524Y-51845509D01*
X-92539524Y-51845509D02*
X-92477620Y-51907414D01*
D10*
D11*
X-93220477Y-103083604D02*
X-93220477Y-101783604D01*
X-93220477Y-101783604D02*
X-92910953Y-101783604D01*
X-92910953Y-101783604D02*
X-92725239Y-101845509D01*
X-92725239Y-101845509D02*
X-92601429Y-101969319D01*
X-92601429Y-101969319D02*
X-92539524Y-102093128D01*
X-92539524Y-102093128D02*
X-92477620Y-102340747D01*
X-92477620Y-102340747D02*
X-92477620Y-102526461D01*
X-92477620Y-102526461D02*
X-92539524Y-102774080D01*
X-92539524Y-102774080D02*
X-92601429Y-102897890D01*
X-92601429Y-102897890D02*
X-92725239Y-103021700D01*
X-92725239Y-103021700D02*
X-92910953Y-103083604D01*
X-92910953Y-103083604D02*
X-93220477Y-103083604D01*
D10*
D11*
X183122200Y22510000D02*
X181122200Y22510000D01*
D10*
D11*
X183122200Y-27490000D02*
X181122200Y-27490000D01*
D10*
D11*
X183122200Y-77490000D02*
X181122200Y-77490000D01*
D10*
D11*
X181812676Y47287824D02*
X182431723Y47287824D01*
X181688866Y46916396D02*
X182122199Y48216396D01*
X182122199Y48216396D02*
X182555533Y46916396D01*
D10*
D11*
X182215057Y-2402652D02*
X182400771Y-2464557D01*
X182400771Y-2464557D02*
X182462676Y-2526461D01*
X182462676Y-2526461D02*
X182524580Y-2650271D01*
X182524580Y-2650271D02*
X182524580Y-2835985D01*
X182524580Y-2835985D02*
X182462676Y-2959795D01*
X182462676Y-2959795D02*
X182400771Y-3021700D01*
X182400771Y-3021700D02*
X182276961Y-3083604D01*
X182276961Y-3083604D02*
X181781723Y-3083604D01*
X181781723Y-3083604D02*
X181781723Y-1783604D01*
X181781723Y-1783604D02*
X182215057Y-1783604D01*
X182215057Y-1783604D02*
X182338866Y-1845509D01*
X182338866Y-1845509D02*
X182400771Y-1907414D01*
X182400771Y-1907414D02*
X182462676Y-2031223D01*
X182462676Y-2031223D02*
X182462676Y-2155033D01*
X182462676Y-2155033D02*
X182400771Y-2278842D01*
X182400771Y-2278842D02*
X182338866Y-2340747D01*
X182338866Y-2340747D02*
X182215057Y-2402652D01*
X182215057Y-2402652D02*
X181781723Y-2402652D01*
D10*
D11*
X182524580Y-52959795D02*
X182462676Y-53021700D01*
X182462676Y-53021700D02*
X182276961Y-53083604D01*
X182276961Y-53083604D02*
X182153152Y-53083604D01*
X182153152Y-53083604D02*
X181967438Y-53021700D01*
X181967438Y-53021700D02*
X181843628Y-52897890D01*
X181843628Y-52897890D02*
X181781723Y-52774080D01*
X181781723Y-52774080D02*
X181719819Y-52526461D01*
X181719819Y-52526461D02*
X181719819Y-52340747D01*
X181719819Y-52340747D02*
X181781723Y-52093128D01*
X181781723Y-52093128D02*
X181843628Y-51969319D01*
X181843628Y-51969319D02*
X181967438Y-51845509D01*
X181967438Y-51845509D02*
X182153152Y-51783604D01*
X182153152Y-51783604D02*
X182276961Y-51783604D01*
X182276961Y-51783604D02*
X182462676Y-51845509D01*
X182462676Y-51845509D02*
X182524580Y-51907414D01*
D10*
D11*
X181781723Y-103083604D02*
X181781723Y-101783604D01*
X181781723Y-101783604D02*
X182091247Y-101783604D01*
X182091247Y-101783604D02*
X182276961Y-101845509D01*
X182276961Y-101845509D02*
X182400771Y-101969319D01*
X182400771Y-101969319D02*
X182462676Y-102093128D01*
X182462676Y-102093128D02*
X182524580Y-102340747D01*
X182524580Y-102340747D02*
X182524580Y-102526461D01*
X182524580Y-102526461D02*
X182462676Y-102774080D01*
X182462676Y-102774080D02*
X182400771Y-102897890D01*
X182400771Y-102897890D02*
X182276961Y-103021700D01*
X182276961Y-103021700D02*
X182091247Y-103083604D01*
X182091247Y-103083604D02*
X181781723Y-103083604D01*
D10*
D11*
X96578026Y-111283328D02*
X96578026Y-109783328D01*
X96578026Y-109783328D02*
X96935169Y-109783328D01*
X96935169Y-109783328D02*
X97149455Y-109854757D01*
X97149455Y-109854757D02*
X97292312Y-109997614D01*
X97292312Y-109997614D02*
X97363741Y-110140471D01*
X97363741Y-110140471D02*
X97435169Y-110426185D01*
X97435169Y-110426185D02*
X97435169Y-110640471D01*
X97435169Y-110640471D02*
X97363741Y-110926185D01*
X97363741Y-110926185D02*
X97292312Y-111069042D01*
X97292312Y-111069042D02*
X97149455Y-111211900D01*
X97149455Y-111211900D02*
X96935169Y-111283328D01*
X96935169Y-111283328D02*
X96578026Y-111283328D01*
X98720884Y-111283328D02*
X98720884Y-110497614D01*
X98720884Y-110497614D02*
X98649455Y-110354757D01*
X98649455Y-110354757D02*
X98506598Y-110283328D01*
X98506598Y-110283328D02*
X98220884Y-110283328D01*
X98220884Y-110283328D02*
X98078026Y-110354757D01*
X98720884Y-111211900D02*
X98578026Y-111283328D01*
X98578026Y-111283328D02*
X98220884Y-111283328D01*
X98220884Y-111283328D02*
X98078026Y-111211900D01*
X98078026Y-111211900D02*
X98006598Y-111069042D01*
X98006598Y-111069042D02*
X98006598Y-110926185D01*
X98006598Y-110926185D02*
X98078026Y-110783328D01*
X98078026Y-110783328D02*
X98220884Y-110711900D01*
X98220884Y-110711900D02*
X98578026Y-110711900D01*
X98578026Y-110711900D02*
X98720884Y-110640471D01*
X99220884Y-110283328D02*
X99792312Y-110283328D01*
X99435169Y-109783328D02*
X99435169Y-111069042D01*
X99435169Y-111069042D02*
X99506598Y-111211900D01*
X99506598Y-111211900D02*
X99649455Y-111283328D01*
X99649455Y-111283328D02*
X99792312Y-111283328D01*
X100863741Y-111211900D02*
X100720884Y-111283328D01*
X100720884Y-111283328D02*
X100435170Y-111283328D01*
X100435170Y-111283328D02*
X100292312Y-111211900D01*
X100292312Y-111211900D02*
X100220884Y-111069042D01*
X100220884Y-111069042D02*
X100220884Y-110497614D01*
X100220884Y-110497614D02*
X100292312Y-110354757D01*
X100292312Y-110354757D02*
X100435170Y-110283328D01*
X100435170Y-110283328D02*
X100720884Y-110283328D01*
X100720884Y-110283328D02*
X100863741Y-110354757D01*
X100863741Y-110354757D02*
X100935170Y-110497614D01*
X100935170Y-110497614D02*
X100935170Y-110640471D01*
X100935170Y-110640471D02*
X100220884Y-110783328D01*
X101578026Y-111140471D02*
X101649455Y-111211900D01*
X101649455Y-111211900D02*
X101578026Y-111283328D01*
X101578026Y-111283328D02*
X101506598Y-111211900D01*
X101506598Y-111211900D02*
X101578026Y-111140471D01*
X101578026Y-111140471D02*
X101578026Y-111283328D01*
X101578026Y-110354757D02*
X101649455Y-110426185D01*
X101649455Y-110426185D02*
X101578026Y-110497614D01*
X101578026Y-110497614D02*
X101506598Y-110426185D01*
X101506598Y-110426185D02*
X101578026Y-110354757D01*
X101578026Y-110354757D02*
X101578026Y-110497614D01*
X103363741Y-109926185D02*
X103435169Y-109854757D01*
X103435169Y-109854757D02*
X103578027Y-109783328D01*
X103578027Y-109783328D02*
X103935169Y-109783328D01*
X103935169Y-109783328D02*
X104078027Y-109854757D01*
X104078027Y-109854757D02*
X104149455Y-109926185D01*
X104149455Y-109926185D02*
X104220884Y-110069042D01*
X104220884Y-110069042D02*
X104220884Y-110211900D01*
X104220884Y-110211900D02*
X104149455Y-110426185D01*
X104149455Y-110426185D02*
X103292312Y-111283328D01*
X103292312Y-111283328D02*
X104220884Y-111283328D01*
X105149455Y-109783328D02*
X105292312Y-109783328D01*
X105292312Y-109783328D02*
X105435169Y-109854757D01*
X105435169Y-109854757D02*
X105506598Y-109926185D01*
X105506598Y-109926185D02*
X105578026Y-110069042D01*
X105578026Y-110069042D02*
X105649455Y-110354757D01*
X105649455Y-110354757D02*
X105649455Y-110711900D01*
X105649455Y-110711900D02*
X105578026Y-110997614D01*
X105578026Y-110997614D02*
X105506598Y-111140471D01*
X105506598Y-111140471D02*
X105435169Y-111211900D01*
X105435169Y-111211900D02*
X105292312Y-111283328D01*
X105292312Y-111283328D02*
X105149455Y-111283328D01*
X105149455Y-111283328D02*
X105006598Y-111211900D01*
X105006598Y-111211900D02*
X104935169Y-111140471D01*
X104935169Y-111140471D02*
X104863740Y-110997614D01*
X104863740Y-110997614D02*
X104792312Y-110711900D01*
X104792312Y-110711900D02*
X104792312Y-110354757D01*
X104792312Y-110354757D02*
X104863740Y-110069042D01*
X104863740Y-110069042D02*
X104935169Y-109926185D01*
X104935169Y-109926185D02*
X105006598Y-109854757D01*
X105006598Y-109854757D02*
X105149455Y-109783328D01*
X106220883Y-109926185D02*
X106292311Y-109854757D01*
X106292311Y-109854757D02*
X106435169Y-109783328D01*
X106435169Y-109783328D02*
X106792311Y-109783328D01*
X106792311Y-109783328D02*
X106935169Y-109854757D01*
X106935169Y-109854757D02*
X107006597Y-109926185D01*
X107006597Y-109926185D02*
X107078026Y-110069042D01*
X107078026Y-110069042D02*
X107078026Y-110211900D01*
X107078026Y-110211900D02*
X107006597Y-110426185D01*
X107006597Y-110426185D02*
X106149454Y-111283328D01*
X106149454Y-111283328D02*
X107078026Y-111283328D01*
X108435168Y-109783328D02*
X107720882Y-109783328D01*
X107720882Y-109783328D02*
X107649454Y-110497614D01*
X107649454Y-110497614D02*
X107720882Y-110426185D01*
X107720882Y-110426185D02*
X107863740Y-110354757D01*
X107863740Y-110354757D02*
X108220882Y-110354757D01*
X108220882Y-110354757D02*
X108363740Y-110426185D01*
X108363740Y-110426185D02*
X108435168Y-110497614D01*
X108435168Y-110497614D02*
X108506597Y-110640471D01*
X108506597Y-110640471D02*
X108506597Y-110997614D01*
X108506597Y-110997614D02*
X108435168Y-111140471D01*
X108435168Y-111140471D02*
X108363740Y-111211900D01*
X108363740Y-111211900D02*
X108220882Y-111283328D01*
X108220882Y-111283328D02*
X107863740Y-111283328D01*
X107863740Y-111283328D02*
X107720882Y-111211900D01*
X107720882Y-111211900D02*
X107649454Y-111140471D01*
X109149453Y-110711900D02*
X110292311Y-110711900D01*
X111292311Y-109783328D02*
X111435168Y-109783328D01*
X111435168Y-109783328D02*
X111578025Y-109854757D01*
X111578025Y-109854757D02*
X111649454Y-109926185D01*
X111649454Y-109926185D02*
X111720882Y-110069042D01*
X111720882Y-110069042D02*
X111792311Y-110354757D01*
X111792311Y-110354757D02*
X111792311Y-110711900D01*
X111792311Y-110711900D02*
X111720882Y-110997614D01*
X111720882Y-110997614D02*
X111649454Y-111140471D01*
X111649454Y-111140471D02*
X111578025Y-111211900D01*
X111578025Y-111211900D02*
X111435168Y-111283328D01*
X111435168Y-111283328D02*
X111292311Y-111283328D01*
X111292311Y-111283328D02*
X111149454Y-111211900D01*
X111149454Y-111211900D02*
X111078025Y-111140471D01*
X111078025Y-111140471D02*
X111006596Y-110997614D01*
X111006596Y-110997614D02*
X110935168Y-110711900D01*
X110935168Y-110711900D02*
X110935168Y-110354757D01*
X110935168Y-110354757D02*
X111006596Y-110069042D01*
X111006596Y-110069042D02*
X111078025Y-109926185D01*
X111078025Y-109926185D02*
X111149454Y-109854757D01*
X111149454Y-109854757D02*
X111292311Y-109783328D01*
X112506596Y-111283328D02*
X112792310Y-111283328D01*
X112792310Y-111283328D02*
X112935167Y-111211900D01*
X112935167Y-111211900D02*
X113006596Y-111140471D01*
X113006596Y-111140471D02*
X113149453Y-110926185D01*
X113149453Y-110926185D02*
X113220882Y-110640471D01*
X113220882Y-110640471D02*
X113220882Y-110069042D01*
X113220882Y-110069042D02*
X113149453Y-109926185D01*
X113149453Y-109926185D02*
X113078025Y-109854757D01*
X113078025Y-109854757D02*
X112935167Y-109783328D01*
X112935167Y-109783328D02*
X112649453Y-109783328D01*
X112649453Y-109783328D02*
X112506596Y-109854757D01*
X112506596Y-109854757D02*
X112435167Y-109926185D01*
X112435167Y-109926185D02*
X112363739Y-110069042D01*
X112363739Y-110069042D02*
X112363739Y-110426185D01*
X112363739Y-110426185D02*
X112435167Y-110569042D01*
X112435167Y-110569042D02*
X112506596Y-110640471D01*
X112506596Y-110640471D02*
X112649453Y-110711900D01*
X112649453Y-110711900D02*
X112935167Y-110711900D01*
X112935167Y-110711900D02*
X113078025Y-110640471D01*
X113078025Y-110640471D02*
X113149453Y-110569042D01*
X113149453Y-110569042D02*
X113220882Y-110426185D01*
X113863738Y-110711900D02*
X115006596Y-110711900D01*
X115649453Y-109926185D02*
X115720881Y-109854757D01*
X115720881Y-109854757D02*
X115863739Y-109783328D01*
X115863739Y-109783328D02*
X116220881Y-109783328D01*
X116220881Y-109783328D02*
X116363739Y-109854757D01*
X116363739Y-109854757D02*
X116435167Y-109926185D01*
X116435167Y-109926185D02*
X116506596Y-110069042D01*
X116506596Y-110069042D02*
X116506596Y-110211900D01*
X116506596Y-110211900D02*
X116435167Y-110426185D01*
X116435167Y-110426185D02*
X115578024Y-111283328D01*
X115578024Y-111283328D02*
X116506596Y-111283328D01*
X117435167Y-109783328D02*
X117578024Y-109783328D01*
X117578024Y-109783328D02*
X117720881Y-109854757D01*
X117720881Y-109854757D02*
X117792310Y-109926185D01*
X117792310Y-109926185D02*
X117863738Y-110069042D01*
X117863738Y-110069042D02*
X117935167Y-110354757D01*
X117935167Y-110354757D02*
X117935167Y-110711900D01*
X117935167Y-110711900D02*
X117863738Y-110997614D01*
X117863738Y-110997614D02*
X117792310Y-111140471D01*
X117792310Y-111140471D02*
X117720881Y-111211900D01*
X117720881Y-111211900D02*
X117578024Y-111283328D01*
X117578024Y-111283328D02*
X117435167Y-111283328D01*
X117435167Y-111283328D02*
X117292310Y-111211900D01*
X117292310Y-111211900D02*
X117220881Y-111140471D01*
X117220881Y-111140471D02*
X117149452Y-110997614D01*
X117149452Y-110997614D02*
X117078024Y-110711900D01*
X117078024Y-110711900D02*
X117078024Y-110354757D01*
X117078024Y-110354757D02*
X117149452Y-110069042D01*
X117149452Y-110069042D02*
X117220881Y-109926185D01*
X117220881Y-109926185D02*
X117292310Y-109854757D01*
X117292310Y-109854757D02*
X117435167Y-109783328D01*
D10*
D11*
X73122200Y-111997200D02*
X181122200Y-111997200D01*
D10*
D11*
X74578026Y-114083328D02*
X74578026Y-112583328D01*
X75435169Y-114083328D02*
X74792312Y-113226185D01*
X75435169Y-112583328D02*
X74578026Y-113440471D01*
X76078026Y-114083328D02*
X76078026Y-113083328D01*
X76078026Y-112583328D02*
X76006598Y-112654757D01*
X76006598Y-112654757D02*
X76078026Y-112726185D01*
X76078026Y-112726185D02*
X76149455Y-112654757D01*
X76149455Y-112654757D02*
X76078026Y-112583328D01*
X76078026Y-112583328D02*
X76078026Y-112726185D01*
X77649455Y-113940471D02*
X77578027Y-114011900D01*
X77578027Y-114011900D02*
X77363741Y-114083328D01*
X77363741Y-114083328D02*
X77220884Y-114083328D01*
X77220884Y-114083328D02*
X77006598Y-114011900D01*
X77006598Y-114011900D02*
X76863741Y-113869042D01*
X76863741Y-113869042D02*
X76792312Y-113726185D01*
X76792312Y-113726185D02*
X76720884Y-113440471D01*
X76720884Y-113440471D02*
X76720884Y-113226185D01*
X76720884Y-113226185D02*
X76792312Y-112940471D01*
X76792312Y-112940471D02*
X76863741Y-112797614D01*
X76863741Y-112797614D02*
X77006598Y-112654757D01*
X77006598Y-112654757D02*
X77220884Y-112583328D01*
X77220884Y-112583328D02*
X77363741Y-112583328D01*
X77363741Y-112583328D02*
X77578027Y-112654757D01*
X77578027Y-112654757D02*
X77649455Y-112726185D01*
X78935170Y-114083328D02*
X78935170Y-113297614D01*
X78935170Y-113297614D02*
X78863741Y-113154757D01*
X78863741Y-113154757D02*
X78720884Y-113083328D01*
X78720884Y-113083328D02*
X78435170Y-113083328D01*
X78435170Y-113083328D02*
X78292312Y-113154757D01*
X78935170Y-114011900D02*
X78792312Y-114083328D01*
X78792312Y-114083328D02*
X78435170Y-114083328D01*
X78435170Y-114083328D02*
X78292312Y-114011900D01*
X78292312Y-114011900D02*
X78220884Y-113869042D01*
X78220884Y-113869042D02*
X78220884Y-113726185D01*
X78220884Y-113726185D02*
X78292312Y-113583328D01*
X78292312Y-113583328D02*
X78435170Y-113511900D01*
X78435170Y-113511900D02*
X78792312Y-113511900D01*
X78792312Y-113511900D02*
X78935170Y-113440471D01*
X80292313Y-114083328D02*
X80292313Y-112583328D01*
X80292313Y-114011900D02*
X80149455Y-114083328D01*
X80149455Y-114083328D02*
X79863741Y-114083328D01*
X79863741Y-114083328D02*
X79720884Y-114011900D01*
X79720884Y-114011900D02*
X79649455Y-113940471D01*
X79649455Y-113940471D02*
X79578027Y-113797614D01*
X79578027Y-113797614D02*
X79578027Y-113369042D01*
X79578027Y-113369042D02*
X79649455Y-113226185D01*
X79649455Y-113226185D02*
X79720884Y-113154757D01*
X79720884Y-113154757D02*
X79863741Y-113083328D01*
X79863741Y-113083328D02*
X80149455Y-113083328D01*
X80149455Y-113083328D02*
X80292313Y-113154757D01*
X82149455Y-113297614D02*
X82649455Y-113297614D01*
X82863741Y-114083328D02*
X82149455Y-114083328D01*
X82149455Y-114083328D02*
X82149455Y-112583328D01*
X82149455Y-112583328D02*
X82863741Y-112583328D01*
X83506598Y-113940471D02*
X83578027Y-114011900D01*
X83578027Y-114011900D02*
X83506598Y-114083328D01*
X83506598Y-114083328D02*
X83435170Y-114011900D01*
X83435170Y-114011900D02*
X83506598Y-113940471D01*
X83506598Y-113940471D02*
X83506598Y-114083328D01*
X84220884Y-114083328D02*
X84220884Y-112583328D01*
X84220884Y-112583328D02*
X84578027Y-112583328D01*
X84578027Y-112583328D02*
X84792313Y-112654757D01*
X84792313Y-112654757D02*
X84935170Y-112797614D01*
X84935170Y-112797614D02*
X85006599Y-112940471D01*
X85006599Y-112940471D02*
X85078027Y-113226185D01*
X85078027Y-113226185D02*
X85078027Y-113440471D01*
X85078027Y-113440471D02*
X85006599Y-113726185D01*
X85006599Y-113726185D02*
X84935170Y-113869042D01*
X84935170Y-113869042D02*
X84792313Y-114011900D01*
X84792313Y-114011900D02*
X84578027Y-114083328D01*
X84578027Y-114083328D02*
X84220884Y-114083328D01*
X85720884Y-113940471D02*
X85792313Y-114011900D01*
X85792313Y-114011900D02*
X85720884Y-114083328D01*
X85720884Y-114083328D02*
X85649456Y-114011900D01*
X85649456Y-114011900D02*
X85720884Y-113940471D01*
X85720884Y-113940471D02*
X85720884Y-114083328D01*
X86363742Y-113654757D02*
X87078028Y-113654757D01*
X86220885Y-114083328D02*
X86720885Y-112583328D01*
X86720885Y-112583328D02*
X87220885Y-114083328D01*
X87720884Y-113940471D02*
X87792313Y-114011900D01*
X87792313Y-114011900D02*
X87720884Y-114083328D01*
X87720884Y-114083328D02*
X87649456Y-114011900D01*
X87649456Y-114011900D02*
X87720884Y-113940471D01*
X87720884Y-113940471D02*
X87720884Y-114083328D01*
X89649456Y-114083328D02*
X89935170Y-114083328D01*
X89935170Y-114083328D02*
X90078027Y-114011900D01*
X90078027Y-114011900D02*
X90149456Y-113940471D01*
X90149456Y-113940471D02*
X90292313Y-113726185D01*
X90292313Y-113726185D02*
X90363742Y-113440471D01*
X90363742Y-113440471D02*
X90363742Y-112869042D01*
X90363742Y-112869042D02*
X90292313Y-112726185D01*
X90292313Y-112726185D02*
X90220885Y-112654757D01*
X90220885Y-112654757D02*
X90078027Y-112583328D01*
X90078027Y-112583328D02*
X89792313Y-112583328D01*
X89792313Y-112583328D02*
X89649456Y-112654757D01*
X89649456Y-112654757D02*
X89578027Y-112726185D01*
X89578027Y-112726185D02*
X89506599Y-112869042D01*
X89506599Y-112869042D02*
X89506599Y-113226185D01*
X89506599Y-113226185D02*
X89578027Y-113369042D01*
X89578027Y-113369042D02*
X89649456Y-113440471D01*
X89649456Y-113440471D02*
X89792313Y-113511900D01*
X89792313Y-113511900D02*
X90078027Y-113511900D01*
X90078027Y-113511900D02*
X90220885Y-113440471D01*
X90220885Y-113440471D02*
X90292313Y-113369042D01*
X90292313Y-113369042D02*
X90363742Y-113226185D01*
X91006598Y-113940471D02*
X91078027Y-114011900D01*
X91078027Y-114011900D02*
X91006598Y-114083328D01*
X91006598Y-114083328D02*
X90935170Y-114011900D01*
X90935170Y-114011900D02*
X91006598Y-113940471D01*
X91006598Y-113940471D02*
X91006598Y-114083328D01*
X92006599Y-112583328D02*
X92149456Y-112583328D01*
X92149456Y-112583328D02*
X92292313Y-112654757D01*
X92292313Y-112654757D02*
X92363742Y-112726185D01*
X92363742Y-112726185D02*
X92435170Y-112869042D01*
X92435170Y-112869042D02*
X92506599Y-113154757D01*
X92506599Y-113154757D02*
X92506599Y-113511900D01*
X92506599Y-113511900D02*
X92435170Y-113797614D01*
X92435170Y-113797614D02*
X92363742Y-113940471D01*
X92363742Y-113940471D02*
X92292313Y-114011900D01*
X92292313Y-114011900D02*
X92149456Y-114083328D01*
X92149456Y-114083328D02*
X92006599Y-114083328D01*
X92006599Y-114083328D02*
X91863742Y-114011900D01*
X91863742Y-114011900D02*
X91792313Y-113940471D01*
X91792313Y-113940471D02*
X91720884Y-113797614D01*
X91720884Y-113797614D02*
X91649456Y-113511900D01*
X91649456Y-113511900D02*
X91649456Y-113154757D01*
X91649456Y-113154757D02*
X91720884Y-112869042D01*
X91720884Y-112869042D02*
X91792313Y-112726185D01*
X91792313Y-112726185D02*
X91863742Y-112654757D01*
X91863742Y-112654757D02*
X92006599Y-112583328D01*
X93149455Y-113940471D02*
X93220884Y-114011900D01*
X93220884Y-114011900D02*
X93149455Y-114083328D01*
X93149455Y-114083328D02*
X93078027Y-114011900D01*
X93078027Y-114011900D02*
X93149455Y-113940471D01*
X93149455Y-113940471D02*
X93149455Y-114083328D01*
X94506599Y-113083328D02*
X94506599Y-114083328D01*
X94149456Y-112511900D02*
X93792313Y-113583328D01*
X93792313Y-113583328D02*
X94720884Y-113583328D01*
D10*
D11*
X73122200Y-108997200D02*
X181122200Y-108997200D01*
D10*
D12*
X160533853Y-111275528D02*
X160033853Y-110561242D01*
X159676710Y-111275528D02*
X159676710Y-109775528D01*
X159676710Y-109775528D02*
X160248139Y-109775528D01*
X160248139Y-109775528D02*
X160390996Y-109846957D01*
X160390996Y-109846957D02*
X160462425Y-109918385D01*
X160462425Y-109918385D02*
X160533853Y-110061242D01*
X160533853Y-110061242D02*
X160533853Y-110275528D01*
X160533853Y-110275528D02*
X160462425Y-110418385D01*
X160462425Y-110418385D02*
X160390996Y-110489814D01*
X160390996Y-110489814D02*
X160248139Y-110561242D01*
X160248139Y-110561242D02*
X159676710Y-110561242D01*
X161748139Y-111204100D02*
X161605282Y-111275528D01*
X161605282Y-111275528D02*
X161319568Y-111275528D01*
X161319568Y-111275528D02*
X161176710Y-111204100D01*
X161176710Y-111204100D02*
X161105282Y-111061242D01*
X161105282Y-111061242D02*
X161105282Y-110489814D01*
X161105282Y-110489814D02*
X161176710Y-110346957D01*
X161176710Y-110346957D02*
X161319568Y-110275528D01*
X161319568Y-110275528D02*
X161605282Y-110275528D01*
X161605282Y-110275528D02*
X161748139Y-110346957D01*
X161748139Y-110346957D02*
X161819568Y-110489814D01*
X161819568Y-110489814D02*
X161819568Y-110632671D01*
X161819568Y-110632671D02*
X161105282Y-110775528D01*
X162319567Y-110275528D02*
X162676710Y-111275528D01*
X162676710Y-111275528D02*
X163033853Y-110275528D01*
X163605281Y-111132671D02*
X163676710Y-111204100D01*
X163676710Y-111204100D02*
X163605281Y-111275528D01*
X163605281Y-111275528D02*
X163533853Y-111204100D01*
X163533853Y-111204100D02*
X163605281Y-111132671D01*
X163605281Y-111132671D02*
X163605281Y-111275528D01*
X163605281Y-110346957D02*
X163676710Y-110418385D01*
X163676710Y-110418385D02*
X163605281Y-110489814D01*
X163605281Y-110489814D02*
X163533853Y-110418385D01*
X163533853Y-110418385D02*
X163605281Y-110346957D01*
X163605281Y-110346957D02*
X163605281Y-110489814D01*
X166248139Y-111275528D02*
X165390996Y-111275528D01*
X165819567Y-111275528D02*
X165819567Y-109775528D01*
X165819567Y-109775528D02*
X165676710Y-109989814D01*
X165676710Y-109989814D02*
X165533853Y-110132671D01*
X165533853Y-110132671D02*
X165390996Y-110204100D01*
X166890995Y-111132671D02*
X166962424Y-111204100D01*
X166962424Y-111204100D02*
X166890995Y-111275528D01*
X166890995Y-111275528D02*
X166819567Y-111204100D01*
X166819567Y-111204100D02*
X166890995Y-111132671D01*
X166890995Y-111132671D02*
X166890995Y-111275528D01*
X167890996Y-109775528D02*
X168033853Y-109775528D01*
X168033853Y-109775528D02*
X168176710Y-109846957D01*
X168176710Y-109846957D02*
X168248139Y-109918385D01*
X168248139Y-109918385D02*
X168319567Y-110061242D01*
X168319567Y-110061242D02*
X168390996Y-110346957D01*
X168390996Y-110346957D02*
X168390996Y-110704100D01*
X168390996Y-110704100D02*
X168319567Y-110989814D01*
X168319567Y-110989814D02*
X168248139Y-111132671D01*
X168248139Y-111132671D02*
X168176710Y-111204100D01*
X168176710Y-111204100D02*
X168033853Y-111275528D01*
X168033853Y-111275528D02*
X167890996Y-111275528D01*
X167890996Y-111275528D02*
X167748139Y-111204100D01*
X167748139Y-111204100D02*
X167676710Y-111132671D01*
X167676710Y-111132671D02*
X167605281Y-110989814D01*
X167605281Y-110989814D02*
X167533853Y-110704100D01*
X167533853Y-110704100D02*
X167533853Y-110346957D01*
X167533853Y-110346957D02*
X167605281Y-110061242D01*
X167605281Y-110061242D02*
X167676710Y-109918385D01*
X167676710Y-109918385D02*
X167748139Y-109846957D01*
X167748139Y-109846957D02*
X167890996Y-109775528D01*
D10*
D11*
X74506598Y-111211900D02*
X74720884Y-111283328D01*
X74720884Y-111283328D02*
X75078026Y-111283328D01*
X75078026Y-111283328D02*
X75220884Y-111211900D01*
X75220884Y-111211900D02*
X75292312Y-111140471D01*
X75292312Y-111140471D02*
X75363741Y-110997614D01*
X75363741Y-110997614D02*
X75363741Y-110854757D01*
X75363741Y-110854757D02*
X75292312Y-110711900D01*
X75292312Y-110711900D02*
X75220884Y-110640471D01*
X75220884Y-110640471D02*
X75078026Y-110569042D01*
X75078026Y-110569042D02*
X74792312Y-110497614D01*
X74792312Y-110497614D02*
X74649455Y-110426185D01*
X74649455Y-110426185D02*
X74578026Y-110354757D01*
X74578026Y-110354757D02*
X74506598Y-110211900D01*
X74506598Y-110211900D02*
X74506598Y-110069042D01*
X74506598Y-110069042D02*
X74578026Y-109926185D01*
X74578026Y-109926185D02*
X74649455Y-109854757D01*
X74649455Y-109854757D02*
X74792312Y-109783328D01*
X74792312Y-109783328D02*
X75149455Y-109783328D01*
X75149455Y-109783328D02*
X75363741Y-109854757D01*
X76006597Y-111283328D02*
X76006597Y-110283328D01*
X76006597Y-109783328D02*
X75935169Y-109854757D01*
X75935169Y-109854757D02*
X76006597Y-109926185D01*
X76006597Y-109926185D02*
X76078026Y-109854757D01*
X76078026Y-109854757D02*
X76006597Y-109783328D01*
X76006597Y-109783328D02*
X76006597Y-109926185D01*
X76578026Y-110283328D02*
X77363741Y-110283328D01*
X77363741Y-110283328D02*
X76578026Y-111283328D01*
X76578026Y-111283328D02*
X77363741Y-111283328D01*
X78506598Y-111211900D02*
X78363741Y-111283328D01*
X78363741Y-111283328D02*
X78078027Y-111283328D01*
X78078027Y-111283328D02*
X77935169Y-111211900D01*
X77935169Y-111211900D02*
X77863741Y-111069042D01*
X77863741Y-111069042D02*
X77863741Y-110497614D01*
X77863741Y-110497614D02*
X77935169Y-110354757D01*
X77935169Y-110354757D02*
X78078027Y-110283328D01*
X78078027Y-110283328D02*
X78363741Y-110283328D01*
X78363741Y-110283328D02*
X78506598Y-110354757D01*
X78506598Y-110354757D02*
X78578027Y-110497614D01*
X78578027Y-110497614D02*
X78578027Y-110640471D01*
X78578027Y-110640471D02*
X77863741Y-110783328D01*
X79220883Y-111140471D02*
X79292312Y-111211900D01*
X79292312Y-111211900D02*
X79220883Y-111283328D01*
X79220883Y-111283328D02*
X79149455Y-111211900D01*
X79149455Y-111211900D02*
X79220883Y-111140471D01*
X79220883Y-111140471D02*
X79220883Y-111283328D01*
X79220883Y-110354757D02*
X79292312Y-110426185D01*
X79292312Y-110426185D02*
X79220883Y-110497614D01*
X79220883Y-110497614D02*
X79149455Y-110426185D01*
X79149455Y-110426185D02*
X79220883Y-110354757D01*
X79220883Y-110354757D02*
X79220883Y-110497614D01*
X81006598Y-110854757D02*
X81720884Y-110854757D01*
X80863741Y-111283328D02*
X81363741Y-109783328D01*
X81363741Y-109783328D02*
X81863741Y-111283328D01*
X83006598Y-110283328D02*
X83006598Y-111283328D01*
X82649455Y-109711900D02*
X82292312Y-110783328D01*
X82292312Y-110783328D02*
X83220883Y-110783328D01*
D10*
D11*
X159578026Y-114083328D02*
X159578026Y-112583328D01*
X160935170Y-114083328D02*
X160935170Y-112583328D01*
X160935170Y-114011900D02*
X160792312Y-114083328D01*
X160792312Y-114083328D02*
X160506598Y-114083328D01*
X160506598Y-114083328D02*
X160363741Y-114011900D01*
X160363741Y-114011900D02*
X160292312Y-113940471D01*
X160292312Y-113940471D02*
X160220884Y-113797614D01*
X160220884Y-113797614D02*
X160220884Y-113369042D01*
X160220884Y-113369042D02*
X160292312Y-113226185D01*
X160292312Y-113226185D02*
X160363741Y-113154757D01*
X160363741Y-113154757D02*
X160506598Y-113083328D01*
X160506598Y-113083328D02*
X160792312Y-113083328D01*
X160792312Y-113083328D02*
X160935170Y-113154757D01*
X161649455Y-113940471D02*
X161720884Y-114011900D01*
X161720884Y-114011900D02*
X161649455Y-114083328D01*
X161649455Y-114083328D02*
X161578027Y-114011900D01*
X161578027Y-114011900D02*
X161649455Y-113940471D01*
X161649455Y-113940471D02*
X161649455Y-114083328D01*
X161649455Y-113154757D02*
X161720884Y-113226185D01*
X161720884Y-113226185D02*
X161649455Y-113297614D01*
X161649455Y-113297614D02*
X161578027Y-113226185D01*
X161578027Y-113226185D02*
X161649455Y-113154757D01*
X161649455Y-113154757D02*
X161649455Y-113297614D01*
X164149456Y-113083328D02*
X164149456Y-114083328D01*
X163792313Y-112511900D02*
X163435170Y-113583328D01*
X163435170Y-113583328D02*
X164363741Y-113583328D01*
X166006598Y-112511900D02*
X164720884Y-114440471D01*
X166578027Y-114083328D02*
X166863741Y-114083328D01*
X166863741Y-114083328D02*
X167006598Y-114011900D01*
X167006598Y-114011900D02*
X167078027Y-113940471D01*
X167078027Y-113940471D02*
X167220884Y-113726185D01*
X167220884Y-113726185D02*
X167292313Y-113440471D01*
X167292313Y-113440471D02*
X167292313Y-112869042D01*
X167292313Y-112869042D02*
X167220884Y-112726185D01*
X167220884Y-112726185D02*
X167149456Y-112654757D01*
X167149456Y-112654757D02*
X167006598Y-112583328D01*
X167006598Y-112583328D02*
X166720884Y-112583328D01*
X166720884Y-112583328D02*
X166578027Y-112654757D01*
X166578027Y-112654757D02*
X166506598Y-112726185D01*
X166506598Y-112726185D02*
X166435170Y-112869042D01*
X166435170Y-112869042D02*
X166435170Y-113226185D01*
X166435170Y-113226185D02*
X166506598Y-113369042D01*
X166506598Y-113369042D02*
X166578027Y-113440471D01*
X166578027Y-113440471D02*
X166720884Y-113511900D01*
X166720884Y-113511900D02*
X167006598Y-113511900D01*
X167006598Y-113511900D02*
X167149456Y-113440471D01*
X167149456Y-113440471D02*
X167220884Y-113369042D01*
X167220884Y-113369042D02*
X167292313Y-113226185D01*
D10*
D11*
X73122200Y-104997200D02*
X181122200Y-104997200D01*
D10*
D13*
X74813928Y-105701638D02*
X75956785Y-105701638D01*
X75135357Y-107701638D02*
X75385357Y-105701638D01*
X76373452Y-107701638D02*
X76540119Y-106368304D01*
X76623452Y-105701638D02*
X76516309Y-105796876D01*
X76516309Y-105796876D02*
X76599643Y-105892114D01*
X76599643Y-105892114D02*
X76706786Y-105796876D01*
X76706786Y-105796876D02*
X76623452Y-105701638D01*
X76623452Y-105701638D02*
X76599643Y-105892114D01*
X77206786Y-106368304D02*
X77968690Y-106368304D01*
X77575833Y-105701638D02*
X77361548Y-107415923D01*
X77361548Y-107415923D02*
X77432976Y-107606400D01*
X77432976Y-107606400D02*
X77611548Y-107701638D01*
X77611548Y-107701638D02*
X77802024Y-107701638D01*
X78754405Y-107701638D02*
X78575833Y-107606400D01*
X78575833Y-107606400D02*
X78504405Y-107415923D01*
X78504405Y-107415923D02*
X78718690Y-105701638D01*
X80290119Y-107606400D02*
X80087738Y-107701638D01*
X80087738Y-107701638D02*
X79706785Y-107701638D01*
X79706785Y-107701638D02*
X79528214Y-107606400D01*
X79528214Y-107606400D02*
X79456785Y-107415923D01*
X79456785Y-107415923D02*
X79552024Y-106654019D01*
X79552024Y-106654019D02*
X79671071Y-106463542D01*
X79671071Y-106463542D02*
X79873452Y-106368304D01*
X79873452Y-106368304D02*
X80254404Y-106368304D01*
X80254404Y-106368304D02*
X80432976Y-106463542D01*
X80432976Y-106463542D02*
X80504404Y-106654019D01*
X80504404Y-106654019D02*
X80480595Y-106844495D01*
X80480595Y-106844495D02*
X79504404Y-107034971D01*
X81254405Y-107511161D02*
X81337738Y-107606400D01*
X81337738Y-107606400D02*
X81230595Y-107701638D01*
X81230595Y-107701638D02*
X81147262Y-107606400D01*
X81147262Y-107606400D02*
X81254405Y-107511161D01*
X81254405Y-107511161D02*
X81230595Y-107701638D01*
X81385357Y-106463542D02*
X81468690Y-106558780D01*
X81468690Y-106558780D02*
X81361548Y-106654019D01*
X81361548Y-106654019D02*
X81278214Y-106558780D01*
X81278214Y-106558780D02*
X81385357Y-106463542D01*
X81385357Y-106463542D02*
X81361548Y-106654019D01*
X83682977Y-107130209D02*
X84635358Y-107130209D01*
X83421072Y-107701638D02*
X84337739Y-105701638D01*
X84337739Y-105701638D02*
X84754405Y-107701638D01*
X85421072Y-107701638D02*
X85587739Y-106368304D01*
X85563929Y-106558780D02*
X85671072Y-106463542D01*
X85671072Y-106463542D02*
X85873453Y-106368304D01*
X85873453Y-106368304D02*
X86159167Y-106368304D01*
X86159167Y-106368304D02*
X86337739Y-106463542D01*
X86337739Y-106463542D02*
X86409167Y-106654019D01*
X86409167Y-106654019D02*
X86278215Y-107701638D01*
X86409167Y-106654019D02*
X86528215Y-106463542D01*
X86528215Y-106463542D02*
X86730596Y-106368304D01*
X86730596Y-106368304D02*
X87016310Y-106368304D01*
X87016310Y-106368304D02*
X87194882Y-106463542D01*
X87194882Y-106463542D02*
X87266310Y-106654019D01*
X87266310Y-106654019D02*
X87135358Y-107701638D01*
X88254406Y-106368304D02*
X88004406Y-108368304D01*
X88242501Y-106463542D02*
X88444882Y-106368304D01*
X88444882Y-106368304D02*
X88825834Y-106368304D01*
X88825834Y-106368304D02*
X89004406Y-106463542D01*
X89004406Y-106463542D02*
X89087739Y-106558780D01*
X89087739Y-106558780D02*
X89159168Y-106749257D01*
X89159168Y-106749257D02*
X89087739Y-107320685D01*
X89087739Y-107320685D02*
X88968692Y-107511161D01*
X88968692Y-107511161D02*
X88861549Y-107606400D01*
X88861549Y-107606400D02*
X88659168Y-107701638D01*
X88659168Y-107701638D02*
X88278215Y-107701638D01*
X88278215Y-107701638D02*
X88099644Y-107606400D01*
X89956787Y-105701638D02*
X91040120Y-107701638D01*
X91290120Y-105701638D02*
X89706787Y-107701638D01*
X93956788Y-105701638D02*
X94337740Y-105701638D01*
X94337740Y-105701638D02*
X94516311Y-105796876D01*
X94516311Y-105796876D02*
X94682978Y-105987352D01*
X94682978Y-105987352D02*
X94730597Y-106368304D01*
X94730597Y-106368304D02*
X94647264Y-107034971D01*
X94647264Y-107034971D02*
X94504407Y-107415923D01*
X94504407Y-107415923D02*
X94290121Y-107606400D01*
X94290121Y-107606400D02*
X94087740Y-107701638D01*
X94087740Y-107701638D02*
X93706788Y-107701638D01*
X93706788Y-107701638D02*
X93528216Y-107606400D01*
X93528216Y-107606400D02*
X93361550Y-107415923D01*
X93361550Y-107415923D02*
X93313930Y-107034971D01*
X93313930Y-107034971D02*
X93397264Y-106368304D01*
X93397264Y-106368304D02*
X93540121Y-105987352D01*
X93540121Y-105987352D02*
X93754407Y-105796876D01*
X93754407Y-105796876D02*
X93956788Y-105701638D01*
X95587740Y-106368304D02*
X95337740Y-108368304D01*
X95575835Y-106463542D02*
X95778216Y-106368304D01*
X95778216Y-106368304D02*
X96159168Y-106368304D01*
X96159168Y-106368304D02*
X96337740Y-106463542D01*
X96337740Y-106463542D02*
X96421073Y-106558780D01*
X96421073Y-106558780D02*
X96492502Y-106749257D01*
X96492502Y-106749257D02*
X96421073Y-107320685D01*
X96421073Y-107320685D02*
X96302026Y-107511161D01*
X96302026Y-107511161D02*
X96194883Y-107606400D01*
X96194883Y-107606400D02*
X95992502Y-107701638D01*
X95992502Y-107701638D02*
X95611549Y-107701638D01*
X95611549Y-107701638D02*
X95432978Y-107606400D01*
X98004407Y-107606400D02*
X97802026Y-107701638D01*
X97802026Y-107701638D02*
X97421073Y-107701638D01*
X97421073Y-107701638D02*
X97242502Y-107606400D01*
X97242502Y-107606400D02*
X97171073Y-107415923D01*
X97171073Y-107415923D02*
X97266312Y-106654019D01*
X97266312Y-106654019D02*
X97385359Y-106463542D01*
X97385359Y-106463542D02*
X97587740Y-106368304D01*
X97587740Y-106368304D02*
X97968692Y-106368304D01*
X97968692Y-106368304D02*
X98147264Y-106463542D01*
X98147264Y-106463542D02*
X98218692Y-106654019D01*
X98218692Y-106654019D02*
X98194883Y-106844495D01*
X98194883Y-106844495D02*
X97218692Y-107034971D01*
X99111550Y-106368304D02*
X98944883Y-107701638D01*
X99087740Y-106558780D02*
X99194883Y-106463542D01*
X99194883Y-106463542D02*
X99397264Y-106368304D01*
X99397264Y-106368304D02*
X99682978Y-106368304D01*
X99682978Y-106368304D02*
X99861550Y-106463542D01*
X99861550Y-106463542D02*
X99932978Y-106654019D01*
X99932978Y-106654019D02*
X99802026Y-107701638D01*
X102409170Y-106654019D02*
X103075836Y-106654019D01*
X103230598Y-107701638D02*
X102278217Y-107701638D01*
X102278217Y-107701638D02*
X102528217Y-105701638D01*
X102528217Y-105701638D02*
X103480598Y-105701638D01*
X104254408Y-106368304D02*
X104087741Y-107701638D01*
X104230598Y-106558780D02*
X104337741Y-106463542D01*
X104337741Y-106463542D02*
X104540122Y-106368304D01*
X104540122Y-106368304D02*
X104825836Y-106368304D01*
X104825836Y-106368304D02*
X105004408Y-106463542D01*
X105004408Y-106463542D02*
X105075836Y-106654019D01*
X105075836Y-106654019D02*
X104944884Y-107701638D01*
X106671075Y-107606400D02*
X106468694Y-107701638D01*
X106468694Y-107701638D02*
X106087741Y-107701638D01*
X106087741Y-107701638D02*
X105909170Y-107606400D01*
X105909170Y-107606400D02*
X105837741Y-107415923D01*
X105837741Y-107415923D02*
X105932980Y-106654019D01*
X105932980Y-106654019D02*
X106052027Y-106463542D01*
X106052027Y-106463542D02*
X106254408Y-106368304D01*
X106254408Y-106368304D02*
X106635360Y-106368304D01*
X106635360Y-106368304D02*
X106813932Y-106463542D01*
X106813932Y-106463542D02*
X106885360Y-106654019D01*
X106885360Y-106654019D02*
X106861551Y-106844495D01*
X106861551Y-106844495D02*
X105885360Y-107034971D01*
X107611551Y-107701638D02*
X107778218Y-106368304D01*
X107730599Y-106749257D02*
X107849646Y-106558780D01*
X107849646Y-106558780D02*
X107956789Y-106463542D01*
X107956789Y-106463542D02*
X108159170Y-106368304D01*
X108159170Y-106368304D02*
X108349646Y-106368304D01*
X109873456Y-106368304D02*
X109671075Y-107987352D01*
X109671075Y-107987352D02*
X109552027Y-108177828D01*
X109552027Y-108177828D02*
X109444884Y-108273066D01*
X109444884Y-108273066D02*
X109242503Y-108368304D01*
X109242503Y-108368304D02*
X108956789Y-108368304D01*
X108956789Y-108368304D02*
X108778218Y-108273066D01*
X109718694Y-107606400D02*
X109516313Y-107701638D01*
X109516313Y-107701638D02*
X109135361Y-107701638D01*
X109135361Y-107701638D02*
X108956789Y-107606400D01*
X108956789Y-107606400D02*
X108873456Y-107511161D01*
X108873456Y-107511161D02*
X108802027Y-107320685D01*
X108802027Y-107320685D02*
X108873456Y-106749257D01*
X108873456Y-106749257D02*
X108992503Y-106558780D01*
X108992503Y-106558780D02*
X109099646Y-106463542D01*
X109099646Y-106463542D02*
X109302027Y-106368304D01*
X109302027Y-106368304D02*
X109682980Y-106368304D01*
X109682980Y-106368304D02*
X109861551Y-106463542D01*
X110635361Y-106368304D02*
X110944885Y-107701638D01*
X111587742Y-106368304D02*
X110944885Y-107701638D01*
X110944885Y-107701638D02*
X110694885Y-108177828D01*
X110694885Y-108177828D02*
X110587742Y-108273066D01*
X110587742Y-108273066D02*
X110385361Y-108368304D01*
X114992505Y-105796876D02*
X114813933Y-105701638D01*
X114813933Y-105701638D02*
X114528219Y-105701638D01*
X114528219Y-105701638D02*
X114230600Y-105796876D01*
X114230600Y-105796876D02*
X114016314Y-105987352D01*
X114016314Y-105987352D02*
X113897266Y-106177828D01*
X113897266Y-106177828D02*
X113754409Y-106558780D01*
X113754409Y-106558780D02*
X113718695Y-106844495D01*
X113718695Y-106844495D02*
X113766314Y-107225447D01*
X113766314Y-107225447D02*
X113837743Y-107415923D01*
X113837743Y-107415923D02*
X114004409Y-107606400D01*
X114004409Y-107606400D02*
X114278219Y-107701638D01*
X114278219Y-107701638D02*
X114468695Y-107701638D01*
X114468695Y-107701638D02*
X114766314Y-107606400D01*
X114766314Y-107606400D02*
X114873457Y-107511161D01*
X114873457Y-107511161D02*
X114956790Y-106844495D01*
X114956790Y-106844495D02*
X114575838Y-106844495D01*
X116563933Y-107701638D02*
X116694885Y-106654019D01*
X116694885Y-106654019D02*
X116623457Y-106463542D01*
X116623457Y-106463542D02*
X116444885Y-106368304D01*
X116444885Y-106368304D02*
X116063933Y-106368304D01*
X116063933Y-106368304D02*
X115861552Y-106463542D01*
X116575838Y-107606400D02*
X116373457Y-107701638D01*
X116373457Y-107701638D02*
X115897266Y-107701638D01*
X115897266Y-107701638D02*
X115718695Y-107606400D01*
X115718695Y-107606400D02*
X115647266Y-107415923D01*
X115647266Y-107415923D02*
X115671076Y-107225447D01*
X115671076Y-107225447D02*
X115790124Y-107034971D01*
X115790124Y-107034971D02*
X115992505Y-106939733D01*
X115992505Y-106939733D02*
X116468695Y-106939733D01*
X116468695Y-106939733D02*
X116671076Y-106844495D01*
X117397267Y-106368304D02*
X118159171Y-106368304D01*
X117766314Y-105701638D02*
X117552029Y-107415923D01*
X117552029Y-107415923D02*
X117623457Y-107606400D01*
X117623457Y-107606400D02*
X117802029Y-107701638D01*
X117802029Y-107701638D02*
X117992505Y-107701638D01*
X119432981Y-107606400D02*
X119230600Y-107701638D01*
X119230600Y-107701638D02*
X118849647Y-107701638D01*
X118849647Y-107701638D02*
X118671076Y-107606400D01*
X118671076Y-107606400D02*
X118599647Y-107415923D01*
X118599647Y-107415923D02*
X118694886Y-106654019D01*
X118694886Y-106654019D02*
X118813933Y-106463542D01*
X118813933Y-106463542D02*
X119016314Y-106368304D01*
X119016314Y-106368304D02*
X119397266Y-106368304D01*
X119397266Y-106368304D02*
X119575838Y-106463542D01*
X119575838Y-106463542D02*
X119647266Y-106654019D01*
X119647266Y-106654019D02*
X119623457Y-106844495D01*
X119623457Y-106844495D02*
X118647266Y-107034971D01*
X120349648Y-106368304D02*
X120563933Y-107701638D01*
X120563933Y-107701638D02*
X121063933Y-106749257D01*
X121063933Y-106749257D02*
X121325838Y-107701638D01*
X121325838Y-107701638D02*
X121873457Y-106368304D01*
X123325838Y-107701638D02*
X123456790Y-106654019D01*
X123456790Y-106654019D02*
X123385362Y-106463542D01*
X123385362Y-106463542D02*
X123206790Y-106368304D01*
X123206790Y-106368304D02*
X122825838Y-106368304D01*
X122825838Y-106368304D02*
X122623457Y-106463542D01*
X123337743Y-107606400D02*
X123135362Y-107701638D01*
X123135362Y-107701638D02*
X122659171Y-107701638D01*
X122659171Y-107701638D02*
X122480600Y-107606400D01*
X122480600Y-107606400D02*
X122409171Y-107415923D01*
X122409171Y-107415923D02*
X122432981Y-107225447D01*
X122432981Y-107225447D02*
X122552029Y-107034971D01*
X122552029Y-107034971D02*
X122754410Y-106939733D01*
X122754410Y-106939733D02*
X123230600Y-106939733D01*
X123230600Y-106939733D02*
X123432981Y-106844495D01*
X124254410Y-106368304D02*
X124563934Y-107701638D01*
X125206791Y-106368304D02*
X124563934Y-107701638D01*
X124563934Y-107701638D02*
X124313934Y-108177828D01*
X124313934Y-108177828D02*
X124206791Y-108273066D01*
X124206791Y-108273066D02*
X124004410Y-108368304D01*
D10*
D11*
X75078026Y-103097614D02*
X74578026Y-103097614D01*
X74578026Y-103883328D02*
X74578026Y-102383328D01*
X74578026Y-102383328D02*
X75292312Y-102383328D01*
X75863740Y-103883328D02*
X75863740Y-102883328D01*
X75863740Y-102383328D02*
X75792312Y-102454757D01*
X75792312Y-102454757D02*
X75863740Y-102526185D01*
X75863740Y-102526185D02*
X75935169Y-102454757D01*
X75935169Y-102454757D02*
X75863740Y-102383328D01*
X75863740Y-102383328D02*
X75863740Y-102526185D01*
X76792312Y-103883328D02*
X76649455Y-103811900D01*
X76649455Y-103811900D02*
X76578026Y-103669042D01*
X76578026Y-103669042D02*
X76578026Y-102383328D01*
X77935169Y-103811900D02*
X77792312Y-103883328D01*
X77792312Y-103883328D02*
X77506598Y-103883328D01*
X77506598Y-103883328D02*
X77363740Y-103811900D01*
X77363740Y-103811900D02*
X77292312Y-103669042D01*
X77292312Y-103669042D02*
X77292312Y-103097614D01*
X77292312Y-103097614D02*
X77363740Y-102954757D01*
X77363740Y-102954757D02*
X77506598Y-102883328D01*
X77506598Y-102883328D02*
X77792312Y-102883328D01*
X77792312Y-102883328D02*
X77935169Y-102954757D01*
X77935169Y-102954757D02*
X78006598Y-103097614D01*
X78006598Y-103097614D02*
X78006598Y-103240471D01*
X78006598Y-103240471D02*
X77292312Y-103383328D01*
X78649454Y-103740471D02*
X78720883Y-103811900D01*
X78720883Y-103811900D02*
X78649454Y-103883328D01*
X78649454Y-103883328D02*
X78578026Y-103811900D01*
X78578026Y-103811900D02*
X78649454Y-103740471D01*
X78649454Y-103740471D02*
X78649454Y-103883328D01*
X78649454Y-102954757D02*
X78720883Y-103026185D01*
X78720883Y-103026185D02*
X78649454Y-103097614D01*
X78649454Y-103097614D02*
X78578026Y-103026185D01*
X78578026Y-103026185D02*
X78649454Y-102954757D01*
X78649454Y-102954757D02*
X78649454Y-103097614D01*
X80435169Y-103454757D02*
X81149455Y-103454757D01*
X80292312Y-103883328D02*
X80792312Y-102383328D01*
X80792312Y-102383328D02*
X81292312Y-103883328D01*
X81792311Y-103883328D02*
X81792311Y-102883328D01*
X81792311Y-103026185D02*
X81863740Y-102954757D01*
X81863740Y-102954757D02*
X82006597Y-102883328D01*
X82006597Y-102883328D02*
X82220883Y-102883328D01*
X82220883Y-102883328D02*
X82363740Y-102954757D01*
X82363740Y-102954757D02*
X82435169Y-103097614D01*
X82435169Y-103097614D02*
X82435169Y-103883328D01*
X82435169Y-103097614D02*
X82506597Y-102954757D01*
X82506597Y-102954757D02*
X82649454Y-102883328D01*
X82649454Y-102883328D02*
X82863740Y-102883328D01*
X82863740Y-102883328D02*
X83006597Y-102954757D01*
X83006597Y-102954757D02*
X83078026Y-103097614D01*
X83078026Y-103097614D02*
X83078026Y-103883328D01*
X83792311Y-102883328D02*
X83792311Y-104383328D01*
X83792311Y-102954757D02*
X83935169Y-102883328D01*
X83935169Y-102883328D02*
X84220883Y-102883328D01*
X84220883Y-102883328D02*
X84363740Y-102954757D01*
X84363740Y-102954757D02*
X84435169Y-103026185D01*
X84435169Y-103026185D02*
X84506597Y-103169042D01*
X84506597Y-103169042D02*
X84506597Y-103597614D01*
X84506597Y-103597614D02*
X84435169Y-103740471D01*
X84435169Y-103740471D02*
X84363740Y-103811900D01*
X84363740Y-103811900D02*
X84220883Y-103883328D01*
X84220883Y-103883328D02*
X83935169Y-103883328D01*
X83935169Y-103883328D02*
X83792311Y-103811900D01*
X85006597Y-102383328D02*
X86006597Y-103883328D01*
X86006597Y-102383328D02*
X85006597Y-103883328D01*
X88006597Y-102383328D02*
X88292311Y-102383328D01*
X88292311Y-102383328D02*
X88435168Y-102454757D01*
X88435168Y-102454757D02*
X88578025Y-102597614D01*
X88578025Y-102597614D02*
X88649454Y-102883328D01*
X88649454Y-102883328D02*
X88649454Y-103383328D01*
X88649454Y-103383328D02*
X88578025Y-103669042D01*
X88578025Y-103669042D02*
X88435168Y-103811900D01*
X88435168Y-103811900D02*
X88292311Y-103883328D01*
X88292311Y-103883328D02*
X88006597Y-103883328D01*
X88006597Y-103883328D02*
X87863740Y-103811900D01*
X87863740Y-103811900D02*
X87720882Y-103669042D01*
X87720882Y-103669042D02*
X87649454Y-103383328D01*
X87649454Y-103383328D02*
X87649454Y-102883328D01*
X87649454Y-102883328D02*
X87720882Y-102597614D01*
X87720882Y-102597614D02*
X87863740Y-102454757D01*
X87863740Y-102454757D02*
X88006597Y-102383328D01*
X89292311Y-102883328D02*
X89292311Y-104383328D01*
X89292311Y-102954757D02*
X89435169Y-102883328D01*
X89435169Y-102883328D02*
X89720883Y-102883328D01*
X89720883Y-102883328D02*
X89863740Y-102954757D01*
X89863740Y-102954757D02*
X89935169Y-103026185D01*
X89935169Y-103026185D02*
X90006597Y-103169042D01*
X90006597Y-103169042D02*
X90006597Y-103597614D01*
X90006597Y-103597614D02*
X89935169Y-103740471D01*
X89935169Y-103740471D02*
X89863740Y-103811900D01*
X89863740Y-103811900D02*
X89720883Y-103883328D01*
X89720883Y-103883328D02*
X89435169Y-103883328D01*
X89435169Y-103883328D02*
X89292311Y-103811900D01*
X91220883Y-103811900D02*
X91078026Y-103883328D01*
X91078026Y-103883328D02*
X90792312Y-103883328D01*
X90792312Y-103883328D02*
X90649454Y-103811900D01*
X90649454Y-103811900D02*
X90578026Y-103669042D01*
X90578026Y-103669042D02*
X90578026Y-103097614D01*
X90578026Y-103097614D02*
X90649454Y-102954757D01*
X90649454Y-102954757D02*
X90792312Y-102883328D01*
X90792312Y-102883328D02*
X91078026Y-102883328D01*
X91078026Y-102883328D02*
X91220883Y-102954757D01*
X91220883Y-102954757D02*
X91292312Y-103097614D01*
X91292312Y-103097614D02*
X91292312Y-103240471D01*
X91292312Y-103240471D02*
X90578026Y-103383328D01*
X91935168Y-102883328D02*
X91935168Y-103883328D01*
X91935168Y-103026185D02*
X92006597Y-102954757D01*
X92006597Y-102954757D02*
X92149454Y-102883328D01*
X92149454Y-102883328D02*
X92363740Y-102883328D01*
X92363740Y-102883328D02*
X92506597Y-102954757D01*
X92506597Y-102954757D02*
X92578026Y-103097614D01*
X92578026Y-103097614D02*
X92578026Y-103883328D01*
X94435168Y-103097614D02*
X94935168Y-103097614D01*
X95149454Y-103883328D02*
X94435168Y-103883328D01*
X94435168Y-103883328D02*
X94435168Y-102383328D01*
X94435168Y-102383328D02*
X95149454Y-102383328D01*
X95792311Y-102883328D02*
X95792311Y-103883328D01*
X95792311Y-103026185D02*
X95863740Y-102954757D01*
X95863740Y-102954757D02*
X96006597Y-102883328D01*
X96006597Y-102883328D02*
X96220883Y-102883328D01*
X96220883Y-102883328D02*
X96363740Y-102954757D01*
X96363740Y-102954757D02*
X96435169Y-103097614D01*
X96435169Y-103097614D02*
X96435169Y-103883328D01*
X97720883Y-103811900D02*
X97578026Y-103883328D01*
X97578026Y-103883328D02*
X97292312Y-103883328D01*
X97292312Y-103883328D02*
X97149454Y-103811900D01*
X97149454Y-103811900D02*
X97078026Y-103669042D01*
X97078026Y-103669042D02*
X97078026Y-103097614D01*
X97078026Y-103097614D02*
X97149454Y-102954757D01*
X97149454Y-102954757D02*
X97292312Y-102883328D01*
X97292312Y-102883328D02*
X97578026Y-102883328D01*
X97578026Y-102883328D02*
X97720883Y-102954757D01*
X97720883Y-102954757D02*
X97792312Y-103097614D01*
X97792312Y-103097614D02*
X97792312Y-103240471D01*
X97792312Y-103240471D02*
X97078026Y-103383328D01*
X98435168Y-103883328D02*
X98435168Y-102883328D01*
X98435168Y-103169042D02*
X98506597Y-103026185D01*
X98506597Y-103026185D02*
X98578026Y-102954757D01*
X98578026Y-102954757D02*
X98720883Y-102883328D01*
X98720883Y-102883328D02*
X98863740Y-102883328D01*
X100006597Y-102883328D02*
X100006597Y-104097614D01*
X100006597Y-104097614D02*
X99935168Y-104240471D01*
X99935168Y-104240471D02*
X99863739Y-104311900D01*
X99863739Y-104311900D02*
X99720882Y-104383328D01*
X99720882Y-104383328D02*
X99506597Y-104383328D01*
X99506597Y-104383328D02*
X99363739Y-104311900D01*
X100006597Y-103811900D02*
X99863739Y-103883328D01*
X99863739Y-103883328D02*
X99578025Y-103883328D01*
X99578025Y-103883328D02*
X99435168Y-103811900D01*
X99435168Y-103811900D02*
X99363739Y-103740471D01*
X99363739Y-103740471D02*
X99292311Y-103597614D01*
X99292311Y-103597614D02*
X99292311Y-103169042D01*
X99292311Y-103169042D02*
X99363739Y-103026185D01*
X99363739Y-103026185D02*
X99435168Y-102954757D01*
X99435168Y-102954757D02*
X99578025Y-102883328D01*
X99578025Y-102883328D02*
X99863739Y-102883328D01*
X99863739Y-102883328D02*
X100006597Y-102954757D01*
X100578025Y-102883328D02*
X100935168Y-103883328D01*
X101292311Y-102883328D02*
X100935168Y-103883328D01*
X100935168Y-103883328D02*
X100792311Y-104240471D01*
X100792311Y-104240471D02*
X100720882Y-104311900D01*
X100720882Y-104311900D02*
X100578025Y-104383328D01*
X103792311Y-102454757D02*
X103649454Y-102383328D01*
X103649454Y-102383328D02*
X103435168Y-102383328D01*
X103435168Y-102383328D02*
X103220882Y-102454757D01*
X103220882Y-102454757D02*
X103078025Y-102597614D01*
X103078025Y-102597614D02*
X103006596Y-102740471D01*
X103006596Y-102740471D02*
X102935168Y-103026185D01*
X102935168Y-103026185D02*
X102935168Y-103240471D01*
X102935168Y-103240471D02*
X103006596Y-103526185D01*
X103006596Y-103526185D02*
X103078025Y-103669042D01*
X103078025Y-103669042D02*
X103220882Y-103811900D01*
X103220882Y-103811900D02*
X103435168Y-103883328D01*
X103435168Y-103883328D02*
X103578025Y-103883328D01*
X103578025Y-103883328D02*
X103792311Y-103811900D01*
X103792311Y-103811900D02*
X103863739Y-103740471D01*
X103863739Y-103740471D02*
X103863739Y-103240471D01*
X103863739Y-103240471D02*
X103578025Y-103240471D01*
X105149454Y-103883328D02*
X105149454Y-103097614D01*
X105149454Y-103097614D02*
X105078025Y-102954757D01*
X105078025Y-102954757D02*
X104935168Y-102883328D01*
X104935168Y-102883328D02*
X104649454Y-102883328D01*
X104649454Y-102883328D02*
X104506596Y-102954757D01*
X105149454Y-103811900D02*
X105006596Y-103883328D01*
X105006596Y-103883328D02*
X104649454Y-103883328D01*
X104649454Y-103883328D02*
X104506596Y-103811900D01*
X104506596Y-103811900D02*
X104435168Y-103669042D01*
X104435168Y-103669042D02*
X104435168Y-103526185D01*
X104435168Y-103526185D02*
X104506596Y-103383328D01*
X104506596Y-103383328D02*
X104649454Y-103311900D01*
X104649454Y-103311900D02*
X105006596Y-103311900D01*
X105006596Y-103311900D02*
X105149454Y-103240471D01*
X105649454Y-102883328D02*
X106220882Y-102883328D01*
X105863739Y-102383328D02*
X105863739Y-103669042D01*
X105863739Y-103669042D02*
X105935168Y-103811900D01*
X105935168Y-103811900D02*
X106078025Y-103883328D01*
X106078025Y-103883328D02*
X106220882Y-103883328D01*
X107292311Y-103811900D02*
X107149454Y-103883328D01*
X107149454Y-103883328D02*
X106863740Y-103883328D01*
X106863740Y-103883328D02*
X106720882Y-103811900D01*
X106720882Y-103811900D02*
X106649454Y-103669042D01*
X106649454Y-103669042D02*
X106649454Y-103097614D01*
X106649454Y-103097614D02*
X106720882Y-102954757D01*
X106720882Y-102954757D02*
X106863740Y-102883328D01*
X106863740Y-102883328D02*
X107149454Y-102883328D01*
X107149454Y-102883328D02*
X107292311Y-102954757D01*
X107292311Y-102954757D02*
X107363740Y-103097614D01*
X107363740Y-103097614D02*
X107363740Y-103240471D01*
X107363740Y-103240471D02*
X106649454Y-103383328D01*
X107863739Y-102883328D02*
X108149454Y-103883328D01*
X108149454Y-103883328D02*
X108435168Y-103169042D01*
X108435168Y-103169042D02*
X108720882Y-103883328D01*
X108720882Y-103883328D02*
X109006596Y-102883328D01*
X110220883Y-103883328D02*
X110220883Y-103097614D01*
X110220883Y-103097614D02*
X110149454Y-102954757D01*
X110149454Y-102954757D02*
X110006597Y-102883328D01*
X110006597Y-102883328D02*
X109720883Y-102883328D01*
X109720883Y-102883328D02*
X109578025Y-102954757D01*
X110220883Y-103811900D02*
X110078025Y-103883328D01*
X110078025Y-103883328D02*
X109720883Y-103883328D01*
X109720883Y-103883328D02*
X109578025Y-103811900D01*
X109578025Y-103811900D02*
X109506597Y-103669042D01*
X109506597Y-103669042D02*
X109506597Y-103526185D01*
X109506597Y-103526185D02*
X109578025Y-103383328D01*
X109578025Y-103383328D02*
X109720883Y-103311900D01*
X109720883Y-103311900D02*
X110078025Y-103311900D01*
X110078025Y-103311900D02*
X110220883Y-103240471D01*
X110792311Y-102883328D02*
X111149454Y-103883328D01*
X111506597Y-102883328D02*
X111149454Y-103883328D01*
X111149454Y-103883328D02*
X111006597Y-104240471D01*
X111006597Y-104240471D02*
X110935168Y-104311900D01*
X110935168Y-104311900D02*
X110792311Y-104383328D01*
X112078025Y-103740471D02*
X112149454Y-103811900D01*
X112149454Y-103811900D02*
X112078025Y-103883328D01*
X112078025Y-103883328D02*
X112006597Y-103811900D01*
X112006597Y-103811900D02*
X112078025Y-103740471D01*
X112078025Y-103740471D02*
X112078025Y-103883328D01*
X112792311Y-103883328D02*
X112792311Y-102383328D01*
X112935169Y-103311900D02*
X113363740Y-103883328D01*
X113363740Y-102883328D02*
X112792311Y-103454757D01*
X114006597Y-103883328D02*
X114006597Y-102883328D01*
X114006597Y-102383328D02*
X113935169Y-102454757D01*
X113935169Y-102454757D02*
X114006597Y-102526185D01*
X114006597Y-102526185D02*
X114078026Y-102454757D01*
X114078026Y-102454757D02*
X114006597Y-102383328D01*
X114006597Y-102383328D02*
X114006597Y-102526185D01*
X115363741Y-103811900D02*
X115220883Y-103883328D01*
X115220883Y-103883328D02*
X114935169Y-103883328D01*
X114935169Y-103883328D02*
X114792312Y-103811900D01*
X114792312Y-103811900D02*
X114720883Y-103740471D01*
X114720883Y-103740471D02*
X114649455Y-103597614D01*
X114649455Y-103597614D02*
X114649455Y-103169042D01*
X114649455Y-103169042D02*
X114720883Y-103026185D01*
X114720883Y-103026185D02*
X114792312Y-102954757D01*
X114792312Y-102954757D02*
X114935169Y-102883328D01*
X114935169Y-102883328D02*
X115220883Y-102883328D01*
X115220883Y-102883328D02*
X115363741Y-102954757D01*
X116649455Y-103883328D02*
X116649455Y-103097614D01*
X116649455Y-103097614D02*
X116578026Y-102954757D01*
X116578026Y-102954757D02*
X116435169Y-102883328D01*
X116435169Y-102883328D02*
X116149455Y-102883328D01*
X116149455Y-102883328D02*
X116006597Y-102954757D01*
X116649455Y-103811900D02*
X116506597Y-103883328D01*
X116506597Y-103883328D02*
X116149455Y-103883328D01*
X116149455Y-103883328D02*
X116006597Y-103811900D01*
X116006597Y-103811900D02*
X115935169Y-103669042D01*
X115935169Y-103669042D02*
X115935169Y-103526185D01*
X115935169Y-103526185D02*
X116006597Y-103383328D01*
X116006597Y-103383328D02*
X116149455Y-103311900D01*
X116149455Y-103311900D02*
X116506597Y-103311900D01*
X116506597Y-103311900D02*
X116649455Y-103240471D01*
X118006598Y-103883328D02*
X118006598Y-102383328D01*
X118006598Y-103811900D02*
X117863740Y-103883328D01*
X117863740Y-103883328D02*
X117578026Y-103883328D01*
X117578026Y-103883328D02*
X117435169Y-103811900D01*
X117435169Y-103811900D02*
X117363740Y-103740471D01*
X117363740Y-103740471D02*
X117292312Y-103597614D01*
X117292312Y-103597614D02*
X117292312Y-103169042D01*
X117292312Y-103169042D02*
X117363740Y-103026185D01*
X117363740Y-103026185D02*
X117435169Y-102954757D01*
X117435169Y-102954757D02*
X117578026Y-102883328D01*
X117578026Y-102883328D02*
X117863740Y-102883328D01*
X117863740Y-102883328D02*
X118006598Y-102954757D01*
X118363741Y-104026185D02*
X119506598Y-104026185D01*
X119863740Y-102883328D02*
X119863740Y-104383328D01*
X119863740Y-102954757D02*
X120006598Y-102883328D01*
X120006598Y-102883328D02*
X120292312Y-102883328D01*
X120292312Y-102883328D02*
X120435169Y-102954757D01*
X120435169Y-102954757D02*
X120506598Y-103026185D01*
X120506598Y-103026185D02*
X120578026Y-103169042D01*
X120578026Y-103169042D02*
X120578026Y-103597614D01*
X120578026Y-103597614D02*
X120506598Y-103740471D01*
X120506598Y-103740471D02*
X120435169Y-103811900D01*
X120435169Y-103811900D02*
X120292312Y-103883328D01*
X120292312Y-103883328D02*
X120006598Y-103883328D01*
X120006598Y-103883328D02*
X119863740Y-103811900D01*
X121863741Y-103811900D02*
X121720883Y-103883328D01*
X121720883Y-103883328D02*
X121435169Y-103883328D01*
X121435169Y-103883328D02*
X121292312Y-103811900D01*
X121292312Y-103811900D02*
X121220883Y-103740471D01*
X121220883Y-103740471D02*
X121149455Y-103597614D01*
X121149455Y-103597614D02*
X121149455Y-103169042D01*
X121149455Y-103169042D02*
X121220883Y-103026185D01*
X121220883Y-103026185D02*
X121292312Y-102954757D01*
X121292312Y-102954757D02*
X121435169Y-102883328D01*
X121435169Y-102883328D02*
X121720883Y-102883328D01*
X121720883Y-102883328D02*
X121863741Y-102954757D01*
X122506597Y-103883328D02*
X122506597Y-102383328D01*
X122506597Y-102954757D02*
X122649455Y-102883328D01*
X122649455Y-102883328D02*
X122935169Y-102883328D01*
X122935169Y-102883328D02*
X123078026Y-102954757D01*
X123078026Y-102954757D02*
X123149455Y-103026185D01*
X123149455Y-103026185D02*
X123220883Y-103169042D01*
X123220883Y-103169042D02*
X123220883Y-103597614D01*
X123220883Y-103597614D02*
X123149455Y-103740471D01*
X123149455Y-103740471D02*
X123078026Y-103811900D01*
X123078026Y-103811900D02*
X122935169Y-103883328D01*
X122935169Y-103883328D02*
X122649455Y-103883328D01*
X122649455Y-103883328D02*
X122506597Y-103811900D01*
D10*
D11*
X73122200Y-98997200D02*
X181122200Y-98997200D01*
D10*
D11*
X74506598Y-101111900D02*
X74720884Y-101183328D01*
X74720884Y-101183328D02*
X75078026Y-101183328D01*
X75078026Y-101183328D02*
X75220884Y-101111900D01*
X75220884Y-101111900D02*
X75292312Y-101040471D01*
X75292312Y-101040471D02*
X75363741Y-100897614D01*
X75363741Y-100897614D02*
X75363741Y-100754757D01*
X75363741Y-100754757D02*
X75292312Y-100611900D01*
X75292312Y-100611900D02*
X75220884Y-100540471D01*
X75220884Y-100540471D02*
X75078026Y-100469042D01*
X75078026Y-100469042D02*
X74792312Y-100397614D01*
X74792312Y-100397614D02*
X74649455Y-100326185D01*
X74649455Y-100326185D02*
X74578026Y-100254757D01*
X74578026Y-100254757D02*
X74506598Y-100111900D01*
X74506598Y-100111900D02*
X74506598Y-99969042D01*
X74506598Y-99969042D02*
X74578026Y-99826185D01*
X74578026Y-99826185D02*
X74649455Y-99754757D01*
X74649455Y-99754757D02*
X74792312Y-99683328D01*
X74792312Y-99683328D02*
X75149455Y-99683328D01*
X75149455Y-99683328D02*
X75363741Y-99754757D01*
X76006597Y-101183328D02*
X76006597Y-99683328D01*
X76649455Y-101183328D02*
X76649455Y-100397614D01*
X76649455Y-100397614D02*
X76578026Y-100254757D01*
X76578026Y-100254757D02*
X76435169Y-100183328D01*
X76435169Y-100183328D02*
X76220883Y-100183328D01*
X76220883Y-100183328D02*
X76078026Y-100254757D01*
X76078026Y-100254757D02*
X76006597Y-100326185D01*
X77935169Y-101111900D02*
X77792312Y-101183328D01*
X77792312Y-101183328D02*
X77506598Y-101183328D01*
X77506598Y-101183328D02*
X77363740Y-101111900D01*
X77363740Y-101111900D02*
X77292312Y-100969042D01*
X77292312Y-100969042D02*
X77292312Y-100397614D01*
X77292312Y-100397614D02*
X77363740Y-100254757D01*
X77363740Y-100254757D02*
X77506598Y-100183328D01*
X77506598Y-100183328D02*
X77792312Y-100183328D01*
X77792312Y-100183328D02*
X77935169Y-100254757D01*
X77935169Y-100254757D02*
X78006598Y-100397614D01*
X78006598Y-100397614D02*
X78006598Y-100540471D01*
X78006598Y-100540471D02*
X77292312Y-100683328D01*
X79220883Y-101111900D02*
X79078026Y-101183328D01*
X79078026Y-101183328D02*
X78792312Y-101183328D01*
X78792312Y-101183328D02*
X78649454Y-101111900D01*
X78649454Y-101111900D02*
X78578026Y-100969042D01*
X78578026Y-100969042D02*
X78578026Y-100397614D01*
X78578026Y-100397614D02*
X78649454Y-100254757D01*
X78649454Y-100254757D02*
X78792312Y-100183328D01*
X78792312Y-100183328D02*
X79078026Y-100183328D01*
X79078026Y-100183328D02*
X79220883Y-100254757D01*
X79220883Y-100254757D02*
X79292312Y-100397614D01*
X79292312Y-100397614D02*
X79292312Y-100540471D01*
X79292312Y-100540471D02*
X78578026Y-100683328D01*
X79720883Y-100183328D02*
X80292311Y-100183328D01*
X79935168Y-99683328D02*
X79935168Y-100969042D01*
X79935168Y-100969042D02*
X80006597Y-101111900D01*
X80006597Y-101111900D02*
X80149454Y-101183328D01*
X80149454Y-101183328D02*
X80292311Y-101183328D01*
X80792311Y-101040471D02*
X80863740Y-101111900D01*
X80863740Y-101111900D02*
X80792311Y-101183328D01*
X80792311Y-101183328D02*
X80720883Y-101111900D01*
X80720883Y-101111900D02*
X80792311Y-101040471D01*
X80792311Y-101040471D02*
X80792311Y-101183328D01*
X80792311Y-100254757D02*
X80863740Y-100326185D01*
X80863740Y-100326185D02*
X80792311Y-100397614D01*
X80792311Y-100397614D02*
X80720883Y-100326185D01*
X80720883Y-100326185D02*
X80792311Y-100254757D01*
X80792311Y-100254757D02*
X80792311Y-100397614D01*
D10*
D12*
X74605282Y-97746957D02*
X75319568Y-97746957D01*
X74462425Y-98175528D02*
X74962425Y-96675528D01*
X74962425Y-96675528D02*
X75462425Y-98175528D01*
X75962424Y-98175528D02*
X75962424Y-97175528D01*
X75962424Y-97318385D02*
X76033853Y-97246957D01*
X76033853Y-97246957D02*
X76176710Y-97175528D01*
X76176710Y-97175528D02*
X76390996Y-97175528D01*
X76390996Y-97175528D02*
X76533853Y-97246957D01*
X76533853Y-97246957D02*
X76605282Y-97389814D01*
X76605282Y-97389814D02*
X76605282Y-98175528D01*
X76605282Y-97389814D02*
X76676710Y-97246957D01*
X76676710Y-97246957D02*
X76819567Y-97175528D01*
X76819567Y-97175528D02*
X77033853Y-97175528D01*
X77033853Y-97175528D02*
X77176710Y-97246957D01*
X77176710Y-97246957D02*
X77248139Y-97389814D01*
X77248139Y-97389814D02*
X77248139Y-98175528D01*
X77962424Y-97175528D02*
X77962424Y-98675528D01*
X77962424Y-97246957D02*
X78105282Y-97175528D01*
X78105282Y-97175528D02*
X78390996Y-97175528D01*
X78390996Y-97175528D02*
X78533853Y-97246957D01*
X78533853Y-97246957D02*
X78605282Y-97318385D01*
X78605282Y-97318385D02*
X78676710Y-97461242D01*
X78676710Y-97461242D02*
X78676710Y-97889814D01*
X78676710Y-97889814D02*
X78605282Y-98032671D01*
X78605282Y-98032671D02*
X78533853Y-98104100D01*
X78533853Y-98104100D02*
X78390996Y-98175528D01*
X78390996Y-98175528D02*
X78105282Y-98175528D01*
X78105282Y-98175528D02*
X77962424Y-98104100D01*
X79176710Y-98175528D02*
X79962425Y-97175528D01*
X79176710Y-97175528D02*
X79962425Y-98175528D01*
X81676710Y-97389814D02*
X82176710Y-97389814D01*
X82390996Y-98175528D02*
X81676710Y-98175528D01*
X81676710Y-98175528D02*
X81676710Y-96675528D01*
X81676710Y-96675528D02*
X82390996Y-96675528D01*
X83676711Y-97175528D02*
X83676711Y-98175528D01*
X83033853Y-97175528D02*
X83033853Y-97961242D01*
X83033853Y-97961242D02*
X83105282Y-98104100D01*
X83105282Y-98104100D02*
X83248139Y-98175528D01*
X83248139Y-98175528D02*
X83462425Y-98175528D01*
X83462425Y-98175528D02*
X83605282Y-98104100D01*
X83605282Y-98104100D02*
X83676711Y-98032671D01*
X84390996Y-98175528D02*
X84390996Y-97175528D01*
X84390996Y-97461242D02*
X84462425Y-97318385D01*
X84462425Y-97318385D02*
X84533854Y-97246957D01*
X84533854Y-97246957D02*
X84676711Y-97175528D01*
X84676711Y-97175528D02*
X84819568Y-97175528D01*
X85533853Y-98175528D02*
X85390996Y-98104100D01*
X85390996Y-98104100D02*
X85319567Y-98032671D01*
X85319567Y-98032671D02*
X85248139Y-97889814D01*
X85248139Y-97889814D02*
X85248139Y-97461242D01*
X85248139Y-97461242D02*
X85319567Y-97318385D01*
X85319567Y-97318385D02*
X85390996Y-97246957D01*
X85390996Y-97246957D02*
X85533853Y-97175528D01*
X85533853Y-97175528D02*
X85748139Y-97175528D01*
X85748139Y-97175528D02*
X85890996Y-97246957D01*
X85890996Y-97246957D02*
X85962425Y-97318385D01*
X85962425Y-97318385D02*
X86033853Y-97461242D01*
X86033853Y-97461242D02*
X86033853Y-97889814D01*
X86033853Y-97889814D02*
X85962425Y-98032671D01*
X85962425Y-98032671D02*
X85890996Y-98104100D01*
X85890996Y-98104100D02*
X85748139Y-98175528D01*
X85748139Y-98175528D02*
X85533853Y-98175528D01*
X86676710Y-97175528D02*
X86676710Y-98675528D01*
X86676710Y-97246957D02*
X86819568Y-97175528D01*
X86819568Y-97175528D02*
X87105282Y-97175528D01*
X87105282Y-97175528D02*
X87248139Y-97246957D01*
X87248139Y-97246957D02*
X87319568Y-97318385D01*
X87319568Y-97318385D02*
X87390996Y-97461242D01*
X87390996Y-97461242D02*
X87390996Y-97889814D01*
X87390996Y-97889814D02*
X87319568Y-98032671D01*
X87319568Y-98032671D02*
X87248139Y-98104100D01*
X87248139Y-98104100D02*
X87105282Y-98175528D01*
X87105282Y-98175528D02*
X86819568Y-98175528D01*
X86819568Y-98175528D02*
X86676710Y-98104100D01*
X88605282Y-98104100D02*
X88462425Y-98175528D01*
X88462425Y-98175528D02*
X88176711Y-98175528D01*
X88176711Y-98175528D02*
X88033853Y-98104100D01*
X88033853Y-98104100D02*
X87962425Y-97961242D01*
X87962425Y-97961242D02*
X87962425Y-97389814D01*
X87962425Y-97389814D02*
X88033853Y-97246957D01*
X88033853Y-97246957D02*
X88176711Y-97175528D01*
X88176711Y-97175528D02*
X88462425Y-97175528D01*
X88462425Y-97175528D02*
X88605282Y-97246957D01*
X88605282Y-97246957D02*
X88676711Y-97389814D01*
X88676711Y-97389814D02*
X88676711Y-97532671D01*
X88676711Y-97532671D02*
X87962425Y-97675528D01*
D10*
D11*
X93122200Y-108997200D02*
X93122200Y-111997200D01*
D10*
D11*
X157122200Y-108997200D02*
X157122200Y-115497200D01*
M02*
