%TF.GenerationSoftware,KiCad,Pcbnew,9.0.4*%
%TF.CreationDate,2025-10-16T04:43:45+02:00*%
%TF.ProjectId,AmpX Open Energy Gateway,416d7058-204f-4706-956e-20456e657267,1.0*%
%TF.SameCoordinates,PX6311540PY4eb00b0*%
%TF.FileFunction,Copper,L1,Top*%
%TF.FilePolarity,Positive*%
%FSLAX46Y46*%
G04 Gerber Fmt 4.6, Leading zero omitted, Abs format (unit mm)*
G04 Created by KiCad (PCBNEW 9.0.4) date 2025-10-16 04:43:45*
%MOMM*%
%LPD*%
G01*
G04 APERTURE LIST*
G04 Aperture macros list*
%AMRoundRect*
0 Rectangle with rounded corners*
0 $1 Rounding radius*
0 $2 $3 $4 $5 $6 $7 $8 $9 X,Y pos of 4 corners*
0 Add a 4 corners polygon primitive as box body*
4,1,4,$2,$3,$4,$5,$6,$7,$8,$9,$2,$3,0*
0 Add four circle primitives for the rounded corners*
1,1,$1+$1,$2,$3*
1,1,$1+$1,$4,$5*
1,1,$1+$1,$6,$7*
1,1,$1+$1,$8,$9*
0 Add four rect primitives between the rounded corners*
20,1,$1+$1,$2,$3,$4,$5,0*
20,1,$1+$1,$4,$5,$6,$7,0*
20,1,$1+$1,$6,$7,$8,$9,0*
20,1,$1+$1,$8,$9,$2,$3,0*%
G04 Aperture macros list end*
%ADD10C,0.100000*%
%ADD11C,0.150000*%
%ADD12C,0.300000*%
%ADD13C,0.400000*%
%TA.AperFunction,ComponentPad*%
%ADD14RoundRect,0.250000X0.725000X-0.600000X0.725000X0.600000X-0.725000X0.600000X-0.725000X-0.600000X0*%
%TD*%
%TA.AperFunction,ComponentPad*%
%ADD15O,1.950000X1.700000*%
%TD*%
%TA.AperFunction,ComponentPad*%
%ADD16R,1.530000X1.530000*%
%TD*%
%TA.AperFunction,ComponentPad*%
%ADD17C,1.530000*%
%TD*%
%TA.AperFunction,ComponentPad*%
%ADD18RoundRect,0.250000X0.750000X-0.600000X0.750000X0.600000X-0.750000X0.600000X-0.750000X-0.600000X0*%
%TD*%
%TA.AperFunction,ComponentPad*%
%ADD19O,2.000000X1.700000*%
%TD*%
%TA.AperFunction,ComponentPad*%
%ADD20C,1.600000*%
%TD*%
%TA.AperFunction,ViaPad*%
%ADD21C,0.600000*%
%TD*%
%TA.AperFunction,Conductor*%
%ADD22C,0.200000*%
%TD*%
G04 APERTURE END LIST*
D10*
D11*
X73122200Y-83497200D02*
X181122200Y-83497200D01*
X181122200Y-115497200D01*
X73122200Y-115497200D01*
X73122200Y-83497200D01*
D10*
D11*
X-93880000Y72510000D02*
X183122200Y72510000D01*
X183122200Y-117497200D01*
X-93880000Y-117497200D01*
X-93880000Y72510000D01*
D10*
D11*
X-91880000Y70510000D02*
X181122200Y70510000D01*
X181122200Y-115497200D01*
X-91880000Y-115497200D01*
X-91880000Y70510000D01*
D10*
D11*
X-43880000Y70510000D02*
X-43880000Y72510000D01*
D10*
D11*
X6120000Y70510000D02*
X6120000Y72510000D01*
D10*
D11*
X56120000Y70510000D02*
X56120000Y72510000D01*
D10*
D11*
X106120000Y70510000D02*
X106120000Y72510000D01*
D10*
D11*
X156120000Y70510000D02*
X156120000Y72510000D01*
D10*
D11*
X-67790840Y70916396D02*
X-68533697Y70916396D01*
X-68162269Y70916396D02*
X-68162269Y72216396D01*
X-68162269Y72216396D02*
X-68286078Y72030681D01*
X-68286078Y72030681D02*
X-68409888Y71906872D01*
X-68409888Y71906872D02*
X-68533697Y71844967D01*
D10*
D11*
X-18533697Y72092586D02*
X-18471793Y72154491D01*
X-18471793Y72154491D02*
X-18347983Y72216396D01*
X-18347983Y72216396D02*
X-18038459Y72216396D01*
X-18038459Y72216396D02*
X-17914650Y72154491D01*
X-17914650Y72154491D02*
X-17852745Y72092586D01*
X-17852745Y72092586D02*
X-17790840Y71968777D01*
X-17790840Y71968777D02*
X-17790840Y71844967D01*
X-17790840Y71844967D02*
X-17852745Y71659253D01*
X-17852745Y71659253D02*
X-18595602Y70916396D01*
X-18595602Y70916396D02*
X-17790840Y70916396D01*
D10*
D11*
X31404398Y72216396D02*
X32209160Y72216396D01*
X32209160Y72216396D02*
X31775826Y71721158D01*
X31775826Y71721158D02*
X31961541Y71721158D01*
X31961541Y71721158D02*
X32085350Y71659253D01*
X32085350Y71659253D02*
X32147255Y71597348D01*
X32147255Y71597348D02*
X32209160Y71473539D01*
X32209160Y71473539D02*
X32209160Y71164015D01*
X32209160Y71164015D02*
X32147255Y71040205D01*
X32147255Y71040205D02*
X32085350Y70978300D01*
X32085350Y70978300D02*
X31961541Y70916396D01*
X31961541Y70916396D02*
X31590112Y70916396D01*
X31590112Y70916396D02*
X31466303Y70978300D01*
X31466303Y70978300D02*
X31404398Y71040205D01*
D10*
D11*
X82085350Y71783062D02*
X82085350Y70916396D01*
X81775826Y72278300D02*
X81466303Y71349729D01*
X81466303Y71349729D02*
X82271064Y71349729D01*
D10*
D11*
X132147255Y72216396D02*
X131528207Y72216396D01*
X131528207Y72216396D02*
X131466303Y71597348D01*
X131466303Y71597348D02*
X131528207Y71659253D01*
X131528207Y71659253D02*
X131652017Y71721158D01*
X131652017Y71721158D02*
X131961541Y71721158D01*
X131961541Y71721158D02*
X132085350Y71659253D01*
X132085350Y71659253D02*
X132147255Y71597348D01*
X132147255Y71597348D02*
X132209160Y71473539D01*
X132209160Y71473539D02*
X132209160Y71164015D01*
X132209160Y71164015D02*
X132147255Y71040205D01*
X132147255Y71040205D02*
X132085350Y70978300D01*
X132085350Y70978300D02*
X131961541Y70916396D01*
X131961541Y70916396D02*
X131652017Y70916396D01*
X131652017Y70916396D02*
X131528207Y70978300D01*
X131528207Y70978300D02*
X131466303Y71040205D01*
D10*
D11*
X182085350Y72216396D02*
X181837731Y72216396D01*
X181837731Y72216396D02*
X181713922Y72154491D01*
X181713922Y72154491D02*
X181652017Y72092586D01*
X181652017Y72092586D02*
X181528207Y71906872D01*
X181528207Y71906872D02*
X181466303Y71659253D01*
X181466303Y71659253D02*
X181466303Y71164015D01*
X181466303Y71164015D02*
X181528207Y71040205D01*
X181528207Y71040205D02*
X181590112Y70978300D01*
X181590112Y70978300D02*
X181713922Y70916396D01*
X181713922Y70916396D02*
X181961541Y70916396D01*
X181961541Y70916396D02*
X182085350Y70978300D01*
X182085350Y70978300D02*
X182147255Y71040205D01*
X182147255Y71040205D02*
X182209160Y71164015D01*
X182209160Y71164015D02*
X182209160Y71473539D01*
X182209160Y71473539D02*
X182147255Y71597348D01*
X182147255Y71597348D02*
X182085350Y71659253D01*
X182085350Y71659253D02*
X181961541Y71721158D01*
X181961541Y71721158D02*
X181713922Y71721158D01*
X181713922Y71721158D02*
X181590112Y71659253D01*
X181590112Y71659253D02*
X181528207Y71597348D01*
X181528207Y71597348D02*
X181466303Y71473539D01*
D10*
D11*
X-43880000Y-115497200D02*
X-43880000Y-117497200D01*
D10*
D11*
X6120000Y-115497200D02*
X6120000Y-117497200D01*
D10*
D11*
X56120000Y-115497200D02*
X56120000Y-117497200D01*
D10*
D11*
X106120000Y-115497200D02*
X106120000Y-117497200D01*
D10*
D11*
X156120000Y-115497200D02*
X156120000Y-117497200D01*
D10*
D11*
X-67790840Y-117090804D02*
X-68533697Y-117090804D01*
X-68162269Y-117090804D02*
X-68162269Y-115790804D01*
X-68162269Y-115790804D02*
X-68286078Y-115976519D01*
X-68286078Y-115976519D02*
X-68409888Y-116100328D01*
X-68409888Y-116100328D02*
X-68533697Y-116162233D01*
D10*
D11*
X-18533697Y-115914614D02*
X-18471793Y-115852709D01*
X-18471793Y-115852709D02*
X-18347983Y-115790804D01*
X-18347983Y-115790804D02*
X-18038459Y-115790804D01*
X-18038459Y-115790804D02*
X-17914650Y-115852709D01*
X-17914650Y-115852709D02*
X-17852745Y-115914614D01*
X-17852745Y-115914614D02*
X-17790840Y-116038423D01*
X-17790840Y-116038423D02*
X-17790840Y-116162233D01*
X-17790840Y-116162233D02*
X-17852745Y-116347947D01*
X-17852745Y-116347947D02*
X-18595602Y-117090804D01*
X-18595602Y-117090804D02*
X-17790840Y-117090804D01*
D10*
D11*
X31404398Y-115790804D02*
X32209160Y-115790804D01*
X32209160Y-115790804D02*
X31775826Y-116286042D01*
X31775826Y-116286042D02*
X31961541Y-116286042D01*
X31961541Y-116286042D02*
X32085350Y-116347947D01*
X32085350Y-116347947D02*
X32147255Y-116409852D01*
X32147255Y-116409852D02*
X32209160Y-116533661D01*
X32209160Y-116533661D02*
X32209160Y-116843185D01*
X32209160Y-116843185D02*
X32147255Y-116966995D01*
X32147255Y-116966995D02*
X32085350Y-117028900D01*
X32085350Y-117028900D02*
X31961541Y-117090804D01*
X31961541Y-117090804D02*
X31590112Y-117090804D01*
X31590112Y-117090804D02*
X31466303Y-117028900D01*
X31466303Y-117028900D02*
X31404398Y-116966995D01*
D10*
D11*
X82085350Y-116224138D02*
X82085350Y-117090804D01*
X81775826Y-115728900D02*
X81466303Y-116657471D01*
X81466303Y-116657471D02*
X82271064Y-116657471D01*
D10*
D11*
X132147255Y-115790804D02*
X131528207Y-115790804D01*
X131528207Y-115790804D02*
X131466303Y-116409852D01*
X131466303Y-116409852D02*
X131528207Y-116347947D01*
X131528207Y-116347947D02*
X131652017Y-116286042D01*
X131652017Y-116286042D02*
X131961541Y-116286042D01*
X131961541Y-116286042D02*
X132085350Y-116347947D01*
X132085350Y-116347947D02*
X132147255Y-116409852D01*
X132147255Y-116409852D02*
X132209160Y-116533661D01*
X132209160Y-116533661D02*
X132209160Y-116843185D01*
X132209160Y-116843185D02*
X132147255Y-116966995D01*
X132147255Y-116966995D02*
X132085350Y-117028900D01*
X132085350Y-117028900D02*
X131961541Y-117090804D01*
X131961541Y-117090804D02*
X131652017Y-117090804D01*
X131652017Y-117090804D02*
X131528207Y-117028900D01*
X131528207Y-117028900D02*
X131466303Y-116966995D01*
D10*
D11*
X182085350Y-115790804D02*
X181837731Y-115790804D01*
X181837731Y-115790804D02*
X181713922Y-115852709D01*
X181713922Y-115852709D02*
X181652017Y-115914614D01*
X181652017Y-115914614D02*
X181528207Y-116100328D01*
X181528207Y-116100328D02*
X181466303Y-116347947D01*
X181466303Y-116347947D02*
X181466303Y-116843185D01*
X181466303Y-116843185D02*
X181528207Y-116966995D01*
X181528207Y-116966995D02*
X181590112Y-117028900D01*
X181590112Y-117028900D02*
X181713922Y-117090804D01*
X181713922Y-117090804D02*
X181961541Y-117090804D01*
X181961541Y-117090804D02*
X182085350Y-117028900D01*
X182085350Y-117028900D02*
X182147255Y-116966995D01*
X182147255Y-116966995D02*
X182209160Y-116843185D01*
X182209160Y-116843185D02*
X182209160Y-116533661D01*
X182209160Y-116533661D02*
X182147255Y-116409852D01*
X182147255Y-116409852D02*
X182085350Y-116347947D01*
X182085350Y-116347947D02*
X181961541Y-116286042D01*
X181961541Y-116286042D02*
X181713922Y-116286042D01*
X181713922Y-116286042D02*
X181590112Y-116347947D01*
X181590112Y-116347947D02*
X181528207Y-116409852D01*
X181528207Y-116409852D02*
X181466303Y-116533661D01*
D10*
D11*
X-93880000Y22510000D02*
X-91880000Y22510000D01*
D10*
D11*
X-93880000Y-27490000D02*
X-91880000Y-27490000D01*
D10*
D11*
X-93880000Y-77490000D02*
X-91880000Y-77490000D01*
D10*
D11*
X-93189524Y47287824D02*
X-92570477Y47287824D01*
X-93313334Y46916396D02*
X-92880001Y48216396D01*
X-92880001Y48216396D02*
X-92446667Y46916396D01*
D10*
D11*
X-92787143Y-2402652D02*
X-92601429Y-2464557D01*
X-92601429Y-2464557D02*
X-92539524Y-2526461D01*
X-92539524Y-2526461D02*
X-92477620Y-2650271D01*
X-92477620Y-2650271D02*
X-92477620Y-2835985D01*
X-92477620Y-2835985D02*
X-92539524Y-2959795D01*
X-92539524Y-2959795D02*
X-92601429Y-3021700D01*
X-92601429Y-3021700D02*
X-92725239Y-3083604D01*
X-92725239Y-3083604D02*
X-93220477Y-3083604D01*
X-93220477Y-3083604D02*
X-93220477Y-1783604D01*
X-93220477Y-1783604D02*
X-92787143Y-1783604D01*
X-92787143Y-1783604D02*
X-92663334Y-1845509D01*
X-92663334Y-1845509D02*
X-92601429Y-1907414D01*
X-92601429Y-1907414D02*
X-92539524Y-2031223D01*
X-92539524Y-2031223D02*
X-92539524Y-2155033D01*
X-92539524Y-2155033D02*
X-92601429Y-2278842D01*
X-92601429Y-2278842D02*
X-92663334Y-2340747D01*
X-92663334Y-2340747D02*
X-92787143Y-2402652D01*
X-92787143Y-2402652D02*
X-93220477Y-2402652D01*
D10*
D11*
X-92477620Y-52959795D02*
X-92539524Y-53021700D01*
X-92539524Y-53021700D02*
X-92725239Y-53083604D01*
X-92725239Y-53083604D02*
X-92849048Y-53083604D01*
X-92849048Y-53083604D02*
X-93034762Y-53021700D01*
X-93034762Y-53021700D02*
X-93158572Y-52897890D01*
X-93158572Y-52897890D02*
X-93220477Y-52774080D01*
X-93220477Y-52774080D02*
X-93282381Y-52526461D01*
X-93282381Y-52526461D02*
X-93282381Y-52340747D01*
X-93282381Y-52340747D02*
X-93220477Y-52093128D01*
X-93220477Y-52093128D02*
X-93158572Y-51969319D01*
X-93158572Y-51969319D02*
X-93034762Y-51845509D01*
X-93034762Y-51845509D02*
X-92849048Y-51783604D01*
X-92849048Y-51783604D02*
X-92725239Y-51783604D01*
X-92725239Y-51783604D02*
X-92539524Y-51845509D01*
X-92539524Y-51845509D02*
X-92477620Y-51907414D01*
D10*
D11*
X-93220477Y-103083604D02*
X-93220477Y-101783604D01*
X-93220477Y-101783604D02*
X-92910953Y-101783604D01*
X-92910953Y-101783604D02*
X-92725239Y-101845509D01*
X-92725239Y-101845509D02*
X-92601429Y-101969319D01*
X-92601429Y-101969319D02*
X-92539524Y-102093128D01*
X-92539524Y-102093128D02*
X-92477620Y-102340747D01*
X-92477620Y-102340747D02*
X-92477620Y-102526461D01*
X-92477620Y-102526461D02*
X-92539524Y-102774080D01*
X-92539524Y-102774080D02*
X-92601429Y-102897890D01*
X-92601429Y-102897890D02*
X-92725239Y-103021700D01*
X-92725239Y-103021700D02*
X-92910953Y-103083604D01*
X-92910953Y-103083604D02*
X-93220477Y-103083604D01*
D10*
D11*
X183122200Y22510000D02*
X181122200Y22510000D01*
D10*
D11*
X183122200Y-27490000D02*
X181122200Y-27490000D01*
D10*
D11*
X183122200Y-77490000D02*
X181122200Y-77490000D01*
D10*
D11*
X181812676Y47287824D02*
X182431723Y47287824D01*
X181688866Y46916396D02*
X182122199Y48216396D01*
X182122199Y48216396D02*
X182555533Y46916396D01*
D10*
D11*
X182215057Y-2402652D02*
X182400771Y-2464557D01*
X182400771Y-2464557D02*
X182462676Y-2526461D01*
X182462676Y-2526461D02*
X182524580Y-2650271D01*
X182524580Y-2650271D02*
X182524580Y-2835985D01*
X182524580Y-2835985D02*
X182462676Y-2959795D01*
X182462676Y-2959795D02*
X182400771Y-3021700D01*
X182400771Y-3021700D02*
X182276961Y-3083604D01*
X182276961Y-3083604D02*
X181781723Y-3083604D01*
X181781723Y-3083604D02*
X181781723Y-1783604D01*
X181781723Y-1783604D02*
X182215057Y-1783604D01*
X182215057Y-1783604D02*
X182338866Y-1845509D01*
X182338866Y-1845509D02*
X182400771Y-1907414D01*
X182400771Y-1907414D02*
X182462676Y-2031223D01*
X182462676Y-2031223D02*
X182462676Y-2155033D01*
X182462676Y-2155033D02*
X182400771Y-2278842D01*
X182400771Y-2278842D02*
X182338866Y-2340747D01*
X182338866Y-2340747D02*
X182215057Y-2402652D01*
X182215057Y-2402652D02*
X181781723Y-2402652D01*
D10*
D11*
X182524580Y-52959795D02*
X182462676Y-53021700D01*
X182462676Y-53021700D02*
X182276961Y-53083604D01*
X182276961Y-53083604D02*
X182153152Y-53083604D01*
X182153152Y-53083604D02*
X181967438Y-53021700D01*
X181967438Y-53021700D02*
X181843628Y-52897890D01*
X181843628Y-52897890D02*
X181781723Y-52774080D01*
X181781723Y-52774080D02*
X181719819Y-52526461D01*
X181719819Y-52526461D02*
X181719819Y-52340747D01*
X181719819Y-52340747D02*
X181781723Y-52093128D01*
X181781723Y-52093128D02*
X181843628Y-51969319D01*
X181843628Y-51969319D02*
X181967438Y-51845509D01*
X181967438Y-51845509D02*
X182153152Y-51783604D01*
X182153152Y-51783604D02*
X182276961Y-51783604D01*
X182276961Y-51783604D02*
X182462676Y-51845509D01*
X182462676Y-51845509D02*
X182524580Y-51907414D01*
D10*
D11*
X181781723Y-103083604D02*
X181781723Y-101783604D01*
X181781723Y-101783604D02*
X182091247Y-101783604D01*
X182091247Y-101783604D02*
X182276961Y-101845509D01*
X182276961Y-101845509D02*
X182400771Y-101969319D01*
X182400771Y-101969319D02*
X182462676Y-102093128D01*
X182462676Y-102093128D02*
X182524580Y-102340747D01*
X182524580Y-102340747D02*
X182524580Y-102526461D01*
X182524580Y-102526461D02*
X182462676Y-102774080D01*
X182462676Y-102774080D02*
X182400771Y-102897890D01*
X182400771Y-102897890D02*
X182276961Y-103021700D01*
X182276961Y-103021700D02*
X182091247Y-103083604D01*
X182091247Y-103083604D02*
X181781723Y-103083604D01*
D10*
D11*
X96578026Y-111283328D02*
X96578026Y-109783328D01*
X96578026Y-109783328D02*
X96935169Y-109783328D01*
X96935169Y-109783328D02*
X97149455Y-109854757D01*
X97149455Y-109854757D02*
X97292312Y-109997614D01*
X97292312Y-109997614D02*
X97363741Y-110140471D01*
X97363741Y-110140471D02*
X97435169Y-110426185D01*
X97435169Y-110426185D02*
X97435169Y-110640471D01*
X97435169Y-110640471D02*
X97363741Y-110926185D01*
X97363741Y-110926185D02*
X97292312Y-111069042D01*
X97292312Y-111069042D02*
X97149455Y-111211900D01*
X97149455Y-111211900D02*
X96935169Y-111283328D01*
X96935169Y-111283328D02*
X96578026Y-111283328D01*
X98720884Y-111283328D02*
X98720884Y-110497614D01*
X98720884Y-110497614D02*
X98649455Y-110354757D01*
X98649455Y-110354757D02*
X98506598Y-110283328D01*
X98506598Y-110283328D02*
X98220884Y-110283328D01*
X98220884Y-110283328D02*
X98078026Y-110354757D01*
X98720884Y-111211900D02*
X98578026Y-111283328D01*
X98578026Y-111283328D02*
X98220884Y-111283328D01*
X98220884Y-111283328D02*
X98078026Y-111211900D01*
X98078026Y-111211900D02*
X98006598Y-111069042D01*
X98006598Y-111069042D02*
X98006598Y-110926185D01*
X98006598Y-110926185D02*
X98078026Y-110783328D01*
X98078026Y-110783328D02*
X98220884Y-110711900D01*
X98220884Y-110711900D02*
X98578026Y-110711900D01*
X98578026Y-110711900D02*
X98720884Y-110640471D01*
X99220884Y-110283328D02*
X99792312Y-110283328D01*
X99435169Y-109783328D02*
X99435169Y-111069042D01*
X99435169Y-111069042D02*
X99506598Y-111211900D01*
X99506598Y-111211900D02*
X99649455Y-111283328D01*
X99649455Y-111283328D02*
X99792312Y-111283328D01*
X100863741Y-111211900D02*
X100720884Y-111283328D01*
X100720884Y-111283328D02*
X100435170Y-111283328D01*
X100435170Y-111283328D02*
X100292312Y-111211900D01*
X100292312Y-111211900D02*
X100220884Y-111069042D01*
X100220884Y-111069042D02*
X100220884Y-110497614D01*
X100220884Y-110497614D02*
X100292312Y-110354757D01*
X100292312Y-110354757D02*
X100435170Y-110283328D01*
X100435170Y-110283328D02*
X100720884Y-110283328D01*
X100720884Y-110283328D02*
X100863741Y-110354757D01*
X100863741Y-110354757D02*
X100935170Y-110497614D01*
X100935170Y-110497614D02*
X100935170Y-110640471D01*
X100935170Y-110640471D02*
X100220884Y-110783328D01*
X101578026Y-111140471D02*
X101649455Y-111211900D01*
X101649455Y-111211900D02*
X101578026Y-111283328D01*
X101578026Y-111283328D02*
X101506598Y-111211900D01*
X101506598Y-111211900D02*
X101578026Y-111140471D01*
X101578026Y-111140471D02*
X101578026Y-111283328D01*
X101578026Y-110354757D02*
X101649455Y-110426185D01*
X101649455Y-110426185D02*
X101578026Y-110497614D01*
X101578026Y-110497614D02*
X101506598Y-110426185D01*
X101506598Y-110426185D02*
X101578026Y-110354757D01*
X101578026Y-110354757D02*
X101578026Y-110497614D01*
X103363741Y-109926185D02*
X103435169Y-109854757D01*
X103435169Y-109854757D02*
X103578027Y-109783328D01*
X103578027Y-109783328D02*
X103935169Y-109783328D01*
X103935169Y-109783328D02*
X104078027Y-109854757D01*
X104078027Y-109854757D02*
X104149455Y-109926185D01*
X104149455Y-109926185D02*
X104220884Y-110069042D01*
X104220884Y-110069042D02*
X104220884Y-110211900D01*
X104220884Y-110211900D02*
X104149455Y-110426185D01*
X104149455Y-110426185D02*
X103292312Y-111283328D01*
X103292312Y-111283328D02*
X104220884Y-111283328D01*
X105149455Y-109783328D02*
X105292312Y-109783328D01*
X105292312Y-109783328D02*
X105435169Y-109854757D01*
X105435169Y-109854757D02*
X105506598Y-109926185D01*
X105506598Y-109926185D02*
X105578026Y-110069042D01*
X105578026Y-110069042D02*
X105649455Y-110354757D01*
X105649455Y-110354757D02*
X105649455Y-110711900D01*
X105649455Y-110711900D02*
X105578026Y-110997614D01*
X105578026Y-110997614D02*
X105506598Y-111140471D01*
X105506598Y-111140471D02*
X105435169Y-111211900D01*
X105435169Y-111211900D02*
X105292312Y-111283328D01*
X105292312Y-111283328D02*
X105149455Y-111283328D01*
X105149455Y-111283328D02*
X105006598Y-111211900D01*
X105006598Y-111211900D02*
X104935169Y-111140471D01*
X104935169Y-111140471D02*
X104863740Y-110997614D01*
X104863740Y-110997614D02*
X104792312Y-110711900D01*
X104792312Y-110711900D02*
X104792312Y-110354757D01*
X104792312Y-110354757D02*
X104863740Y-110069042D01*
X104863740Y-110069042D02*
X104935169Y-109926185D01*
X104935169Y-109926185D02*
X105006598Y-109854757D01*
X105006598Y-109854757D02*
X105149455Y-109783328D01*
X106220883Y-109926185D02*
X106292311Y-109854757D01*
X106292311Y-109854757D02*
X106435169Y-109783328D01*
X106435169Y-109783328D02*
X106792311Y-109783328D01*
X106792311Y-109783328D02*
X106935169Y-109854757D01*
X106935169Y-109854757D02*
X107006597Y-109926185D01*
X107006597Y-109926185D02*
X107078026Y-110069042D01*
X107078026Y-110069042D02*
X107078026Y-110211900D01*
X107078026Y-110211900D02*
X107006597Y-110426185D01*
X107006597Y-110426185D02*
X106149454Y-111283328D01*
X106149454Y-111283328D02*
X107078026Y-111283328D01*
X108435168Y-109783328D02*
X107720882Y-109783328D01*
X107720882Y-109783328D02*
X107649454Y-110497614D01*
X107649454Y-110497614D02*
X107720882Y-110426185D01*
X107720882Y-110426185D02*
X107863740Y-110354757D01*
X107863740Y-110354757D02*
X108220882Y-110354757D01*
X108220882Y-110354757D02*
X108363740Y-110426185D01*
X108363740Y-110426185D02*
X108435168Y-110497614D01*
X108435168Y-110497614D02*
X108506597Y-110640471D01*
X108506597Y-110640471D02*
X108506597Y-110997614D01*
X108506597Y-110997614D02*
X108435168Y-111140471D01*
X108435168Y-111140471D02*
X108363740Y-111211900D01*
X108363740Y-111211900D02*
X108220882Y-111283328D01*
X108220882Y-111283328D02*
X107863740Y-111283328D01*
X107863740Y-111283328D02*
X107720882Y-111211900D01*
X107720882Y-111211900D02*
X107649454Y-111140471D01*
X109149453Y-110711900D02*
X110292311Y-110711900D01*
X111292311Y-109783328D02*
X111435168Y-109783328D01*
X111435168Y-109783328D02*
X111578025Y-109854757D01*
X111578025Y-109854757D02*
X111649454Y-109926185D01*
X111649454Y-109926185D02*
X111720882Y-110069042D01*
X111720882Y-110069042D02*
X111792311Y-110354757D01*
X111792311Y-110354757D02*
X111792311Y-110711900D01*
X111792311Y-110711900D02*
X111720882Y-110997614D01*
X111720882Y-110997614D02*
X111649454Y-111140471D01*
X111649454Y-111140471D02*
X111578025Y-111211900D01*
X111578025Y-111211900D02*
X111435168Y-111283328D01*
X111435168Y-111283328D02*
X111292311Y-111283328D01*
X111292311Y-111283328D02*
X111149454Y-111211900D01*
X111149454Y-111211900D02*
X111078025Y-111140471D01*
X111078025Y-111140471D02*
X111006596Y-110997614D01*
X111006596Y-110997614D02*
X110935168Y-110711900D01*
X110935168Y-110711900D02*
X110935168Y-110354757D01*
X110935168Y-110354757D02*
X111006596Y-110069042D01*
X111006596Y-110069042D02*
X111078025Y-109926185D01*
X111078025Y-109926185D02*
X111149454Y-109854757D01*
X111149454Y-109854757D02*
X111292311Y-109783328D01*
X112506596Y-111283328D02*
X112792310Y-111283328D01*
X112792310Y-111283328D02*
X112935167Y-111211900D01*
X112935167Y-111211900D02*
X113006596Y-111140471D01*
X113006596Y-111140471D02*
X113149453Y-110926185D01*
X113149453Y-110926185D02*
X113220882Y-110640471D01*
X113220882Y-110640471D02*
X113220882Y-110069042D01*
X113220882Y-110069042D02*
X113149453Y-109926185D01*
X113149453Y-109926185D02*
X113078025Y-109854757D01*
X113078025Y-109854757D02*
X112935167Y-109783328D01*
X112935167Y-109783328D02*
X112649453Y-109783328D01*
X112649453Y-109783328D02*
X112506596Y-109854757D01*
X112506596Y-109854757D02*
X112435167Y-109926185D01*
X112435167Y-109926185D02*
X112363739Y-110069042D01*
X112363739Y-110069042D02*
X112363739Y-110426185D01*
X112363739Y-110426185D02*
X112435167Y-110569042D01*
X112435167Y-110569042D02*
X112506596Y-110640471D01*
X112506596Y-110640471D02*
X112649453Y-110711900D01*
X112649453Y-110711900D02*
X112935167Y-110711900D01*
X112935167Y-110711900D02*
X113078025Y-110640471D01*
X113078025Y-110640471D02*
X113149453Y-110569042D01*
X113149453Y-110569042D02*
X113220882Y-110426185D01*
X113863738Y-110711900D02*
X115006596Y-110711900D01*
X115649453Y-109926185D02*
X115720881Y-109854757D01*
X115720881Y-109854757D02*
X115863739Y-109783328D01*
X115863739Y-109783328D02*
X116220881Y-109783328D01*
X116220881Y-109783328D02*
X116363739Y-109854757D01*
X116363739Y-109854757D02*
X116435167Y-109926185D01*
X116435167Y-109926185D02*
X116506596Y-110069042D01*
X116506596Y-110069042D02*
X116506596Y-110211900D01*
X116506596Y-110211900D02*
X116435167Y-110426185D01*
X116435167Y-110426185D02*
X115578024Y-111283328D01*
X115578024Y-111283328D02*
X116506596Y-111283328D01*
X117435167Y-109783328D02*
X117578024Y-109783328D01*
X117578024Y-109783328D02*
X117720881Y-109854757D01*
X117720881Y-109854757D02*
X117792310Y-109926185D01*
X117792310Y-109926185D02*
X117863738Y-110069042D01*
X117863738Y-110069042D02*
X117935167Y-110354757D01*
X117935167Y-110354757D02*
X117935167Y-110711900D01*
X117935167Y-110711900D02*
X117863738Y-110997614D01*
X117863738Y-110997614D02*
X117792310Y-111140471D01*
X117792310Y-111140471D02*
X117720881Y-111211900D01*
X117720881Y-111211900D02*
X117578024Y-111283328D01*
X117578024Y-111283328D02*
X117435167Y-111283328D01*
X117435167Y-111283328D02*
X117292310Y-111211900D01*
X117292310Y-111211900D02*
X117220881Y-111140471D01*
X117220881Y-111140471D02*
X117149452Y-110997614D01*
X117149452Y-110997614D02*
X117078024Y-110711900D01*
X117078024Y-110711900D02*
X117078024Y-110354757D01*
X117078024Y-110354757D02*
X117149452Y-110069042D01*
X117149452Y-110069042D02*
X117220881Y-109926185D01*
X117220881Y-109926185D02*
X117292310Y-109854757D01*
X117292310Y-109854757D02*
X117435167Y-109783328D01*
D10*
D11*
X73122200Y-111997200D02*
X181122200Y-111997200D01*
D10*
D11*
X74578026Y-114083328D02*
X74578026Y-112583328D01*
X75435169Y-114083328D02*
X74792312Y-113226185D01*
X75435169Y-112583328D02*
X74578026Y-113440471D01*
X76078026Y-114083328D02*
X76078026Y-113083328D01*
X76078026Y-112583328D02*
X76006598Y-112654757D01*
X76006598Y-112654757D02*
X76078026Y-112726185D01*
X76078026Y-112726185D02*
X76149455Y-112654757D01*
X76149455Y-112654757D02*
X76078026Y-112583328D01*
X76078026Y-112583328D02*
X76078026Y-112726185D01*
X77649455Y-113940471D02*
X77578027Y-114011900D01*
X77578027Y-114011900D02*
X77363741Y-114083328D01*
X77363741Y-114083328D02*
X77220884Y-114083328D01*
X77220884Y-114083328D02*
X77006598Y-114011900D01*
X77006598Y-114011900D02*
X76863741Y-113869042D01*
X76863741Y-113869042D02*
X76792312Y-113726185D01*
X76792312Y-113726185D02*
X76720884Y-113440471D01*
X76720884Y-113440471D02*
X76720884Y-113226185D01*
X76720884Y-113226185D02*
X76792312Y-112940471D01*
X76792312Y-112940471D02*
X76863741Y-112797614D01*
X76863741Y-112797614D02*
X77006598Y-112654757D01*
X77006598Y-112654757D02*
X77220884Y-112583328D01*
X77220884Y-112583328D02*
X77363741Y-112583328D01*
X77363741Y-112583328D02*
X77578027Y-112654757D01*
X77578027Y-112654757D02*
X77649455Y-112726185D01*
X78935170Y-114083328D02*
X78935170Y-113297614D01*
X78935170Y-113297614D02*
X78863741Y-113154757D01*
X78863741Y-113154757D02*
X78720884Y-113083328D01*
X78720884Y-113083328D02*
X78435170Y-113083328D01*
X78435170Y-113083328D02*
X78292312Y-113154757D01*
X78935170Y-114011900D02*
X78792312Y-114083328D01*
X78792312Y-114083328D02*
X78435170Y-114083328D01*
X78435170Y-114083328D02*
X78292312Y-114011900D01*
X78292312Y-114011900D02*
X78220884Y-113869042D01*
X78220884Y-113869042D02*
X78220884Y-113726185D01*
X78220884Y-113726185D02*
X78292312Y-113583328D01*
X78292312Y-113583328D02*
X78435170Y-113511900D01*
X78435170Y-113511900D02*
X78792312Y-113511900D01*
X78792312Y-113511900D02*
X78935170Y-113440471D01*
X80292313Y-114083328D02*
X80292313Y-112583328D01*
X80292313Y-114011900D02*
X80149455Y-114083328D01*
X80149455Y-114083328D02*
X79863741Y-114083328D01*
X79863741Y-114083328D02*
X79720884Y-114011900D01*
X79720884Y-114011900D02*
X79649455Y-113940471D01*
X79649455Y-113940471D02*
X79578027Y-113797614D01*
X79578027Y-113797614D02*
X79578027Y-113369042D01*
X79578027Y-113369042D02*
X79649455Y-113226185D01*
X79649455Y-113226185D02*
X79720884Y-113154757D01*
X79720884Y-113154757D02*
X79863741Y-113083328D01*
X79863741Y-113083328D02*
X80149455Y-113083328D01*
X80149455Y-113083328D02*
X80292313Y-113154757D01*
X82149455Y-113297614D02*
X82649455Y-113297614D01*
X82863741Y-114083328D02*
X82149455Y-114083328D01*
X82149455Y-114083328D02*
X82149455Y-112583328D01*
X82149455Y-112583328D02*
X82863741Y-112583328D01*
X83506598Y-113940471D02*
X83578027Y-114011900D01*
X83578027Y-114011900D02*
X83506598Y-114083328D01*
X83506598Y-114083328D02*
X83435170Y-114011900D01*
X83435170Y-114011900D02*
X83506598Y-113940471D01*
X83506598Y-113940471D02*
X83506598Y-114083328D01*
X84220884Y-114083328D02*
X84220884Y-112583328D01*
X84220884Y-112583328D02*
X84578027Y-112583328D01*
X84578027Y-112583328D02*
X84792313Y-112654757D01*
X84792313Y-112654757D02*
X84935170Y-112797614D01*
X84935170Y-112797614D02*
X85006599Y-112940471D01*
X85006599Y-112940471D02*
X85078027Y-113226185D01*
X85078027Y-113226185D02*
X85078027Y-113440471D01*
X85078027Y-113440471D02*
X85006599Y-113726185D01*
X85006599Y-113726185D02*
X84935170Y-113869042D01*
X84935170Y-113869042D02*
X84792313Y-114011900D01*
X84792313Y-114011900D02*
X84578027Y-114083328D01*
X84578027Y-114083328D02*
X84220884Y-114083328D01*
X85720884Y-113940471D02*
X85792313Y-114011900D01*
X85792313Y-114011900D02*
X85720884Y-114083328D01*
X85720884Y-114083328D02*
X85649456Y-114011900D01*
X85649456Y-114011900D02*
X85720884Y-113940471D01*
X85720884Y-113940471D02*
X85720884Y-114083328D01*
X86363742Y-113654757D02*
X87078028Y-113654757D01*
X86220885Y-114083328D02*
X86720885Y-112583328D01*
X86720885Y-112583328D02*
X87220885Y-114083328D01*
X87720884Y-113940471D02*
X87792313Y-114011900D01*
X87792313Y-114011900D02*
X87720884Y-114083328D01*
X87720884Y-114083328D02*
X87649456Y-114011900D01*
X87649456Y-114011900D02*
X87720884Y-113940471D01*
X87720884Y-113940471D02*
X87720884Y-114083328D01*
X89649456Y-114083328D02*
X89935170Y-114083328D01*
X89935170Y-114083328D02*
X90078027Y-114011900D01*
X90078027Y-114011900D02*
X90149456Y-113940471D01*
X90149456Y-113940471D02*
X90292313Y-113726185D01*
X90292313Y-113726185D02*
X90363742Y-113440471D01*
X90363742Y-113440471D02*
X90363742Y-112869042D01*
X90363742Y-112869042D02*
X90292313Y-112726185D01*
X90292313Y-112726185D02*
X90220885Y-112654757D01*
X90220885Y-112654757D02*
X90078027Y-112583328D01*
X90078027Y-112583328D02*
X89792313Y-112583328D01*
X89792313Y-112583328D02*
X89649456Y-112654757D01*
X89649456Y-112654757D02*
X89578027Y-112726185D01*
X89578027Y-112726185D02*
X89506599Y-112869042D01*
X89506599Y-112869042D02*
X89506599Y-113226185D01*
X89506599Y-113226185D02*
X89578027Y-113369042D01*
X89578027Y-113369042D02*
X89649456Y-113440471D01*
X89649456Y-113440471D02*
X89792313Y-113511900D01*
X89792313Y-113511900D02*
X90078027Y-113511900D01*
X90078027Y-113511900D02*
X90220885Y-113440471D01*
X90220885Y-113440471D02*
X90292313Y-113369042D01*
X90292313Y-113369042D02*
X90363742Y-113226185D01*
X91006598Y-113940471D02*
X91078027Y-114011900D01*
X91078027Y-114011900D02*
X91006598Y-114083328D01*
X91006598Y-114083328D02*
X90935170Y-114011900D01*
X90935170Y-114011900D02*
X91006598Y-113940471D01*
X91006598Y-113940471D02*
X91006598Y-114083328D01*
X92006599Y-112583328D02*
X92149456Y-112583328D01*
X92149456Y-112583328D02*
X92292313Y-112654757D01*
X92292313Y-112654757D02*
X92363742Y-112726185D01*
X92363742Y-112726185D02*
X92435170Y-112869042D01*
X92435170Y-112869042D02*
X92506599Y-113154757D01*
X92506599Y-113154757D02*
X92506599Y-113511900D01*
X92506599Y-113511900D02*
X92435170Y-113797614D01*
X92435170Y-113797614D02*
X92363742Y-113940471D01*
X92363742Y-113940471D02*
X92292313Y-114011900D01*
X92292313Y-114011900D02*
X92149456Y-114083328D01*
X92149456Y-114083328D02*
X92006599Y-114083328D01*
X92006599Y-114083328D02*
X91863742Y-114011900D01*
X91863742Y-114011900D02*
X91792313Y-113940471D01*
X91792313Y-113940471D02*
X91720884Y-113797614D01*
X91720884Y-113797614D02*
X91649456Y-113511900D01*
X91649456Y-113511900D02*
X91649456Y-113154757D01*
X91649456Y-113154757D02*
X91720884Y-112869042D01*
X91720884Y-112869042D02*
X91792313Y-112726185D01*
X91792313Y-112726185D02*
X91863742Y-112654757D01*
X91863742Y-112654757D02*
X92006599Y-112583328D01*
X93149455Y-113940471D02*
X93220884Y-114011900D01*
X93220884Y-114011900D02*
X93149455Y-114083328D01*
X93149455Y-114083328D02*
X93078027Y-114011900D01*
X93078027Y-114011900D02*
X93149455Y-113940471D01*
X93149455Y-113940471D02*
X93149455Y-114083328D01*
X94506599Y-113083328D02*
X94506599Y-114083328D01*
X94149456Y-112511900D02*
X93792313Y-113583328D01*
X93792313Y-113583328D02*
X94720884Y-113583328D01*
D10*
D11*
X73122200Y-108997200D02*
X181122200Y-108997200D01*
D10*
D12*
X160533853Y-111275528D02*
X160033853Y-110561242D01*
X159676710Y-111275528D02*
X159676710Y-109775528D01*
X159676710Y-109775528D02*
X160248139Y-109775528D01*
X160248139Y-109775528D02*
X160390996Y-109846957D01*
X160390996Y-109846957D02*
X160462425Y-109918385D01*
X160462425Y-109918385D02*
X160533853Y-110061242D01*
X160533853Y-110061242D02*
X160533853Y-110275528D01*
X160533853Y-110275528D02*
X160462425Y-110418385D01*
X160462425Y-110418385D02*
X160390996Y-110489814D01*
X160390996Y-110489814D02*
X160248139Y-110561242D01*
X160248139Y-110561242D02*
X159676710Y-110561242D01*
X161748139Y-111204100D02*
X161605282Y-111275528D01*
X161605282Y-111275528D02*
X161319568Y-111275528D01*
X161319568Y-111275528D02*
X161176710Y-111204100D01*
X161176710Y-111204100D02*
X161105282Y-111061242D01*
X161105282Y-111061242D02*
X161105282Y-110489814D01*
X161105282Y-110489814D02*
X161176710Y-110346957D01*
X161176710Y-110346957D02*
X161319568Y-110275528D01*
X161319568Y-110275528D02*
X161605282Y-110275528D01*
X161605282Y-110275528D02*
X161748139Y-110346957D01*
X161748139Y-110346957D02*
X161819568Y-110489814D01*
X161819568Y-110489814D02*
X161819568Y-110632671D01*
X161819568Y-110632671D02*
X161105282Y-110775528D01*
X162319567Y-110275528D02*
X162676710Y-111275528D01*
X162676710Y-111275528D02*
X163033853Y-110275528D01*
X163605281Y-111132671D02*
X163676710Y-111204100D01*
X163676710Y-111204100D02*
X163605281Y-111275528D01*
X163605281Y-111275528D02*
X163533853Y-111204100D01*
X163533853Y-111204100D02*
X163605281Y-111132671D01*
X163605281Y-111132671D02*
X163605281Y-111275528D01*
X163605281Y-110346957D02*
X163676710Y-110418385D01*
X163676710Y-110418385D02*
X163605281Y-110489814D01*
X163605281Y-110489814D02*
X163533853Y-110418385D01*
X163533853Y-110418385D02*
X163605281Y-110346957D01*
X163605281Y-110346957D02*
X163605281Y-110489814D01*
X166248139Y-111275528D02*
X165390996Y-111275528D01*
X165819567Y-111275528D02*
X165819567Y-109775528D01*
X165819567Y-109775528D02*
X165676710Y-109989814D01*
X165676710Y-109989814D02*
X165533853Y-110132671D01*
X165533853Y-110132671D02*
X165390996Y-110204100D01*
X166890995Y-111132671D02*
X166962424Y-111204100D01*
X166962424Y-111204100D02*
X166890995Y-111275528D01*
X166890995Y-111275528D02*
X166819567Y-111204100D01*
X166819567Y-111204100D02*
X166890995Y-111132671D01*
X166890995Y-111132671D02*
X166890995Y-111275528D01*
X167890996Y-109775528D02*
X168033853Y-109775528D01*
X168033853Y-109775528D02*
X168176710Y-109846957D01*
X168176710Y-109846957D02*
X168248139Y-109918385D01*
X168248139Y-109918385D02*
X168319567Y-110061242D01*
X168319567Y-110061242D02*
X168390996Y-110346957D01*
X168390996Y-110346957D02*
X168390996Y-110704100D01*
X168390996Y-110704100D02*
X168319567Y-110989814D01*
X168319567Y-110989814D02*
X168248139Y-111132671D01*
X168248139Y-111132671D02*
X168176710Y-111204100D01*
X168176710Y-111204100D02*
X168033853Y-111275528D01*
X168033853Y-111275528D02*
X167890996Y-111275528D01*
X167890996Y-111275528D02*
X167748139Y-111204100D01*
X167748139Y-111204100D02*
X167676710Y-111132671D01*
X167676710Y-111132671D02*
X167605281Y-110989814D01*
X167605281Y-110989814D02*
X167533853Y-110704100D01*
X167533853Y-110704100D02*
X167533853Y-110346957D01*
X167533853Y-110346957D02*
X167605281Y-110061242D01*
X167605281Y-110061242D02*
X167676710Y-109918385D01*
X167676710Y-109918385D02*
X167748139Y-109846957D01*
X167748139Y-109846957D02*
X167890996Y-109775528D01*
D10*
D11*
X74506598Y-111211900D02*
X74720884Y-111283328D01*
X74720884Y-111283328D02*
X75078026Y-111283328D01*
X75078026Y-111283328D02*
X75220884Y-111211900D01*
X75220884Y-111211900D02*
X75292312Y-111140471D01*
X75292312Y-111140471D02*
X75363741Y-110997614D01*
X75363741Y-110997614D02*
X75363741Y-110854757D01*
X75363741Y-110854757D02*
X75292312Y-110711900D01*
X75292312Y-110711900D02*
X75220884Y-110640471D01*
X75220884Y-110640471D02*
X75078026Y-110569042D01*
X75078026Y-110569042D02*
X74792312Y-110497614D01*
X74792312Y-110497614D02*
X74649455Y-110426185D01*
X74649455Y-110426185D02*
X74578026Y-110354757D01*
X74578026Y-110354757D02*
X74506598Y-110211900D01*
X74506598Y-110211900D02*
X74506598Y-110069042D01*
X74506598Y-110069042D02*
X74578026Y-109926185D01*
X74578026Y-109926185D02*
X74649455Y-109854757D01*
X74649455Y-109854757D02*
X74792312Y-109783328D01*
X74792312Y-109783328D02*
X75149455Y-109783328D01*
X75149455Y-109783328D02*
X75363741Y-109854757D01*
X76006597Y-111283328D02*
X76006597Y-110283328D01*
X76006597Y-109783328D02*
X75935169Y-109854757D01*
X75935169Y-109854757D02*
X76006597Y-109926185D01*
X76006597Y-109926185D02*
X76078026Y-109854757D01*
X76078026Y-109854757D02*
X76006597Y-109783328D01*
X76006597Y-109783328D02*
X76006597Y-109926185D01*
X76578026Y-110283328D02*
X77363741Y-110283328D01*
X77363741Y-110283328D02*
X76578026Y-111283328D01*
X76578026Y-111283328D02*
X77363741Y-111283328D01*
X78506598Y-111211900D02*
X78363741Y-111283328D01*
X78363741Y-111283328D02*
X78078027Y-111283328D01*
X78078027Y-111283328D02*
X77935169Y-111211900D01*
X77935169Y-111211900D02*
X77863741Y-111069042D01*
X77863741Y-111069042D02*
X77863741Y-110497614D01*
X77863741Y-110497614D02*
X77935169Y-110354757D01*
X77935169Y-110354757D02*
X78078027Y-110283328D01*
X78078027Y-110283328D02*
X78363741Y-110283328D01*
X78363741Y-110283328D02*
X78506598Y-110354757D01*
X78506598Y-110354757D02*
X78578027Y-110497614D01*
X78578027Y-110497614D02*
X78578027Y-110640471D01*
X78578027Y-110640471D02*
X77863741Y-110783328D01*
X79220883Y-111140471D02*
X79292312Y-111211900D01*
X79292312Y-111211900D02*
X79220883Y-111283328D01*
X79220883Y-111283328D02*
X79149455Y-111211900D01*
X79149455Y-111211900D02*
X79220883Y-111140471D01*
X79220883Y-111140471D02*
X79220883Y-111283328D01*
X79220883Y-110354757D02*
X79292312Y-110426185D01*
X79292312Y-110426185D02*
X79220883Y-110497614D01*
X79220883Y-110497614D02*
X79149455Y-110426185D01*
X79149455Y-110426185D02*
X79220883Y-110354757D01*
X79220883Y-110354757D02*
X79220883Y-110497614D01*
X81006598Y-110854757D02*
X81720884Y-110854757D01*
X80863741Y-111283328D02*
X81363741Y-109783328D01*
X81363741Y-109783328D02*
X81863741Y-111283328D01*
X83006598Y-110283328D02*
X83006598Y-111283328D01*
X82649455Y-109711900D02*
X82292312Y-110783328D01*
X82292312Y-110783328D02*
X83220883Y-110783328D01*
D10*
D11*
X159578026Y-114083328D02*
X159578026Y-112583328D01*
X160935170Y-114083328D02*
X160935170Y-112583328D01*
X160935170Y-114011900D02*
X160792312Y-114083328D01*
X160792312Y-114083328D02*
X160506598Y-114083328D01*
X160506598Y-114083328D02*
X160363741Y-114011900D01*
X160363741Y-114011900D02*
X160292312Y-113940471D01*
X160292312Y-113940471D02*
X160220884Y-113797614D01*
X160220884Y-113797614D02*
X160220884Y-113369042D01*
X160220884Y-113369042D02*
X160292312Y-113226185D01*
X160292312Y-113226185D02*
X160363741Y-113154757D01*
X160363741Y-113154757D02*
X160506598Y-113083328D01*
X160506598Y-113083328D02*
X160792312Y-113083328D01*
X160792312Y-113083328D02*
X160935170Y-113154757D01*
X161649455Y-113940471D02*
X161720884Y-114011900D01*
X161720884Y-114011900D02*
X161649455Y-114083328D01*
X161649455Y-114083328D02*
X161578027Y-114011900D01*
X161578027Y-114011900D02*
X161649455Y-113940471D01*
X161649455Y-113940471D02*
X161649455Y-114083328D01*
X161649455Y-113154757D02*
X161720884Y-113226185D01*
X161720884Y-113226185D02*
X161649455Y-113297614D01*
X161649455Y-113297614D02*
X161578027Y-113226185D01*
X161578027Y-113226185D02*
X161649455Y-113154757D01*
X161649455Y-113154757D02*
X161649455Y-113297614D01*
X164292313Y-114083328D02*
X163435170Y-114083328D01*
X163863741Y-114083328D02*
X163863741Y-112583328D01*
X163863741Y-112583328D02*
X163720884Y-112797614D01*
X163720884Y-112797614D02*
X163578027Y-112940471D01*
X163578027Y-112940471D02*
X163435170Y-113011900D01*
X166006598Y-112511900D02*
X164720884Y-114440471D01*
X166578027Y-114083328D02*
X166863741Y-114083328D01*
X166863741Y-114083328D02*
X167006598Y-114011900D01*
X167006598Y-114011900D02*
X167078027Y-113940471D01*
X167078027Y-113940471D02*
X167220884Y-113726185D01*
X167220884Y-113726185D02*
X167292313Y-113440471D01*
X167292313Y-113440471D02*
X167292313Y-112869042D01*
X167292313Y-112869042D02*
X167220884Y-112726185D01*
X167220884Y-112726185D02*
X167149456Y-112654757D01*
X167149456Y-112654757D02*
X167006598Y-112583328D01*
X167006598Y-112583328D02*
X166720884Y-112583328D01*
X166720884Y-112583328D02*
X166578027Y-112654757D01*
X166578027Y-112654757D02*
X166506598Y-112726185D01*
X166506598Y-112726185D02*
X166435170Y-112869042D01*
X166435170Y-112869042D02*
X166435170Y-113226185D01*
X166435170Y-113226185D02*
X166506598Y-113369042D01*
X166506598Y-113369042D02*
X166578027Y-113440471D01*
X166578027Y-113440471D02*
X166720884Y-113511900D01*
X166720884Y-113511900D02*
X167006598Y-113511900D01*
X167006598Y-113511900D02*
X167149456Y-113440471D01*
X167149456Y-113440471D02*
X167220884Y-113369042D01*
X167220884Y-113369042D02*
X167292313Y-113226185D01*
D10*
D11*
X73122200Y-104997200D02*
X181122200Y-104997200D01*
D10*
D13*
X74813928Y-105701638D02*
X75956785Y-105701638D01*
X75135357Y-107701638D02*
X75385357Y-105701638D01*
X76373452Y-107701638D02*
X76540119Y-106368304D01*
X76623452Y-105701638D02*
X76516309Y-105796876D01*
X76516309Y-105796876D02*
X76599643Y-105892114D01*
X76599643Y-105892114D02*
X76706786Y-105796876D01*
X76706786Y-105796876D02*
X76623452Y-105701638D01*
X76623452Y-105701638D02*
X76599643Y-105892114D01*
X77206786Y-106368304D02*
X77968690Y-106368304D01*
X77575833Y-105701638D02*
X77361548Y-107415923D01*
X77361548Y-107415923D02*
X77432976Y-107606400D01*
X77432976Y-107606400D02*
X77611548Y-107701638D01*
X77611548Y-107701638D02*
X77802024Y-107701638D01*
X78754405Y-107701638D02*
X78575833Y-107606400D01*
X78575833Y-107606400D02*
X78504405Y-107415923D01*
X78504405Y-107415923D02*
X78718690Y-105701638D01*
X80290119Y-107606400D02*
X80087738Y-107701638D01*
X80087738Y-107701638D02*
X79706785Y-107701638D01*
X79706785Y-107701638D02*
X79528214Y-107606400D01*
X79528214Y-107606400D02*
X79456785Y-107415923D01*
X79456785Y-107415923D02*
X79552024Y-106654019D01*
X79552024Y-106654019D02*
X79671071Y-106463542D01*
X79671071Y-106463542D02*
X79873452Y-106368304D01*
X79873452Y-106368304D02*
X80254404Y-106368304D01*
X80254404Y-106368304D02*
X80432976Y-106463542D01*
X80432976Y-106463542D02*
X80504404Y-106654019D01*
X80504404Y-106654019D02*
X80480595Y-106844495D01*
X80480595Y-106844495D02*
X79504404Y-107034971D01*
X81254405Y-107511161D02*
X81337738Y-107606400D01*
X81337738Y-107606400D02*
X81230595Y-107701638D01*
X81230595Y-107701638D02*
X81147262Y-107606400D01*
X81147262Y-107606400D02*
X81254405Y-107511161D01*
X81254405Y-107511161D02*
X81230595Y-107701638D01*
X81385357Y-106463542D02*
X81468690Y-106558780D01*
X81468690Y-106558780D02*
X81361548Y-106654019D01*
X81361548Y-106654019D02*
X81278214Y-106558780D01*
X81278214Y-106558780D02*
X81385357Y-106463542D01*
X81385357Y-106463542D02*
X81361548Y-106654019D01*
X83682977Y-107130209D02*
X84635358Y-107130209D01*
X83421072Y-107701638D02*
X84337739Y-105701638D01*
X84337739Y-105701638D02*
X84754405Y-107701638D01*
X85421072Y-107701638D02*
X85587739Y-106368304D01*
X85563929Y-106558780D02*
X85671072Y-106463542D01*
X85671072Y-106463542D02*
X85873453Y-106368304D01*
X85873453Y-106368304D02*
X86159167Y-106368304D01*
X86159167Y-106368304D02*
X86337739Y-106463542D01*
X86337739Y-106463542D02*
X86409167Y-106654019D01*
X86409167Y-106654019D02*
X86278215Y-107701638D01*
X86409167Y-106654019D02*
X86528215Y-106463542D01*
X86528215Y-106463542D02*
X86730596Y-106368304D01*
X86730596Y-106368304D02*
X87016310Y-106368304D01*
X87016310Y-106368304D02*
X87194882Y-106463542D01*
X87194882Y-106463542D02*
X87266310Y-106654019D01*
X87266310Y-106654019D02*
X87135358Y-107701638D01*
X88254406Y-106368304D02*
X88004406Y-108368304D01*
X88242501Y-106463542D02*
X88444882Y-106368304D01*
X88444882Y-106368304D02*
X88825834Y-106368304D01*
X88825834Y-106368304D02*
X89004406Y-106463542D01*
X89004406Y-106463542D02*
X89087739Y-106558780D01*
X89087739Y-106558780D02*
X89159168Y-106749257D01*
X89159168Y-106749257D02*
X89087739Y-107320685D01*
X89087739Y-107320685D02*
X88968692Y-107511161D01*
X88968692Y-107511161D02*
X88861549Y-107606400D01*
X88861549Y-107606400D02*
X88659168Y-107701638D01*
X88659168Y-107701638D02*
X88278215Y-107701638D01*
X88278215Y-107701638D02*
X88099644Y-107606400D01*
X89956787Y-105701638D02*
X91040120Y-107701638D01*
X91290120Y-105701638D02*
X89706787Y-107701638D01*
X93956788Y-105701638D02*
X94337740Y-105701638D01*
X94337740Y-105701638D02*
X94516311Y-105796876D01*
X94516311Y-105796876D02*
X94682978Y-105987352D01*
X94682978Y-105987352D02*
X94730597Y-106368304D01*
X94730597Y-106368304D02*
X94647264Y-107034971D01*
X94647264Y-107034971D02*
X94504407Y-107415923D01*
X94504407Y-107415923D02*
X94290121Y-107606400D01*
X94290121Y-107606400D02*
X94087740Y-107701638D01*
X94087740Y-107701638D02*
X93706788Y-107701638D01*
X93706788Y-107701638D02*
X93528216Y-107606400D01*
X93528216Y-107606400D02*
X93361550Y-107415923D01*
X93361550Y-107415923D02*
X93313930Y-107034971D01*
X93313930Y-107034971D02*
X93397264Y-106368304D01*
X93397264Y-106368304D02*
X93540121Y-105987352D01*
X93540121Y-105987352D02*
X93754407Y-105796876D01*
X93754407Y-105796876D02*
X93956788Y-105701638D01*
X95587740Y-106368304D02*
X95337740Y-108368304D01*
X95575835Y-106463542D02*
X95778216Y-106368304D01*
X95778216Y-106368304D02*
X96159168Y-106368304D01*
X96159168Y-106368304D02*
X96337740Y-106463542D01*
X96337740Y-106463542D02*
X96421073Y-106558780D01*
X96421073Y-106558780D02*
X96492502Y-106749257D01*
X96492502Y-106749257D02*
X96421073Y-107320685D01*
X96421073Y-107320685D02*
X96302026Y-107511161D01*
X96302026Y-107511161D02*
X96194883Y-107606400D01*
X96194883Y-107606400D02*
X95992502Y-107701638D01*
X95992502Y-107701638D02*
X95611549Y-107701638D01*
X95611549Y-107701638D02*
X95432978Y-107606400D01*
X98004407Y-107606400D02*
X97802026Y-107701638D01*
X97802026Y-107701638D02*
X97421073Y-107701638D01*
X97421073Y-107701638D02*
X97242502Y-107606400D01*
X97242502Y-107606400D02*
X97171073Y-107415923D01*
X97171073Y-107415923D02*
X97266312Y-106654019D01*
X97266312Y-106654019D02*
X97385359Y-106463542D01*
X97385359Y-106463542D02*
X97587740Y-106368304D01*
X97587740Y-106368304D02*
X97968692Y-106368304D01*
X97968692Y-106368304D02*
X98147264Y-106463542D01*
X98147264Y-106463542D02*
X98218692Y-106654019D01*
X98218692Y-106654019D02*
X98194883Y-106844495D01*
X98194883Y-106844495D02*
X97218692Y-107034971D01*
X99111550Y-106368304D02*
X98944883Y-107701638D01*
X99087740Y-106558780D02*
X99194883Y-106463542D01*
X99194883Y-106463542D02*
X99397264Y-106368304D01*
X99397264Y-106368304D02*
X99682978Y-106368304D01*
X99682978Y-106368304D02*
X99861550Y-106463542D01*
X99861550Y-106463542D02*
X99932978Y-106654019D01*
X99932978Y-106654019D02*
X99802026Y-107701638D01*
X102409170Y-106654019D02*
X103075836Y-106654019D01*
X103230598Y-107701638D02*
X102278217Y-107701638D01*
X102278217Y-107701638D02*
X102528217Y-105701638D01*
X102528217Y-105701638D02*
X103480598Y-105701638D01*
X104254408Y-106368304D02*
X104087741Y-107701638D01*
X104230598Y-106558780D02*
X104337741Y-106463542D01*
X104337741Y-106463542D02*
X104540122Y-106368304D01*
X104540122Y-106368304D02*
X104825836Y-106368304D01*
X104825836Y-106368304D02*
X105004408Y-106463542D01*
X105004408Y-106463542D02*
X105075836Y-106654019D01*
X105075836Y-106654019D02*
X104944884Y-107701638D01*
X106671075Y-107606400D02*
X106468694Y-107701638D01*
X106468694Y-107701638D02*
X106087741Y-107701638D01*
X106087741Y-107701638D02*
X105909170Y-107606400D01*
X105909170Y-107606400D02*
X105837741Y-107415923D01*
X105837741Y-107415923D02*
X105932980Y-106654019D01*
X105932980Y-106654019D02*
X106052027Y-106463542D01*
X106052027Y-106463542D02*
X106254408Y-106368304D01*
X106254408Y-106368304D02*
X106635360Y-106368304D01*
X106635360Y-106368304D02*
X106813932Y-106463542D01*
X106813932Y-106463542D02*
X106885360Y-106654019D01*
X106885360Y-106654019D02*
X106861551Y-106844495D01*
X106861551Y-106844495D02*
X105885360Y-107034971D01*
X107611551Y-107701638D02*
X107778218Y-106368304D01*
X107730599Y-106749257D02*
X107849646Y-106558780D01*
X107849646Y-106558780D02*
X107956789Y-106463542D01*
X107956789Y-106463542D02*
X108159170Y-106368304D01*
X108159170Y-106368304D02*
X108349646Y-106368304D01*
X109873456Y-106368304D02*
X109671075Y-107987352D01*
X109671075Y-107987352D02*
X109552027Y-108177828D01*
X109552027Y-108177828D02*
X109444884Y-108273066D01*
X109444884Y-108273066D02*
X109242503Y-108368304D01*
X109242503Y-108368304D02*
X108956789Y-108368304D01*
X108956789Y-108368304D02*
X108778218Y-108273066D01*
X109718694Y-107606400D02*
X109516313Y-107701638D01*
X109516313Y-107701638D02*
X109135361Y-107701638D01*
X109135361Y-107701638D02*
X108956789Y-107606400D01*
X108956789Y-107606400D02*
X108873456Y-107511161D01*
X108873456Y-107511161D02*
X108802027Y-107320685D01*
X108802027Y-107320685D02*
X108873456Y-106749257D01*
X108873456Y-106749257D02*
X108992503Y-106558780D01*
X108992503Y-106558780D02*
X109099646Y-106463542D01*
X109099646Y-106463542D02*
X109302027Y-106368304D01*
X109302027Y-106368304D02*
X109682980Y-106368304D01*
X109682980Y-106368304D02*
X109861551Y-106463542D01*
X110635361Y-106368304D02*
X110944885Y-107701638D01*
X111587742Y-106368304D02*
X110944885Y-107701638D01*
X110944885Y-107701638D02*
X110694885Y-108177828D01*
X110694885Y-108177828D02*
X110587742Y-108273066D01*
X110587742Y-108273066D02*
X110385361Y-108368304D01*
X114992505Y-105796876D02*
X114813933Y-105701638D01*
X114813933Y-105701638D02*
X114528219Y-105701638D01*
X114528219Y-105701638D02*
X114230600Y-105796876D01*
X114230600Y-105796876D02*
X114016314Y-105987352D01*
X114016314Y-105987352D02*
X113897266Y-106177828D01*
X113897266Y-106177828D02*
X113754409Y-106558780D01*
X113754409Y-106558780D02*
X113718695Y-106844495D01*
X113718695Y-106844495D02*
X113766314Y-107225447D01*
X113766314Y-107225447D02*
X113837743Y-107415923D01*
X113837743Y-107415923D02*
X114004409Y-107606400D01*
X114004409Y-107606400D02*
X114278219Y-107701638D01*
X114278219Y-107701638D02*
X114468695Y-107701638D01*
X114468695Y-107701638D02*
X114766314Y-107606400D01*
X114766314Y-107606400D02*
X114873457Y-107511161D01*
X114873457Y-107511161D02*
X114956790Y-106844495D01*
X114956790Y-106844495D02*
X114575838Y-106844495D01*
X116563933Y-107701638D02*
X116694885Y-106654019D01*
X116694885Y-106654019D02*
X116623457Y-106463542D01*
X116623457Y-106463542D02*
X116444885Y-106368304D01*
X116444885Y-106368304D02*
X116063933Y-106368304D01*
X116063933Y-106368304D02*
X115861552Y-106463542D01*
X116575838Y-107606400D02*
X116373457Y-107701638D01*
X116373457Y-107701638D02*
X115897266Y-107701638D01*
X115897266Y-107701638D02*
X115718695Y-107606400D01*
X115718695Y-107606400D02*
X115647266Y-107415923D01*
X115647266Y-107415923D02*
X115671076Y-107225447D01*
X115671076Y-107225447D02*
X115790124Y-107034971D01*
X115790124Y-107034971D02*
X115992505Y-106939733D01*
X115992505Y-106939733D02*
X116468695Y-106939733D01*
X116468695Y-106939733D02*
X116671076Y-106844495D01*
X117397267Y-106368304D02*
X118159171Y-106368304D01*
X117766314Y-105701638D02*
X117552029Y-107415923D01*
X117552029Y-107415923D02*
X117623457Y-107606400D01*
X117623457Y-107606400D02*
X117802029Y-107701638D01*
X117802029Y-107701638D02*
X117992505Y-107701638D01*
X119432981Y-107606400D02*
X119230600Y-107701638D01*
X119230600Y-107701638D02*
X118849647Y-107701638D01*
X118849647Y-107701638D02*
X118671076Y-107606400D01*
X118671076Y-107606400D02*
X118599647Y-107415923D01*
X118599647Y-107415923D02*
X118694886Y-106654019D01*
X118694886Y-106654019D02*
X118813933Y-106463542D01*
X118813933Y-106463542D02*
X119016314Y-106368304D01*
X119016314Y-106368304D02*
X119397266Y-106368304D01*
X119397266Y-106368304D02*
X119575838Y-106463542D01*
X119575838Y-106463542D02*
X119647266Y-106654019D01*
X119647266Y-106654019D02*
X119623457Y-106844495D01*
X119623457Y-106844495D02*
X118647266Y-107034971D01*
X120349648Y-106368304D02*
X120563933Y-107701638D01*
X120563933Y-107701638D02*
X121063933Y-106749257D01*
X121063933Y-106749257D02*
X121325838Y-107701638D01*
X121325838Y-107701638D02*
X121873457Y-106368304D01*
X123325838Y-107701638D02*
X123456790Y-106654019D01*
X123456790Y-106654019D02*
X123385362Y-106463542D01*
X123385362Y-106463542D02*
X123206790Y-106368304D01*
X123206790Y-106368304D02*
X122825838Y-106368304D01*
X122825838Y-106368304D02*
X122623457Y-106463542D01*
X123337743Y-107606400D02*
X123135362Y-107701638D01*
X123135362Y-107701638D02*
X122659171Y-107701638D01*
X122659171Y-107701638D02*
X122480600Y-107606400D01*
X122480600Y-107606400D02*
X122409171Y-107415923D01*
X122409171Y-107415923D02*
X122432981Y-107225447D01*
X122432981Y-107225447D02*
X122552029Y-107034971D01*
X122552029Y-107034971D02*
X122754410Y-106939733D01*
X122754410Y-106939733D02*
X123230600Y-106939733D01*
X123230600Y-106939733D02*
X123432981Y-106844495D01*
X124254410Y-106368304D02*
X124563934Y-107701638D01*
X125206791Y-106368304D02*
X124563934Y-107701638D01*
X124563934Y-107701638D02*
X124313934Y-108177828D01*
X124313934Y-108177828D02*
X124206791Y-108273066D01*
X124206791Y-108273066D02*
X124004410Y-108368304D01*
D10*
D11*
X75078026Y-103097614D02*
X74578026Y-103097614D01*
X74578026Y-103883328D02*
X74578026Y-102383328D01*
X74578026Y-102383328D02*
X75292312Y-102383328D01*
X75863740Y-103883328D02*
X75863740Y-102883328D01*
X75863740Y-102383328D02*
X75792312Y-102454757D01*
X75792312Y-102454757D02*
X75863740Y-102526185D01*
X75863740Y-102526185D02*
X75935169Y-102454757D01*
X75935169Y-102454757D02*
X75863740Y-102383328D01*
X75863740Y-102383328D02*
X75863740Y-102526185D01*
X76792312Y-103883328D02*
X76649455Y-103811900D01*
X76649455Y-103811900D02*
X76578026Y-103669042D01*
X76578026Y-103669042D02*
X76578026Y-102383328D01*
X77935169Y-103811900D02*
X77792312Y-103883328D01*
X77792312Y-103883328D02*
X77506598Y-103883328D01*
X77506598Y-103883328D02*
X77363740Y-103811900D01*
X77363740Y-103811900D02*
X77292312Y-103669042D01*
X77292312Y-103669042D02*
X77292312Y-103097614D01*
X77292312Y-103097614D02*
X77363740Y-102954757D01*
X77363740Y-102954757D02*
X77506598Y-102883328D01*
X77506598Y-102883328D02*
X77792312Y-102883328D01*
X77792312Y-102883328D02*
X77935169Y-102954757D01*
X77935169Y-102954757D02*
X78006598Y-103097614D01*
X78006598Y-103097614D02*
X78006598Y-103240471D01*
X78006598Y-103240471D02*
X77292312Y-103383328D01*
X78649454Y-103740471D02*
X78720883Y-103811900D01*
X78720883Y-103811900D02*
X78649454Y-103883328D01*
X78649454Y-103883328D02*
X78578026Y-103811900D01*
X78578026Y-103811900D02*
X78649454Y-103740471D01*
X78649454Y-103740471D02*
X78649454Y-103883328D01*
X78649454Y-102954757D02*
X78720883Y-103026185D01*
X78720883Y-103026185D02*
X78649454Y-103097614D01*
X78649454Y-103097614D02*
X78578026Y-103026185D01*
X78578026Y-103026185D02*
X78649454Y-102954757D01*
X78649454Y-102954757D02*
X78649454Y-103097614D01*
X80435169Y-103454757D02*
X81149455Y-103454757D01*
X80292312Y-103883328D02*
X80792312Y-102383328D01*
X80792312Y-102383328D02*
X81292312Y-103883328D01*
X81792311Y-103883328D02*
X81792311Y-102883328D01*
X81792311Y-103026185D02*
X81863740Y-102954757D01*
X81863740Y-102954757D02*
X82006597Y-102883328D01*
X82006597Y-102883328D02*
X82220883Y-102883328D01*
X82220883Y-102883328D02*
X82363740Y-102954757D01*
X82363740Y-102954757D02*
X82435169Y-103097614D01*
X82435169Y-103097614D02*
X82435169Y-103883328D01*
X82435169Y-103097614D02*
X82506597Y-102954757D01*
X82506597Y-102954757D02*
X82649454Y-102883328D01*
X82649454Y-102883328D02*
X82863740Y-102883328D01*
X82863740Y-102883328D02*
X83006597Y-102954757D01*
X83006597Y-102954757D02*
X83078026Y-103097614D01*
X83078026Y-103097614D02*
X83078026Y-103883328D01*
X83792311Y-102883328D02*
X83792311Y-104383328D01*
X83792311Y-102954757D02*
X83935169Y-102883328D01*
X83935169Y-102883328D02*
X84220883Y-102883328D01*
X84220883Y-102883328D02*
X84363740Y-102954757D01*
X84363740Y-102954757D02*
X84435169Y-103026185D01*
X84435169Y-103026185D02*
X84506597Y-103169042D01*
X84506597Y-103169042D02*
X84506597Y-103597614D01*
X84506597Y-103597614D02*
X84435169Y-103740471D01*
X84435169Y-103740471D02*
X84363740Y-103811900D01*
X84363740Y-103811900D02*
X84220883Y-103883328D01*
X84220883Y-103883328D02*
X83935169Y-103883328D01*
X83935169Y-103883328D02*
X83792311Y-103811900D01*
X85006597Y-102383328D02*
X86006597Y-103883328D01*
X86006597Y-102383328D02*
X85006597Y-103883328D01*
X88006597Y-102383328D02*
X88292311Y-102383328D01*
X88292311Y-102383328D02*
X88435168Y-102454757D01*
X88435168Y-102454757D02*
X88578025Y-102597614D01*
X88578025Y-102597614D02*
X88649454Y-102883328D01*
X88649454Y-102883328D02*
X88649454Y-103383328D01*
X88649454Y-103383328D02*
X88578025Y-103669042D01*
X88578025Y-103669042D02*
X88435168Y-103811900D01*
X88435168Y-103811900D02*
X88292311Y-103883328D01*
X88292311Y-103883328D02*
X88006597Y-103883328D01*
X88006597Y-103883328D02*
X87863740Y-103811900D01*
X87863740Y-103811900D02*
X87720882Y-103669042D01*
X87720882Y-103669042D02*
X87649454Y-103383328D01*
X87649454Y-103383328D02*
X87649454Y-102883328D01*
X87649454Y-102883328D02*
X87720882Y-102597614D01*
X87720882Y-102597614D02*
X87863740Y-102454757D01*
X87863740Y-102454757D02*
X88006597Y-102383328D01*
X89292311Y-102883328D02*
X89292311Y-104383328D01*
X89292311Y-102954757D02*
X89435169Y-102883328D01*
X89435169Y-102883328D02*
X89720883Y-102883328D01*
X89720883Y-102883328D02*
X89863740Y-102954757D01*
X89863740Y-102954757D02*
X89935169Y-103026185D01*
X89935169Y-103026185D02*
X90006597Y-103169042D01*
X90006597Y-103169042D02*
X90006597Y-103597614D01*
X90006597Y-103597614D02*
X89935169Y-103740471D01*
X89935169Y-103740471D02*
X89863740Y-103811900D01*
X89863740Y-103811900D02*
X89720883Y-103883328D01*
X89720883Y-103883328D02*
X89435169Y-103883328D01*
X89435169Y-103883328D02*
X89292311Y-103811900D01*
X91220883Y-103811900D02*
X91078026Y-103883328D01*
X91078026Y-103883328D02*
X90792312Y-103883328D01*
X90792312Y-103883328D02*
X90649454Y-103811900D01*
X90649454Y-103811900D02*
X90578026Y-103669042D01*
X90578026Y-103669042D02*
X90578026Y-103097614D01*
X90578026Y-103097614D02*
X90649454Y-102954757D01*
X90649454Y-102954757D02*
X90792312Y-102883328D01*
X90792312Y-102883328D02*
X91078026Y-102883328D01*
X91078026Y-102883328D02*
X91220883Y-102954757D01*
X91220883Y-102954757D02*
X91292312Y-103097614D01*
X91292312Y-103097614D02*
X91292312Y-103240471D01*
X91292312Y-103240471D02*
X90578026Y-103383328D01*
X91935168Y-102883328D02*
X91935168Y-103883328D01*
X91935168Y-103026185D02*
X92006597Y-102954757D01*
X92006597Y-102954757D02*
X92149454Y-102883328D01*
X92149454Y-102883328D02*
X92363740Y-102883328D01*
X92363740Y-102883328D02*
X92506597Y-102954757D01*
X92506597Y-102954757D02*
X92578026Y-103097614D01*
X92578026Y-103097614D02*
X92578026Y-103883328D01*
X94435168Y-103097614D02*
X94935168Y-103097614D01*
X95149454Y-103883328D02*
X94435168Y-103883328D01*
X94435168Y-103883328D02*
X94435168Y-102383328D01*
X94435168Y-102383328D02*
X95149454Y-102383328D01*
X95792311Y-102883328D02*
X95792311Y-103883328D01*
X95792311Y-103026185D02*
X95863740Y-102954757D01*
X95863740Y-102954757D02*
X96006597Y-102883328D01*
X96006597Y-102883328D02*
X96220883Y-102883328D01*
X96220883Y-102883328D02*
X96363740Y-102954757D01*
X96363740Y-102954757D02*
X96435169Y-103097614D01*
X96435169Y-103097614D02*
X96435169Y-103883328D01*
X97720883Y-103811900D02*
X97578026Y-103883328D01*
X97578026Y-103883328D02*
X97292312Y-103883328D01*
X97292312Y-103883328D02*
X97149454Y-103811900D01*
X97149454Y-103811900D02*
X97078026Y-103669042D01*
X97078026Y-103669042D02*
X97078026Y-103097614D01*
X97078026Y-103097614D02*
X97149454Y-102954757D01*
X97149454Y-102954757D02*
X97292312Y-102883328D01*
X97292312Y-102883328D02*
X97578026Y-102883328D01*
X97578026Y-102883328D02*
X97720883Y-102954757D01*
X97720883Y-102954757D02*
X97792312Y-103097614D01*
X97792312Y-103097614D02*
X97792312Y-103240471D01*
X97792312Y-103240471D02*
X97078026Y-103383328D01*
X98435168Y-103883328D02*
X98435168Y-102883328D01*
X98435168Y-103169042D02*
X98506597Y-103026185D01*
X98506597Y-103026185D02*
X98578026Y-102954757D01*
X98578026Y-102954757D02*
X98720883Y-102883328D01*
X98720883Y-102883328D02*
X98863740Y-102883328D01*
X100006597Y-102883328D02*
X100006597Y-104097614D01*
X100006597Y-104097614D02*
X99935168Y-104240471D01*
X99935168Y-104240471D02*
X99863739Y-104311900D01*
X99863739Y-104311900D02*
X99720882Y-104383328D01*
X99720882Y-104383328D02*
X99506597Y-104383328D01*
X99506597Y-104383328D02*
X99363739Y-104311900D01*
X100006597Y-103811900D02*
X99863739Y-103883328D01*
X99863739Y-103883328D02*
X99578025Y-103883328D01*
X99578025Y-103883328D02*
X99435168Y-103811900D01*
X99435168Y-103811900D02*
X99363739Y-103740471D01*
X99363739Y-103740471D02*
X99292311Y-103597614D01*
X99292311Y-103597614D02*
X99292311Y-103169042D01*
X99292311Y-103169042D02*
X99363739Y-103026185D01*
X99363739Y-103026185D02*
X99435168Y-102954757D01*
X99435168Y-102954757D02*
X99578025Y-102883328D01*
X99578025Y-102883328D02*
X99863739Y-102883328D01*
X99863739Y-102883328D02*
X100006597Y-102954757D01*
X100578025Y-102883328D02*
X100935168Y-103883328D01*
X101292311Y-102883328D02*
X100935168Y-103883328D01*
X100935168Y-103883328D02*
X100792311Y-104240471D01*
X100792311Y-104240471D02*
X100720882Y-104311900D01*
X100720882Y-104311900D02*
X100578025Y-104383328D01*
X103792311Y-102454757D02*
X103649454Y-102383328D01*
X103649454Y-102383328D02*
X103435168Y-102383328D01*
X103435168Y-102383328D02*
X103220882Y-102454757D01*
X103220882Y-102454757D02*
X103078025Y-102597614D01*
X103078025Y-102597614D02*
X103006596Y-102740471D01*
X103006596Y-102740471D02*
X102935168Y-103026185D01*
X102935168Y-103026185D02*
X102935168Y-103240471D01*
X102935168Y-103240471D02*
X103006596Y-103526185D01*
X103006596Y-103526185D02*
X103078025Y-103669042D01*
X103078025Y-103669042D02*
X103220882Y-103811900D01*
X103220882Y-103811900D02*
X103435168Y-103883328D01*
X103435168Y-103883328D02*
X103578025Y-103883328D01*
X103578025Y-103883328D02*
X103792311Y-103811900D01*
X103792311Y-103811900D02*
X103863739Y-103740471D01*
X103863739Y-103740471D02*
X103863739Y-103240471D01*
X103863739Y-103240471D02*
X103578025Y-103240471D01*
X105149454Y-103883328D02*
X105149454Y-103097614D01*
X105149454Y-103097614D02*
X105078025Y-102954757D01*
X105078025Y-102954757D02*
X104935168Y-102883328D01*
X104935168Y-102883328D02*
X104649454Y-102883328D01*
X104649454Y-102883328D02*
X104506596Y-102954757D01*
X105149454Y-103811900D02*
X105006596Y-103883328D01*
X105006596Y-103883328D02*
X104649454Y-103883328D01*
X104649454Y-103883328D02*
X104506596Y-103811900D01*
X104506596Y-103811900D02*
X104435168Y-103669042D01*
X104435168Y-103669042D02*
X104435168Y-103526185D01*
X104435168Y-103526185D02*
X104506596Y-103383328D01*
X104506596Y-103383328D02*
X104649454Y-103311900D01*
X104649454Y-103311900D02*
X105006596Y-103311900D01*
X105006596Y-103311900D02*
X105149454Y-103240471D01*
X105649454Y-102883328D02*
X106220882Y-102883328D01*
X105863739Y-102383328D02*
X105863739Y-103669042D01*
X105863739Y-103669042D02*
X105935168Y-103811900D01*
X105935168Y-103811900D02*
X106078025Y-103883328D01*
X106078025Y-103883328D02*
X106220882Y-103883328D01*
X107292311Y-103811900D02*
X107149454Y-103883328D01*
X107149454Y-103883328D02*
X106863740Y-103883328D01*
X106863740Y-103883328D02*
X106720882Y-103811900D01*
X106720882Y-103811900D02*
X106649454Y-103669042D01*
X106649454Y-103669042D02*
X106649454Y-103097614D01*
X106649454Y-103097614D02*
X106720882Y-102954757D01*
X106720882Y-102954757D02*
X106863740Y-102883328D01*
X106863740Y-102883328D02*
X107149454Y-102883328D01*
X107149454Y-102883328D02*
X107292311Y-102954757D01*
X107292311Y-102954757D02*
X107363740Y-103097614D01*
X107363740Y-103097614D02*
X107363740Y-103240471D01*
X107363740Y-103240471D02*
X106649454Y-103383328D01*
X107863739Y-102883328D02*
X108149454Y-103883328D01*
X108149454Y-103883328D02*
X108435168Y-103169042D01*
X108435168Y-103169042D02*
X108720882Y-103883328D01*
X108720882Y-103883328D02*
X109006596Y-102883328D01*
X110220883Y-103883328D02*
X110220883Y-103097614D01*
X110220883Y-103097614D02*
X110149454Y-102954757D01*
X110149454Y-102954757D02*
X110006597Y-102883328D01*
X110006597Y-102883328D02*
X109720883Y-102883328D01*
X109720883Y-102883328D02*
X109578025Y-102954757D01*
X110220883Y-103811900D02*
X110078025Y-103883328D01*
X110078025Y-103883328D02*
X109720883Y-103883328D01*
X109720883Y-103883328D02*
X109578025Y-103811900D01*
X109578025Y-103811900D02*
X109506597Y-103669042D01*
X109506597Y-103669042D02*
X109506597Y-103526185D01*
X109506597Y-103526185D02*
X109578025Y-103383328D01*
X109578025Y-103383328D02*
X109720883Y-103311900D01*
X109720883Y-103311900D02*
X110078025Y-103311900D01*
X110078025Y-103311900D02*
X110220883Y-103240471D01*
X110792311Y-102883328D02*
X111149454Y-103883328D01*
X111506597Y-102883328D02*
X111149454Y-103883328D01*
X111149454Y-103883328D02*
X111006597Y-104240471D01*
X111006597Y-104240471D02*
X110935168Y-104311900D01*
X110935168Y-104311900D02*
X110792311Y-104383328D01*
X112078025Y-103740471D02*
X112149454Y-103811900D01*
X112149454Y-103811900D02*
X112078025Y-103883328D01*
X112078025Y-103883328D02*
X112006597Y-103811900D01*
X112006597Y-103811900D02*
X112078025Y-103740471D01*
X112078025Y-103740471D02*
X112078025Y-103883328D01*
X112792311Y-103883328D02*
X112792311Y-102383328D01*
X112935169Y-103311900D02*
X113363740Y-103883328D01*
X113363740Y-102883328D02*
X112792311Y-103454757D01*
X114006597Y-103883328D02*
X114006597Y-102883328D01*
X114006597Y-102383328D02*
X113935169Y-102454757D01*
X113935169Y-102454757D02*
X114006597Y-102526185D01*
X114006597Y-102526185D02*
X114078026Y-102454757D01*
X114078026Y-102454757D02*
X114006597Y-102383328D01*
X114006597Y-102383328D02*
X114006597Y-102526185D01*
X115363741Y-103811900D02*
X115220883Y-103883328D01*
X115220883Y-103883328D02*
X114935169Y-103883328D01*
X114935169Y-103883328D02*
X114792312Y-103811900D01*
X114792312Y-103811900D02*
X114720883Y-103740471D01*
X114720883Y-103740471D02*
X114649455Y-103597614D01*
X114649455Y-103597614D02*
X114649455Y-103169042D01*
X114649455Y-103169042D02*
X114720883Y-103026185D01*
X114720883Y-103026185D02*
X114792312Y-102954757D01*
X114792312Y-102954757D02*
X114935169Y-102883328D01*
X114935169Y-102883328D02*
X115220883Y-102883328D01*
X115220883Y-102883328D02*
X115363741Y-102954757D01*
X116649455Y-103883328D02*
X116649455Y-103097614D01*
X116649455Y-103097614D02*
X116578026Y-102954757D01*
X116578026Y-102954757D02*
X116435169Y-102883328D01*
X116435169Y-102883328D02*
X116149455Y-102883328D01*
X116149455Y-102883328D02*
X116006597Y-102954757D01*
X116649455Y-103811900D02*
X116506597Y-103883328D01*
X116506597Y-103883328D02*
X116149455Y-103883328D01*
X116149455Y-103883328D02*
X116006597Y-103811900D01*
X116006597Y-103811900D02*
X115935169Y-103669042D01*
X115935169Y-103669042D02*
X115935169Y-103526185D01*
X115935169Y-103526185D02*
X116006597Y-103383328D01*
X116006597Y-103383328D02*
X116149455Y-103311900D01*
X116149455Y-103311900D02*
X116506597Y-103311900D01*
X116506597Y-103311900D02*
X116649455Y-103240471D01*
X118006598Y-103883328D02*
X118006598Y-102383328D01*
X118006598Y-103811900D02*
X117863740Y-103883328D01*
X117863740Y-103883328D02*
X117578026Y-103883328D01*
X117578026Y-103883328D02*
X117435169Y-103811900D01*
X117435169Y-103811900D02*
X117363740Y-103740471D01*
X117363740Y-103740471D02*
X117292312Y-103597614D01*
X117292312Y-103597614D02*
X117292312Y-103169042D01*
X117292312Y-103169042D02*
X117363740Y-103026185D01*
X117363740Y-103026185D02*
X117435169Y-102954757D01*
X117435169Y-102954757D02*
X117578026Y-102883328D01*
X117578026Y-102883328D02*
X117863740Y-102883328D01*
X117863740Y-102883328D02*
X118006598Y-102954757D01*
X118363741Y-104026185D02*
X119506598Y-104026185D01*
X119863740Y-102883328D02*
X119863740Y-104383328D01*
X119863740Y-102954757D02*
X120006598Y-102883328D01*
X120006598Y-102883328D02*
X120292312Y-102883328D01*
X120292312Y-102883328D02*
X120435169Y-102954757D01*
X120435169Y-102954757D02*
X120506598Y-103026185D01*
X120506598Y-103026185D02*
X120578026Y-103169042D01*
X120578026Y-103169042D02*
X120578026Y-103597614D01*
X120578026Y-103597614D02*
X120506598Y-103740471D01*
X120506598Y-103740471D02*
X120435169Y-103811900D01*
X120435169Y-103811900D02*
X120292312Y-103883328D01*
X120292312Y-103883328D02*
X120006598Y-103883328D01*
X120006598Y-103883328D02*
X119863740Y-103811900D01*
X121863741Y-103811900D02*
X121720883Y-103883328D01*
X121720883Y-103883328D02*
X121435169Y-103883328D01*
X121435169Y-103883328D02*
X121292312Y-103811900D01*
X121292312Y-103811900D02*
X121220883Y-103740471D01*
X121220883Y-103740471D02*
X121149455Y-103597614D01*
X121149455Y-103597614D02*
X121149455Y-103169042D01*
X121149455Y-103169042D02*
X121220883Y-103026185D01*
X121220883Y-103026185D02*
X121292312Y-102954757D01*
X121292312Y-102954757D02*
X121435169Y-102883328D01*
X121435169Y-102883328D02*
X121720883Y-102883328D01*
X121720883Y-102883328D02*
X121863741Y-102954757D01*
X122506597Y-103883328D02*
X122506597Y-102383328D01*
X122506597Y-102954757D02*
X122649455Y-102883328D01*
X122649455Y-102883328D02*
X122935169Y-102883328D01*
X122935169Y-102883328D02*
X123078026Y-102954757D01*
X123078026Y-102954757D02*
X123149455Y-103026185D01*
X123149455Y-103026185D02*
X123220883Y-103169042D01*
X123220883Y-103169042D02*
X123220883Y-103597614D01*
X123220883Y-103597614D02*
X123149455Y-103740471D01*
X123149455Y-103740471D02*
X123078026Y-103811900D01*
X123078026Y-103811900D02*
X122935169Y-103883328D01*
X122935169Y-103883328D02*
X122649455Y-103883328D01*
X122649455Y-103883328D02*
X122506597Y-103811900D01*
D10*
D11*
X73122200Y-98997200D02*
X181122200Y-98997200D01*
D10*
D11*
X74506598Y-101111900D02*
X74720884Y-101183328D01*
X74720884Y-101183328D02*
X75078026Y-101183328D01*
X75078026Y-101183328D02*
X75220884Y-101111900D01*
X75220884Y-101111900D02*
X75292312Y-101040471D01*
X75292312Y-101040471D02*
X75363741Y-100897614D01*
X75363741Y-100897614D02*
X75363741Y-100754757D01*
X75363741Y-100754757D02*
X75292312Y-100611900D01*
X75292312Y-100611900D02*
X75220884Y-100540471D01*
X75220884Y-100540471D02*
X75078026Y-100469042D01*
X75078026Y-100469042D02*
X74792312Y-100397614D01*
X74792312Y-100397614D02*
X74649455Y-100326185D01*
X74649455Y-100326185D02*
X74578026Y-100254757D01*
X74578026Y-100254757D02*
X74506598Y-100111900D01*
X74506598Y-100111900D02*
X74506598Y-99969042D01*
X74506598Y-99969042D02*
X74578026Y-99826185D01*
X74578026Y-99826185D02*
X74649455Y-99754757D01*
X74649455Y-99754757D02*
X74792312Y-99683328D01*
X74792312Y-99683328D02*
X75149455Y-99683328D01*
X75149455Y-99683328D02*
X75363741Y-99754757D01*
X76006597Y-101183328D02*
X76006597Y-99683328D01*
X76649455Y-101183328D02*
X76649455Y-100397614D01*
X76649455Y-100397614D02*
X76578026Y-100254757D01*
X76578026Y-100254757D02*
X76435169Y-100183328D01*
X76435169Y-100183328D02*
X76220883Y-100183328D01*
X76220883Y-100183328D02*
X76078026Y-100254757D01*
X76078026Y-100254757D02*
X76006597Y-100326185D01*
X77935169Y-101111900D02*
X77792312Y-101183328D01*
X77792312Y-101183328D02*
X77506598Y-101183328D01*
X77506598Y-101183328D02*
X77363740Y-101111900D01*
X77363740Y-101111900D02*
X77292312Y-100969042D01*
X77292312Y-100969042D02*
X77292312Y-100397614D01*
X77292312Y-100397614D02*
X77363740Y-100254757D01*
X77363740Y-100254757D02*
X77506598Y-100183328D01*
X77506598Y-100183328D02*
X77792312Y-100183328D01*
X77792312Y-100183328D02*
X77935169Y-100254757D01*
X77935169Y-100254757D02*
X78006598Y-100397614D01*
X78006598Y-100397614D02*
X78006598Y-100540471D01*
X78006598Y-100540471D02*
X77292312Y-100683328D01*
X79220883Y-101111900D02*
X79078026Y-101183328D01*
X79078026Y-101183328D02*
X78792312Y-101183328D01*
X78792312Y-101183328D02*
X78649454Y-101111900D01*
X78649454Y-101111900D02*
X78578026Y-100969042D01*
X78578026Y-100969042D02*
X78578026Y-100397614D01*
X78578026Y-100397614D02*
X78649454Y-100254757D01*
X78649454Y-100254757D02*
X78792312Y-100183328D01*
X78792312Y-100183328D02*
X79078026Y-100183328D01*
X79078026Y-100183328D02*
X79220883Y-100254757D01*
X79220883Y-100254757D02*
X79292312Y-100397614D01*
X79292312Y-100397614D02*
X79292312Y-100540471D01*
X79292312Y-100540471D02*
X78578026Y-100683328D01*
X79720883Y-100183328D02*
X80292311Y-100183328D01*
X79935168Y-99683328D02*
X79935168Y-100969042D01*
X79935168Y-100969042D02*
X80006597Y-101111900D01*
X80006597Y-101111900D02*
X80149454Y-101183328D01*
X80149454Y-101183328D02*
X80292311Y-101183328D01*
X80792311Y-101040471D02*
X80863740Y-101111900D01*
X80863740Y-101111900D02*
X80792311Y-101183328D01*
X80792311Y-101183328D02*
X80720883Y-101111900D01*
X80720883Y-101111900D02*
X80792311Y-101040471D01*
X80792311Y-101040471D02*
X80792311Y-101183328D01*
X80792311Y-100254757D02*
X80863740Y-100326185D01*
X80863740Y-100326185D02*
X80792311Y-100397614D01*
X80792311Y-100397614D02*
X80720883Y-100326185D01*
X80720883Y-100326185D02*
X80792311Y-100254757D01*
X80792311Y-100254757D02*
X80792311Y-100397614D01*
D10*
D12*
X74605282Y-97746957D02*
X75319568Y-97746957D01*
X74462425Y-98175528D02*
X74962425Y-96675528D01*
X74962425Y-96675528D02*
X75462425Y-98175528D01*
X75962424Y-98175528D02*
X75962424Y-97175528D01*
X75962424Y-97318385D02*
X76033853Y-97246957D01*
X76033853Y-97246957D02*
X76176710Y-97175528D01*
X76176710Y-97175528D02*
X76390996Y-97175528D01*
X76390996Y-97175528D02*
X76533853Y-97246957D01*
X76533853Y-97246957D02*
X76605282Y-97389814D01*
X76605282Y-97389814D02*
X76605282Y-98175528D01*
X76605282Y-97389814D02*
X76676710Y-97246957D01*
X76676710Y-97246957D02*
X76819567Y-97175528D01*
X76819567Y-97175528D02*
X77033853Y-97175528D01*
X77033853Y-97175528D02*
X77176710Y-97246957D01*
X77176710Y-97246957D02*
X77248139Y-97389814D01*
X77248139Y-97389814D02*
X77248139Y-98175528D01*
X77962424Y-97175528D02*
X77962424Y-98675528D01*
X77962424Y-97246957D02*
X78105282Y-97175528D01*
X78105282Y-97175528D02*
X78390996Y-97175528D01*
X78390996Y-97175528D02*
X78533853Y-97246957D01*
X78533853Y-97246957D02*
X78605282Y-97318385D01*
X78605282Y-97318385D02*
X78676710Y-97461242D01*
X78676710Y-97461242D02*
X78676710Y-97889814D01*
X78676710Y-97889814D02*
X78605282Y-98032671D01*
X78605282Y-98032671D02*
X78533853Y-98104100D01*
X78533853Y-98104100D02*
X78390996Y-98175528D01*
X78390996Y-98175528D02*
X78105282Y-98175528D01*
X78105282Y-98175528D02*
X77962424Y-98104100D01*
X79176710Y-98175528D02*
X79962425Y-97175528D01*
X79176710Y-97175528D02*
X79962425Y-98175528D01*
X81676710Y-97389814D02*
X82176710Y-97389814D01*
X82390996Y-98175528D02*
X81676710Y-98175528D01*
X81676710Y-98175528D02*
X81676710Y-96675528D01*
X81676710Y-96675528D02*
X82390996Y-96675528D01*
X83676711Y-97175528D02*
X83676711Y-98175528D01*
X83033853Y-97175528D02*
X83033853Y-97961242D01*
X83033853Y-97961242D02*
X83105282Y-98104100D01*
X83105282Y-98104100D02*
X83248139Y-98175528D01*
X83248139Y-98175528D02*
X83462425Y-98175528D01*
X83462425Y-98175528D02*
X83605282Y-98104100D01*
X83605282Y-98104100D02*
X83676711Y-98032671D01*
X84390996Y-98175528D02*
X84390996Y-97175528D01*
X84390996Y-97461242D02*
X84462425Y-97318385D01*
X84462425Y-97318385D02*
X84533854Y-97246957D01*
X84533854Y-97246957D02*
X84676711Y-97175528D01*
X84676711Y-97175528D02*
X84819568Y-97175528D01*
X85533853Y-98175528D02*
X85390996Y-98104100D01*
X85390996Y-98104100D02*
X85319567Y-98032671D01*
X85319567Y-98032671D02*
X85248139Y-97889814D01*
X85248139Y-97889814D02*
X85248139Y-97461242D01*
X85248139Y-97461242D02*
X85319567Y-97318385D01*
X85319567Y-97318385D02*
X85390996Y-97246957D01*
X85390996Y-97246957D02*
X85533853Y-97175528D01*
X85533853Y-97175528D02*
X85748139Y-97175528D01*
X85748139Y-97175528D02*
X85890996Y-97246957D01*
X85890996Y-97246957D02*
X85962425Y-97318385D01*
X85962425Y-97318385D02*
X86033853Y-97461242D01*
X86033853Y-97461242D02*
X86033853Y-97889814D01*
X86033853Y-97889814D02*
X85962425Y-98032671D01*
X85962425Y-98032671D02*
X85890996Y-98104100D01*
X85890996Y-98104100D02*
X85748139Y-98175528D01*
X85748139Y-98175528D02*
X85533853Y-98175528D01*
X86676710Y-97175528D02*
X86676710Y-98675528D01*
X86676710Y-97246957D02*
X86819568Y-97175528D01*
X86819568Y-97175528D02*
X87105282Y-97175528D01*
X87105282Y-97175528D02*
X87248139Y-97246957D01*
X87248139Y-97246957D02*
X87319568Y-97318385D01*
X87319568Y-97318385D02*
X87390996Y-97461242D01*
X87390996Y-97461242D02*
X87390996Y-97889814D01*
X87390996Y-97889814D02*
X87319568Y-98032671D01*
X87319568Y-98032671D02*
X87248139Y-98104100D01*
X87248139Y-98104100D02*
X87105282Y-98175528D01*
X87105282Y-98175528D02*
X86819568Y-98175528D01*
X86819568Y-98175528D02*
X86676710Y-98104100D01*
X88605282Y-98104100D02*
X88462425Y-98175528D01*
X88462425Y-98175528D02*
X88176711Y-98175528D01*
X88176711Y-98175528D02*
X88033853Y-98104100D01*
X88033853Y-98104100D02*
X87962425Y-97961242D01*
X87962425Y-97961242D02*
X87962425Y-97389814D01*
X87962425Y-97389814D02*
X88033853Y-97246957D01*
X88033853Y-97246957D02*
X88176711Y-97175528D01*
X88176711Y-97175528D02*
X88462425Y-97175528D01*
X88462425Y-97175528D02*
X88605282Y-97246957D01*
X88605282Y-97246957D02*
X88676711Y-97389814D01*
X88676711Y-97389814D02*
X88676711Y-97532671D01*
X88676711Y-97532671D02*
X87962425Y-97675528D01*
D10*
D11*
X93122200Y-108997200D02*
X93122200Y-111997200D01*
D10*
D11*
X157122200Y-108997200D02*
X157122200Y-115497200D01*
D14*
%TO.P,J2,1,Pin_1*%
%TO.N,/POWER*%
X53180000Y-16690000D03*
D15*
%TO.P,J2,2,Pin_2*%
%TO.N,/METER*%
X53180000Y-14190000D03*
%TO.P,J2,3,Pin_3*%
%TO.N,/WIFI*%
X53180000Y-11690000D03*
%TO.P,J2,4,Pin_4*%
%TO.N,/INTERNET*%
X53180000Y-9190000D03*
%TO.P,J2,5,Pin_5*%
%TO.N,/SERVER*%
X53180000Y-6690000D03*
%TD*%
D16*
%TO.P,U3,1,3V3*%
%TO.N,+3.3V*%
X47560000Y-3750000D03*
D17*
%TO.P,U3,2,EN*%
%TO.N,unconnected-(U3-EN-Pad2)*%
X45020000Y-3750000D03*
%TO.P,U3,3,SENSOR_VP*%
%TO.N,unconnected-(U3-SENSOR_VP-Pad3)*%
X42480000Y-3750000D03*
%TO.P,U3,4,SENSOR_VN*%
%TO.N,unconnected-(U3-SENSOR_VN-Pad4)*%
X39940000Y-3750000D03*
%TO.P,U3,5,IO34*%
%TO.N,unconnected-(U3-IO34-Pad5)*%
X37400000Y-3750000D03*
%TO.P,U3,6,IO35*%
%TO.N,unconnected-(U3-IO35-Pad6)*%
X34860000Y-3750000D03*
%TO.P,U3,7,IO32*%
%TO.N,unconnected-(U3-IO32-Pad7)*%
X32320000Y-3750000D03*
%TO.P,U3,8,IO33*%
%TO.N,unconnected-(U3-IO33-Pad8)*%
X29780000Y-3750000D03*
%TO.P,U3,9,IO25*%
%TO.N,/SERVER*%
X27240000Y-3750000D03*
%TO.P,U3,10,IO26*%
%TO.N,/INTERNET*%
X24700000Y-3750000D03*
%TO.P,U3,11,IO27*%
%TO.N,/WIFI*%
X22160000Y-3750000D03*
%TO.P,U3,12,IO14*%
%TO.N,/METER*%
X19620000Y-3750000D03*
%TO.P,U3,13,IO12*%
%TO.N,/POWER*%
X17080000Y-3750000D03*
%TO.P,U3,14,GND1*%
%TO.N,/GND*%
X14540000Y-3750000D03*
%TO.P,U3,15,IO13*%
%TO.N,unconnected-(U3-IO13-Pad15)*%
X12000000Y-3750000D03*
%TO.P,U3,16,SD2*%
%TO.N,unconnected-(U3-SD2-Pad16)*%
X9460000Y-3750000D03*
%TO.P,U3,17,SD3*%
%TO.N,unconnected-(U3-SD3-Pad17)*%
X6920000Y-3750000D03*
%TO.P,U3,18,CMD*%
%TO.N,unconnected-(U3-CMD-Pad18)*%
X4380000Y-3750000D03*
%TO.P,U3,19,EXT_5V*%
%TO.N,/+5V*%
X1840000Y-3750000D03*
%TO.P,U3,20,CLK*%
%TO.N,unconnected-(U3-CLK-Pad20)*%
X1840000Y-29150000D03*
%TO.P,U3,21,SD0*%
%TO.N,unconnected-(U3-SD0-Pad21)*%
X4380000Y-29150000D03*
%TO.P,U3,22,SD1*%
%TO.N,unconnected-(U3-SD1-Pad22)*%
X6920000Y-29150000D03*
%TO.P,U3,23,IO15*%
%TO.N,unconnected-(U3-IO15-Pad23)*%
X9460000Y-29150000D03*
%TO.P,U3,24,IO2*%
%TO.N,unconnected-(U3-IO2-Pad24)*%
X12000000Y-29150000D03*
%TO.P,U3,25,IO0*%
%TO.N,unconnected-(U3-IO0-Pad25)*%
X14540000Y-29150000D03*
%TO.P,U3,26,IO4*%
%TO.N,unconnected-(U3-IO4-Pad26)*%
X17080000Y-29150000D03*
%TO.P,U3,27,IO16*%
%TO.N,unconnected-(U3-IO16-Pad27)*%
X19620000Y-29150000D03*
%TO.P,U3,28,IO17*%
%TO.N,unconnected-(U3-IO17-Pad28)*%
X22160000Y-29150000D03*
%TO.P,U3,29,IO5*%
%TO.N,/CS*%
X24700000Y-29150000D03*
%TO.P,U3,30,IO18*%
%TO.N,/SCLK*%
X27240000Y-29150000D03*
%TO.P,U3,31,IO19*%
%TO.N,/MISO*%
X29780000Y-29150000D03*
%TO.P,U3,32,GND2*%
%TO.N,/GND*%
X32320000Y-29150000D03*
%TO.P,U3,33,IO21*%
%TO.N,unconnected-(U3-IO21-Pad33)*%
X34860000Y-29150000D03*
%TO.P,U3,34,RXD0*%
%TO.N,unconnected-(U3-RXD0-Pad34)*%
X37400000Y-29150000D03*
%TO.P,U3,35,TXD0*%
%TO.N,unconnected-(U3-TXD0-Pad35)*%
X39940000Y-29150000D03*
%TO.P,U3,36,IO22*%
%TO.N,unconnected-(U3-IO22-Pad36)*%
X42480000Y-29150000D03*
%TO.P,U3,37,IO23*%
%TO.N,/MOSI*%
X45020000Y-29150000D03*
%TO.P,U3,38,GND3*%
%TO.N,/GND*%
X47560000Y-29150000D03*
%TD*%
D18*
%TO.P,J1,1,Pin_1*%
%TO.N,/+5V*%
X53130000Y-26450000D03*
D19*
%TO.P,J1,2,Pin_2*%
%TO.N,/GND*%
X53130000Y-23950000D03*
%TD*%
D20*
%TO.P,U2,1,MISO*%
%TO.N,/MISO*%
X64650000Y-26670000D03*
%TO.P,U2,2,RESET*%
%TO.N,unconnected-(U2-RESET-Pad2)*%
X67190000Y-26670000D03*
%TO.P,U2,3*%
%TO.N,N/C*%
X69730000Y-26670000D03*
%TO.P,U2,4,VCC*%
%TO.N,+3.3V*%
X72270000Y-26670000D03*
%TO.P,U2,5,VCC*%
X74810000Y-26670000D03*
%TO.P,U2,6,GND*%
%TO.N,/GND*%
X77350000Y-26670000D03*
%TO.P,U2,7,GND*%
X77350000Y-6350000D03*
%TO.P,U2,8,GND*%
X74810000Y-6350000D03*
%TO.P,U2,9,MOSI*%
%TO.N,/MOSI*%
X72270000Y-6350000D03*
%TO.P,U2,10,SCK*%
%TO.N,/SCLK*%
X69730000Y-6350000D03*
%TO.P,U2,11,CS*%
%TO.N,/CS*%
X67190000Y-6350000D03*
%TO.P,U2,12,INT*%
%TO.N,unconnected-(U2-INT-Pad12)*%
X64650000Y-6350000D03*
%TD*%
D21*
%TO.N,/GND*%
X7120000Y-19610000D03*
X70940000Y-13320000D03*
X40110000Y-8000000D03*
X36850000Y-15460000D03*
X68450000Y-13320000D03*
X37960000Y-12910000D03*
X41140000Y-5340000D03*
X39150000Y-10500000D03*
%TD*%
D22*
%TO.N,/SCLK*%
X66120000Y-21790000D02*
X69730000Y-18180000D01*
X69730000Y-18180000D02*
X69730000Y-6350000D01*
X34630000Y-21790000D02*
X66120000Y-21790000D01*
X27240000Y-29180000D02*
X34630000Y-21790000D01*
X27240000Y-29150000D02*
X27240000Y-29180000D01*
%TO.N,/MISO*%
X29780000Y-29150000D02*
X29830000Y-29150000D01*
X29830000Y-29150000D02*
X29840000Y-29160000D01*
%TO.N,/CS*%
X24700000Y-29150000D02*
X32960000Y-20890000D01*
X32960000Y-20890000D02*
X65710000Y-20890000D01*
X65710000Y-20890000D02*
X67190000Y-19410000D01*
X67190000Y-19410000D02*
X67190000Y-6350000D01*
%TO.N,/MOSI*%
X45020000Y-29150000D02*
X51620000Y-22550000D01*
X51620000Y-22550000D02*
X66540000Y-22550000D01*
X72260000Y-16830000D02*
X72260000Y-6360000D01*
X72260000Y-6360000D02*
X72270000Y-6350000D01*
X66540000Y-22550000D02*
X72260000Y-16830000D01*
%TO.N,unconnected-(U3-IO17-Pad28)*%
X22160000Y-29150000D02*
X22130000Y-29150000D01*
X22130000Y-29150000D02*
X22080000Y-29200000D01*
%TO.N,/+5V*%
X1840000Y-3750000D02*
X1840000Y-3790000D01*
%TD*%
%TA.AperFunction,Conductor*%
%TO.N,/GND*%
G36*
X85942539Y-520185D02*
G01*
X85988294Y-572989D01*
X85999500Y-624500D01*
X85999500Y-32375500D01*
X85979815Y-32442539D01*
X85927011Y-32488294D01*
X85875500Y-32499500D01*
X624500Y-32499500D01*
X557461Y-32479815D01*
X511706Y-32427011D01*
X500500Y-32375500D01*
X500500Y-29825084D01*
X520185Y-29758045D01*
X572989Y-29712290D01*
X642147Y-29702346D01*
X705703Y-29731371D01*
X734984Y-29768788D01*
X757647Y-29813266D01*
X874731Y-29974418D01*
X1015582Y-30115269D01*
X1176734Y-30232353D01*
X1353304Y-30322320D01*
X1354219Y-30322786D01*
X1543657Y-30384338D01*
X1543658Y-30384338D01*
X1543661Y-30384339D01*
X1740403Y-30415500D01*
X1740404Y-30415500D01*
X1939596Y-30415500D01*
X1939597Y-30415500D01*
X2136339Y-30384339D01*
X2136342Y-30384338D01*
X2136343Y-30384338D01*
X2325780Y-30322786D01*
X2325780Y-30322785D01*
X2325783Y-30322785D01*
X2503266Y-30232353D01*
X2664418Y-30115269D01*
X2805269Y-29974418D01*
X2922353Y-29813266D01*
X2999515Y-29661827D01*
X3047490Y-29611031D01*
X3115311Y-29594236D01*
X3181446Y-29616773D01*
X3220485Y-29661827D01*
X3246197Y-29712290D01*
X3297647Y-29813266D01*
X3414731Y-29974418D01*
X3555582Y-30115269D01*
X3716734Y-30232353D01*
X3893304Y-30322320D01*
X3894219Y-30322786D01*
X4083657Y-30384338D01*
X4083658Y-30384338D01*
X4083661Y-30384339D01*
X4280403Y-30415500D01*
X4280404Y-30415500D01*
X4479596Y-30415500D01*
X4479597Y-30415500D01*
X4676339Y-30384339D01*
X4676342Y-30384338D01*
X4676343Y-30384338D01*
X4865780Y-30322786D01*
X4865780Y-30322785D01*
X4865783Y-30322785D01*
X5043266Y-30232353D01*
X5204418Y-30115269D01*
X5345269Y-29974418D01*
X5462353Y-29813266D01*
X5539515Y-29661827D01*
X5587490Y-29611031D01*
X5655311Y-29594236D01*
X5721446Y-29616773D01*
X5760485Y-29661827D01*
X5786197Y-29712290D01*
X5837647Y-29813266D01*
X5954731Y-29974418D01*
X6095582Y-30115269D01*
X6256734Y-30232353D01*
X6433304Y-30322320D01*
X6434219Y-30322786D01*
X6623657Y-30384338D01*
X6623658Y-30384338D01*
X6623661Y-30384339D01*
X6820403Y-30415500D01*
X6820404Y-30415500D01*
X7019596Y-30415500D01*
X7019597Y-30415500D01*
X7216339Y-30384339D01*
X7216342Y-30384338D01*
X7216343Y-30384338D01*
X7405780Y-30322786D01*
X7405780Y-30322785D01*
X7405783Y-30322785D01*
X7583266Y-30232353D01*
X7744418Y-30115269D01*
X7885269Y-29974418D01*
X8002353Y-29813266D01*
X8079515Y-29661827D01*
X8127490Y-29611031D01*
X8195311Y-29594236D01*
X8261446Y-29616773D01*
X8300485Y-29661827D01*
X8326197Y-29712290D01*
X8377647Y-29813266D01*
X8494731Y-29974418D01*
X8635582Y-30115269D01*
X8796734Y-30232353D01*
X8973304Y-30322320D01*
X8974219Y-30322786D01*
X9163657Y-30384338D01*
X9163658Y-30384338D01*
X9163661Y-30384339D01*
X9360403Y-30415500D01*
X9360404Y-30415500D01*
X9559596Y-30415500D01*
X9559597Y-30415500D01*
X9756339Y-30384339D01*
X9756342Y-30384338D01*
X9756343Y-30384338D01*
X9945780Y-30322786D01*
X9945780Y-30322785D01*
X9945783Y-30322785D01*
X10123266Y-30232353D01*
X10284418Y-30115269D01*
X10425269Y-29974418D01*
X10542353Y-29813266D01*
X10619515Y-29661827D01*
X10667490Y-29611031D01*
X10735311Y-29594236D01*
X10801446Y-29616773D01*
X10840485Y-29661827D01*
X10866197Y-29712290D01*
X10917647Y-29813266D01*
X11034731Y-29974418D01*
X11175582Y-30115269D01*
X11336734Y-30232353D01*
X11513304Y-30322320D01*
X11514219Y-30322786D01*
X11703657Y-30384338D01*
X11703658Y-30384338D01*
X11703661Y-30384339D01*
X11900403Y-30415500D01*
X11900404Y-30415500D01*
X12099596Y-30415500D01*
X12099597Y-30415500D01*
X12296339Y-30384339D01*
X12296342Y-30384338D01*
X12296343Y-30384338D01*
X12485780Y-30322786D01*
X12485780Y-30322785D01*
X12485783Y-30322785D01*
X12663266Y-30232353D01*
X12824418Y-30115269D01*
X12965269Y-29974418D01*
X13082353Y-29813266D01*
X13159515Y-29661827D01*
X13207490Y-29611031D01*
X13275311Y-29594236D01*
X13341446Y-29616773D01*
X13380485Y-29661827D01*
X13406197Y-29712290D01*
X13457647Y-29813266D01*
X13574731Y-29974418D01*
X13715582Y-30115269D01*
X13876734Y-30232353D01*
X14053304Y-30322320D01*
X14054219Y-30322786D01*
X14243657Y-30384338D01*
X14243658Y-30384338D01*
X14243661Y-30384339D01*
X14440403Y-30415500D01*
X14440404Y-30415500D01*
X14639596Y-30415500D01*
X14639597Y-30415500D01*
X14836339Y-30384339D01*
X14836342Y-30384338D01*
X14836343Y-30384338D01*
X15025780Y-30322786D01*
X15025780Y-30322785D01*
X15025783Y-30322785D01*
X15203266Y-30232353D01*
X15364418Y-30115269D01*
X15505269Y-29974418D01*
X15622353Y-29813266D01*
X15699515Y-29661827D01*
X15747490Y-29611031D01*
X15815311Y-29594236D01*
X15881446Y-29616773D01*
X15920485Y-29661827D01*
X15946197Y-29712290D01*
X15997647Y-29813266D01*
X16114731Y-29974418D01*
X16255582Y-30115269D01*
X16416734Y-30232353D01*
X16593304Y-30322320D01*
X16594219Y-30322786D01*
X16783657Y-30384338D01*
X16783658Y-30384338D01*
X16783661Y-30384339D01*
X16980403Y-30415500D01*
X16980404Y-30415500D01*
X17179596Y-30415500D01*
X17179597Y-30415500D01*
X17376339Y-30384339D01*
X17376342Y-30384338D01*
X17376343Y-30384338D01*
X17565780Y-30322786D01*
X17565780Y-30322785D01*
X17565783Y-30322785D01*
X17743266Y-30232353D01*
X17904418Y-30115269D01*
X18045269Y-29974418D01*
X18162353Y-29813266D01*
X18239515Y-29661827D01*
X18287490Y-29611031D01*
X18355311Y-29594236D01*
X18421446Y-29616773D01*
X18460485Y-29661827D01*
X18486197Y-29712290D01*
X18537647Y-29813266D01*
X18654731Y-29974418D01*
X18795582Y-30115269D01*
X18956734Y-30232353D01*
X19133304Y-30322320D01*
X19134219Y-30322786D01*
X19323657Y-30384338D01*
X19323658Y-30384338D01*
X19323661Y-30384339D01*
X19520403Y-30415500D01*
X19520404Y-30415500D01*
X19719596Y-30415500D01*
X19719597Y-30415500D01*
X19916339Y-30384339D01*
X19916342Y-30384338D01*
X19916343Y-30384338D01*
X20105780Y-30322786D01*
X20105780Y-30322785D01*
X20105783Y-30322785D01*
X20283266Y-30232353D01*
X20444418Y-30115269D01*
X20585269Y-29974418D01*
X20702353Y-29813266D01*
X20779515Y-29661827D01*
X20827490Y-29611031D01*
X20895311Y-29594236D01*
X20961446Y-29616773D01*
X21000485Y-29661827D01*
X21026197Y-29712290D01*
X21077647Y-29813266D01*
X21194731Y-29974418D01*
X21335582Y-30115269D01*
X21496734Y-30232353D01*
X21673304Y-30322320D01*
X21674219Y-30322786D01*
X21863657Y-30384338D01*
X21863658Y-30384338D01*
X21863661Y-30384339D01*
X22060403Y-30415500D01*
X22060404Y-30415500D01*
X22259596Y-30415500D01*
X22259597Y-30415500D01*
X22456339Y-30384339D01*
X22456342Y-30384338D01*
X22456343Y-30384338D01*
X22645780Y-30322786D01*
X22645780Y-30322785D01*
X22645783Y-30322785D01*
X22823266Y-30232353D01*
X22984418Y-30115269D01*
X23125269Y-29974418D01*
X23242353Y-29813266D01*
X23319515Y-29661827D01*
X23367490Y-29611031D01*
X23435311Y-29594236D01*
X23501446Y-29616773D01*
X23540485Y-29661827D01*
X23566197Y-29712290D01*
X23617647Y-29813266D01*
X23734731Y-29974418D01*
X23875582Y-30115269D01*
X24036734Y-30232353D01*
X24213304Y-30322320D01*
X24214219Y-30322786D01*
X24403657Y-30384338D01*
X24403658Y-30384338D01*
X24403661Y-30384339D01*
X24600403Y-30415500D01*
X24600404Y-30415500D01*
X24799596Y-30415500D01*
X24799597Y-30415500D01*
X24996339Y-30384339D01*
X24996342Y-30384338D01*
X24996343Y-30384338D01*
X25185780Y-30322786D01*
X25185780Y-30322785D01*
X25185783Y-30322785D01*
X25363266Y-30232353D01*
X25524418Y-30115269D01*
X25665269Y-29974418D01*
X25782353Y-29813266D01*
X25859515Y-29661827D01*
X25907490Y-29611031D01*
X25975311Y-29594236D01*
X26041446Y-29616773D01*
X26080485Y-29661827D01*
X26106197Y-29712290D01*
X26157647Y-29813266D01*
X26274731Y-29974418D01*
X26415582Y-30115269D01*
X26576734Y-30232353D01*
X26753304Y-30322320D01*
X26754219Y-30322786D01*
X26943657Y-30384338D01*
X26943658Y-30384338D01*
X26943661Y-30384339D01*
X27140403Y-30415500D01*
X27140404Y-30415500D01*
X27339596Y-30415500D01*
X27339597Y-30415500D01*
X27536339Y-30384339D01*
X27536342Y-30384338D01*
X27536343Y-30384338D01*
X27725780Y-30322786D01*
X27725780Y-30322785D01*
X27725783Y-30322785D01*
X27903266Y-30232353D01*
X28064418Y-30115269D01*
X28205269Y-29974418D01*
X28322353Y-29813266D01*
X28399515Y-29661827D01*
X28447490Y-29611031D01*
X28515311Y-29594236D01*
X28581446Y-29616773D01*
X28620485Y-29661827D01*
X28646197Y-29712290D01*
X28697647Y-29813266D01*
X28814731Y-29974418D01*
X28955582Y-30115269D01*
X29116734Y-30232353D01*
X29293304Y-30322320D01*
X29294219Y-30322786D01*
X29483657Y-30384338D01*
X29483658Y-30384338D01*
X29483661Y-30384339D01*
X29680403Y-30415500D01*
X29680404Y-30415500D01*
X29879596Y-30415500D01*
X29879597Y-30415500D01*
X30076339Y-30384339D01*
X30076342Y-30384338D01*
X30076343Y-30384338D01*
X30265780Y-30322786D01*
X30265780Y-30322785D01*
X30265783Y-30322785D01*
X30443266Y-30232353D01*
X30604418Y-30115269D01*
X30745269Y-29974418D01*
X30862353Y-29813266D01*
X30939795Y-29661276D01*
X30987769Y-29610481D01*
X31055590Y-29593686D01*
X31121725Y-29616223D01*
X31160765Y-29661277D01*
X31238077Y-29813008D01*
X31265580Y-29850863D01*
X31265581Y-29850864D01*
X31828871Y-29287574D01*
X31844755Y-29346853D01*
X31911898Y-29463147D01*
X32006853Y-29558102D01*
X32123147Y-29625245D01*
X32182425Y-29641128D01*
X31619134Y-30204417D01*
X31656994Y-30231924D01*
X31834405Y-30322320D01*
X32023777Y-30383852D01*
X32220437Y-30415000D01*
X32419563Y-30415000D01*
X32616222Y-30383852D01*
X32805594Y-30322320D01*
X32983005Y-30231924D01*
X33020863Y-30204418D01*
X33020863Y-30204417D01*
X32457574Y-29641128D01*
X32516853Y-29625245D01*
X32633147Y-29558102D01*
X32728102Y-29463147D01*
X32795245Y-29346853D01*
X32811128Y-29287574D01*
X33374417Y-29850863D01*
X33374418Y-29850863D01*
X33401924Y-29813005D01*
X33479234Y-29661277D01*
X33527208Y-29610481D01*
X33595029Y-29593686D01*
X33661164Y-29616223D01*
X33700204Y-29661277D01*
X33754985Y-29768789D01*
X33777647Y-29813266D01*
X33894731Y-29974418D01*
X34035582Y-30115269D01*
X34196734Y-30232353D01*
X34373304Y-30322320D01*
X34374219Y-30322786D01*
X34563657Y-30384338D01*
X34563658Y-30384338D01*
X34563661Y-30384339D01*
X34760403Y-30415500D01*
X34760404Y-30415500D01*
X34959596Y-30415500D01*
X34959597Y-30415500D01*
X35156339Y-30384339D01*
X35156342Y-30384338D01*
X35156343Y-30384338D01*
X35345780Y-30322786D01*
X35345780Y-30322785D01*
X35345783Y-30322785D01*
X35523266Y-30232353D01*
X35684418Y-30115269D01*
X35825269Y-29974418D01*
X35942353Y-29813266D01*
X36019515Y-29661827D01*
X36067490Y-29611031D01*
X36135311Y-29594236D01*
X36201446Y-29616773D01*
X36240485Y-29661827D01*
X36266197Y-29712290D01*
X36317647Y-29813266D01*
X36434731Y-29974418D01*
X36575582Y-30115269D01*
X36736734Y-30232353D01*
X36913304Y-30322320D01*
X36914219Y-30322786D01*
X37103657Y-30384338D01*
X37103658Y-30384338D01*
X37103661Y-30384339D01*
X37300403Y-30415500D01*
X37300404Y-30415500D01*
X37499596Y-30415500D01*
X37499597Y-30415500D01*
X37696339Y-30384339D01*
X37696342Y-30384338D01*
X37696343Y-30384338D01*
X37885780Y-30322786D01*
X37885780Y-30322785D01*
X37885783Y-30322785D01*
X38063266Y-30232353D01*
X38224418Y-30115269D01*
X38365269Y-29974418D01*
X38482353Y-29813266D01*
X38559515Y-29661827D01*
X38607490Y-29611031D01*
X38675311Y-29594236D01*
X38741446Y-29616773D01*
X38780485Y-29661827D01*
X38806197Y-29712290D01*
X38857647Y-29813266D01*
X38974731Y-29974418D01*
X39115582Y-30115269D01*
X39276734Y-30232353D01*
X39453304Y-30322320D01*
X39454219Y-30322786D01*
X39643657Y-30384338D01*
X39643658Y-30384338D01*
X39643661Y-30384339D01*
X39840403Y-30415500D01*
X39840404Y-30415500D01*
X40039596Y-30415500D01*
X40039597Y-30415500D01*
X40236339Y-30384339D01*
X40236342Y-30384338D01*
X40236343Y-30384338D01*
X40425780Y-30322786D01*
X40425780Y-30322785D01*
X40425783Y-30322785D01*
X40603266Y-30232353D01*
X40764418Y-30115269D01*
X40905269Y-29974418D01*
X41022353Y-29813266D01*
X41099515Y-29661827D01*
X41147490Y-29611031D01*
X41215311Y-29594236D01*
X41281446Y-29616773D01*
X41320485Y-29661827D01*
X41346197Y-29712290D01*
X41397647Y-29813266D01*
X41514731Y-29974418D01*
X41655582Y-30115269D01*
X41816734Y-30232353D01*
X41993304Y-30322320D01*
X41994219Y-30322786D01*
X42183657Y-30384338D01*
X42183658Y-30384338D01*
X42183661Y-30384339D01*
X42380403Y-30415500D01*
X42380404Y-30415500D01*
X42579596Y-30415500D01*
X42579597Y-30415500D01*
X42776339Y-30384339D01*
X42776342Y-30384338D01*
X42776343Y-30384338D01*
X42965780Y-30322786D01*
X42965780Y-30322785D01*
X42965783Y-30322785D01*
X43143266Y-30232353D01*
X43304418Y-30115269D01*
X43445269Y-29974418D01*
X43562353Y-29813266D01*
X43639515Y-29661827D01*
X43687490Y-29611031D01*
X43755311Y-29594236D01*
X43821446Y-29616773D01*
X43860485Y-29661827D01*
X43886197Y-29712290D01*
X43937647Y-29813266D01*
X44054731Y-29974418D01*
X44195582Y-30115269D01*
X44356734Y-30232353D01*
X44533304Y-30322320D01*
X44534219Y-30322786D01*
X44723657Y-30384338D01*
X44723658Y-30384338D01*
X44723661Y-30384339D01*
X44920403Y-30415500D01*
X44920404Y-30415500D01*
X45119596Y-30415500D01*
X45119597Y-30415500D01*
X45316339Y-30384339D01*
X45316342Y-30384338D01*
X45316343Y-30384338D01*
X45505780Y-30322786D01*
X45505780Y-30322785D01*
X45505783Y-30322785D01*
X45683266Y-30232353D01*
X45844418Y-30115269D01*
X45985269Y-29974418D01*
X46102353Y-29813266D01*
X46179795Y-29661276D01*
X46227769Y-29610481D01*
X46295590Y-29593686D01*
X46361725Y-29616223D01*
X46400765Y-29661277D01*
X46478077Y-29813008D01*
X46505580Y-29850863D01*
X46505581Y-29850864D01*
X47068871Y-29287574D01*
X47084755Y-29346853D01*
X47151898Y-29463147D01*
X47246853Y-29558102D01*
X47363147Y-29625245D01*
X47422425Y-29641128D01*
X46859134Y-30204417D01*
X46896994Y-30231924D01*
X47074405Y-30322320D01*
X47263777Y-30383852D01*
X47460437Y-30415000D01*
X47659563Y-30415000D01*
X47856222Y-30383852D01*
X48045594Y-30322320D01*
X48223005Y-30231924D01*
X48260863Y-30204418D01*
X48260863Y-30204417D01*
X47697574Y-29641128D01*
X47756853Y-29625245D01*
X47873147Y-29558102D01*
X47968102Y-29463147D01*
X48035245Y-29346853D01*
X48051128Y-29287574D01*
X48614417Y-29850863D01*
X48614418Y-29850863D01*
X48641924Y-29813005D01*
X48732320Y-29635594D01*
X48793852Y-29446222D01*
X48825000Y-29249563D01*
X48825000Y-29050436D01*
X48793852Y-28853777D01*
X48732320Y-28664405D01*
X48641924Y-28486994D01*
X48614417Y-28449135D01*
X48614417Y-28449134D01*
X48051128Y-29012424D01*
X48035245Y-28953147D01*
X47968102Y-28836853D01*
X47873147Y-28741898D01*
X47756853Y-28674755D01*
X47697574Y-28658871D01*
X48260864Y-28095581D01*
X48260863Y-28095580D01*
X48223008Y-28068077D01*
X48045594Y-27977679D01*
X47856222Y-27916147D01*
X47659563Y-27885000D01*
X47460439Y-27885000D01*
X47449771Y-27886689D01*
X47380478Y-27877729D01*
X47327029Y-27832730D01*
X47306394Y-27765977D01*
X47325123Y-27698664D01*
X47342694Y-27676539D01*
X51445683Y-23573551D01*
X51507005Y-23540068D01*
X51576697Y-23545052D01*
X51632630Y-23586924D01*
X51657047Y-23652388D01*
X51655836Y-23680631D01*
X51652768Y-23699999D01*
X51652768Y-23700000D01*
X52696988Y-23700000D01*
X52664075Y-23757007D01*
X52630000Y-23884174D01*
X52630000Y-24015826D01*
X52664075Y-24142993D01*
X52696988Y-24200000D01*
X51652769Y-24200000D01*
X51663242Y-24266126D01*
X51663242Y-24266129D01*
X51728904Y-24468217D01*
X51825379Y-24657557D01*
X51950272Y-24829459D01*
X51950276Y-24829464D01*
X52089143Y-24968331D01*
X52122628Y-25029654D01*
X52117644Y-25099346D01*
X52075772Y-25155279D01*
X52066559Y-25161551D01*
X51911342Y-25257289D01*
X51787289Y-25381342D01*
X51695187Y-25530663D01*
X51695185Y-25530668D01*
X51675351Y-25590523D01*
X51640001Y-25697203D01*
X51640001Y-25697204D01*
X51640000Y-25697204D01*
X51629500Y-25799983D01*
X51629500Y-27100001D01*
X51629501Y-27100018D01*
X51640000Y-27202796D01*
X51640001Y-27202799D01*
X51695185Y-27369331D01*
X51695187Y-27369336D01*
X51730069Y-27425888D01*
X51787288Y-27518656D01*
X51911344Y-27642712D01*
X52060666Y-27734814D01*
X52227203Y-27789999D01*
X52329991Y-27800500D01*
X53930008Y-27800499D01*
X54032797Y-27789999D01*
X54199334Y-27734814D01*
X54348656Y-27642712D01*
X54472712Y-27518656D01*
X54564814Y-27369334D01*
X54619999Y-27202797D01*
X54630500Y-27100009D01*
X54630499Y-26567648D01*
X63349500Y-26567648D01*
X63349500Y-26772351D01*
X63381522Y-26974534D01*
X63444781Y-27169223D01*
X63508691Y-27294653D01*
X63537585Y-27351359D01*
X63537715Y-27351613D01*
X63658028Y-27517213D01*
X63802786Y-27661971D01*
X63945941Y-27765977D01*
X63968390Y-27782287D01*
X64067390Y-27832730D01*
X64150776Y-27875218D01*
X64150778Y-27875218D01*
X64150781Y-27875220D01*
X64255137Y-27909127D01*
X64345465Y-27938477D01*
X64446557Y-27954488D01*
X64547648Y-27970500D01*
X64547649Y-27970500D01*
X64752351Y-27970500D01*
X64752352Y-27970500D01*
X64954534Y-27938477D01*
X65149219Y-27875220D01*
X65331610Y-27782287D01*
X65473365Y-27679297D01*
X65497213Y-27661971D01*
X65497215Y-27661968D01*
X65497219Y-27661966D01*
X65641966Y-27517219D01*
X65641968Y-27517215D01*
X65641971Y-27517213D01*
X65762284Y-27351614D01*
X65762286Y-27351611D01*
X65762287Y-27351610D01*
X65809516Y-27258917D01*
X65857489Y-27208123D01*
X65925310Y-27191328D01*
X65991445Y-27213865D01*
X66030485Y-27258919D01*
X66077715Y-27351614D01*
X66198028Y-27517213D01*
X66342786Y-27661971D01*
X66485941Y-27765977D01*
X66508390Y-27782287D01*
X66607390Y-27832730D01*
X66690776Y-27875218D01*
X66690778Y-27875218D01*
X66690781Y-27875220D01*
X66795137Y-27909127D01*
X66885465Y-27938477D01*
X66986557Y-27954488D01*
X67087648Y-27970500D01*
X67087649Y-27970500D01*
X67292351Y-27970500D01*
X67292352Y-27970500D01*
X67494534Y-27938477D01*
X67689219Y-27875220D01*
X67871610Y-27782287D01*
X68013365Y-27679297D01*
X68037213Y-27661971D01*
X68037215Y-27661968D01*
X68037219Y-27661966D01*
X68181966Y-27517219D01*
X68181968Y-27517215D01*
X68181971Y-27517213D01*
X68302284Y-27351614D01*
X68302286Y-27351611D01*
X68302287Y-27351610D01*
X68349516Y-27258917D01*
X68397489Y-27208123D01*
X68465310Y-27191328D01*
X68531445Y-27213865D01*
X68570485Y-27258919D01*
X68617715Y-27351614D01*
X68738028Y-27517213D01*
X68882786Y-27661971D01*
X69025941Y-27765977D01*
X69048390Y-27782287D01*
X69147390Y-27832730D01*
X69230776Y-27875218D01*
X69230778Y-27875218D01*
X69230781Y-27875220D01*
X69335137Y-27909127D01*
X69425465Y-27938477D01*
X69526557Y-27954488D01*
X69627648Y-27970500D01*
X69627649Y-27970500D01*
X69832351Y-27970500D01*
X69832352Y-27970500D01*
X70034534Y-27938477D01*
X70229219Y-27875220D01*
X70411610Y-27782287D01*
X70553365Y-27679297D01*
X70577213Y-27661971D01*
X70577215Y-27661968D01*
X70577219Y-27661966D01*
X70721966Y-27517219D01*
X70721968Y-27517215D01*
X70721971Y-27517213D01*
X70842284Y-27351614D01*
X70842286Y-27351611D01*
X70842287Y-27351610D01*
X70889516Y-27258917D01*
X70937489Y-27208123D01*
X71005310Y-27191328D01*
X71071445Y-27213865D01*
X71110485Y-27258919D01*
X71157715Y-27351614D01*
X71278028Y-27517213D01*
X71422786Y-27661971D01*
X71565941Y-27765977D01*
X71588390Y-27782287D01*
X71687390Y-27832730D01*
X71770776Y-27875218D01*
X71770778Y-27875218D01*
X71770781Y-27875220D01*
X71875137Y-27909127D01*
X71965465Y-27938477D01*
X72066557Y-27954488D01*
X72167648Y-27970500D01*
X72167649Y-27970500D01*
X72372351Y-27970500D01*
X72372352Y-27970500D01*
X72574534Y-27938477D01*
X72769219Y-27875220D01*
X72951610Y-27782287D01*
X73093365Y-27679297D01*
X73117213Y-27661971D01*
X73117215Y-27661968D01*
X73117219Y-27661966D01*
X73261966Y-27517219D01*
X73261968Y-27517215D01*
X73261971Y-27517213D01*
X73382284Y-27351614D01*
X73382286Y-27351611D01*
X73382287Y-27351610D01*
X73429516Y-27258917D01*
X73477489Y-27208123D01*
X73545310Y-27191328D01*
X73611445Y-27213865D01*
X73650485Y-27258919D01*
X73697715Y-27351614D01*
X73818028Y-27517213D01*
X73962786Y-27661971D01*
X74105941Y-27765977D01*
X74128390Y-27782287D01*
X74227390Y-27832730D01*
X74310776Y-27875218D01*
X74310778Y-27875218D01*
X74310781Y-27875220D01*
X74415137Y-27909127D01*
X74505465Y-27938477D01*
X74606557Y-27954488D01*
X74707648Y-27970500D01*
X74707649Y-27970500D01*
X74912351Y-27970500D01*
X74912352Y-27970500D01*
X75114534Y-27938477D01*
X75309219Y-27875220D01*
X75491610Y-27782287D01*
X75633365Y-27679297D01*
X75657213Y-27661971D01*
X75657215Y-27661968D01*
X75657219Y-27661966D01*
X75801966Y-27517219D01*
X75801968Y-27517215D01*
X75801971Y-27517213D01*
X75922286Y-27351611D01*
X75922415Y-27351359D01*
X75969795Y-27258369D01*
X76017769Y-27207573D01*
X76085590Y-27190778D01*
X76151725Y-27213315D01*
X76190765Y-27258369D01*
X76238141Y-27351350D01*
X76238147Y-27351359D01*
X76270523Y-27395921D01*
X76270524Y-27395922D01*
X76950000Y-26716446D01*
X76950000Y-26722661D01*
X76977259Y-26824394D01*
X77029920Y-26915606D01*
X77104394Y-26990080D01*
X77195606Y-27042741D01*
X77297339Y-27070000D01*
X77303553Y-27070000D01*
X76624076Y-27749474D01*
X76668650Y-27781859D01*
X76850968Y-27874755D01*
X77045582Y-27937990D01*
X77247683Y-27970000D01*
X77452317Y-27970000D01*
X77654417Y-27937990D01*
X77849031Y-27874755D01*
X78031349Y-27781859D01*
X78075921Y-27749474D01*
X77396447Y-27070000D01*
X77402661Y-27070000D01*
X77504394Y-27042741D01*
X77595606Y-26990080D01*
X77670080Y-26915606D01*
X77722741Y-26824394D01*
X77750000Y-26722661D01*
X77750000Y-26716447D01*
X78429474Y-27395921D01*
X78461859Y-27351349D01*
X78554755Y-27169031D01*
X78617990Y-26974417D01*
X78650000Y-26772317D01*
X78650000Y-26567682D01*
X78617990Y-26365582D01*
X78554755Y-26170968D01*
X78461859Y-25988650D01*
X78429474Y-25944077D01*
X78429474Y-25944076D01*
X77750000Y-26623551D01*
X77750000Y-26617339D01*
X77722741Y-26515606D01*
X77670080Y-26424394D01*
X77595606Y-26349920D01*
X77504394Y-26297259D01*
X77402661Y-26270000D01*
X77396446Y-26270000D01*
X78075922Y-25590524D01*
X78075921Y-25590523D01*
X78031359Y-25558147D01*
X78031350Y-25558141D01*
X77849031Y-25465244D01*
X77654417Y-25402009D01*
X77452317Y-25370000D01*
X77247683Y-25370000D01*
X77045582Y-25402009D01*
X76850968Y-25465244D01*
X76668644Y-25558143D01*
X76624077Y-25590523D01*
X76624077Y-25590524D01*
X77303554Y-26270000D01*
X77297339Y-26270000D01*
X77195606Y-26297259D01*
X77104394Y-26349920D01*
X77029920Y-26424394D01*
X76977259Y-26515606D01*
X76950000Y-26617339D01*
X76950000Y-26623553D01*
X76270524Y-25944077D01*
X76270523Y-25944077D01*
X76238143Y-25988644D01*
X76190765Y-26081630D01*
X76142790Y-26132426D01*
X76074969Y-26149221D01*
X76008834Y-26126683D01*
X75969795Y-26081630D01*
X75922284Y-25988385D01*
X75801971Y-25822786D01*
X75657213Y-25678028D01*
X75491613Y-25557715D01*
X75491612Y-25557714D01*
X75491610Y-25557713D01*
X75434653Y-25528691D01*
X75309223Y-25464781D01*
X75114534Y-25401522D01*
X74939995Y-25373878D01*
X74912352Y-25369500D01*
X74707648Y-25369500D01*
X74683329Y-25373351D01*
X74505465Y-25401522D01*
X74310776Y-25464781D01*
X74128386Y-25557715D01*
X73962786Y-25678028D01*
X73818028Y-25822786D01*
X73697715Y-25988386D01*
X73650485Y-26081080D01*
X73602510Y-26131876D01*
X73534689Y-26148671D01*
X73468554Y-26126134D01*
X73429515Y-26081080D01*
X73382419Y-25988650D01*
X73382287Y-25988390D01*
X73350092Y-25944077D01*
X73261971Y-25822786D01*
X73117213Y-25678028D01*
X72951613Y-25557715D01*
X72951612Y-25557714D01*
X72951610Y-25557713D01*
X72894653Y-25528691D01*
X72769223Y-25464781D01*
X72574534Y-25401522D01*
X72399995Y-25373878D01*
X72372352Y-25369500D01*
X72167648Y-25369500D01*
X72143329Y-25373351D01*
X71965465Y-25401522D01*
X71770776Y-25464781D01*
X71588386Y-25557715D01*
X71422786Y-25678028D01*
X71278028Y-25822786D01*
X71157715Y-25988386D01*
X71110485Y-26081080D01*
X71062510Y-26131876D01*
X70994689Y-26148671D01*
X70928554Y-26126134D01*
X70889515Y-26081080D01*
X70842419Y-25988650D01*
X70842287Y-25988390D01*
X70810092Y-25944077D01*
X70721971Y-25822786D01*
X70577213Y-25678028D01*
X70411613Y-25557715D01*
X70411612Y-25557714D01*
X70411610Y-25557713D01*
X70354653Y-25528691D01*
X70229223Y-25464781D01*
X70034534Y-25401522D01*
X69859995Y-25373878D01*
X69832352Y-25369500D01*
X69627648Y-25369500D01*
X69603329Y-25373351D01*
X69425465Y-25401522D01*
X69230776Y-25464781D01*
X69048386Y-25557715D01*
X68882786Y-25678028D01*
X68738028Y-25822786D01*
X68617715Y-25988386D01*
X68570485Y-26081080D01*
X68522510Y-26131876D01*
X68454689Y-26148671D01*
X68388554Y-26126134D01*
X68349515Y-26081080D01*
X68302419Y-25988650D01*
X68302287Y-25988390D01*
X68270092Y-25944077D01*
X68181971Y-25822786D01*
X68037213Y-25678028D01*
X67871613Y-25557715D01*
X67871612Y-25557714D01*
X67871610Y-25557713D01*
X67814653Y-25528691D01*
X67689223Y-25464781D01*
X67494534Y-25401522D01*
X67319995Y-25373878D01*
X67292352Y-25369500D01*
X67087648Y-25369500D01*
X67063329Y-25373351D01*
X66885465Y-25401522D01*
X66690776Y-25464781D01*
X66508386Y-25557715D01*
X66342786Y-25678028D01*
X66198028Y-25822786D01*
X66077715Y-25988386D01*
X66030485Y-26081080D01*
X65982510Y-26131876D01*
X65914689Y-26148671D01*
X65848554Y-26126134D01*
X65809515Y-26081080D01*
X65762419Y-25988650D01*
X65762287Y-25988390D01*
X65730092Y-25944077D01*
X65641971Y-25822786D01*
X65497213Y-25678028D01*
X65331613Y-25557715D01*
X65331612Y-25557714D01*
X65331610Y-25557713D01*
X65274653Y-25528691D01*
X65149223Y-25464781D01*
X64954534Y-25401522D01*
X64779995Y-25373878D01*
X64752352Y-25369500D01*
X64547648Y-25369500D01*
X64523329Y-25373351D01*
X64345465Y-25401522D01*
X64150776Y-25464781D01*
X63968386Y-25557715D01*
X63802786Y-25678028D01*
X63658028Y-25822786D01*
X63537715Y-25988386D01*
X63444781Y-26170776D01*
X63381522Y-26365465D01*
X63349500Y-26567648D01*
X54630499Y-26567648D01*
X54630499Y-26424394D01*
X54630499Y-25799998D01*
X54630498Y-25799981D01*
X54619999Y-25697203D01*
X54619998Y-25697200D01*
X54584649Y-25590524D01*
X54564814Y-25530666D01*
X54472712Y-25381344D01*
X54348656Y-25257288D01*
X54199334Y-25165186D01*
X54199332Y-25165185D01*
X54193440Y-25161551D01*
X54146716Y-25109603D01*
X54135493Y-25040641D01*
X54163337Y-24976558D01*
X54170856Y-24968330D01*
X54309728Y-24829458D01*
X54434620Y-24657557D01*
X54531095Y-24468217D01*
X54596757Y-24266129D01*
X54596757Y-24266126D01*
X54607231Y-24200000D01*
X53563012Y-24200000D01*
X53595925Y-24142993D01*
X53630000Y-24015826D01*
X53630000Y-23884174D01*
X53595925Y-23757007D01*
X53563012Y-23700000D01*
X54607231Y-23700000D01*
X54596757Y-23633873D01*
X54596757Y-23633870D01*
X54531095Y-23431782D01*
X54479639Y-23330795D01*
X54466743Y-23262126D01*
X54493019Y-23197386D01*
X54550125Y-23157128D01*
X54590124Y-23150500D01*
X66453331Y-23150500D01*
X66453347Y-23150501D01*
X66460943Y-23150501D01*
X66619054Y-23150501D01*
X66619057Y-23150501D01*
X66771785Y-23109577D01*
X66821904Y-23080639D01*
X66908716Y-23030520D01*
X67020520Y-22918716D01*
X67020520Y-22918714D01*
X67030728Y-22908507D01*
X67030729Y-22908504D01*
X72740520Y-17198716D01*
X72819577Y-17061784D01*
X72860501Y-16909057D01*
X72860501Y-16750942D01*
X72860501Y-16743347D01*
X72860500Y-16743329D01*
X72860500Y-7584696D01*
X72880185Y-7517657D01*
X72928206Y-7474211D01*
X72951610Y-7462287D01*
X73117219Y-7341966D01*
X73261966Y-7197219D01*
X73261968Y-7197215D01*
X73261971Y-7197213D01*
X73382286Y-7031611D01*
X73382415Y-7031359D01*
X73429795Y-6938369D01*
X73477769Y-6887573D01*
X73545590Y-6870778D01*
X73611725Y-6893315D01*
X73650765Y-6938369D01*
X73698141Y-7031350D01*
X73698147Y-7031359D01*
X73730523Y-7075921D01*
X73730524Y-7075922D01*
X74410000Y-6396446D01*
X74410000Y-6402661D01*
X74437259Y-6504394D01*
X74489920Y-6595606D01*
X74564394Y-6670080D01*
X74655606Y-6722741D01*
X74757339Y-6750000D01*
X74763553Y-6750000D01*
X74084076Y-7429474D01*
X74128650Y-7461859D01*
X74310968Y-7554755D01*
X74505582Y-7617990D01*
X74707683Y-7650000D01*
X74912317Y-7650000D01*
X75114417Y-7617990D01*
X75309031Y-7554755D01*
X75491349Y-7461859D01*
X75535921Y-7429474D01*
X74856447Y-6750000D01*
X74862661Y-6750000D01*
X74964394Y-6722741D01*
X75055606Y-6670080D01*
X75130080Y-6595606D01*
X75182741Y-6504394D01*
X75210000Y-6402661D01*
X75210000Y-6396447D01*
X75889474Y-7075921D01*
X75921861Y-7031347D01*
X75921861Y-7031346D01*
X75969515Y-6937820D01*
X76017489Y-6887024D01*
X76085310Y-6870228D01*
X76151445Y-6892765D01*
X76190485Y-6937819D01*
X76238141Y-7031350D01*
X76238147Y-7031359D01*
X76270523Y-7075921D01*
X76270524Y-7075922D01*
X76950000Y-6396446D01*
X76950000Y-6402661D01*
X76977259Y-6504394D01*
X77029920Y-6595606D01*
X77104394Y-6670080D01*
X77195606Y-6722741D01*
X77297339Y-6750000D01*
X77303553Y-6750000D01*
X76624076Y-7429474D01*
X76668650Y-7461859D01*
X76850968Y-7554755D01*
X77045582Y-7617990D01*
X77247683Y-7650000D01*
X77452317Y-7650000D01*
X77654417Y-7617990D01*
X77849031Y-7554755D01*
X78031349Y-7461859D01*
X78075921Y-7429474D01*
X77396447Y-6750000D01*
X77402661Y-6750000D01*
X77504394Y-6722741D01*
X77595606Y-6670080D01*
X77670080Y-6595606D01*
X77722741Y-6504394D01*
X77750000Y-6402661D01*
X77750000Y-6396447D01*
X78429474Y-7075921D01*
X78461859Y-7031349D01*
X78554755Y-6849031D01*
X78617990Y-6654417D01*
X78650000Y-6452317D01*
X78650000Y-6247682D01*
X78617990Y-6045582D01*
X78554755Y-5850968D01*
X78461859Y-5668650D01*
X78429474Y-5624077D01*
X78429474Y-5624076D01*
X77750000Y-6303551D01*
X77750000Y-6297339D01*
X77722741Y-6195606D01*
X77670080Y-6104394D01*
X77595606Y-6029920D01*
X77504394Y-5977259D01*
X77402661Y-5950000D01*
X77396446Y-5950000D01*
X78075922Y-5270524D01*
X78075921Y-5270523D01*
X78031359Y-5238147D01*
X78031350Y-5238141D01*
X77849031Y-5145244D01*
X77654417Y-5082009D01*
X77452317Y-5050000D01*
X77247683Y-5050000D01*
X77045582Y-5082009D01*
X76850968Y-5145244D01*
X76668644Y-5238143D01*
X76624077Y-5270523D01*
X76624077Y-5270524D01*
X77303554Y-5950000D01*
X77297339Y-5950000D01*
X77195606Y-5977259D01*
X77104394Y-6029920D01*
X77029920Y-6104394D01*
X76977259Y-6195606D01*
X76950000Y-6297339D01*
X76950000Y-6303553D01*
X76270524Y-5624077D01*
X76270523Y-5624077D01*
X76238143Y-5668644D01*
X76190485Y-5762180D01*
X76142510Y-5812976D01*
X76074689Y-5829771D01*
X76008554Y-5807233D01*
X75969515Y-5762180D01*
X75921859Y-5668650D01*
X75889474Y-5624077D01*
X75889474Y-5624076D01*
X75210000Y-6303551D01*
X75210000Y-6297339D01*
X75182741Y-6195606D01*
X75130080Y-6104394D01*
X75055606Y-6029920D01*
X74964394Y-5977259D01*
X74862661Y-5950000D01*
X74856446Y-5950000D01*
X75535922Y-5270524D01*
X75535921Y-5270523D01*
X75491359Y-5238147D01*
X75491350Y-5238141D01*
X75309031Y-5145244D01*
X75114417Y-5082009D01*
X74912317Y-5050000D01*
X74707683Y-5050000D01*
X74505582Y-5082009D01*
X74310968Y-5145244D01*
X74128644Y-5238143D01*
X74084077Y-5270523D01*
X74084077Y-5270524D01*
X74763554Y-5950000D01*
X74757339Y-5950000D01*
X74655606Y-5977259D01*
X74564394Y-6029920D01*
X74489920Y-6104394D01*
X74437259Y-6195606D01*
X74410000Y-6297339D01*
X74410000Y-6303553D01*
X73730524Y-5624077D01*
X73730523Y-5624077D01*
X73698143Y-5668644D01*
X73650765Y-5761630D01*
X73602790Y-5812426D01*
X73534969Y-5829221D01*
X73468834Y-5806683D01*
X73429795Y-5761630D01*
X73382284Y-5668385D01*
X73261971Y-5502786D01*
X73117213Y-5358028D01*
X72951613Y-5237715D01*
X72951612Y-5237714D01*
X72951610Y-5237713D01*
X72894653Y-5208691D01*
X72769223Y-5144781D01*
X72574534Y-5081522D01*
X72399995Y-5053878D01*
X72372352Y-5049500D01*
X72167648Y-5049500D01*
X72143329Y-5053351D01*
X71965465Y-5081522D01*
X71770776Y-5144781D01*
X71588386Y-5237715D01*
X71422786Y-5358028D01*
X71278028Y-5502786D01*
X71157715Y-5668386D01*
X71110485Y-5761080D01*
X71062510Y-5811876D01*
X70994689Y-5828671D01*
X70928554Y-5806134D01*
X70889515Y-5761080D01*
X70842419Y-5668650D01*
X70842287Y-5668390D01*
X70810092Y-5624077D01*
X70721971Y-5502786D01*
X70577213Y-5358028D01*
X70411613Y-5237715D01*
X70411612Y-5237714D01*
X70411610Y-5237713D01*
X70354653Y-5208691D01*
X70229223Y-5144781D01*
X70034534Y-5081522D01*
X69859995Y-5053878D01*
X69832352Y-5049500D01*
X69627648Y-5049500D01*
X69603329Y-5053351D01*
X69425465Y-5081522D01*
X69230776Y-5144781D01*
X69048386Y-5237715D01*
X68882786Y-5358028D01*
X68738028Y-5502786D01*
X68617715Y-5668386D01*
X68570485Y-5761080D01*
X68522510Y-5811876D01*
X68454689Y-5828671D01*
X68388554Y-5806134D01*
X68349515Y-5761080D01*
X68302419Y-5668650D01*
X68302287Y-5668390D01*
X68270092Y-5624077D01*
X68181971Y-5502786D01*
X68037213Y-5358028D01*
X67871613Y-5237715D01*
X67871612Y-5237714D01*
X67871610Y-5237713D01*
X67814653Y-5208691D01*
X67689223Y-5144781D01*
X67494534Y-5081522D01*
X67319995Y-5053878D01*
X67292352Y-5049500D01*
X67087648Y-5049500D01*
X67063329Y-5053351D01*
X66885465Y-5081522D01*
X66690776Y-5144781D01*
X66508386Y-5237715D01*
X66342786Y-5358028D01*
X66198028Y-5502786D01*
X66077715Y-5668386D01*
X66030485Y-5761080D01*
X65982510Y-5811876D01*
X65914689Y-5828671D01*
X65848554Y-5806134D01*
X65809515Y-5761080D01*
X65762419Y-5668650D01*
X65762287Y-5668390D01*
X65730092Y-5624077D01*
X65641971Y-5502786D01*
X65497213Y-5358028D01*
X65331613Y-5237715D01*
X65331612Y-5237714D01*
X65331610Y-5237713D01*
X65274653Y-5208691D01*
X65149223Y-5144781D01*
X64954534Y-5081522D01*
X64779995Y-5053878D01*
X64752352Y-5049500D01*
X64547648Y-5049500D01*
X64523329Y-5053351D01*
X64345465Y-5081522D01*
X64150776Y-5144781D01*
X63968386Y-5237715D01*
X63802786Y-5358028D01*
X63658028Y-5502786D01*
X63537715Y-5668386D01*
X63444781Y-5850776D01*
X63381522Y-6045465D01*
X63349500Y-6247648D01*
X63349500Y-6452351D01*
X63381522Y-6654534D01*
X63444781Y-6849223D01*
X63508691Y-6974653D01*
X63537585Y-7031359D01*
X63537715Y-7031613D01*
X63658028Y-7197213D01*
X63802786Y-7341971D01*
X63923226Y-7429474D01*
X63968390Y-7462287D01*
X64067060Y-7512562D01*
X64150776Y-7555218D01*
X64150778Y-7555218D01*
X64150781Y-7555220D01*
X64225818Y-7579601D01*
X64345465Y-7618477D01*
X64446557Y-7634488D01*
X64547648Y-7650500D01*
X64547649Y-7650500D01*
X64752351Y-7650500D01*
X64752352Y-7650500D01*
X64954534Y-7618477D01*
X65149219Y-7555220D01*
X65331610Y-7462287D01*
X65424590Y-7394732D01*
X65497213Y-7341971D01*
X65497215Y-7341968D01*
X65497219Y-7341966D01*
X65641966Y-7197219D01*
X65641968Y-7197215D01*
X65641971Y-7197213D01*
X65762284Y-7031614D01*
X65762286Y-7031611D01*
X65762287Y-7031610D01*
X65809516Y-6938917D01*
X65857489Y-6888123D01*
X65925310Y-6871328D01*
X65991445Y-6893865D01*
X66030485Y-6938919D01*
X66077715Y-7031614D01*
X66198028Y-7197213D01*
X66198034Y-7197219D01*
X66342781Y-7341966D01*
X66508390Y-7462287D01*
X66521793Y-7469116D01*
X66572589Y-7517088D01*
X66589500Y-7579601D01*
X66589500Y-19109903D01*
X66569815Y-19176942D01*
X66553181Y-19197584D01*
X65497584Y-20253181D01*
X65436261Y-20286666D01*
X65409903Y-20289500D01*
X33046669Y-20289500D01*
X33046653Y-20289499D01*
X33039057Y-20289499D01*
X32880943Y-20289499D01*
X32773587Y-20318265D01*
X32728210Y-20330424D01*
X32728209Y-20330425D01*
X32678096Y-20359359D01*
X32678095Y-20359360D01*
X32634689Y-20384420D01*
X32591285Y-20409479D01*
X32591282Y-20409481D01*
X32479478Y-20521286D01*
X25117022Y-27883741D01*
X25055699Y-27917226D01*
X25000404Y-27916636D01*
X24996344Y-27915661D01*
X24832387Y-27889693D01*
X24799597Y-27884500D01*
X24600403Y-27884500D01*
X24559023Y-27891054D01*
X24403659Y-27915661D01*
X24403656Y-27915661D01*
X24214219Y-27977213D01*
X24036733Y-28067647D01*
X23998286Y-28095581D01*
X23875582Y-28184731D01*
X23875580Y-28184733D01*
X23875579Y-28184733D01*
X23734733Y-28325579D01*
X23734733Y-28325580D01*
X23734731Y-28325582D01*
X23684447Y-28394790D01*
X23617647Y-28486733D01*
X23540485Y-28638172D01*
X23492510Y-28688968D01*
X23424689Y-28705763D01*
X23358554Y-28683225D01*
X23319515Y-28638172D01*
X23265015Y-28531211D01*
X23242353Y-28486734D01*
X23125269Y-28325582D01*
X22984418Y-28184731D01*
X22823266Y-28067647D01*
X22711427Y-28010662D01*
X22645780Y-27977213D01*
X22456342Y-27915661D01*
X22300977Y-27891054D01*
X22259597Y-27884500D01*
X22060403Y-27884500D01*
X22019023Y-27891054D01*
X21863659Y-27915661D01*
X21863656Y-27915661D01*
X21674219Y-27977213D01*
X21496733Y-28067647D01*
X21458286Y-28095581D01*
X21335582Y-28184731D01*
X21335580Y-28184733D01*
X21335579Y-28184733D01*
X21194733Y-28325579D01*
X21194733Y-28325580D01*
X21194731Y-28325582D01*
X21144447Y-28394790D01*
X21077647Y-28486733D01*
X21000485Y-28638172D01*
X20952510Y-28688968D01*
X20884689Y-28705763D01*
X20818554Y-28683225D01*
X20779515Y-28638172D01*
X20725015Y-28531211D01*
X20702353Y-28486734D01*
X20585269Y-28325582D01*
X20444418Y-28184731D01*
X20283266Y-28067647D01*
X20171427Y-28010662D01*
X20105780Y-27977213D01*
X19916342Y-27915661D01*
X19760977Y-27891054D01*
X19719597Y-27884500D01*
X19520403Y-27884500D01*
X19479023Y-27891054D01*
X19323659Y-27915661D01*
X19323656Y-27915661D01*
X19134219Y-27977213D01*
X18956733Y-28067647D01*
X18918286Y-28095581D01*
X18795582Y-28184731D01*
X18795580Y-28184733D01*
X18795579Y-28184733D01*
X18654733Y-28325579D01*
X18654733Y-28325580D01*
X18654731Y-28325582D01*
X18604447Y-28394790D01*
X18537647Y-28486733D01*
X18460485Y-28638172D01*
X18412510Y-28688968D01*
X18344689Y-28705763D01*
X18278554Y-28683225D01*
X18239515Y-28638172D01*
X18185015Y-28531211D01*
X18162353Y-28486734D01*
X18045269Y-28325582D01*
X17904418Y-28184731D01*
X17743266Y-28067647D01*
X17631427Y-28010662D01*
X17565780Y-27977213D01*
X17376342Y-27915661D01*
X17220977Y-27891054D01*
X17179597Y-27884500D01*
X16980403Y-27884500D01*
X16939023Y-27891054D01*
X16783659Y-27915661D01*
X16783656Y-27915661D01*
X16594219Y-27977213D01*
X16416733Y-28067647D01*
X16378286Y-28095581D01*
X16255582Y-28184731D01*
X16255580Y-28184733D01*
X16255579Y-28184733D01*
X16114733Y-28325579D01*
X16114733Y-28325580D01*
X16114731Y-28325582D01*
X16064447Y-28394790D01*
X15997647Y-28486733D01*
X15920485Y-28638172D01*
X15872510Y-28688968D01*
X15804689Y-28705763D01*
X15738554Y-28683225D01*
X15699515Y-28638172D01*
X15645015Y-28531211D01*
X15622353Y-28486734D01*
X15505269Y-28325582D01*
X15364418Y-28184731D01*
X15203266Y-28067647D01*
X15091427Y-28010662D01*
X15025780Y-27977213D01*
X14836342Y-27915661D01*
X14680977Y-27891054D01*
X14639597Y-27884500D01*
X14440403Y-27884500D01*
X14399023Y-27891054D01*
X14243659Y-27915661D01*
X14243656Y-27915661D01*
X14054219Y-27977213D01*
X13876733Y-28067647D01*
X13838286Y-28095581D01*
X13715582Y-28184731D01*
X13715580Y-28184733D01*
X13715579Y-28184733D01*
X13574733Y-28325579D01*
X13574733Y-28325580D01*
X13574731Y-28325582D01*
X13524447Y-28394790D01*
X13457647Y-28486733D01*
X13380485Y-28638172D01*
X13332510Y-28688968D01*
X13264689Y-28705763D01*
X13198554Y-28683225D01*
X13159515Y-28638172D01*
X13105015Y-28531211D01*
X13082353Y-28486734D01*
X12965269Y-28325582D01*
X12824418Y-28184731D01*
X12663266Y-28067647D01*
X12551427Y-28010662D01*
X12485780Y-27977213D01*
X12296342Y-27915661D01*
X12140977Y-27891054D01*
X12099597Y-27884500D01*
X11900403Y-27884500D01*
X11859023Y-27891054D01*
X11703659Y-27915661D01*
X11703656Y-27915661D01*
X11514219Y-27977213D01*
X11336733Y-28067647D01*
X11298286Y-28095581D01*
X11175582Y-28184731D01*
X11175580Y-28184733D01*
X11175579Y-28184733D01*
X11034733Y-28325579D01*
X11034733Y-28325580D01*
X11034731Y-28325582D01*
X10984447Y-28394790D01*
X10917647Y-28486733D01*
X10840485Y-28638172D01*
X10792510Y-28688968D01*
X10724689Y-28705763D01*
X10658554Y-28683225D01*
X10619515Y-28638172D01*
X10565015Y-28531211D01*
X10542353Y-28486734D01*
X10425269Y-28325582D01*
X10284418Y-28184731D01*
X10123266Y-28067647D01*
X10011427Y-28010662D01*
X9945780Y-27977213D01*
X9756342Y-27915661D01*
X9600977Y-27891054D01*
X9559597Y-27884500D01*
X9360403Y-27884500D01*
X9319023Y-27891054D01*
X9163659Y-27915661D01*
X9163656Y-27915661D01*
X8974219Y-27977213D01*
X8796733Y-28067647D01*
X8758286Y-28095581D01*
X8635582Y-28184731D01*
X8635580Y-28184733D01*
X8635579Y-28184733D01*
X8494733Y-28325579D01*
X8494733Y-28325580D01*
X8494731Y-28325582D01*
X8444447Y-28394790D01*
X8377647Y-28486733D01*
X8300485Y-28638172D01*
X8252510Y-28688968D01*
X8184689Y-28705763D01*
X8118554Y-28683225D01*
X8079515Y-28638172D01*
X8025015Y-28531211D01*
X8002353Y-28486734D01*
X7885269Y-28325582D01*
X7744418Y-28184731D01*
X7583266Y-28067647D01*
X7471427Y-28010662D01*
X7405780Y-27977213D01*
X7216342Y-27915661D01*
X7060977Y-27891054D01*
X7019597Y-27884500D01*
X6820403Y-27884500D01*
X6779023Y-27891054D01*
X6623659Y-27915661D01*
X6623656Y-27915661D01*
X6434219Y-27977213D01*
X6256733Y-28067647D01*
X6218286Y-28095581D01*
X6095582Y-28184731D01*
X6095580Y-28184733D01*
X6095579Y-28184733D01*
X5954733Y-28325579D01*
X5954733Y-28325580D01*
X5954731Y-28325582D01*
X5904447Y-28394790D01*
X5837647Y-28486733D01*
X5760485Y-28638172D01*
X5712510Y-28688968D01*
X5644689Y-28705763D01*
X5578554Y-28683225D01*
X5539515Y-28638172D01*
X5485015Y-28531211D01*
X5462353Y-28486734D01*
X5345269Y-28325582D01*
X5204418Y-28184731D01*
X5043266Y-28067647D01*
X4931427Y-28010662D01*
X4865780Y-27977213D01*
X4676342Y-27915661D01*
X4520977Y-27891054D01*
X4479597Y-27884500D01*
X4280403Y-27884500D01*
X4239023Y-27891054D01*
X4083659Y-27915661D01*
X4083656Y-27915661D01*
X3894219Y-27977213D01*
X3716733Y-28067647D01*
X3678286Y-28095581D01*
X3555582Y-28184731D01*
X3555580Y-28184733D01*
X3555579Y-28184733D01*
X3414733Y-28325579D01*
X3414733Y-28325580D01*
X3414731Y-28325582D01*
X3364447Y-28394790D01*
X3297647Y-28486733D01*
X3220485Y-28638172D01*
X3172510Y-28688968D01*
X3104689Y-28705763D01*
X3038554Y-28683225D01*
X2999515Y-28638172D01*
X2945015Y-28531211D01*
X2922353Y-28486734D01*
X2805269Y-28325582D01*
X2664418Y-28184731D01*
X2503266Y-28067647D01*
X2391427Y-28010662D01*
X2325780Y-27977213D01*
X2136342Y-27915661D01*
X1980977Y-27891054D01*
X1939597Y-27884500D01*
X1740403Y-27884500D01*
X1699023Y-27891054D01*
X1543659Y-27915661D01*
X1543656Y-27915661D01*
X1354219Y-27977213D01*
X1176733Y-28067647D01*
X1138286Y-28095581D01*
X1015582Y-28184731D01*
X1015580Y-28184733D01*
X1015579Y-28184733D01*
X874733Y-28325579D01*
X874733Y-28325580D01*
X874731Y-28325582D01*
X816189Y-28406158D01*
X757645Y-28486736D01*
X734984Y-28531211D01*
X687010Y-28582006D01*
X619188Y-28598801D01*
X553054Y-28576263D01*
X509603Y-28521548D01*
X500500Y-28474915D01*
X500500Y-6583713D01*
X51704500Y-6583713D01*
X51704500Y-6796286D01*
X51726916Y-6937819D01*
X51737754Y-7006243D01*
X51799806Y-7197219D01*
X51803444Y-7208414D01*
X51899951Y-7397820D01*
X52024890Y-7569786D01*
X52175209Y-7720105D01*
X52175214Y-7720109D01*
X52339793Y-7839682D01*
X52382459Y-7895011D01*
X52388438Y-7964625D01*
X52355833Y-8026420D01*
X52339793Y-8040318D01*
X52175214Y-8159890D01*
X52175209Y-8159894D01*
X52024890Y-8310213D01*
X51899951Y-8482179D01*
X51803444Y-8671585D01*
X51737753Y-8873760D01*
X51704500Y-9083713D01*
X51704500Y-9296286D01*
X51737753Y-9506239D01*
X51803444Y-9708414D01*
X51899951Y-9897820D01*
X52024890Y-10069786D01*
X52175209Y-10220105D01*
X52175214Y-10220109D01*
X52339793Y-10339682D01*
X52382459Y-10395011D01*
X52388438Y-10464625D01*
X52355833Y-10526420D01*
X52339793Y-10540318D01*
X52175214Y-10659890D01*
X52175209Y-10659894D01*
X52024890Y-10810213D01*
X51899951Y-10982179D01*
X51803444Y-11171585D01*
X51737753Y-11373760D01*
X51704500Y-11583713D01*
X51704500Y-11796286D01*
X51737753Y-12006239D01*
X51803444Y-12208414D01*
X51899951Y-12397820D01*
X52024890Y-12569786D01*
X52175209Y-12720105D01*
X52175214Y-12720109D01*
X52339793Y-12839682D01*
X52382459Y-12895011D01*
X52388438Y-12964625D01*
X52355833Y-13026420D01*
X52339793Y-13040318D01*
X52175214Y-13159890D01*
X52175209Y-13159894D01*
X52024890Y-13310213D01*
X51899951Y-13482179D01*
X51803444Y-13671585D01*
X51737753Y-13873760D01*
X51704500Y-14083713D01*
X51704500Y-14296286D01*
X51737753Y-14506239D01*
X51803444Y-14708414D01*
X51899951Y-14897820D01*
X52024890Y-15069786D01*
X52163705Y-15208601D01*
X52197190Y-15269924D01*
X52192206Y-15339616D01*
X52150334Y-15395549D01*
X52141121Y-15401821D01*
X51986342Y-15497289D01*
X51862289Y-15621342D01*
X51770187Y-15770663D01*
X51770186Y-15770666D01*
X51715001Y-15937203D01*
X51715001Y-15937204D01*
X51715000Y-15937204D01*
X51704500Y-16039983D01*
X51704500Y-17340001D01*
X51704501Y-17340018D01*
X51715000Y-17442796D01*
X51715001Y-17442799D01*
X51770185Y-17609331D01*
X51770186Y-17609334D01*
X51862288Y-17758656D01*
X51986344Y-17882712D01*
X52135666Y-17974814D01*
X52302203Y-18029999D01*
X52404991Y-18040500D01*
X53955008Y-18040499D01*
X54057797Y-18029999D01*
X54224334Y-17974814D01*
X54373656Y-17882712D01*
X54497712Y-17758656D01*
X54589814Y-17609334D01*
X54644999Y-17442797D01*
X54655500Y-17340009D01*
X54655499Y-16039992D01*
X54644999Y-15937203D01*
X54589814Y-15770666D01*
X54497712Y-15621344D01*
X54373656Y-15497288D01*
X54224334Y-15405186D01*
X54224333Y-15405185D01*
X54218878Y-15401821D01*
X54172154Y-15349873D01*
X54160931Y-15280910D01*
X54188775Y-15216828D01*
X54196272Y-15208623D01*
X54335104Y-15069792D01*
X54460051Y-14897816D01*
X54556557Y-14708412D01*
X54622246Y-14506243D01*
X54655500Y-14296287D01*
X54655500Y-14083713D01*
X54622246Y-13873757D01*
X54556557Y-13671588D01*
X54460051Y-13482184D01*
X54460049Y-13482181D01*
X54460048Y-13482179D01*
X54335109Y-13310213D01*
X54184792Y-13159896D01*
X54184784Y-13159890D01*
X54020204Y-13040316D01*
X53977540Y-12984989D01*
X53971561Y-12915376D01*
X54004166Y-12853580D01*
X54020199Y-12839686D01*
X54184792Y-12720104D01*
X54335104Y-12569792D01*
X54335106Y-12569788D01*
X54335109Y-12569786D01*
X54460048Y-12397820D01*
X54460047Y-12397820D01*
X54460051Y-12397816D01*
X54556557Y-12208412D01*
X54622246Y-12006243D01*
X54655500Y-11796287D01*
X54655500Y-11583713D01*
X54622246Y-11373757D01*
X54556557Y-11171588D01*
X54460051Y-10982184D01*
X54460049Y-10982181D01*
X54460048Y-10982179D01*
X54335109Y-10810213D01*
X54184792Y-10659896D01*
X54184784Y-10659890D01*
X54020204Y-10540316D01*
X53977540Y-10484989D01*
X53971561Y-10415376D01*
X54004166Y-10353580D01*
X54020199Y-10339686D01*
X54184792Y-10220104D01*
X54335104Y-10069792D01*
X54335106Y-10069788D01*
X54335109Y-10069786D01*
X54460048Y-9897820D01*
X54460047Y-9897820D01*
X54460051Y-9897816D01*
X54556557Y-9708412D01*
X54622246Y-9506243D01*
X54655500Y-9296287D01*
X54655500Y-9083713D01*
X54622246Y-8873757D01*
X54556557Y-8671588D01*
X54460051Y-8482184D01*
X54460049Y-8482181D01*
X54460048Y-8482179D01*
X54335109Y-8310213D01*
X54184792Y-8159896D01*
X54184784Y-8159890D01*
X54020204Y-8040316D01*
X53977540Y-7984989D01*
X53971561Y-7915376D01*
X54004166Y-7853580D01*
X54020199Y-7839686D01*
X54184792Y-7720104D01*
X54335104Y-7569792D01*
X54335106Y-7569788D01*
X54335109Y-7569786D01*
X54460048Y-7397820D01*
X54460047Y-7397820D01*
X54460051Y-7397816D01*
X54556557Y-7208412D01*
X54622246Y-7006243D01*
X54655500Y-6796287D01*
X54655500Y-6583713D01*
X54622246Y-6373757D01*
X54556557Y-6171588D01*
X54460051Y-5982184D01*
X54460049Y-5982181D01*
X54460048Y-5982179D01*
X54335109Y-5810213D01*
X54184786Y-5659890D01*
X54012820Y-5534951D01*
X53823414Y-5438444D01*
X53823413Y-5438443D01*
X53823412Y-5438443D01*
X53621243Y-5372754D01*
X53621241Y-5372753D01*
X53621240Y-5372753D01*
X53459957Y-5347208D01*
X53411287Y-5339500D01*
X52948713Y-5339500D01*
X52900042Y-5347208D01*
X52738760Y-5372753D01*
X52536585Y-5438444D01*
X52347179Y-5534951D01*
X52175213Y-5659890D01*
X52024890Y-5810213D01*
X51899951Y-5982179D01*
X51803444Y-6171585D01*
X51737753Y-6373760D01*
X51704500Y-6583713D01*
X500500Y-6583713D01*
X500500Y-4425084D01*
X520185Y-4358045D01*
X572989Y-4312290D01*
X642147Y-4302346D01*
X705703Y-4331371D01*
X734984Y-4368788D01*
X757647Y-4413266D01*
X874731Y-4574418D01*
X1015582Y-4715269D01*
X1176734Y-4832353D01*
X1353304Y-4922320D01*
X1354219Y-4922786D01*
X1543657Y-4984338D01*
X1543658Y-4984338D01*
X1543661Y-4984339D01*
X1740403Y-5015500D01*
X1740404Y-5015500D01*
X1939596Y-5015500D01*
X1939597Y-5015500D01*
X2136339Y-4984339D01*
X2136342Y-4984338D01*
X2136343Y-4984338D01*
X2325780Y-4922786D01*
X2325780Y-4922785D01*
X2325783Y-4922785D01*
X2503266Y-4832353D01*
X2664418Y-4715269D01*
X2805269Y-4574418D01*
X2922353Y-4413266D01*
X2999515Y-4261827D01*
X3047490Y-4211031D01*
X3115311Y-4194236D01*
X3181446Y-4216773D01*
X3220485Y-4261827D01*
X3246197Y-4312290D01*
X3297647Y-4413266D01*
X3414731Y-4574418D01*
X3555582Y-4715269D01*
X3716734Y-4832353D01*
X3893304Y-4922320D01*
X3894219Y-4922786D01*
X4083657Y-4984338D01*
X4083658Y-4984338D01*
X4083661Y-4984339D01*
X4280403Y-5015500D01*
X4280404Y-5015500D01*
X4479596Y-5015500D01*
X4479597Y-5015500D01*
X4676339Y-4984339D01*
X4676342Y-4984338D01*
X4676343Y-4984338D01*
X4865780Y-4922786D01*
X4865780Y-4922785D01*
X4865783Y-4922785D01*
X5043266Y-4832353D01*
X5204418Y-4715269D01*
X5345269Y-4574418D01*
X5462353Y-4413266D01*
X5539515Y-4261827D01*
X5587490Y-4211031D01*
X5655311Y-4194236D01*
X5721446Y-4216773D01*
X5760485Y-4261827D01*
X5786197Y-4312290D01*
X5837647Y-4413266D01*
X5954731Y-4574418D01*
X6095582Y-4715269D01*
X6256734Y-4832353D01*
X6433304Y-4922320D01*
X6434219Y-4922786D01*
X6623657Y-4984338D01*
X6623658Y-4984338D01*
X6623661Y-4984339D01*
X6820403Y-5015500D01*
X6820404Y-5015500D01*
X7019596Y-5015500D01*
X7019597Y-5015500D01*
X7216339Y-4984339D01*
X7216342Y-4984338D01*
X7216343Y-4984338D01*
X7405780Y-4922786D01*
X7405780Y-4922785D01*
X7405783Y-4922785D01*
X7583266Y-4832353D01*
X7744418Y-4715269D01*
X7885269Y-4574418D01*
X8002353Y-4413266D01*
X8079515Y-4261827D01*
X8127490Y-4211031D01*
X8195311Y-4194236D01*
X8261446Y-4216773D01*
X8300485Y-4261827D01*
X8326197Y-4312290D01*
X8377647Y-4413266D01*
X8494731Y-4574418D01*
X8635582Y-4715269D01*
X8796734Y-4832353D01*
X8973304Y-4922320D01*
X8974219Y-4922786D01*
X9163657Y-4984338D01*
X9163658Y-4984338D01*
X9163661Y-4984339D01*
X9360403Y-5015500D01*
X9360404Y-5015500D01*
X9559596Y-5015500D01*
X9559597Y-5015500D01*
X9756339Y-4984339D01*
X9756342Y-4984338D01*
X9756343Y-4984338D01*
X9945780Y-4922786D01*
X9945780Y-4922785D01*
X9945783Y-4922785D01*
X10123266Y-4832353D01*
X10284418Y-4715269D01*
X10425269Y-4574418D01*
X10542353Y-4413266D01*
X10619515Y-4261827D01*
X10667490Y-4211031D01*
X10735311Y-4194236D01*
X10801446Y-4216773D01*
X10840485Y-4261827D01*
X10866197Y-4312290D01*
X10917647Y-4413266D01*
X11034731Y-4574418D01*
X11175582Y-4715269D01*
X11336734Y-4832353D01*
X11513304Y-4922320D01*
X11514219Y-4922786D01*
X11703657Y-4984338D01*
X11703658Y-4984338D01*
X11703661Y-4984339D01*
X11900403Y-5015500D01*
X11900404Y-5015500D01*
X12099596Y-5015500D01*
X12099597Y-5015500D01*
X12296339Y-4984339D01*
X12296342Y-4984338D01*
X12296343Y-4984338D01*
X12485780Y-4922786D01*
X12485780Y-4922785D01*
X12485783Y-4922785D01*
X12663266Y-4832353D01*
X12824418Y-4715269D01*
X12965269Y-4574418D01*
X13082353Y-4413266D01*
X13159795Y-4261276D01*
X13207769Y-4210481D01*
X13275590Y-4193686D01*
X13341725Y-4216223D01*
X13380765Y-4261277D01*
X13458077Y-4413008D01*
X13485580Y-4450863D01*
X13485581Y-4450864D01*
X14048871Y-3887574D01*
X14064755Y-3946853D01*
X14131898Y-4063147D01*
X14226853Y-4158102D01*
X14343147Y-4225245D01*
X14402425Y-4241128D01*
X13839134Y-4804417D01*
X13876994Y-4831924D01*
X14054405Y-4922320D01*
X14243777Y-4983852D01*
X14440437Y-5015000D01*
X14639563Y-5015000D01*
X14836222Y-4983852D01*
X15025594Y-4922320D01*
X15203005Y-4831924D01*
X15240863Y-4804418D01*
X15240863Y-4804417D01*
X14677574Y-4241128D01*
X14736853Y-4225245D01*
X14853147Y-4158102D01*
X14948102Y-4063147D01*
X15015245Y-3946853D01*
X15031128Y-3887574D01*
X15594417Y-4450863D01*
X15594418Y-4450863D01*
X15621924Y-4413005D01*
X15699234Y-4261277D01*
X15747208Y-4210481D01*
X15815029Y-4193686D01*
X15881164Y-4216223D01*
X15920204Y-4261277D01*
X15974985Y-4368789D01*
X15997647Y-4413266D01*
X16114731Y-4574418D01*
X16255582Y-4715269D01*
X16416734Y-4832353D01*
X16593304Y-4922320D01*
X16594219Y-4922786D01*
X16783657Y-4984338D01*
X16783658Y-4984338D01*
X16783661Y-4984339D01*
X16980403Y-5015500D01*
X16980404Y-5015500D01*
X17179596Y-5015500D01*
X17179597Y-5015500D01*
X17376339Y-4984339D01*
X17376342Y-4984338D01*
X17376343Y-4984338D01*
X17565780Y-4922786D01*
X17565780Y-4922785D01*
X17565783Y-4922785D01*
X17743266Y-4832353D01*
X17904418Y-4715269D01*
X18045269Y-4574418D01*
X18162353Y-4413266D01*
X18239515Y-4261827D01*
X18287490Y-4211031D01*
X18355311Y-4194236D01*
X18421446Y-4216773D01*
X18460485Y-4261827D01*
X18486197Y-4312290D01*
X18537647Y-4413266D01*
X18654731Y-4574418D01*
X18795582Y-4715269D01*
X18956734Y-4832353D01*
X19133304Y-4922320D01*
X19134219Y-4922786D01*
X19323657Y-4984338D01*
X19323658Y-4984338D01*
X19323661Y-4984339D01*
X19520403Y-5015500D01*
X19520404Y-5015500D01*
X19719596Y-5015500D01*
X19719597Y-5015500D01*
X19916339Y-4984339D01*
X19916342Y-4984338D01*
X19916343Y-4984338D01*
X20105780Y-4922786D01*
X20105780Y-4922785D01*
X20105783Y-4922785D01*
X20283266Y-4832353D01*
X20444418Y-4715269D01*
X20585269Y-4574418D01*
X20702353Y-4413266D01*
X20779515Y-4261827D01*
X20827490Y-4211031D01*
X20895311Y-4194236D01*
X20961446Y-4216773D01*
X21000485Y-4261827D01*
X21026197Y-4312290D01*
X21077647Y-4413266D01*
X21194731Y-4574418D01*
X21335582Y-4715269D01*
X21496734Y-4832353D01*
X21673304Y-4922320D01*
X21674219Y-4922786D01*
X21863657Y-4984338D01*
X21863658Y-4984338D01*
X21863661Y-4984339D01*
X22060403Y-5015500D01*
X22060404Y-5015500D01*
X22259596Y-5015500D01*
X22259597Y-5015500D01*
X22456339Y-4984339D01*
X22456342Y-4984338D01*
X22456343Y-4984338D01*
X22645780Y-4922786D01*
X22645780Y-4922785D01*
X22645783Y-4922785D01*
X22823266Y-4832353D01*
X22984418Y-4715269D01*
X23125269Y-4574418D01*
X23242353Y-4413266D01*
X23319515Y-4261827D01*
X23367490Y-4211031D01*
X23435311Y-4194236D01*
X23501446Y-4216773D01*
X23540485Y-4261827D01*
X23566197Y-4312290D01*
X23617647Y-4413266D01*
X23734731Y-4574418D01*
X23875582Y-4715269D01*
X24036734Y-4832353D01*
X24213304Y-4922320D01*
X24214219Y-4922786D01*
X24403657Y-4984338D01*
X24403658Y-4984338D01*
X24403661Y-4984339D01*
X24600403Y-5015500D01*
X24600404Y-5015500D01*
X24799596Y-5015500D01*
X24799597Y-5015500D01*
X24996339Y-4984339D01*
X24996342Y-4984338D01*
X24996343Y-4984338D01*
X25185780Y-4922786D01*
X25185780Y-4922785D01*
X25185783Y-4922785D01*
X25363266Y-4832353D01*
X25524418Y-4715269D01*
X25665269Y-4574418D01*
X25782353Y-4413266D01*
X25859515Y-4261827D01*
X25907490Y-4211031D01*
X25975311Y-4194236D01*
X26041446Y-4216773D01*
X26080485Y-4261827D01*
X26106197Y-4312290D01*
X26157647Y-4413266D01*
X26274731Y-4574418D01*
X26415582Y-4715269D01*
X26576734Y-4832353D01*
X26753304Y-4922320D01*
X26754219Y-4922786D01*
X26943657Y-4984338D01*
X26943658Y-4984338D01*
X26943661Y-4984339D01*
X27140403Y-5015500D01*
X27140404Y-5015500D01*
X27339596Y-5015500D01*
X27339597Y-5015500D01*
X27536339Y-4984339D01*
X27536342Y-4984338D01*
X27536343Y-4984338D01*
X27725780Y-4922786D01*
X27725780Y-4922785D01*
X27725783Y-4922785D01*
X27903266Y-4832353D01*
X28064418Y-4715269D01*
X28205269Y-4574418D01*
X28322353Y-4413266D01*
X28399515Y-4261827D01*
X28447490Y-4211031D01*
X28515311Y-4194236D01*
X28581446Y-4216773D01*
X28620485Y-4261827D01*
X28646197Y-4312290D01*
X28697647Y-4413266D01*
X28814731Y-4574418D01*
X28955582Y-4715269D01*
X29116734Y-4832353D01*
X29293304Y-4922320D01*
X29294219Y-4922786D01*
X29483657Y-4984338D01*
X29483658Y-4984338D01*
X29483661Y-4984339D01*
X29680403Y-5015500D01*
X29680404Y-5015500D01*
X29879596Y-5015500D01*
X29879597Y-5015500D01*
X30076339Y-4984339D01*
X30076342Y-4984338D01*
X30076343Y-4984338D01*
X30265780Y-4922786D01*
X30265780Y-4922785D01*
X30265783Y-4922785D01*
X30443266Y-4832353D01*
X30604418Y-4715269D01*
X30745269Y-4574418D01*
X30862353Y-4413266D01*
X30939515Y-4261827D01*
X30987490Y-4211031D01*
X31055311Y-4194236D01*
X31121446Y-4216773D01*
X31160485Y-4261827D01*
X31186197Y-4312290D01*
X31237647Y-4413266D01*
X31354731Y-4574418D01*
X31495582Y-4715269D01*
X31656734Y-4832353D01*
X31833304Y-4922320D01*
X31834219Y-4922786D01*
X32023657Y-4984338D01*
X32023658Y-4984338D01*
X32023661Y-4984339D01*
X32220403Y-5015500D01*
X32220404Y-5015500D01*
X32419596Y-5015500D01*
X32419597Y-5015500D01*
X32616339Y-4984339D01*
X32616342Y-4984338D01*
X32616343Y-4984338D01*
X32805780Y-4922786D01*
X32805780Y-4922785D01*
X32805783Y-4922785D01*
X32983266Y-4832353D01*
X33144418Y-4715269D01*
X33285269Y-4574418D01*
X33402353Y-4413266D01*
X33479515Y-4261827D01*
X33527490Y-4211031D01*
X33595311Y-4194236D01*
X33661446Y-4216773D01*
X33700485Y-4261827D01*
X33726197Y-4312290D01*
X33777647Y-4413266D01*
X33894731Y-4574418D01*
X34035582Y-4715269D01*
X34196734Y-4832353D01*
X34373304Y-4922320D01*
X34374219Y-4922786D01*
X34563657Y-4984338D01*
X34563658Y-4984338D01*
X34563661Y-4984339D01*
X34760403Y-5015500D01*
X34760404Y-5015500D01*
X34959596Y-5015500D01*
X34959597Y-5015500D01*
X35156339Y-4984339D01*
X35156342Y-4984338D01*
X35156343Y-4984338D01*
X35345780Y-4922786D01*
X35345780Y-4922785D01*
X35345783Y-4922785D01*
X35523266Y-4832353D01*
X35684418Y-4715269D01*
X35825269Y-4574418D01*
X35942353Y-4413266D01*
X36019515Y-4261827D01*
X36067490Y-4211031D01*
X36135311Y-4194236D01*
X36201446Y-4216773D01*
X36240485Y-4261827D01*
X36266197Y-4312290D01*
X36317647Y-4413266D01*
X36434731Y-4574418D01*
X36575582Y-4715269D01*
X36736734Y-4832353D01*
X36913304Y-4922320D01*
X36914219Y-4922786D01*
X37103657Y-4984338D01*
X37103658Y-4984338D01*
X37103661Y-4984339D01*
X37300403Y-5015500D01*
X37300404Y-5015500D01*
X37499596Y-5015500D01*
X37499597Y-5015500D01*
X37696339Y-4984339D01*
X37696342Y-4984338D01*
X37696343Y-4984338D01*
X37885780Y-4922786D01*
X37885780Y-4922785D01*
X37885783Y-4922785D01*
X38063266Y-4832353D01*
X38224418Y-4715269D01*
X38365269Y-4574418D01*
X38482353Y-4413266D01*
X38559515Y-4261827D01*
X38607490Y-4211031D01*
X38675311Y-4194236D01*
X38741446Y-4216773D01*
X38780485Y-4261827D01*
X38806197Y-4312290D01*
X38857647Y-4413266D01*
X38974731Y-4574418D01*
X39115582Y-4715269D01*
X39276734Y-4832353D01*
X39453304Y-4922320D01*
X39454219Y-4922786D01*
X39643657Y-4984338D01*
X39643658Y-4984338D01*
X39643661Y-4984339D01*
X39840403Y-5015500D01*
X39840404Y-5015500D01*
X40039596Y-5015500D01*
X40039597Y-5015500D01*
X40236339Y-4984339D01*
X40236342Y-4984338D01*
X40236343Y-4984338D01*
X40425780Y-4922786D01*
X40425780Y-4922785D01*
X40425783Y-4922785D01*
X40603266Y-4832353D01*
X40764418Y-4715269D01*
X40905269Y-4574418D01*
X41022353Y-4413266D01*
X41099515Y-4261827D01*
X41147490Y-4211031D01*
X41215311Y-4194236D01*
X41281446Y-4216773D01*
X41320485Y-4261827D01*
X41346197Y-4312290D01*
X41397647Y-4413266D01*
X41514731Y-4574418D01*
X41655582Y-4715269D01*
X41816734Y-4832353D01*
X41993304Y-4922320D01*
X41994219Y-4922786D01*
X42183657Y-4984338D01*
X42183658Y-4984338D01*
X42183661Y-4984339D01*
X42380403Y-5015500D01*
X42380404Y-5015500D01*
X42579596Y-5015500D01*
X42579597Y-5015500D01*
X42776339Y-4984339D01*
X42776342Y-4984338D01*
X42776343Y-4984338D01*
X42965780Y-4922786D01*
X42965780Y-4922785D01*
X42965783Y-4922785D01*
X43143266Y-4832353D01*
X43304418Y-4715269D01*
X43445269Y-4574418D01*
X43562353Y-4413266D01*
X43639515Y-4261827D01*
X43687490Y-4211031D01*
X43755311Y-4194236D01*
X43821446Y-4216773D01*
X43860485Y-4261827D01*
X43886197Y-4312290D01*
X43937647Y-4413266D01*
X44054731Y-4574418D01*
X44195582Y-4715269D01*
X44356734Y-4832353D01*
X44533304Y-4922320D01*
X44534219Y-4922786D01*
X44723657Y-4984338D01*
X44723658Y-4984338D01*
X44723661Y-4984339D01*
X44920403Y-5015500D01*
X44920404Y-5015500D01*
X45119596Y-5015500D01*
X45119597Y-5015500D01*
X45316339Y-4984339D01*
X45316342Y-4984338D01*
X45316343Y-4984338D01*
X45505780Y-4922786D01*
X45505780Y-4922785D01*
X45505783Y-4922785D01*
X45683266Y-4832353D01*
X45844418Y-4715269D01*
X45985269Y-4574418D01*
X46070184Y-4457542D01*
X46125511Y-4414878D01*
X46195125Y-4408899D01*
X46256920Y-4441504D01*
X46291277Y-4502343D01*
X46294500Y-4530426D01*
X46294500Y-4562868D01*
X46294501Y-4562876D01*
X46300908Y-4622483D01*
X46351202Y-4757328D01*
X46351206Y-4757335D01*
X46437452Y-4872544D01*
X46437455Y-4872547D01*
X46552664Y-4958793D01*
X46552671Y-4958797D01*
X46687517Y-5009091D01*
X46687516Y-5009091D01*
X46694444Y-5009835D01*
X46747127Y-5015500D01*
X48372872Y-5015499D01*
X48432483Y-5009091D01*
X48567331Y-4958796D01*
X48682546Y-4872546D01*
X48768796Y-4757331D01*
X48819091Y-4622483D01*
X48825500Y-4562873D01*
X48825499Y-2937128D01*
X48819091Y-2877517D01*
X48768796Y-2742669D01*
X48768795Y-2742668D01*
X48768793Y-2742664D01*
X48682547Y-2627455D01*
X48682544Y-2627452D01*
X48567335Y-2541206D01*
X48567328Y-2541202D01*
X48432482Y-2490908D01*
X48432483Y-2490908D01*
X48372883Y-2484501D01*
X48372881Y-2484500D01*
X48372873Y-2484500D01*
X48372864Y-2484500D01*
X46747129Y-2484500D01*
X46747123Y-2484501D01*
X46687516Y-2490908D01*
X46552671Y-2541202D01*
X46552664Y-2541206D01*
X46437455Y-2627452D01*
X46437452Y-2627455D01*
X46351206Y-2742664D01*
X46351202Y-2742671D01*
X46300908Y-2877517D01*
X46295741Y-2925580D01*
X46294501Y-2937123D01*
X46294500Y-2937135D01*
X46294500Y-2969568D01*
X46274815Y-3036607D01*
X46222011Y-3082362D01*
X46152853Y-3092306D01*
X46089297Y-3063281D01*
X46070182Y-3042454D01*
X46017227Y-2969568D01*
X45985269Y-2925582D01*
X45844418Y-2784731D01*
X45683266Y-2667647D01*
X45604379Y-2627452D01*
X45505780Y-2577213D01*
X45316342Y-2515661D01*
X45168782Y-2492290D01*
X45119597Y-2484500D01*
X44920403Y-2484500D01*
X44854822Y-2494887D01*
X44723659Y-2515661D01*
X44723656Y-2515661D01*
X44534219Y-2577213D01*
X44356733Y-2667647D01*
X44318286Y-2695581D01*
X44195582Y-2784731D01*
X44195580Y-2784733D01*
X44195579Y-2784733D01*
X44054733Y-2925579D01*
X44054733Y-2925580D01*
X44054731Y-2925582D01*
X44022773Y-2969568D01*
X43937647Y-3086733D01*
X43860485Y-3238172D01*
X43812510Y-3288968D01*
X43744689Y-3305763D01*
X43678554Y-3283225D01*
X43639515Y-3238172D01*
X43585015Y-3131211D01*
X43562353Y-3086734D01*
X43445269Y-2925582D01*
X43304418Y-2784731D01*
X43143266Y-2667647D01*
X43064379Y-2627452D01*
X42965780Y-2577213D01*
X42776342Y-2515661D01*
X42628782Y-2492290D01*
X42579597Y-2484500D01*
X42380403Y-2484500D01*
X42314822Y-2494887D01*
X42183659Y-2515661D01*
X42183656Y-2515661D01*
X41994219Y-2577213D01*
X41816733Y-2667647D01*
X41778286Y-2695581D01*
X41655582Y-2784731D01*
X41655580Y-2784733D01*
X41655579Y-2784733D01*
X41514733Y-2925579D01*
X41514733Y-2925580D01*
X41514731Y-2925582D01*
X41482773Y-2969568D01*
X41397647Y-3086733D01*
X41320485Y-3238172D01*
X41272510Y-3288968D01*
X41204689Y-3305763D01*
X41138554Y-3283225D01*
X41099515Y-3238172D01*
X41045015Y-3131211D01*
X41022353Y-3086734D01*
X40905269Y-2925582D01*
X40764418Y-2784731D01*
X40603266Y-2667647D01*
X40524379Y-2627452D01*
X40425780Y-2577213D01*
X40236342Y-2515661D01*
X40088782Y-2492290D01*
X40039597Y-2484500D01*
X39840403Y-2484500D01*
X39774822Y-2494887D01*
X39643659Y-2515661D01*
X39643656Y-2515661D01*
X39454219Y-2577213D01*
X39276733Y-2667647D01*
X39238286Y-2695581D01*
X39115582Y-2784731D01*
X39115580Y-2784733D01*
X39115579Y-2784733D01*
X38974733Y-2925579D01*
X38974733Y-2925580D01*
X38974731Y-2925582D01*
X38942773Y-2969568D01*
X38857647Y-3086733D01*
X38780485Y-3238172D01*
X38732510Y-3288968D01*
X38664689Y-3305763D01*
X38598554Y-3283225D01*
X38559515Y-3238172D01*
X38505015Y-3131211D01*
X38482353Y-3086734D01*
X38365269Y-2925582D01*
X38224418Y-2784731D01*
X38063266Y-2667647D01*
X37984379Y-2627452D01*
X37885780Y-2577213D01*
X37696342Y-2515661D01*
X37548782Y-2492290D01*
X37499597Y-2484500D01*
X37300403Y-2484500D01*
X37234822Y-2494887D01*
X37103659Y-2515661D01*
X37103656Y-2515661D01*
X36914219Y-2577213D01*
X36736733Y-2667647D01*
X36698286Y-2695581D01*
X36575582Y-2784731D01*
X36575580Y-2784733D01*
X36575579Y-2784733D01*
X36434733Y-2925579D01*
X36434733Y-2925580D01*
X36434731Y-2925582D01*
X36402773Y-2969568D01*
X36317647Y-3086733D01*
X36240485Y-3238172D01*
X36192510Y-3288968D01*
X36124689Y-3305763D01*
X36058554Y-3283225D01*
X36019515Y-3238172D01*
X35965015Y-3131211D01*
X35942353Y-3086734D01*
X35825269Y-2925582D01*
X35684418Y-2784731D01*
X35523266Y-2667647D01*
X35444379Y-2627452D01*
X35345780Y-2577213D01*
X35156342Y-2515661D01*
X35008782Y-2492290D01*
X34959597Y-2484500D01*
X34760403Y-2484500D01*
X34694822Y-2494887D01*
X34563659Y-2515661D01*
X34563656Y-2515661D01*
X34374219Y-2577213D01*
X34196733Y-2667647D01*
X34158286Y-2695581D01*
X34035582Y-2784731D01*
X34035580Y-2784733D01*
X34035579Y-2784733D01*
X33894733Y-2925579D01*
X33894733Y-2925580D01*
X33894731Y-2925582D01*
X33862773Y-2969568D01*
X33777647Y-3086733D01*
X33700485Y-3238172D01*
X33652510Y-3288968D01*
X33584689Y-3305763D01*
X33518554Y-3283225D01*
X33479515Y-3238172D01*
X33425015Y-3131211D01*
X33402353Y-3086734D01*
X33285269Y-2925582D01*
X33144418Y-2784731D01*
X32983266Y-2667647D01*
X32904379Y-2627452D01*
X32805780Y-2577213D01*
X32616342Y-2515661D01*
X32468782Y-2492290D01*
X32419597Y-2484500D01*
X32220403Y-2484500D01*
X32154822Y-2494887D01*
X32023659Y-2515661D01*
X32023656Y-2515661D01*
X31834219Y-2577213D01*
X31656733Y-2667647D01*
X31618286Y-2695581D01*
X31495582Y-2784731D01*
X31495580Y-2784733D01*
X31495579Y-2784733D01*
X31354733Y-2925579D01*
X31354733Y-2925580D01*
X31354731Y-2925582D01*
X31322773Y-2969568D01*
X31237647Y-3086733D01*
X31160485Y-3238172D01*
X31112510Y-3288968D01*
X31044689Y-3305763D01*
X30978554Y-3283225D01*
X30939515Y-3238172D01*
X30885015Y-3131211D01*
X30862353Y-3086734D01*
X30745269Y-2925582D01*
X30604418Y-2784731D01*
X30443266Y-2667647D01*
X30364379Y-2627452D01*
X30265780Y-2577213D01*
X30076342Y-2515661D01*
X29928782Y-2492290D01*
X29879597Y-2484500D01*
X29680403Y-2484500D01*
X29614822Y-2494887D01*
X29483659Y-2515661D01*
X29483656Y-2515661D01*
X29294219Y-2577213D01*
X29116733Y-2667647D01*
X29078286Y-2695581D01*
X28955582Y-2784731D01*
X28955580Y-2784733D01*
X28955579Y-2784733D01*
X28814733Y-2925579D01*
X28814733Y-2925580D01*
X28814731Y-2925582D01*
X28782773Y-2969568D01*
X28697647Y-3086733D01*
X28620485Y-3238172D01*
X28572510Y-3288968D01*
X28504689Y-3305763D01*
X28438554Y-3283225D01*
X28399515Y-3238172D01*
X28345015Y-3131211D01*
X28322353Y-3086734D01*
X28205269Y-2925582D01*
X28064418Y-2784731D01*
X27903266Y-2667647D01*
X27824379Y-2627452D01*
X27725780Y-2577213D01*
X27536342Y-2515661D01*
X27388782Y-2492290D01*
X27339597Y-2484500D01*
X27140403Y-2484500D01*
X27074822Y-2494887D01*
X26943659Y-2515661D01*
X26943656Y-2515661D01*
X26754219Y-2577213D01*
X26576733Y-2667647D01*
X26538286Y-2695581D01*
X26415582Y-2784731D01*
X26415580Y-2784733D01*
X26415579Y-2784733D01*
X26274733Y-2925579D01*
X26274733Y-2925580D01*
X26274731Y-2925582D01*
X26242773Y-2969568D01*
X26157647Y-3086733D01*
X26080485Y-3238172D01*
X26032510Y-3288968D01*
X25964689Y-3305763D01*
X25898554Y-3283225D01*
X25859515Y-3238172D01*
X25805015Y-3131211D01*
X25782353Y-3086734D01*
X25665269Y-2925582D01*
X25524418Y-2784731D01*
X25363266Y-2667647D01*
X25284379Y-2627452D01*
X25185780Y-2577213D01*
X24996342Y-2515661D01*
X24848782Y-2492290D01*
X24799597Y-2484500D01*
X24600403Y-2484500D01*
X24534822Y-2494887D01*
X24403659Y-2515661D01*
X24403656Y-2515661D01*
X24214219Y-2577213D01*
X24036733Y-2667647D01*
X23998286Y-2695581D01*
X23875582Y-2784731D01*
X23875580Y-2784733D01*
X23875579Y-2784733D01*
X23734733Y-2925579D01*
X23734733Y-2925580D01*
X23734731Y-2925582D01*
X23702773Y-2969568D01*
X23617647Y-3086733D01*
X23540485Y-3238172D01*
X23492510Y-3288968D01*
X23424689Y-3305763D01*
X23358554Y-3283225D01*
X23319515Y-3238172D01*
X23265015Y-3131211D01*
X23242353Y-3086734D01*
X23125269Y-2925582D01*
X22984418Y-2784731D01*
X22823266Y-2667647D01*
X22744379Y-2627452D01*
X22645780Y-2577213D01*
X22456342Y-2515661D01*
X22308782Y-2492290D01*
X22259597Y-2484500D01*
X22060403Y-2484500D01*
X21994822Y-2494887D01*
X21863659Y-2515661D01*
X21863656Y-2515661D01*
X21674219Y-2577213D01*
X21496733Y-2667647D01*
X21458286Y-2695581D01*
X21335582Y-2784731D01*
X21335580Y-2784733D01*
X21335579Y-2784733D01*
X21194733Y-2925579D01*
X21194733Y-2925580D01*
X21194731Y-2925582D01*
X21162773Y-2969568D01*
X21077647Y-3086733D01*
X21000485Y-3238172D01*
X20952510Y-3288968D01*
X20884689Y-3305763D01*
X20818554Y-3283225D01*
X20779515Y-3238172D01*
X20725015Y-3131211D01*
X20702353Y-3086734D01*
X20585269Y-2925582D01*
X20444418Y-2784731D01*
X20283266Y-2667647D01*
X20204379Y-2627452D01*
X20105780Y-2577213D01*
X19916342Y-2515661D01*
X19768782Y-2492290D01*
X19719597Y-2484500D01*
X19520403Y-2484500D01*
X19454822Y-2494887D01*
X19323659Y-2515661D01*
X19323656Y-2515661D01*
X19134219Y-2577213D01*
X18956733Y-2667647D01*
X18918286Y-2695581D01*
X18795582Y-2784731D01*
X18795580Y-2784733D01*
X18795579Y-2784733D01*
X18654733Y-2925579D01*
X18654733Y-2925580D01*
X18654731Y-2925582D01*
X18622773Y-2969568D01*
X18537647Y-3086733D01*
X18460485Y-3238172D01*
X18412510Y-3288968D01*
X18344689Y-3305763D01*
X18278554Y-3283225D01*
X18239515Y-3238172D01*
X18185015Y-3131211D01*
X18162353Y-3086734D01*
X18045269Y-2925582D01*
X17904418Y-2784731D01*
X17743266Y-2667647D01*
X17664379Y-2627452D01*
X17565780Y-2577213D01*
X17376342Y-2515661D01*
X17228782Y-2492290D01*
X17179597Y-2484500D01*
X16980403Y-2484500D01*
X16914822Y-2494887D01*
X16783659Y-2515661D01*
X16783656Y-2515661D01*
X16594219Y-2577213D01*
X16416733Y-2667647D01*
X16378286Y-2695581D01*
X16255582Y-2784731D01*
X16255580Y-2784733D01*
X16255579Y-2784733D01*
X16114733Y-2925579D01*
X16114733Y-2925580D01*
X16114731Y-2925582D01*
X16082773Y-2969568D01*
X15997645Y-3086735D01*
X15920203Y-3238723D01*
X15872229Y-3289518D01*
X15804408Y-3306313D01*
X15738273Y-3283775D01*
X15699234Y-3238722D01*
X15621924Y-3086994D01*
X15594417Y-3049135D01*
X15594417Y-3049134D01*
X15031128Y-3612424D01*
X15015245Y-3553147D01*
X14948102Y-3436853D01*
X14853147Y-3341898D01*
X14736853Y-3274755D01*
X14677574Y-3258871D01*
X15240864Y-2695581D01*
X15240863Y-2695580D01*
X15203008Y-2668077D01*
X15025594Y-2577679D01*
X14836222Y-2516147D01*
X14639563Y-2485000D01*
X14440437Y-2485000D01*
X14243777Y-2516147D01*
X14054405Y-2577679D01*
X13876990Y-2668077D01*
X13839135Y-2695580D01*
X13839135Y-2695581D01*
X14402425Y-3258871D01*
X14343147Y-3274755D01*
X14226853Y-3341898D01*
X14131898Y-3436853D01*
X14064755Y-3553147D01*
X14048871Y-3612425D01*
X13485581Y-3049135D01*
X13485580Y-3049135D01*
X13458075Y-3086993D01*
X13380764Y-3238723D01*
X13332790Y-3289518D01*
X13264969Y-3306313D01*
X13198834Y-3283775D01*
X13159795Y-3238722D01*
X13105015Y-3131211D01*
X13082353Y-3086734D01*
X12965269Y-2925582D01*
X12824418Y-2784731D01*
X12663266Y-2667647D01*
X12584379Y-2627452D01*
X12485780Y-2577213D01*
X12296342Y-2515661D01*
X12148782Y-2492290D01*
X12099597Y-2484500D01*
X11900403Y-2484500D01*
X11834822Y-2494887D01*
X11703659Y-2515661D01*
X11703656Y-2515661D01*
X11514219Y-2577213D01*
X11336733Y-2667647D01*
X11298286Y-2695581D01*
X11175582Y-2784731D01*
X11175580Y-2784733D01*
X11175579Y-2784733D01*
X11034733Y-2925579D01*
X11034733Y-2925580D01*
X11034731Y-2925582D01*
X11002773Y-2969568D01*
X10917647Y-3086733D01*
X10840485Y-3238172D01*
X10792510Y-3288968D01*
X10724689Y-3305763D01*
X10658554Y-3283225D01*
X10619515Y-3238172D01*
X10565015Y-3131211D01*
X10542353Y-3086734D01*
X10425269Y-2925582D01*
X10284418Y-2784731D01*
X10123266Y-2667647D01*
X10044379Y-2627452D01*
X9945780Y-2577213D01*
X9756342Y-2515661D01*
X9608782Y-2492290D01*
X9559597Y-2484500D01*
X9360403Y-2484500D01*
X9294822Y-2494887D01*
X9163659Y-2515661D01*
X9163656Y-2515661D01*
X8974219Y-2577213D01*
X8796733Y-2667647D01*
X8758286Y-2695581D01*
X8635582Y-2784731D01*
X8635580Y-2784733D01*
X8635579Y-2784733D01*
X8494733Y-2925579D01*
X8494733Y-2925580D01*
X8494731Y-2925582D01*
X8462773Y-2969568D01*
X8377647Y-3086733D01*
X8300485Y-3238172D01*
X8252510Y-3288968D01*
X8184689Y-3305763D01*
X8118554Y-3283225D01*
X8079515Y-3238172D01*
X8025015Y-3131211D01*
X8002353Y-3086734D01*
X7885269Y-2925582D01*
X7744418Y-2784731D01*
X7583266Y-2667647D01*
X7504379Y-2627452D01*
X7405780Y-2577213D01*
X7216342Y-2515661D01*
X7068782Y-2492290D01*
X7019597Y-2484500D01*
X6820403Y-2484500D01*
X6754822Y-2494887D01*
X6623659Y-2515661D01*
X6623656Y-2515661D01*
X6434219Y-2577213D01*
X6256733Y-2667647D01*
X6218286Y-2695581D01*
X6095582Y-2784731D01*
X6095580Y-2784733D01*
X6095579Y-2784733D01*
X5954733Y-2925579D01*
X5954733Y-2925580D01*
X5954731Y-2925582D01*
X5922773Y-2969568D01*
X5837647Y-3086733D01*
X5760485Y-3238172D01*
X5712510Y-3288968D01*
X5644689Y-3305763D01*
X5578554Y-3283225D01*
X5539515Y-3238172D01*
X5485015Y-3131211D01*
X5462353Y-3086734D01*
X5345269Y-2925582D01*
X5204418Y-2784731D01*
X5043266Y-2667647D01*
X4964379Y-2627452D01*
X4865780Y-2577213D01*
X4676342Y-2515661D01*
X4528782Y-2492290D01*
X4479597Y-2484500D01*
X4280403Y-2484500D01*
X4214822Y-2494887D01*
X4083659Y-2515661D01*
X4083656Y-2515661D01*
X3894219Y-2577213D01*
X3716733Y-2667647D01*
X3678286Y-2695581D01*
X3555582Y-2784731D01*
X3555580Y-2784733D01*
X3555579Y-2784733D01*
X3414733Y-2925579D01*
X3414733Y-2925580D01*
X3414731Y-2925582D01*
X3382773Y-2969568D01*
X3297647Y-3086733D01*
X3220485Y-3238172D01*
X3172510Y-3288968D01*
X3104689Y-3305763D01*
X3038554Y-3283225D01*
X2999515Y-3238172D01*
X2945015Y-3131211D01*
X2922353Y-3086734D01*
X2805269Y-2925582D01*
X2664418Y-2784731D01*
X2503266Y-2667647D01*
X2424379Y-2627452D01*
X2325780Y-2577213D01*
X2136342Y-2515661D01*
X1988782Y-2492290D01*
X1939597Y-2484500D01*
X1740403Y-2484500D01*
X1674822Y-2494887D01*
X1543659Y-2515661D01*
X1543656Y-2515661D01*
X1354219Y-2577213D01*
X1176733Y-2667647D01*
X1138286Y-2695581D01*
X1015582Y-2784731D01*
X1015580Y-2784733D01*
X1015579Y-2784733D01*
X874733Y-2925579D01*
X874733Y-2925580D01*
X874731Y-2925582D01*
X842773Y-2969568D01*
X757645Y-3086736D01*
X734984Y-3131211D01*
X687010Y-3182006D01*
X619188Y-3198801D01*
X553054Y-3176263D01*
X509603Y-3121548D01*
X500500Y-3074915D01*
X500500Y-624500D01*
X520185Y-557461D01*
X572989Y-511706D01*
X624500Y-500500D01*
X85875500Y-500500D01*
X85942539Y-520185D01*
G37*
%TD.AperFunction*%
%TA.AperFunction,Conductor*%
G36*
X50697941Y-22410185D02*
G01*
X50743696Y-22462989D01*
X50753640Y-22532147D01*
X50724615Y-22595703D01*
X50718583Y-22602181D01*
X45437022Y-27883741D01*
X45375699Y-27917226D01*
X45320404Y-27916636D01*
X45316344Y-27915661D01*
X45152387Y-27889693D01*
X45119597Y-27884500D01*
X44920403Y-27884500D01*
X44879023Y-27891054D01*
X44723659Y-27915661D01*
X44723656Y-27915661D01*
X44534219Y-27977213D01*
X44356733Y-28067647D01*
X44318286Y-28095581D01*
X44195582Y-28184731D01*
X44195580Y-28184733D01*
X44195579Y-28184733D01*
X44054733Y-28325579D01*
X44054733Y-28325580D01*
X44054731Y-28325582D01*
X44004447Y-28394790D01*
X43937647Y-28486733D01*
X43860485Y-28638172D01*
X43812510Y-28688968D01*
X43744689Y-28705763D01*
X43678554Y-28683225D01*
X43639515Y-28638172D01*
X43585015Y-28531211D01*
X43562353Y-28486734D01*
X43445269Y-28325582D01*
X43304418Y-28184731D01*
X43143266Y-28067647D01*
X43031427Y-28010662D01*
X42965780Y-27977213D01*
X42776342Y-27915661D01*
X42620977Y-27891054D01*
X42579597Y-27884500D01*
X42380403Y-27884500D01*
X42339023Y-27891054D01*
X42183659Y-27915661D01*
X42183656Y-27915661D01*
X41994219Y-27977213D01*
X41816733Y-28067647D01*
X41778286Y-28095581D01*
X41655582Y-28184731D01*
X41655580Y-28184733D01*
X41655579Y-28184733D01*
X41514733Y-28325579D01*
X41514733Y-28325580D01*
X41514731Y-28325582D01*
X41464447Y-28394790D01*
X41397647Y-28486733D01*
X41320485Y-28638172D01*
X41272510Y-28688968D01*
X41204689Y-28705763D01*
X41138554Y-28683225D01*
X41099515Y-28638172D01*
X41045015Y-28531211D01*
X41022353Y-28486734D01*
X40905269Y-28325582D01*
X40764418Y-28184731D01*
X40603266Y-28067647D01*
X40491427Y-28010662D01*
X40425780Y-27977213D01*
X40236342Y-27915661D01*
X40080977Y-27891054D01*
X40039597Y-27884500D01*
X39840403Y-27884500D01*
X39799023Y-27891054D01*
X39643659Y-27915661D01*
X39643656Y-27915661D01*
X39454219Y-27977213D01*
X39276733Y-28067647D01*
X39238286Y-28095581D01*
X39115582Y-28184731D01*
X39115580Y-28184733D01*
X39115579Y-28184733D01*
X38974733Y-28325579D01*
X38974733Y-28325580D01*
X38974731Y-28325582D01*
X38924447Y-28394790D01*
X38857647Y-28486733D01*
X38780485Y-28638172D01*
X38732510Y-28688968D01*
X38664689Y-28705763D01*
X38598554Y-28683225D01*
X38559515Y-28638172D01*
X38505015Y-28531211D01*
X38482353Y-28486734D01*
X38365269Y-28325582D01*
X38224418Y-28184731D01*
X38063266Y-28067647D01*
X37951427Y-28010662D01*
X37885780Y-27977213D01*
X37696342Y-27915661D01*
X37540977Y-27891054D01*
X37499597Y-27884500D01*
X37300403Y-27884500D01*
X37259023Y-27891054D01*
X37103659Y-27915661D01*
X37103656Y-27915661D01*
X36914219Y-27977213D01*
X36736733Y-28067647D01*
X36698286Y-28095581D01*
X36575582Y-28184731D01*
X36575580Y-28184733D01*
X36575579Y-28184733D01*
X36434733Y-28325579D01*
X36434733Y-28325580D01*
X36434731Y-28325582D01*
X36384447Y-28394790D01*
X36317647Y-28486733D01*
X36240485Y-28638172D01*
X36192510Y-28688968D01*
X36124689Y-28705763D01*
X36058554Y-28683225D01*
X36019515Y-28638172D01*
X35965015Y-28531211D01*
X35942353Y-28486734D01*
X35825269Y-28325582D01*
X35684418Y-28184731D01*
X35523266Y-28067647D01*
X35411427Y-28010662D01*
X35345780Y-27977213D01*
X35156342Y-27915661D01*
X35000977Y-27891054D01*
X34959597Y-27884500D01*
X34760403Y-27884500D01*
X34719023Y-27891054D01*
X34563659Y-27915661D01*
X34563656Y-27915661D01*
X34374219Y-27977213D01*
X34196733Y-28067647D01*
X34158286Y-28095581D01*
X34035582Y-28184731D01*
X34035580Y-28184733D01*
X34035579Y-28184733D01*
X33894733Y-28325579D01*
X33894733Y-28325580D01*
X33894731Y-28325582D01*
X33859555Y-28373997D01*
X33777645Y-28486735D01*
X33700203Y-28638723D01*
X33652229Y-28689518D01*
X33584408Y-28706313D01*
X33518273Y-28683775D01*
X33479234Y-28638722D01*
X33401924Y-28486994D01*
X33374417Y-28449135D01*
X33374417Y-28449134D01*
X32811128Y-29012424D01*
X32795245Y-28953147D01*
X32728102Y-28836853D01*
X32633147Y-28741898D01*
X32516853Y-28674755D01*
X32457574Y-28658871D01*
X33020864Y-28095581D01*
X33020863Y-28095580D01*
X32983008Y-28068077D01*
X32805594Y-27977679D01*
X32616222Y-27916147D01*
X32419563Y-27885000D01*
X32220437Y-27885000D01*
X32023777Y-27916147D01*
X31834405Y-27977679D01*
X31656990Y-28068077D01*
X31619135Y-28095580D01*
X31619135Y-28095581D01*
X32182425Y-28658871D01*
X32123147Y-28674755D01*
X32006853Y-28741898D01*
X31911898Y-28836853D01*
X31844755Y-28953147D01*
X31828871Y-29012425D01*
X31265581Y-28449135D01*
X31265580Y-28449135D01*
X31238075Y-28486993D01*
X31160764Y-28638723D01*
X31112790Y-28689518D01*
X31044969Y-28706313D01*
X30978834Y-28683775D01*
X30939795Y-28638722D01*
X30885015Y-28531211D01*
X30862353Y-28486734D01*
X30745269Y-28325582D01*
X30604418Y-28184731D01*
X30443266Y-28067647D01*
X30331427Y-28010662D01*
X30265780Y-27977213D01*
X30076342Y-27915661D01*
X29920977Y-27891054D01*
X29879597Y-27884500D01*
X29684096Y-27884500D01*
X29617057Y-27864815D01*
X29571302Y-27812011D01*
X29561358Y-27742853D01*
X29590383Y-27679297D01*
X29596415Y-27672819D01*
X32104049Y-25165186D01*
X34842416Y-22426819D01*
X34903739Y-22393334D01*
X34930097Y-22390500D01*
X50630902Y-22390500D01*
X50697941Y-22410185D01*
G37*
%TD.AperFunction*%
%TA.AperFunction,Conductor*%
G36*
X68477227Y-6875389D02*
G01*
X68489808Y-6874850D01*
X68509673Y-6886445D01*
X68531445Y-6893865D01*
X68540719Y-6904568D01*
X68550150Y-6910073D01*
X68570485Y-6938919D01*
X68617715Y-7031614D01*
X68738028Y-7197213D01*
X68738034Y-7197219D01*
X68882781Y-7341966D01*
X69048390Y-7462287D01*
X69061793Y-7469116D01*
X69112589Y-7517088D01*
X69129500Y-7579601D01*
X69129500Y-17879903D01*
X69109815Y-17946942D01*
X69093181Y-17967584D01*
X68002181Y-19058584D01*
X67940858Y-19092069D01*
X67871166Y-19087085D01*
X67815233Y-19045213D01*
X67790816Y-18979749D01*
X67790500Y-18970903D01*
X67790500Y-7579601D01*
X67810185Y-7512562D01*
X67858206Y-7469116D01*
X67871610Y-7462287D01*
X68037219Y-7341966D01*
X68181966Y-7197219D01*
X68181968Y-7197215D01*
X68181971Y-7197213D01*
X68302284Y-7031614D01*
X68302286Y-7031611D01*
X68302287Y-7031610D01*
X68349516Y-6938917D01*
X68358161Y-6929764D01*
X68362896Y-6918099D01*
X68381693Y-6904847D01*
X68397489Y-6888123D01*
X68409711Y-6885096D01*
X68420002Y-6877842D01*
X68442982Y-6876856D01*
X68465310Y-6871328D01*
X68477227Y-6875389D01*
G37*
%TD.AperFunction*%
%TA.AperFunction,Conductor*%
G36*
X71071445Y-6893865D02*
G01*
X71110485Y-6938919D01*
X71157715Y-7031614D01*
X71278028Y-7197213D01*
X71278034Y-7197219D01*
X71422781Y-7341966D01*
X71588390Y-7462287D01*
X71591792Y-7464020D01*
X71642589Y-7511993D01*
X71659500Y-7574506D01*
X71659500Y-16529902D01*
X71639815Y-16596941D01*
X71623181Y-16617583D01*
X70542181Y-17698583D01*
X70480858Y-17732068D01*
X70411166Y-17727084D01*
X70355233Y-17685212D01*
X70330816Y-17619748D01*
X70330500Y-17610902D01*
X70330500Y-7579601D01*
X70350185Y-7512562D01*
X70398206Y-7469116D01*
X70411610Y-7462287D01*
X70577219Y-7341966D01*
X70721966Y-7197219D01*
X70721968Y-7197215D01*
X70721971Y-7197213D01*
X70842284Y-7031614D01*
X70842286Y-7031611D01*
X70842287Y-7031610D01*
X70889516Y-6938917D01*
X70937489Y-6888123D01*
X71005310Y-6871328D01*
X71071445Y-6893865D01*
G37*
%TD.AperFunction*%
%TD*%
M02*
